M48
INCH,TZ
T01C.006
T02C.008
T03C.01
T04C.012
T05C.02
T06C.04
T07C.045
T08C.063
T09C.05
T10C.105
T11C.16
;LEADER: 12 
;HEADER: 
;CODE  : ASCII 
;FILE  : 08_037516b-1-10.drl for board 08_037516b-1-14.brd ... layers TOP and BOTTOM
;T01 Holesize 1. = 6.000000 Tolerance = +3.000000/-3.000000 PLATED MILS Quantity = 140
;T02 Holesize 2. = 8.000000 Tolerance = +3.000000/-3.000000 PLATED MILS Quantity = 218
;T03 Holesize 3. = 10.000000 Tolerance = +3.000000/-3.000000 PLATED MILS Quantity = 484
;T04 Holesize 4. = 12.000000 Tolerance = +3.000000/-3.000000 PLATED MILS Quantity = 19
;T05 Holesize 5. = 20.000000 Tolerance = +3.000000/-3.000000 PLATED MILS Quantity = 90
;T06 Holesize 6. = 40.000000 Tolerance = +0.000000/-0.000000 PLATED MILS Quantity = 3
;T07 Holesize 7. = 45.000000 Tolerance = +3.000000/-3.000000 PLATED MILS Quantity = 20
;T08 Holesize 8. = 63.000000 Tolerance = +3.000000/-3.000000 PLATED MILS Quantity = 5
;T09 Holesize 9. = 50.000000 Tolerance = +2.000000/-2.000000 NON_PLATED MILS Quantity = 2
;T10 Holesize 10. = 105.000000 Tolerance = +0.000000/-0.000000 NON_PLATED MILS Quantity = 2
;T11 Holesize 11. = 160.000000 Tolerance = +2.000000/-2.000000 NON_PLATED MILS Quantity = 2
%
G90
T01
X11850Y-5550
X21299Y-33898
R02X3150
X30749Y-18149
X2402Y-21299
X2402Y-24449
X-748Y-24449
X5551Y-2402
X-748Y-21299
X-748Y-18150
X2402Y-2402
X2402Y-5551
X27251Y-30374
X24101Y-30374
X30748Y3898
X20951Y-30374
X-748Y-15000
X2401Y-15000
X30748Y-30748
X30748Y-27598
X10276Y4550
X24448Y-8702
X18149Y-18150
X21299Y-18150
X18150Y-24449
X18149Y-21299
X21299Y-24449
X21299Y-21299
X24449Y-24449
X24449Y-21299
X27598Y-24449
X27599Y-21298
X30747Y-21300
X33897Y-18150
X18149Y-14999
X18150Y-11850
X18149Y-8700
X21298Y-8700
X18149Y-5550
X21300Y-5551
X18150Y-2401
X24450Y-5552
X24449Y-2402
X27599Y-5552
X27598Y-2402
X30748Y-5551
X30747Y-2402
X24449Y-11850
X30747Y-11850
X2402Y-27598
X2401Y-30748
X8701Y748
X21299Y-11850
X15000Y3898
X18149Y3898
X21298Y-14999
X5551Y-30748
X8701Y-30748
X14652Y-30374
X17802Y-30374
X24449Y-15000
X27599Y-11851
X5551Y-11850
X5551Y-15000
X8701Y-18150
X11850Y-18150
X11850Y-21299
X8701Y-21299
X5551Y-21299
X5551Y-24449
X8701Y-24449
X11850Y-24449
X11850Y-27598
X8701Y-27598
X11850Y-8701
X8701Y-11851
X33898Y3898
X34550Y-10226
X5551Y-8701
X11850Y-2402
X11850Y748
X5551Y-5551
X8701Y-5551
X11850Y3898
X27598Y-8701
X33898Y-2402
X34550Y-13425
X33898Y-27598
X33898Y-30748
X33898Y-24449
X27599Y-27599
X24450Y-27599
X21300Y-27599
X18150Y-27599
X-746Y-2402
X-748Y-11850
X20925Y400
R02X3150
X30748Y748
X33898Y748
X2401Y-8701
X-3898Y-18150
X15001Y-27599
X13425Y-34550
X15298Y374
X15000Y-11851
X2401Y-11851
X15000Y-18150
X11850Y-11851
X-3898Y-27598
X13750Y-36250
X22250Y-36500
X2500Y10000
X14000Y7000
X38500Y-32500
X11850Y-30748
X24750Y-37250
X-4000Y-22874
X7126Y-34550
X27599Y-18149
X827Y-34550
X-2323Y-34550
X20299Y7000
X28299Y7000
X27224Y400
X7126Y4550
X2402Y748
X-3750Y-2000
X5551Y-27598
X-748Y-27598
X2401Y-18150
X24449Y-18150
X-748Y-30748
X10276Y-34550
X8701Y-15000
X11850Y-15000
X2402Y3898
X3976Y-34550
T02
X154750Y108500
X89464Y95576
X149272Y106250
X103500Y118750
X135250Y118500
X15500Y26000
X1500Y26000
X176500Y84250
X180700Y84800
X174000Y81000
X50750Y-60750
X124000Y-61500
X179250Y116250
X121500Y-60500
X175780Y116280
X-22301Y-22301
X185250Y-36892
X185250Y-33772
X152750Y101530
X126250Y-60000
X169250Y104000
X130750Y-61750
X173220Y103970
X166250Y75250
X223005Y94915
X222912Y90178
X166250Y72500
X166250Y70000
X166250Y67250
X169250Y75250
X169250Y72500
X169250Y70000
X169250Y67250
X170800Y130250
X143050Y-59000
X114500Y-71000
X182500Y133700
X177750Y133700
X110250Y66750
X123500Y69250
X127250Y62750
X162250Y-84500
X133000Y127250
X106500Y127000
X78000Y92700
X135750Y127250
X133000Y121750
X135750Y121750
X134300Y131300
X122450Y132500
X125725Y129275
X-21521Y-7872
X-21521Y-9604
X3750Y55077
X3750Y43677
X8750Y54977
X8728Y42877
X154250Y68000
X110050Y-87500
R02X-10000
X137500Y-78000
X148000Y-61250
X139950Y-87500
X126750Y-91000
X120050Y-87500
X137719Y-71531
X85225Y118725
X78500Y100275
X71000Y116750
X89500Y129500
X182500Y-32750
X182500Y-37250
X196750Y-52500
X202750Y-57500
X195250Y-65000
X213250Y-97500
X210000Y-41250
X213250Y-17500
X213250Y-12250
X210500Y-10000
X193250Y-23000
X195750Y-3250
X209500Y5000
X207000Y20000
X196500Y25000
X213250Y72500
X72500Y32750
X50250Y34250
X63000Y34750
X52250Y48750
X57750Y57250
X49500Y57000
X54250Y63250
X52250Y67500
X45750Y63250
X41750Y74000
X49500Y74000
X40250Y79750
X38750Y86750
X45500Y90250
X37750Y93750
X45000Y97250
X52500Y38750
X47375Y81565
X62500Y49250
X44250Y67500
X215250Y-45000
X215250Y-60250
X216500Y-27750
X228250Y-47500
X222750Y-52500
X228500Y-25500
X228250Y-34500
X215250Y15000
X232000Y65750
X81750Y86250
X98250Y125000
X76250Y116750
X71000Y102250
X76250Y102250
X85250Y98500
X109250Y123000
X126500Y95750
X122500Y74500
X104250Y65250
R03X-4250
X75500Y78250
X81750Y97000
X81750Y122000
X121250Y107500
X121250Y98000
X125750Y102750
X125750Y112000
X121250Y116750
X141750Y120000
X142780Y111500
X128250Y113500
X132750Y113500
X112500Y129250
X116000Y132500
X136700Y131300
X173200Y130250
X144000Y123000
X158750Y95625
X164250Y95625
X176500Y104000
X180000Y104000
X146750Y121000
X150025Y117775
X153250Y121050
X167550Y61550
X162450Y61550
X162450Y38050
X167550Y38050
X175000Y107000
X183000Y106000
X180000Y75000
X125000Y62000
X120000Y69000
X111000Y64000
X47750Y94250
X48250Y86500
X50250Y78250
X52500Y71750
X55750Y66500
X58000Y61250
X45750Y-56501
X54500Y-55251
X38000Y-44500
X46500Y-66000
X51000Y-67500
X55250Y-65750
X57500Y-60750
X44000Y-60750
X132450Y-82500
X152750Y-66750
X145875Y-76250
X147975Y-77750
X148500Y80250
X156750Y77750
X152000Y76500
X152250Y72750
X181250Y88000
X-11250Y24000
X-13000Y37000
X-7400Y27500
X-21521Y-2671
X-17960Y-27346
X-16903Y-18571
X-24048Y-28821
X-28295Y-25354
X-28886Y-20795
X-26272Y-16837
X65750Y30000
X73000Y18000
X65500Y7250
X51000Y4750
X45500Y-500
X65000Y1500
X74750Y2000
X55750Y-13000
X66750Y-21000
X76000Y-23500
X76000Y-13750
X92500Y-17000
X97250Y-24750
X104500Y-12250
X105250Y-4750
X117000Y-7000
X128750Y-7000
X113750Y3750
X104000Y13250
X57000Y28250
X39500Y28250
X68750Y12000
T03
X157500Y89000
X223000Y35000
X195745Y52500
X125000Y32500
X39299Y57000
X39299Y53000
X32874Y13275
X30624Y13275
X140000Y-102000
X30000Y-61000
X30000Y-65750
X61250Y-61000
X61250Y-65750
X-36750Y-45000
X-33250Y-45000
X-1550Y38177
X-1550Y42177
X-40750Y59500
X-36750Y59500
X64000Y83050
X64000Y79050
X60500Y79050
X60500Y83050
X60500Y75300
X64000Y75300
X120000Y-102000
X33750Y-51500
X33750Y-48000
X-37250Y6500
X-37250Y17000
X-40750Y17000
X-40750Y6500
X-36750Y-33500
X-33250Y-33500
X58000Y91250
X54500Y91250
X54500Y99000
X54500Y95000
X58000Y95000
X58000Y99000
X90000Y-102000
X215745Y47500
X215745Y52500
X217827Y-30000
X202827Y-5000
X197827Y-5000
X229909Y-12500
X229909Y-7500
X229909Y-32500
X229909Y-27500
X215745Y-17500
X215745Y-12500
X209909Y-27500
X209909Y-22500
X195745Y-22500
X195745Y-17500
X227827Y50000
X222827Y50000
X222827Y-60082
X222827Y-50000
X227827Y-50000
X217827Y-45000
X222827Y-45000
X197827Y-50000
X202827Y-50000
X202827Y-60000
X202827Y-55000
X197827Y-65000
X202827Y-65000
X215745Y-97500
X215745Y72500
X229909Y67500
X202827Y-40000
X202827Y-70000
X-70500Y-3000
X-70500Y6750
X-70500Y16250
X215745Y77500
R02Y10000
X229909Y92500
X220327Y101000
X100000Y-102000
X222827Y55000
X110000Y-102000
X229909Y82500
X229909Y72500
X222827Y-30000
X217827Y-60082
X207827Y-40000
X202827Y-75000
X222827Y15000
X217827Y15000
X202827Y25000
X202827Y20000
X195745Y27500
X195745Y22500
X209909Y7500
X209909Y2500
X209909Y37500
X-46750Y10000
X209909Y32500
X195745Y42500
X195745Y12500
X79250Y-3000
X130000Y-102000
X223000Y30000
X209909Y-7500
X215745Y27500
X229909Y32582
X229909Y27500
X215745Y32500
X-44046Y-8954
X1660Y87320
X9724Y-43275
X46299Y12487
X24474Y-43275
X195745Y-92500
X209909Y-97500
X195745Y-87500
X197087Y-69260
X209909Y-82500
X209909Y-77500
X195745Y-57500
X209909Y-62500
X209909Y-47500
X195745Y-42500
X195745Y-27500
X209909Y-32500
X195745Y-12500
X209909Y-17500
X195745Y2500
X195745Y17500
X209909Y-2500
X209909Y12500
X195745Y32500
X209909Y27500
X195745Y47500
X209909Y42500
X209909Y57500
X195745Y62500
X195745Y77500
X209909Y72500
X192568Y-76802
X62311Y20519
X-9750Y-15500
X-72000Y103000
R02X-4750
X-62500Y103000
X-67250Y103000
X-72000Y124500
X-76750Y124500
X-62500Y124500
X-67250Y124500
X-81500Y124500
X-82000Y38053
X-81500Y34303
R04X4750
X-82000Y52053
X-81500Y55803
R04X4750
X-82000Y-48803
X-81500Y-52553
R04X4750
X-82000Y-34803
X-81500Y-31053
R04X4750
X-82000Y120750
X-82000Y106750
X-7250Y3250
X-13758Y-41424
X-8989Y-38413
X-6336Y-32317
X1122Y-44221
X3129Y-37624
X106750Y-36250
X91250Y-61750
X94000Y-61750
X104500Y-64500
X82000Y-70500
X101750Y-61750
X191000Y57750
X87750Y-16000
X86250Y-23500
X86250Y-35250
X84500Y-12500
X47000Y-18000
X51750Y-2250
X56000Y-20750
X62250Y-31750
X50750Y-36250
X84500Y-4750
X84500Y2250
X115500Y-36250
X122750Y-36000
X134500Y-36000
X205327Y101000
X209909Y87500
X195745Y92500
X41000Y124750
X32250Y116000
X49500Y116000
X65250Y-11500
X67250Y-28500
X90750Y-50750
X93000Y13750
X74500Y12250
X79500Y18000
X128250Y20750
X-78250Y117625
X-78250Y109875
X-78250Y48928
X-78250Y41178
X-78250Y-37928
X-78250Y-45678
X9300Y-49328
X1550Y-49250
X48750Y-45750
X215745Y-92500
X215745Y-87500
X229909Y-97500
X215745Y-67500
X215745Y-72500
X229909Y-62500
X229909Y-77500
X229909Y-82500
X215745Y-52500
X229909Y-42500
X229909Y-57500
X215745Y-37500
X215745Y-22500
X229909Y-22500
X229909Y-37500
X215745Y-7500
X229909Y-2500
X229909Y-17500
X215745Y7500
X215745Y22500
X229909Y22500
X229909Y17500
X229909Y2500
X215745Y37500
X229909Y62500
X229909Y57500
X229909Y77500
R02Y10000
X236750Y100250
X236750Y116000
X215745Y82500
X215745Y92500
X222500Y45500
X229909Y37500
X229909Y42500
X241500Y40500
X241500Y60500
X-21543Y-15782
X-14500Y-14500
X-8739Y7948
X1516Y13577
X1500Y30000
X-13500Y9710
X-17500Y33928
X15532Y30202
X33024Y17901
X36599Y13025
X15799Y14500
X17549Y13275
X-9759Y131098
X-2125Y130750
X-16750Y124500
X-16750Y119750
X4750Y124500
X4750Y115000
X4750Y119750
X-16750Y129250
X-16750Y134000
X-13000Y134500
X1000Y134500
X4750Y129250
X4750Y134000
X-13250Y-17500
X-8750Y-1750
X-11424Y4309
X-25250Y1551
X-14250Y-1750
X-13000Y-134500
X-9875Y-130750
X-2241Y-131098
X1000Y-134500
X15250Y87000
X13250Y92000
X11000Y96500
X8250Y100750
X4750Y105000
X1000Y109250
X-1250Y113750
X-2250Y118500
X-2250Y125000
X-9750Y125250
X-9750Y118750
X-9000Y113750
X-7500Y109000
X-5250Y105000
X-1500Y100750
X2000Y96500
X5000Y92000
X7250Y86750
X9725Y64584
X9675Y58934
X17424Y58849
X17574Y75752
X-2018Y90822
X-5863Y94139
X-9867Y97263
X-14018Y100187
X-18309Y102904
X-22727Y105407
X-27263Y107691
X-31906Y109749
X-36644Y111576
X-41466Y113170
X-46360Y114524
X-51315Y115637
X-56319Y116505
X-61359Y117127
X-66423Y117500
X-71500Y117625
X-71500Y109875
X-66491Y109744
X-61495Y109351
X-56527Y108697
X-51600Y107783
X-46727Y106614
X-41923Y105190
X-37199Y103518
X-32570Y101600
X-28047Y99443
X-23643Y97052
X-19370Y94434
X-15241Y91595
X-11265Y88545
X-7455Y85290
X-3820Y81841
X512Y77508
X4845Y73176
X9177Y68843
X20127Y55402
X22288Y50186
X23606Y44695
X24049Y39066
R02Y-5454
X31799Y22704
R03Y5454
X31425Y44774
X30309Y50385
X28470Y55801
X25940Y60932
X22762Y65688
X18990Y69989
X9250Y80000
X5992Y82987
X-22504Y36193
X-26780Y39943
X-31509Y43103
X-36610Y45618
X-41996Y47447
X-47575Y48556
X-53250Y48928
R04X-5000
X-73250Y41178
R04X5000
X-47661Y40738
X-42209Y39429
X-37029Y37283
X-32248Y34353
X-27985Y30712
X-21445Y24172
X-72768Y-45678
X-67285Y-45678
X-61803Y-45678
X-56263Y-44801
X-51265Y-42254
X-47299Y-38288
X-44752Y-33290
X-43875Y-27750
X-42988Y-21649
X-40413Y-16596
X-36404Y-12587
X-31351Y-10012
X-30798Y-1872
X-35652Y-3345
X-40125Y-5736
X-47264Y-12875
X-49655Y-17348
X-51128Y-22202
X-51625Y-27750
X-52989Y-32839
X-56714Y-36564
X-61803Y-37928
X-67285Y-37928
X-72768Y-37928
X2653Y-88040
X4404Y-82669
X5892Y-77220
X7115Y-71706
X8069Y-66138
X8752Y-60531
X9163Y-54897
X9300Y-49250
X1422Y-54521
X1039Y-59780
X402Y-65015
X-488Y-70212
X-1630Y-75360
X-3019Y-80447
X-4653Y-85460
X-6275Y-90500
X-7613Y-95623
X-8662Y-100813
X-9419Y-106054
X-9881Y-111328
X-10047Y-116621
X-9875Y-123800
X-2125Y-123759
X-2291Y-115880
X-2035Y-110206
X-1409Y-104562
X-415Y-98970
X942Y-93456
X19250Y50250
X18250Y44750
X16750Y81500
X195745Y7500
X209909Y-12500
X195745Y87500
X195745Y82500
X195745Y72500
X195745Y67500
X195745Y57500
X195745Y-97500
X209909Y82500
X209909Y77500
X209909Y67500
X209909Y62500
X209909Y52500
X209909Y47500
X209909Y-87500
X209909Y-92500
X215745Y-77500
X215745Y-82500
X215745Y67500
X215745Y62500
X215745Y42500
X215745Y2500
X215745Y-2500
X229909Y-67500
X229909Y-72500
X229909Y-87500
X229909Y12500
X229909Y7500
X229909Y-92500
T04
X96500Y86750
X96500Y81250
X91250Y86750
X94000Y84000
X91250Y81250
X93250Y115500
X96000Y112750
X98750Y115500
X93250Y110250
X98750Y110250
X144250Y97750
X138750Y97750
X144250Y103000
X141500Y100250
X138750Y103000
X129750Y-77000
X122750Y-77000
X129750Y-70000
X122750Y-70000
T05
X-75750Y128250
R02X7000
X-79250Y130250
R02X7000
X-75750Y132250
R02X7000
X-75750Y95250
R02X7000
X-79250Y97250
R02X7000
X-75750Y99250
R02X7000
X-75750Y59553
R02X7000
X-79250Y61553
R02X7000
X-75750Y63553
R02X7000
X-75750Y26553
R02X7000
X-79250Y28553
R02X7000
X-75750Y30553
R02X7000
X8500Y-114250
R02Y-7000
X10500Y-117750
R02Y-7000
X12500Y-114250
R02Y-7000
X-24500Y-114250
R02Y-7000
X-22500Y-117750
R02Y-7000
X-20500Y-114250
R02Y-7000
X-75750Y-27303
R02X7000
X-79250Y-25303
R02X7000
X-75750Y-23303
R02X7000
X-75750Y-60303
R02X7000
X-79250Y-58303
R02X7000
X-75750Y-56303
R02X7000
X-20500Y114250
R02Y7000
X-22500Y117750
R02Y7000
X-24500Y114250
R02Y7000
X12500Y114250
R02Y7000
X10500Y117750
R02Y7000
X8500Y114250
R02Y7000
T06
X154000Y-102000
R02X10000
T07
X80000Y43000
X80000Y53000
X90000Y43000
X90000Y53000
X100000Y43000
X100000Y53000
X110000Y43000
X110000Y53000
X120000Y43000
X120000Y53000
X130000Y43000
X130000Y53000
X140000Y43000
X140000Y53000
X150000Y43000
X150000Y53000
X160000Y43000
X160000Y53000
X170000Y43000
X170000Y53000
T08
X41000Y116000
X51000Y126000
X31000Y126000
X31000Y106000
X51000Y106000
T09
X212827Y-107000
X200827Y107000
T10
X204961Y-124052
X204961Y123979
T11
X-40000Y-87000
X-40000Y87000
M30
