G04 ================== begin FILE IDENTIFICATION RECORD ==================*
G04 Layout Name:  08_037516b-1-14.brd*
G04 Film Name:    l10_secondary*
G04 File Format:  Gerber RS274X*
G04 File Origin:  Cadence Allegro 16.5-S031*
G04 Origin Date:  Tue Jan 14 09:43:35 2014*
G04 *
G04 Layer:  VIA CLASS/BOTTOM*
G04 Layer:  PIN/BOTTOM*
G04 Layer:  ETCH/BOTTOM*
G04 Layer:  BOARD GEOMETRY/TOOLING_CORNERS*
G04 Layer:  BOARD GEOMETRY/LYR_BOTTOM*
G04 Layer:  BOARD GEOMETRY/ROOT_NUMBER*
G04 *
G04 Offset:    (0.00 0.00)*
G04 Mirror:    No*
G04 Mode:      Positive*
G04 Rotation:  0*
G04 FullContactRelief:  No*
G04 UndefLineWidth:     8.00*
G04 ================== end FILE IDENTIFICATION RECORD ====================*
%FSLAX55Y55*MOIN*%
%IR0*IPPOS*OFA0.00000B0.00000*MIA0B0*SFA1.00000B1.00000*%
%AMMACRO22*
21,1,.014,.014,0.0,0.0,120.*%
%ADD22MACRO22*%
%AMMACRO33*
4,1,36,0.0,-.02,
.003473,-.019696,
.00684,-.018794,
.01,-.017321,
.012856,-.015321,
.015321,-.012856,
.017321,-.01,
.018794,-.00684,
.019696,-.003473,
.02,0.0,
.019696,.003473,
.018794,.00684,
.017321,.01,
.015321,.012856,
.012856,.015321,
.01,.017321,
.00684,.018794,
.003473,.019696,
0.0,.02,
-.003473,.019696,
-.00684,.018794,
-.01,.017321,
-.012856,.015321,
-.015321,.012856,
-.017321,.01,
-.018794,.00684,
-.019696,.003473,
-.02,0.0,
-.019696,-.003473,
-.018794,-.00684,
-.017321,-.01,
-.015321,-.012856,
-.012856,-.015321,
-.01,-.017321,
-.00684,-.018794,
-.003473,-.019696,
0.0,-.02,
270.*
%
%ADD33MACRO33*%
%ADD10R,.1X.017*%
%ADD16R,.06X.25*%
%ADD11R,.25X.06*%
%ADD12C,.02*%
%ADD13C,.012*%
%ADD20C,.014*%
%ADD17C,.016*%
%ADD30C,.028*%
%ADD29C,.065*%
%ADD14C,.075*%
%ADD28R,.065X.065*%
%ADD32R,.03X.014*%
%AMMACRO19*
21,1,.03,.065,0.0,0.0,30.*%
%ADD19MACRO19*%
%AMMACRO15*
4,1,36,0.0,-.02,
-.003473,-.019696,
-.00684,-.018794,
-.01,-.017321,
-.012856,-.015321,
-.015321,-.012856,
-.017321,-.01,
-.018794,-.00684,
-.019696,-.003473,
-.02,0.0,
-.019696,.003473,
-.018794,.00684,
-.017321,.01,
-.015321,.012856,
-.012856,.015321,
-.01,.017321,
-.00684,.018794,
-.003473,.019696,
0.0,.02,
.003473,.019696,
.00684,.018794,
.01,.017321,
.012856,.015321,
.015321,.012856,
.017321,.01,
.018794,.00684,
.019696,.003473,
.02,0.0,
.019696,-.003473,
.018794,-.00684,
.017321,-.01,
.015321,-.012856,
.012856,-.015321,
.01,-.017321,
.00684,-.018794,
.003473,-.019696,
0.0,-.02,
0.0*
%
%ADD15MACRO15*%
%ADD34R,.014X.03*%
%ADD25R,.014X.014*%
%ADD27C,.11*%
%ADD21R,.014X.014*%
%ADD31R,.038X.03*%
%ADD24R,.039X.014*%
%ADD18R,.014X.039*%
%ADD23R,.025X.0275*%
%ADD26R,.0385X.035*%
%ADD35C,.01*%
%ADD36C,.017*%
%ADD37C,.0155*%
%ADD38C,.004*%
%ADD39C,.008*%
%ADD40C,.007*%
%ADD41C,.009*%
%ADD45R,.07004X.10404*%
%ADD44R,.05404X.12004*%
%ADD42R,.10404X.07004*%
%ADD49C,.05004*%
%ADD51C,.08104*%
%ADD50C,.04604*%
%ADD46R,.10654X.07004*%
%ADD47R,.05402X.12086*%
%ADD53C,.05804*%
%ADD52R,.10504X.10504*%
%ADD55C,.14004*%
%ADD54C,.10504*%
%ADD48C,.25004*%
%ADD43R,.07004X.08654*%
G75*
%LPD*%
G75*
G36*
G01X-29750Y-135750D02*
X-32000Y-133500D01*
X-80698Y-133302D01*
X-83307Y-130693D01*
Y-47725D01*
X-80868Y-47756D01*
X-80038Y-46206D01*
X-80059Y-44754D01*
X-71148D01*
Y-44680D01*
X-61803D01*
G03X-44874Y-27750I0J16929D01*
G01Y-27250D01*
G02X-28520Y-8328I19124J0D01*
G02X-28062Y-8724I58J-396D01*
G01X-28060Y-17704D01*
X-19833D01*
Y-17414D01*
X-15746D01*
X-15136Y-14996D01*
G02X-14744Y-14625I488J-123D01*
G01X-9357Y-14666D01*
X-8473Y-12852D01*
G02X-8330Y-12728I216J-105D01*
G01X-5676Y-11890D01*
X-5602Y-11802D01*
X-5250D01*
G02X-5109Y-12143I0J-200D01*
G01X-12390Y-19424D01*
X-21917D01*
X-21930Y-19423D01*
G03Y-25179I-371J-2878D01*
G01X-21917Y-25178D01*
X-10008D01*
X-4968Y-20138D01*
G02X-4285Y-20421I283J-283D01*
G01Y-35202D01*
X1557D01*
X1602Y-35339D01*
G03X6350I2374J789D01*
G01X6395Y-35202D01*
X15916D01*
X17114Y-36400D01*
X27599D01*
G03X29734Y-35202I0J2501D01*
G01X31334D01*
G03X31633Y-35671I2564J1305D01*
G01X45205Y-53010D01*
G02X47869Y-60404I-9889J-7740D01*
G03X53622Y-60332I2881J-346D01*
G03X49735Y-49464I-18306J-418D01*
G01X36163Y-32125D01*
G03X34889Y-31198I-2265J-1773D01*
G03X34785Y-30985I-2568J-1122D01*
G01Y-20837D01*
G03X34882Y-20590I-2463J1110D01*
G01X34897Y-20546D01*
X35595Y-19848D01*
G03X34963Y-15998I-1698J1698D01*
G03X34785Y-15462I-2639J-579D01*
G01Y-13223D01*
X34958Y-13200D01*
G03X35916Y-12898I-411J2973D01*
G01X35959Y-12876D01*
X36798D01*
Y-13502D01*
X42202D01*
Y-13252D01*
X46752D01*
Y-6498D01*
X40248D01*
Y-6874D01*
X35019D01*
X34992Y-6705D01*
G03X34785Y-6013I-2669J-421D01*
G01Y985D01*
G03X34884Y1186I-2462J1338D01*
G01X34899Y1220D01*
X35221Y1542D01*
X35244Y1555D01*
G03X32157Y5965I-1347J2343D01*
G03X29286Y5928I-1409J-2067D01*
G02X28653Y6245I-233J325D01*
G01X28644Y6724D01*
G02X28853Y6958I230J5D01*
G01X31752Y7232D01*
Y7992D01*
X31851D01*
Y10498D01*
X32874D01*
G03Y16052I0J2777D01*
G01X31950D01*
Y18658D01*
X30800D01*
Y39067D01*
G03X18284Y69284I-42734J0D01*
G01X954Y86615D01*
G03X-71148Y116626I-72454J-72454D01*
G01Y116702D01*
X-80180D01*
Y118160D01*
X-80970Y119670D01*
X-83307Y119690D01*
Y133250D01*
X-32250D01*
X-29750Y135750D01*
X17750D01*
X20250Y133250D01*
X119771D01*
G02X120167Y132798I0J-400D01*
G03X122996Y130264I2283J-298D01*
G02X123480Y129786I94J-389D01*
G03X123631Y128318I2245J-511D01*
G02X123268Y127752I-363J-166D01*
G01X120998D01*
Y125252D01*
X120748D01*
Y123248D01*
X120998D01*
Y120748D01*
X121098D01*
Y115794D01*
G02X120415Y115511I-400J0D01*
G01X114400Y121526D01*
X90850D01*
X86688Y117364D01*
Y95576D01*
G03X92240I2776J0D01*
G01Y115064D01*
X93150Y115974D01*
X112100D01*
X121600Y106474D01*
X145122D01*
X147309Y104287D01*
G03X151235Y108213I1963J1963D01*
G01X147422Y112026D01*
X123900D01*
X122861Y113065D01*
G02X123144Y113748I283J283D01*
G01X135402D01*
Y115722D01*
X135578Y115743D01*
G03X137448Y120196I-328J2757D01*
G03X134375Y123596I-1699J1554D01*
G03X130700Y121666I-1375J-1846D01*
G02X130300Y121252I-400J-14D01*
G01X128802D01*
Y127752D01*
X128182D01*
G02X127819Y128318I0J400D01*
G03X125179Y131511I-2094J957D01*
G02X124695Y131989I-94J389D01*
G03X124733Y132798I-2245J511D01*
G02X125129Y133250I396J52D01*
G01X132087D01*
G02X132414Y132621I-1J-400D01*
G03X132394Y130009I1886J-1321D01*
G02X132202Y129409I-331J-225D01*
G03X134375Y125404I798J-2159D01*
G03X136444Y129445I1375J1846D01*
G02X136229Y130044I121J381D01*
G03X136186Y132621I-1929J1257D01*
G02X136513Y133250I328J229D01*
G01X175487D01*
X175527Y133102D01*
G03X179773Y132602I2223J598D01*
G02X180477I352J-190D01*
G03X184723Y133102I2023J1098D01*
G01X184763Y133250D01*
X200025D01*
G02X200219Y132501I-1J-400D01*
G03X209703I4742J-8522D01*
G02X209897Y133250I195J349D01*
G01X240250D01*
Y92350D01*
X240208D01*
Y82546D01*
X245250D01*
Y-133250D01*
X210026D01*
G02X209827Y-132503I0J400D01*
G03X200095I-4866J8451D01*
G02X199896Y-133250I-199J-347D01*
G01X20250D01*
X17750Y-135750D01*
X14302D01*
Y-109948D01*
X6698D01*
Y-135750D01*
X-18698D01*
Y-109948D01*
X-26302D01*
Y-135750D01*
X-29750D01*
G37*
G36*
G01X-71148Y-38926D02*
Y-38852D01*
X-80078D01*
Y-37526D01*
X-80868Y-36026D01*
X-83307Y-36005D01*
Y39256D01*
X-80980Y39296D01*
X-80210Y40736D01*
X-80182Y42102D01*
X-71148D01*
Y42176D01*
X-53250D01*
G02X-27279Y31419I1J-36728D01*
G01X-22988Y27128D01*
X-19148Y20478D01*
X-12910Y24079D01*
X-18262Y33348D01*
X-20044Y32320D01*
X-23211Y35487D01*
G03X-53250Y47930I-30040J-30039D01*
G01X-71148D01*
Y48004D01*
X-80200D01*
Y49536D01*
X-81000Y51036D01*
X-83307Y51046D01*
Y107930D01*
X-80960Y107920D01*
X-80160Y109420D01*
X-80179Y110798D01*
X-71148D01*
Y110872D01*
X-70947D01*
G02X-3114Y82547I-553J-96711D01*
G01X14216Y65216D01*
G02X25048Y39067I-26150J-26150D01*
G01Y19978D01*
X15480D01*
Y11752D01*
X16897D01*
Y7992D01*
X16996D01*
Y7232D01*
X19895Y6958D01*
G02X20104Y6724I-21J-229D01*
G01X20101Y6576D01*
G02X19501Y6237I-400J7D01*
G03X16574Y6094I-1353J-2339D01*
G03X13179Y5894I-1574J-2196D01*
G02X12570Y5978I-270J296D01*
G03X8447Y6539I-2294J-1428D01*
G02X7776Y6833I-271J294D01*
G01Y12050D01*
X7526Y12300D01*
Y13498D01*
X13752D01*
Y20252D01*
X12036D01*
Y22998D01*
X15500D01*
G03Y29002I0J3002D01*
G01X12173D01*
X12136Y29155D01*
G03X11938Y29719I-2917J-707D01*
G01X11920Y29759D01*
Y31152D01*
X11184D01*
Y32007D01*
X9642Y33549D01*
Y36982D01*
X6209D01*
X5867Y37324D01*
X3547D01*
X1452Y39420D01*
Y42177D01*
G03X-4552I-3002J0D01*
G01Y38177D01*
G03X-3672Y36055I3001J1D01*
G01X1061Y31322D01*
X1790D01*
Y29480D01*
X5182D01*
Y29002D01*
X1500D01*
G03Y22998I0J-3002D01*
G01X6034D01*
Y17508D01*
X7248Y16293D01*
Y13776D01*
X5466D01*
X5444Y13782D01*
G03X4206I-619J-2707D01*
G01X4184Y13776D01*
X2124D01*
Y11716D01*
X2118Y11694D01*
G03X2052Y11217I2707J-618D01*
G01X2047Y11109D01*
X1779Y10954D01*
X156Y13765D01*
X168Y13836D01*
G03X283Y16921I-12374J2006D01*
G03X254Y17200I-7913J-681D01*
G02X240Y17353I2371J294D01*
G01X1863Y18290D01*
X-3388Y27386D01*
X-9453Y23884D01*
X-9387Y23769D01*
X-11980Y22268D01*
X-12048Y22386D01*
X-18113Y18884D01*
X-12862Y9788D01*
X-11290Y10696D01*
X-11185Y10620D01*
G03X-10059Y9887I7749J10673D01*
G03X-8308Y9037I6615J11399D01*
G03X-8237Y9008I5019J12185D01*
G01X-8171Y8983D01*
X-6082Y5365D01*
X-4777Y6119D01*
X-4285Y5269D01*
Y4323D01*
G03Y323I1962J-2000D01*
G01Y-2796D01*
X-14460Y-2873D01*
X-14679Y-2860D01*
G02X-15136Y-2480I31J503D01*
G01X-15746Y-62D01*
X-22474D01*
X-22500Y-1162D01*
X-26904D01*
Y-2400D01*
G03X-50626Y-27250I1155J-24850D01*
G01Y-27750D01*
G02X-61803Y-38926I-11177J1D01*
G01X-71148D01*
G37*
G36*
G01X-23897Y-7163D02*
X-24802D01*
G03X-27021Y-5844I-3016J-2547D01*
G01X-27011Y-4574D01*
G03X-24802Y-3263I-843J3938D01*
G01X-23896D01*
X-23897Y-7163D01*
G37*
G36*
G01X-23236Y-10380D02*
X-24660D01*
X-24659Y-14302D01*
X-23235D01*
X-23236Y-10380D01*
G37*
G36*
G01X-21250Y135750D02*
Y112750D01*
X-14750D01*
Y135750D01*
X-21250D01*
G37*
G36*
G01X-19347Y-3262D02*
X-18240Y-3263D01*
G03X-14876Y-6055I3592J906D01*
G01X-14036Y-6397D01*
X-14038Y-7221D01*
X-14797Y-7426D01*
X-15151D01*
X-18302Y-7276D01*
X-19437Y-7072D01*
X-19347Y-3262D01*
G37*
G36*
G01X-19346Y-14213D02*
X-18240D01*
G02X-14876Y-11421I3592J-906D01*
G01X-14036Y-11079D01*
X-14038Y-10255D01*
X-14797Y-10050D01*
X-15150D01*
X-18303Y-10201D01*
X-19437Y-10404D01*
X-19346Y-14213D01*
G37*
G36*
G01X-11351Y-6051D02*
G03X-9290Y-7661I2680J1306D01*
G01X-9326Y-7796D01*
X-9914Y-8136D01*
X-11306Y-7763D01*
X-11700Y-7086D01*
X-11745Y-6054D01*
X-11351Y-6051D01*
G37*
G36*
G01Y-11449D02*
G02X-9294Y-9675I3094J-1508D01*
G01X-9369Y-9228D01*
X-9914Y-9364D01*
X-11306Y-9737D01*
X-11700Y-10414D01*
X-11745Y-11446D01*
X-11351Y-11449D01*
G37*
G36*
G01X-638Y10936D02*
G03X-1146Y8268I2852J-1925D01*
G01X-1571Y8109D01*
X-1725Y8649D01*
X-2098Y10041D01*
X-1709Y10721D01*
X-838Y11276D01*
X-638Y10936D01*
G37*
G36*
G01X-5313Y8237D02*
G02X-2888Y7257I209J-2974D01*
G01X-2789Y7356D01*
Y8035D01*
X-3808Y9054D01*
X-4591Y9057D01*
X-5507Y8580D01*
X-5313Y8237D01*
G37*
G36*
G01X20197Y11097D02*
Y10145D01*
G02X23305Y6666I-323J-3417D01*
G01X23445Y6658D01*
X23337Y10085D01*
X22373Y11109D01*
X20197Y11097D01*
G37*
G36*
G01X2750Y135750D02*
Y112750D01*
X9250D01*
Y135750D01*
X2750D01*
G37*
G36*
G01X25949Y15651D02*
Y16556D01*
G03X27268Y18775I-2547J3016D01*
G01X28538Y18764D01*
G03X29849Y16556I3937J845D01*
G01Y15650D01*
X25949Y15651D01*
G37*
G36*
G01X28551Y11097D02*
Y10145D01*
G03X25443Y6666I323J-3417D01*
G01X25303Y6658D01*
X25411Y10085D01*
X26375Y11109D01*
X28551Y11097D01*
G37*
%LPC*%
G75*
G36*
G01X177391Y117925D02*
G03X177668Y117922I140J143D01*
G02X177639Y114605I1582J-1672D01*
G03X177362Y114608I-140J-143D01*
G02X177391Y117925I-1582J1672D01*
G37*
G36*
G01X170953Y105549D02*
G03X171541Y105544I296J269D01*
G02X171517Y102421I1679J-1574D01*
G03X170929Y102426I-296J-269D01*
G02X170953Y105549I-1679J1574D01*
G37*
G36*
G01X197015Y85345D02*
G03Y84655I204J-345D01*
G02X194475I-1270J-2155D01*
G03Y85345I-204J345D01*
G02X197015I1270J2155D01*
G37*
G36*
G01X176624Y81951D02*
G03X176253Y81470I21J-399D01*
G02X173876Y83299I-2254J-470D01*
G03X174247Y83780I-21J399D01*
G02X178104Y85902I2253J470D01*
G03X178725Y85983I278J287D01*
G02X179096Y83148I1975J-1183D01*
G03X178475Y83067I-278J-287D01*
G02X176624Y81951I-1975J1183D01*
G37*
G36*
G01X211179Y80345D02*
G03Y79655I204J-345D01*
G02X208639I-1270J-2155D01*
G03Y80345I-204J345D01*
G02X211179I1270J2155D01*
G37*
G36*
G01X65802Y77036D02*
G02X62250Y73512I-1801J-1736D01*
G02X58698Y77036I-1751J1788D01*
G03Y77314I-144J139D01*
G02X58687Y80774I1802J1736D01*
G03Y81326I-290J276D01*
G02X62250Y84838I1813J1724D01*
G02X65813Y81326I1750J-1788D01*
G03Y80774I290J-276D01*
G02X65802Y77314I-1813J-1724D01*
G03Y77036I144J-139D01*
G37*
G36*
G01X231179Y70345D02*
G03Y69655I204J-345D01*
G02X228639I-1270J-2155D01*
G03Y70345I-204J345D01*
G02X231179I1270J2155D01*
G37*
G36*
G01X197015D02*
G03Y69655I204J-345D01*
G02X194475I-1270J-2155D01*
G03Y70345I-204J345D01*
G02X197015I1270J2155D01*
G37*
G36*
G01X171096Y68625D02*
G02X167750Y65504I-1846J-1375D01*
G02X164404Y68625I-1500J1746D01*
G02X164317Y71250I1846J1375D01*
G02X164404Y73875I1933J1250D01*
G02X167750Y76996I1846J1375D01*
G02X171096Y73875I1500J-1746D01*
G02X171183Y71250I-1846J-1375D01*
G02X171096Y68625I-1933J-1250D01*
G37*
G36*
G01X217015Y65345D02*
G03Y64655I204J-345D01*
G02X214475I-1270J-2155D01*
G03Y65345I-204J345D01*
G02Y69655I1270J2155D01*
G03Y70345I-204J345D01*
G02Y74655I1270J2155D01*
G03Y75345I-204J345D01*
G02X217015I1270J2155D01*
G03Y74655I204J-345D01*
G02Y70345I-1270J-2155D01*
G03Y69655I204J-345D01*
G02Y65345I-1270J-2155D01*
G37*
G36*
G01X211179D02*
G03Y64655I204J-345D01*
G02X208639I-1270J-2155D01*
G03Y65345I-204J345D01*
G02X211179I1270J2155D01*
G37*
G36*
G01X41112Y55276D02*
G03Y54724I290J-276D01*
G02X37486I-1813J-1724D01*
G03Y55276I-290J276D01*
G02X41112I1813J1724D01*
G37*
G36*
G01X225672Y48730D02*
G03X224982I-345J-204D01*
G02X221557Y52155I-2155J1270D01*
G03Y52845I-204J345D01*
G02X224097I1270J2155D01*
G03Y52155I204J-345D01*
G02X224982Y51270I-1270J-2155D01*
G03X225672I345J204D01*
G02Y48730I2155J-1270D01*
G37*
G36*
G01X211179Y50345D02*
G03Y49655I204J-345D01*
G02X208639I-1270J-2155D01*
G03Y50345I-204J345D01*
G02X211179I1270J2155D01*
G37*
G36*
G01X217015Y45345D02*
G03Y44655I204J-345D01*
G02X214475I-1270J-2155D01*
G03Y45345I-204J345D01*
G02Y49655I1270J2155D01*
G03Y50345I-204J345D01*
G02X217015I1270J2155D01*
G03Y49655I204J-345D01*
G02Y45345I-1270J-2155D01*
G37*
G36*
G01X211179Y35345D02*
G03Y34655I204J-345D01*
G02X208639I-1270J-2155D01*
G03Y35345I-204J345D01*
G02X211179I1270J2155D01*
G37*
G36*
G01X191400Y49724D02*
X171400Y29724D01*
X125000D01*
G02Y35276I0J2776D01*
G01X169100D01*
X170925Y37102D01*
G03X170597Y37782I-283J283D01*
G02X165354Y40551I-597J5218D01*
G03X164646I-354J-186D01*
G02X155354I-4646J2449D01*
G03X154646I-354J-186D01*
G02X145354I-4646J2449D01*
G03X144646I-354J-186D01*
G02X135354I-4646J2449D01*
G03X134646I-354J-186D01*
G02X125354I-4646J2449D01*
G03X124646I-354J-186D01*
G02X115354I-4646J2449D01*
G03X114646I-354J-186D01*
G02X105354I-4646J2449D01*
G03X104646I-354J-186D01*
G02X95354I-4646J2449D01*
G03X94646I-354J-186D01*
G02X85959Y39645I-4646J2449D01*
G03X85252Y39390I-307J-256D01*
G01Y37748D01*
X74748D01*
Y48252D01*
X76390D01*
G03X76645Y48959I-1J400D01*
G02X84646Y55449I3355J4041D01*
G03X85354I354J186D01*
G02X94646I4646J-2449D01*
G03X95354I354J186D01*
G02X104646I4646J-2449D01*
G03X105354I354J186D01*
G02X114646I4646J-2449D01*
G03X115354I354J186D01*
G02X124646I4646J-2449D01*
G03X125354I354J186D01*
G02X134646I4646J-2449D01*
G03X135354I354J186D01*
G02X144646I4646J-2449D01*
G03X145354I354J186D01*
G02X154646I4646J-2449D01*
G03X155354I354J186D01*
G02X164646I4646J-2449D01*
G03X165354I354J186D01*
G02X172449Y48354I4646J-2449D01*
G03Y47646I186J-354D01*
G02X175218Y42403I-2449J-4646D01*
G03X175898Y42075I397J-45D01*
G01X189100Y55276D01*
X193488D01*
G03X193799Y55928I0J400D01*
G02X197233Y55488I1947J1572D01*
G03X197253Y54831I238J-322D01*
G02X195745Y49724I-1508J-2331D01*
G01X191400D01*
G37*
G36*
G01X218446Y35276D02*
X219350D01*
X221037Y36963D01*
G02X224963Y33037I1963J-1963D01*
G01X224477Y32551D01*
X224476Y32469D01*
G02X224473Y32354I-2776J15D01*
G02X224963Y28037I-1473J-2354D01*
G01X224477Y27551D01*
X224476Y27469D01*
G02X224407Y26883I-2776J30D01*
G01X224402Y26861D01*
Y24798D01*
X222339D01*
X222317Y24793D01*
G02X221083I-617J2707D01*
G01X221061Y24798D01*
X219939D01*
X219917Y24793D01*
G02X219300Y24724I-615J2707D01*
G01X218446D01*
Y23998D01*
X213044D01*
Y26859D01*
X213038Y26881D01*
G02Y28119I2707J619D01*
G01X213044Y28141D01*
Y31859D01*
X213038Y31881D01*
G02Y33119I2707J619D01*
G01X213044Y33141D01*
Y36002D01*
X218446D01*
Y35276D01*
G37*
G36*
G01X197015Y25345D02*
G03Y24655I204J-345D01*
G02X194475I-1270J-2155D01*
G03Y25345I-204J345D01*
G02X197015I1270J2155D01*
G37*
G36*
G01X204097Y22845D02*
G03Y22155I204J-345D01*
G02X201557I-1270J-2155D01*
G03Y22845I-204J345D01*
G02X204097I1270J2155D01*
G37*
G36*
G01X220672Y13730D02*
G03X219982I-345J-204D01*
G02Y16270I-2155J1270D01*
G03X220672I345J204D01*
G02Y13730I2155J-1270D01*
G37*
G36*
G01X231179Y10345D02*
G03Y9655I204J-345D01*
G02X228639I-1270J-2155D01*
G03Y10345I-204J345D01*
G02X231179I1270J2155D01*
G37*
G36*
G01X198431Y8998D02*
G03X198061Y8447I0J-400D01*
G02X193429I-2316J-947D01*
G03X193059Y8998I-370J151D01*
G01X193044D01*
Y16002D01*
X198446D01*
Y8998D01*
X198431D01*
G37*
G36*
G01X211179Y5345D02*
G03Y4655I204J-345D01*
G02X208639I-1270J-2155D01*
G03Y5345I-204J345D01*
G02X211179I1270J2155D01*
G37*
G36*
G01X217015Y345D02*
G03Y-345I204J-345D01*
G02X214475I-1270J-2155D01*
G03Y345I-204J345D01*
G02X217015I1270J2155D01*
G37*
G36*
G01X211179Y-9655D02*
G03Y-10345I204J-345D01*
G02X208639I-1270J-2155D01*
G03Y-9655I-204J345D01*
G02X211179I1270J2155D01*
G37*
G36*
G01X-35000Y-31712D02*
G02Y-35288I1750J-1788D01*
G02Y-31712I-1750J1788D01*
G37*
G36*
G01Y-43212D02*
G02Y-46788I1750J-1788D01*
G02Y-43212I-1750J1788D01*
G37*
G36*
G01X231502Y-47298D02*
Y-52702D01*
X219498D01*
Y-48502D01*
X215298D01*
Y-41498D01*
X225452D01*
Y-47298D01*
X231502D01*
G37*
G36*
G01X31962Y-49750D02*
G02X35538I1788J1750D01*
G02X31962I-1788J-1750D01*
G37*
G36*
G01X220552Y-63502D02*
Y-63602D01*
X214948D01*
Y-61238D01*
G02Y-58926I2879J1156D01*
G01Y-56398D01*
X220552D01*
Y-56498D01*
X225452D01*
Y-63502D01*
X220552D01*
G37*
G36*
G01X62688Y-63048D02*
G03Y-63702I230J-327D01*
G02X59812I-1438J-2048D01*
G03Y-63048I-230J327D01*
G02X62688I1438J2048D01*
G37*
G36*
G01X31438D02*
G03Y-63702I230J-327D01*
G02X28562I-1438J-2048D01*
G03Y-63048I-230J327D01*
G02X31438I1438J2048D01*
G37*
G36*
G01X231179Y-69655D02*
G03Y-70345I204J-345D01*
G02X228639I-1270J-2155D01*
G03Y-69655I-204J345D01*
G02X231179I1270J2155D01*
G37*
G36*
G01X206602Y-77802D02*
X204159D01*
G02X201495I-1332J2802D01*
G01X199398D01*
Y-72198D01*
X199498D01*
Y-67702D01*
X194748D01*
Y-62298D01*
X199498D01*
Y-52702D01*
X194248D01*
Y-47298D01*
X206502D01*
Y-72198D01*
X206602D01*
Y-77802D01*
G37*
G36*
G01X217015Y-79655D02*
G03Y-80345I204J-345D01*
G02X214475I-1270J-2155D01*
G03Y-79655I-204J345D01*
G02X217015I1270J2155D01*
G37*
G36*
G01X231179Y-89655D02*
G03Y-90345I204J-345D01*
G02X228639I-1270J-2155D01*
G03Y-89655I-204J345D01*
G02X231179I1270J2155D01*
G37*
G36*
G01X211179D02*
G03Y-90345I204J-345D01*
G02X208639I-1270J-2155D01*
G03Y-89655I-204J345D01*
G02X211179I1270J2155D01*
G37*
G36*
G01X95325Y-105351D02*
G03X94675I-325J-233D01*
G02Y-98649I-4675J3351D01*
G03X95325I325J233D01*
G02X104675I4675J-3351D01*
G03X105325I325J233D01*
G02X114675I4675J-3351D01*
G03X115325I325J233D01*
G02X124675I4675J-3351D01*
G03X125325I325J233D01*
G02X134675I4675J-3351D01*
G03X135325I325J233D01*
G02Y-105351I4675J-3351D01*
G03X134675I-325J-233D01*
G02X125325I-4675J3351D01*
G03X124675I-325J-233D01*
G02X115325I-4675J3351D01*
G03X114675I-325J-233D01*
G02X105325I-4675J3351D01*
G03X104675I-325J-233D01*
G02X95325I-4675J3351D01*
G37*
G36*
G01X79126Y-120380D02*
Y-128916D01*
X29024D01*
Y-120380D01*
X32408D01*
Y-114982D01*
X76310D01*
Y-120380D01*
X79126D01*
G37*
G36*
G01X56250Y89462D02*
G02X52698Y92986I-1751J1788D01*
G03Y93264I-144J139D01*
G02X52687Y96724I1802J1736D01*
G03Y97276I-290J276D01*
G02X52014Y99281I1813J1724D01*
G03X51580Y99725I-398J46D01*
G02X45415Y108920I-580J6275D01*
G03X44858Y109450I-355J185D01*
G02X37142I-3858J6550D01*
G03X36585Y108920I-202J-345D01*
G02X33920Y111585I-5585J-2920D01*
G03X34450Y112142I185J355D01*
G02Y119858I6550J3858D01*
G03X33920Y120415I-345J202D01*
G02X36585Y123080I-2920J5585D01*
G03X37142Y122550I355J-185D01*
G02X44858I3858J-6550D01*
G03X45415Y123080I202J345D01*
G02X48080Y120415I5585J2920D01*
G03X47550Y119858I-185J-355D01*
G02Y112142I-6550J-3858D01*
G03X48080Y111585I345J-202D01*
G02X55672Y101771I2920J-5585D01*
G03X55767Y101158I297J-268D01*
G02X56250Y100788I-1269J-2157D01*
G02X59813Y97276I1750J-1788D01*
G03Y96724I290J-276D01*
G02X59802Y93264I-1813J-1724D01*
G03Y92986I144J-139D01*
G02X56250Y89462I-1801J-1736D01*
G37*
G36*
G01X224059Y92174D02*
G02X221845Y92218I-1147J-1996D01*
G03X221858Y92919I-186J354D01*
G02X224072Y92875I1147J1996D01*
G03X224059Y92174I186J-354D01*
G37*
G36*
G01X213252Y-30202D02*
X206248D01*
Y-19798D01*
X213298D01*
Y-18024D01*
X213294Y-18005D01*
G02Y-16995I2451J505D01*
G01X213298Y-16976D01*
Y-13998D01*
X213548D01*
Y-13699D01*
X213526Y-13656D01*
G02X213548Y-11302I2219J1156D01*
G01Y-8998D01*
X218952D01*
Y-16002D01*
X218702D01*
Y-21002D01*
X213252D01*
Y-30202D01*
G37*
G36*
G01X233752Y-35202D02*
X226748D01*
Y-30202D01*
X226252D01*
Y-32702D01*
X214498D01*
Y-27298D01*
X226498D01*
Y-24798D01*
X233502D01*
Y-29798D01*
X233752D01*
Y-35202D01*
G37*
G36*
G01X129208Y-60041D02*
G02X128458Y-61968I1542J-1710D01*
G03X127792Y-61709I-398J-38D01*
G02X126158Y-62300I-1542J1709D01*
G02X122057Y-62734I-2158J800D01*
G02X123443Y-59266I-557J2234D01*
G02X124092Y-59200I555J-2234D01*
G02X128542Y-59782I2158J-800D01*
G03X129208Y-60041I398J38D01*
G37*
G36*
G01X-38474Y57687D02*
G03X-39026I-276J-290D01*
G02Y61313I-1724J1813D01*
G03X-38474I276J290D01*
G02Y57687I1724J-1813D01*
G37*
G36*
G01X-39000Y18788D02*
G02Y15212I1750J-1788D01*
G02Y18788I-1750J1788D01*
G37*
G36*
G01Y8288D02*
G02Y4712I1750J-1788D01*
G02Y8288I-1750J1788D01*
G37*
G36*
G01X-66991Y2192D02*
G03Y1558I243J-317D01*
G02X-74009I-3509J-4558D01*
G03Y2192I-243J317D01*
G02X-74155Y11191I3509J4558D01*
G03Y11809I-255J309D01*
G02X-66845I3655J4441D01*
G03Y11191I255J-309D01*
G02X-66991Y2192I-3655J-4441D01*
G37*
G54D45*
X230000Y-10000D03*
G54D44*
X195750Y-20000D03*
G54D42*
X205500Y-40000D03*
G54D49*
X79250Y-3000D03*
X157500Y89000D03*
X195745Y-97500D03*
Y42500D03*
X215745Y-97500D03*
X229909Y82500D03*
X220327Y101000D03*
X229909Y92500D03*
X215745Y97500D03*
Y87500D03*
X-46750Y10000D03*
G54D51*
X164000Y-102000D03*
G54D50*
X78000Y92700D03*
X114500Y-71000D03*
X123500Y69250D03*
X110250Y66750D03*
X106500Y127000D03*
X143050Y-59000D03*
X127250Y62750D03*
X152750Y101530D03*
X154750Y108500D03*
X170800Y130250D03*
G54D46*
X200375Y-5000D03*
G54D47*
X229909Y30041D03*
G54D53*
X162250Y-84500D03*
G54D52*
X154000Y-102000D03*
G54D55*
X212827Y-107000D03*
X200827Y107000D03*
G54D54*
X174000Y-102000D03*
G54D48*
X-40000Y-87000D03*
Y87000D03*
G54D43*
X185500Y-35375D03*
%LPD*%
G75*
G36*
G01X-83250Y-57053D02*
X-60250D01*
Y-50553D01*
X-83250D01*
Y-57053D01*
G37*
G36*
G01Y-33053D02*
X-60250D01*
Y-26553D01*
X-83250D01*
Y-33053D01*
G37*
G36*
G01Y29803D02*
X-60250D01*
Y36303D01*
X-83250D01*
Y29803D01*
G37*
G36*
G01Y53803D02*
X-60250D01*
Y60303D01*
X-83250D01*
Y53803D01*
G37*
G36*
G01Y98500D02*
X-60250D01*
Y105000D01*
X-83250D01*
Y98500D01*
G37*
G36*
G01Y122500D02*
X-60250D01*
Y129000D01*
X-83250D01*
Y122500D01*
G37*
G36*
G01X18881Y15153D02*
Y16577D01*
X22803D01*
Y15153D01*
X18881D01*
G37*
G54D10*
X-78250Y-41803D03*
Y45053D03*
Y113750D03*
G54D20*
X827Y-22874D03*
X-2323D03*
X827Y-26024D03*
X-2323D03*
X827Y-29173D03*
X-2323D03*
X827Y-32323D03*
X-2323D03*
X827Y-827D03*
X-2323D03*
X827Y-3976D03*
X-2323D03*
X827Y-7126D03*
X-2323D03*
X827Y-10276D03*
X-2323D03*
X827Y-13425D03*
X-2323D03*
X827Y-16575D03*
X-2323D03*
X827Y-19724D03*
X-2323D03*
X827Y2323D03*
X-2323D03*
X22874Y-22874D03*
X19724D03*
X16575D03*
X13425D03*
X10276D03*
X7126D03*
X3976D03*
X22874Y-26024D03*
X19724D03*
X16575D03*
X13425D03*
X10276D03*
X7126D03*
X3976D03*
X22874Y-29173D03*
X19724D03*
X16575D03*
X13425D03*
X10276D03*
X7126D03*
X3976D03*
X22874Y-32323D03*
X19724D03*
X16575D03*
X13425D03*
X10276D03*
X7126D03*
X3976D03*
X22874Y-827D03*
X19724D03*
X16575D03*
X13425D03*
X10276D03*
X7126D03*
X3976D03*
X22874Y-3976D03*
X19724D03*
X16575D03*
X13425D03*
X10276D03*
X7126D03*
X3976D03*
X22874Y-7126D03*
X19724D03*
X16575D03*
X13425D03*
X10276D03*
X7126D03*
X3976D03*
X22874Y-10276D03*
X19724D03*
X16575D03*
X13425D03*
X10276D03*
X7126D03*
X3976D03*
X22874Y-13425D03*
X19724D03*
X16575D03*
X13425D03*
X10276D03*
X7126D03*
X3976D03*
X22874Y-16575D03*
X19724D03*
X16575D03*
X13425D03*
X10276D03*
X7126D03*
X3976D03*
X22874Y-19724D03*
X19724D03*
X16575D03*
X13425D03*
X10276D03*
X7126D03*
X3976D03*
X22874Y2323D03*
X19724D03*
X16575D03*
X13425D03*
X10276D03*
X7126D03*
X3976D03*
X32323Y-22874D03*
X29173D03*
X26024D03*
X32323Y-26024D03*
X29173D03*
X26024D03*
X32323Y-29173D03*
X29173D03*
X26024D03*
X32323Y-32323D03*
X29173D03*
X26024D03*
X32323Y-827D03*
X29173D03*
X26024D03*
X32323Y-3976D03*
X29173D03*
X26024D03*
X32323Y-7126D03*
X29173D03*
X26024D03*
X32323Y-10276D03*
X29173D03*
X26024D03*
X32323Y-13425D03*
X29173D03*
X26024D03*
X32323Y-16575D03*
X29173D03*
X26024D03*
X32323Y-19724D03*
X29173D03*
X26024D03*
X32323Y2323D03*
X29173D03*
X26024D03*
G54D11*
X-70750Y-58303D03*
Y-25303D03*
Y28553D03*
Y61553D03*
Y97250D03*
Y130250D03*
G54D21*
X-12050Y-10750D03*
X-14450D03*
X-12050Y-6750D03*
X-14450D03*
X9218Y28450D03*
X11618D03*
X219300Y32500D03*
X221700D03*
X219300Y27500D03*
X221700D03*
G54D30*
X91250Y81250D03*
X94000Y84000D03*
X96500Y81250D03*
X91250Y86750D03*
X96500D03*
X98750Y110250D03*
X93250D03*
X98750Y115500D03*
X96000Y112750D03*
X93250Y115500D03*
X122750Y-70000D03*
Y-77000D03*
X129750Y-70000D03*
Y-77000D03*
X138750Y103000D03*
X141500Y100250D03*
X144250Y103000D03*
X138750Y97750D03*
X144250D03*
G54D12*
G01X5716Y33231D02*
X4624Y34323D01*
X2304D01*
X-1550Y38177D01*
G01Y42177D02*
Y38177D01*
G01X10500Y16875D02*
X10450Y17336D01*
X9035Y18751D01*
Y26000D01*
G01X9060Y26250D02*
X9310Y26000D01*
X15500D01*
G01X9035D02*
Y26225D01*
X9060Y26250D01*
G01X9035Y26000D02*
X1500D01*
G01X9218Y28450D02*
X9060Y28292D01*
Y26250D01*
G01X9218Y28450D02*
X8183Y29485D01*
Y30764D01*
X5716Y33231D01*
G01X43500Y-14125D02*
X39250D01*
G01D02*
X35250D01*
G01X43500Y-9875D02*
X39500D01*
G01D02*
X34901D01*
X34550Y-10226D01*
X-81500Y-52553D03*
X-82000Y-48803D03*
X-81500Y-31053D03*
X-82000Y-34803D03*
X-81500Y34303D03*
X-82000Y38053D03*
X-81500Y55803D03*
X-82000Y52053D03*
X-81500Y103000D03*
X-82000Y106750D03*
Y120750D03*
X-81500Y124500D03*
X-61803Y-45678D03*
X-67285D03*
X-72768D03*
X-78250D03*
X-62500Y-52553D03*
X-67250D03*
X-72000D03*
X-76750D03*
X-72768Y-37928D03*
X-67285D03*
X-61803D03*
X-78250D03*
X-62500Y-31053D03*
X-67250D03*
X-72000D03*
X-76750D03*
X-70500Y-3000D03*
Y16250D03*
Y6750D03*
X-63250Y41178D03*
X-68250D03*
X-73250D03*
X-78250D03*
X-62500Y34303D03*
X-67250D03*
X-72000D03*
X-76750D03*
X-73250Y48928D03*
X-68250D03*
X-63250D03*
X-78250D03*
X-62500Y55803D03*
X-67250D03*
X-72000D03*
X-76750D03*
X-67250Y103000D03*
X-62500D03*
X-76750D03*
X-72000D03*
X-61495Y109351D03*
X-66491Y109744D03*
X-71500Y109875D03*
Y117625D03*
X-66423Y117500D03*
X-61359Y117127D03*
X-78250Y109875D03*
Y117625D03*
X-67250Y124500D03*
X-62500D03*
X-76750D03*
X-72000D03*
X-51265Y-42254D03*
X-56263Y-44801D03*
X-56714Y-36564D03*
X-52989Y-32839D03*
X-51625Y-27750D03*
X-51128Y-22202D03*
X-42988Y-21649D03*
X-43875Y-27750D03*
X-44752Y-33290D03*
X-47299Y-38288D03*
X-49655Y-17348D03*
X-47264Y-12875D03*
X-40125Y-5736D03*
X-40413Y-16596D03*
X-44046Y-8954D03*
X-46750Y10000D03*
X-40750Y6500D03*
Y17000D03*
X-42209Y39429D03*
X-47661Y40738D03*
X-53250Y41178D03*
X-58250D03*
Y48928D03*
X-53250D03*
X-47575Y48556D03*
X-41996Y47447D03*
X-40750Y59500D03*
X-41923Y105190D03*
X-46727Y106614D03*
X-51600Y107783D03*
X-56527Y108697D03*
X-56319Y116505D03*
X-51315Y115637D03*
X-46360Y114524D03*
X-41466Y113170D03*
X-33250Y-45000D03*
X-36750D03*
X-33250Y-33500D03*
X-36750D03*
X-35652Y-3345D03*
X-30798Y-1872D03*
X-31351Y-10012D03*
X-36404Y-12587D03*
X-21543Y-15782D03*
X-25250Y1551D03*
X-37250Y17000D03*
Y6500D03*
X-21445Y24172D03*
X-27985Y30712D03*
X-32248Y34353D03*
X-37029Y37283D03*
X-26780Y39943D03*
X-22504Y36193D03*
X-36610Y45618D03*
X-31509Y43103D03*
X-36750Y59500D03*
X-19370Y94434D03*
X-23643Y97052D03*
X-28047Y99443D03*
X-32570Y101600D03*
X-37199Y103518D03*
X-18309Y102904D03*
X-36644Y111576D03*
X-31906Y109749D03*
X-27263Y107691D03*
X-22727Y105407D03*
X1000Y-134500D03*
X-2241Y-131098D03*
X-9875Y-130750D03*
X-13000Y-134500D03*
X-1409Y-104562D03*
X-2035Y-110206D03*
X-2291Y-115880D03*
X-2125Y-123759D03*
X-9875Y-123800D03*
X-10047Y-116621D03*
X-9881Y-111328D03*
X-9419Y-106054D03*
X942Y-93456D03*
X-415Y-98970D03*
X-8662Y-100813D03*
X-7613Y-95623D03*
X-6275Y-90500D03*
X-4653Y-85460D03*
X2653Y-88040D03*
X-3019Y-80447D03*
X-1630Y-75360D03*
X-488Y-70212D03*
X402Y-65015D03*
X1039Y-59780D03*
X1422Y-54521D03*
X1550Y-49250D03*
X1122Y-44221D03*
X-13758Y-41424D03*
X-6336Y-32317D03*
X-8989Y-38413D03*
X-14250Y-1750D03*
X-8750D03*
X-13250Y-17500D03*
X-14500Y-14500D03*
X-9750Y-15500D03*
X-11424Y4309D03*
X-13500Y9710D03*
X1516Y13577D03*
X-8739Y7948D03*
X-7250Y3250D03*
X-17500Y33928D03*
X1500Y30000D03*
X-1550Y38177D03*
Y42177D03*
X512Y77508D03*
X-3820Y81841D03*
X-7455Y85290D03*
X-11265Y88545D03*
X-15241Y91595D03*
X-14018Y100187D03*
X-9867Y97263D03*
X-5863Y94139D03*
X-2018Y90822D03*
X2000Y96500D03*
X-1500Y100750D03*
X-5250Y105000D03*
X1660Y87320D03*
X-7500Y109000D03*
X-9000Y113750D03*
X-9750Y118750D03*
Y125250D03*
X-2250Y125000D03*
Y118500D03*
X-1250Y113750D03*
X1000Y109250D03*
X-16750Y119750D03*
Y124500D03*
X1000Y134500D03*
X-13000D03*
X-16750Y134000D03*
Y129250D03*
X-2125Y130750D03*
X-9759Y131098D03*
X4404Y-82669D03*
X8069Y-66138D03*
X7115Y-71706D03*
X5892Y-77220D03*
X9300Y-49250D03*
X9163Y-54897D03*
X8752Y-60531D03*
X9300Y-49328D03*
X9724Y-43275D03*
X3129Y-37624D03*
X17549Y13275D03*
X15799Y14500D03*
X15532Y30202D03*
X18250Y44750D03*
X19250Y50250D03*
X22288Y50186D03*
X20127Y55402D03*
X17424Y58849D03*
X9675Y58934D03*
X16750Y81500D03*
X5992Y82987D03*
X9250Y80000D03*
X18990Y69989D03*
X22762Y65688D03*
X9177Y68843D03*
X4845Y73176D03*
X17574Y75752D03*
X9725Y64584D03*
X7250Y86750D03*
X5000Y92000D03*
X4750Y105000D03*
X8250Y100750D03*
X11000Y96500D03*
X13250Y92000D03*
X15250Y87000D03*
X4750Y119750D03*
Y115000D03*
Y124500D03*
Y134000D03*
Y129250D03*
X30000Y-65750D03*
X24474Y-43275D03*
X33750Y-48000D03*
Y-51500D03*
X30000Y-61000D03*
X36599Y13025D03*
X33024Y17901D03*
X30624Y13275D03*
X32874D03*
X31799Y39066D03*
Y33612D03*
Y28158D03*
Y22704D03*
X24049Y28158D03*
Y33612D03*
Y39066D03*
X25940Y60932D03*
X28470Y55801D03*
X30309Y50385D03*
X31425Y44774D03*
X23606Y44695D03*
X39299Y53000D03*
Y57000D03*
X32250Y116000D03*
X41000Y124750D03*
X61250Y-65750D03*
X48750Y-45750D03*
X61250Y-61000D03*
X50750Y-36250D03*
X62250Y-31750D03*
X56000Y-20750D03*
X51750Y-2250D03*
X47000Y-18000D03*
X62311Y20519D03*
X46299Y12487D03*
X64000Y75300D03*
X60500D03*
Y83050D03*
Y79050D03*
X64000D03*
Y83050D03*
X58000Y99000D03*
Y95000D03*
X54500D03*
Y99000D03*
Y91250D03*
X58000D03*
X49500Y116000D03*
X82000Y-70500D03*
X67250Y-28500D03*
X65250Y-11500D03*
X84500Y-4750D03*
Y-12500D03*
X79250Y-3000D03*
X79500Y18000D03*
X74500Y12250D03*
X84500Y2250D03*
X100000Y-102000D03*
X90000D03*
X104500Y-64500D03*
X90750Y-50750D03*
X101750Y-61750D03*
X94000D03*
X91250D03*
X86250Y-35250D03*
Y-23500D03*
X87750Y-16000D03*
X93000Y13750D03*
X110000Y-102000D03*
X120000D03*
X122750Y-36000D03*
X115500Y-36250D03*
X106750D03*
X125000Y32500D03*
X130000Y-102000D03*
X140000D03*
X134500Y-36000D03*
X128250Y20750D03*
X157500Y89000D03*
X209909Y-92500D03*
Y-87500D03*
X195745Y-97500D03*
Y-87500D03*
X209909Y-97500D03*
X195745Y-92500D03*
X192568Y-76802D03*
X209909Y-62500D03*
Y-77500D03*
Y-82500D03*
X197087Y-69260D03*
X202827Y-75000D03*
Y-70000D03*
Y-65000D03*
X197827D03*
X195745Y-42500D03*
X209909Y-47500D03*
X195745Y-57500D03*
X202827Y-55000D03*
Y-60000D03*
Y-50000D03*
X197827D03*
X209909Y-32500D03*
X195745Y-27500D03*
X207827Y-40000D03*
X202827D03*
X195745Y-22500D03*
X209909D03*
Y-27500D03*
Y-12500D03*
Y-2500D03*
Y-17500D03*
X195745Y-12500D03*
X209909Y-7500D03*
X195745Y-17500D03*
X197827Y-5000D03*
X202827D03*
X195745Y7500D03*
X209909Y12500D03*
X195745Y17500D03*
Y2500D03*
Y12500D03*
X209909Y2500D03*
Y7500D03*
X202827Y20000D03*
X209909Y27500D03*
X195745Y32500D03*
X209909D03*
Y37500D03*
X195745Y22500D03*
Y27500D03*
X202827Y25000D03*
X209909Y47500D03*
Y52500D03*
Y62500D03*
X195745Y57500D03*
X191000Y57750D03*
X195745Y62500D03*
X209909Y57500D03*
Y42500D03*
X195745Y47500D03*
Y42500D03*
Y52500D03*
X209909Y67500D03*
Y77500D03*
Y82500D03*
X195745Y67500D03*
Y72500D03*
Y82500D03*
X209909Y72500D03*
X195745Y77500D03*
Y87500D03*
Y92500D03*
X209909Y87500D03*
X205327Y101000D03*
X229909Y-92500D03*
Y-87500D03*
Y-97500D03*
X215745Y-87500D03*
Y-92500D03*
Y-97500D03*
X229909Y-72500D03*
Y-67500D03*
X215745Y-82500D03*
Y-77500D03*
X229909Y-82500D03*
Y-77500D03*
Y-62500D03*
X215745Y-72500D03*
Y-67500D03*
X229909Y-57500D03*
Y-42500D03*
X215745Y-52500D03*
X217827Y-60082D03*
X222827Y-45000D03*
X217827D03*
X227827Y-50000D03*
X222827D03*
Y-60082D03*
X229909Y-37500D03*
Y-22500D03*
X215745D03*
Y-37500D03*
X222827Y-30000D03*
X229909Y-27500D03*
Y-32500D03*
X217827Y-30000D03*
X215745Y-2500D03*
X229909Y-17500D03*
Y-2500D03*
X215745Y-7500D03*
Y-12500D03*
Y-17500D03*
X229909Y-7500D03*
Y-12500D03*
Y7500D03*
Y12500D03*
X215745Y2500D03*
X229909D03*
Y17500D03*
X215745Y7500D03*
X217827Y15000D03*
X222827D03*
X229909Y37500D03*
X215745D03*
X229909Y22500D03*
X215745D03*
Y32500D03*
X229909Y27500D03*
Y32582D03*
X215745Y27500D03*
X223000Y30000D03*
Y35000D03*
X215745Y42500D03*
Y62500D03*
X229909Y42500D03*
X222500Y45500D03*
X229909Y57500D03*
Y62500D03*
X222827Y55000D03*
Y50000D03*
X227827D03*
X215745Y52500D03*
Y47500D03*
Y67500D03*
Y82500D03*
X229909Y77500D03*
Y72500D03*
Y82500D03*
X215745Y77500D03*
X229909Y67500D03*
X215745Y72500D03*
Y92500D03*
X229909Y97500D03*
Y87500D03*
X220327Y101000D03*
X229909Y92500D03*
X215745Y97500D03*
Y87500D03*
X241500Y40500D03*
Y60500D03*
X236750Y100250D03*
Y116000D03*
G54D40*
G01X20925Y400D02*
X17826D01*
X17776Y450D01*
X15150D01*
X15025Y325D01*
Y-11925D01*
X15075Y-11975D01*
X14950Y-12100D01*
Y-12757D01*
X14975Y-12782D01*
Y-26875D01*
X15698Y-27598D01*
X27452D01*
X29075Y-25975D01*
X32275D01*
X33025Y-26725D01*
G01X20925Y400D02*
X24075D01*
G01X5551Y748D02*
Y1104D01*
X5576Y1129D01*
Y3516D01*
X5000Y4093D01*
G01X33898Y-24449D02*
Y-27598D01*
G01D02*
Y-30748D01*
G01X30374Y400D02*
X27225D01*
G01X30748Y748D02*
X33898D01*
G01X24075Y400D02*
X27224D01*
G01D02*
X27225D01*
G01D02*
X27573Y748D01*
X30748D01*
G54D31*
X118600Y124250D03*
X124900D03*
G54D13*
G01X-3750Y-2000D02*
X-3496D01*
X-2323Y-827D01*
G01X39500Y-10800D02*
Y-9875D01*
X-70750Y-58303D03*
Y-25303D03*
Y28553D03*
Y61553D03*
Y97250D03*
Y130250D03*
X-748Y-30748D03*
Y-27598D03*
X-2323Y-34550D03*
X827D03*
X-4000Y-22874D03*
X-3898Y-27598D03*
X-748Y-24449D03*
X-3750Y-2000D03*
X-3898Y-18150D03*
X-748Y-11850D03*
X-746Y-2402D03*
X-748Y-15000D03*
Y-18150D03*
Y-21299D03*
X3976Y-34550D03*
X10276D03*
X5551Y-27598D03*
X7126Y-34550D03*
X11850Y-30748D03*
X22250Y-36500D03*
X13750Y-36250D03*
X13425Y-34550D03*
X15001Y-27599D03*
X18150D03*
X21300D03*
X8701Y-27598D03*
X11850D03*
Y-24449D03*
X8701D03*
X5551D03*
X17802Y-30374D03*
X14652D03*
X8701Y-30748D03*
X5551D03*
X2401D03*
X2402Y-27598D03*
X21299Y-24449D03*
X18150D03*
X20951Y-30374D03*
X2402Y-24449D03*
X21299Y-33898D03*
X11850Y-15000D03*
X8701D03*
X2401Y-18150D03*
X11850Y-11851D03*
X15000Y-18150D03*
X2401Y-11851D03*
X15000D03*
X2401Y-8701D03*
X8701Y-5551D03*
X5551D03*
X11850Y-2402D03*
X5551Y-8701D03*
X8701Y-11851D03*
X11850Y-8701D03*
X5551Y-21299D03*
X8701D03*
X11850D03*
Y-18150D03*
X8701D03*
X5551Y-15000D03*
Y-11850D03*
X21298Y-14999D03*
X21299Y-11850D03*
X18150Y-2401D03*
X21300Y-5551D03*
X18149Y-5550D03*
X21298Y-8700D03*
X18149D03*
X18150Y-11850D03*
X18149Y-14999D03*
X21299Y-21299D03*
X18149D03*
X21299Y-18150D03*
X18149D03*
X2401Y-15000D03*
X2402Y-5551D03*
Y-2402D03*
X5551D03*
X2402Y-21299D03*
X11850Y-5550D03*
X2402Y3898D03*
Y748D03*
X7126Y4550D03*
X20299Y7000D03*
X14000D03*
X2500Y10000D03*
X15298Y374D03*
X20925Y400D03*
X11850Y3898D03*
Y748D03*
X18149Y3898D03*
X15000D03*
X8701Y748D03*
X10276Y4550D03*
X24750Y-37250D03*
X38500Y-32500D03*
X24450Y-27599D03*
X27599D03*
X33898Y-24449D03*
Y-30748D03*
Y-27598D03*
X27598Y-24449D03*
X24449D03*
X30748Y-27598D03*
Y-30748D03*
X24101Y-30374D03*
X27251D03*
X27599Y-33898D03*
X24449D03*
Y-18150D03*
X27599Y-18149D03*
X34550Y-13425D03*
X33898Y-2402D03*
X27598Y-8701D03*
X34550Y-10226D03*
X27599Y-11851D03*
X24449Y-15000D03*
X30747Y-11850D03*
X24449D03*
X30747Y-2402D03*
X30748Y-5551D03*
X27598Y-2402D03*
X27599Y-5552D03*
X24449Y-2402D03*
X24450Y-5552D03*
X33897Y-18150D03*
X30747Y-21300D03*
X27599Y-21298D03*
X24449Y-21299D03*
X24448Y-8702D03*
X30749Y-18149D03*
X27224Y400D03*
X28299Y7000D03*
X33898Y748D03*
X30748D03*
X27225Y400D03*
X24075D03*
X33898Y3898D03*
X30748D03*
G54D22*
X-1593Y11192D03*
X-2793Y13270D03*
X-5057Y9192D03*
X-6257Y11270D03*
G54D41*
G01X-14450Y-6750D02*
X-15935Y-6645D01*
G01X-14450Y-10750D02*
X-16172Y-10847D01*
G54D23*
X10500Y16875D03*
Y12625D03*
X43500Y-9875D03*
Y-14125D03*
G54D32*
X185500Y-37000D03*
Y-33750D03*
X203000Y-75000D03*
Y-70000D03*
X198250Y-65000D03*
X203000D03*
X197750Y-50000D03*
X203000D03*
Y-60000D03*
Y-55000D03*
X209750Y-27500D03*
Y-22500D03*
X223000Y-50000D03*
X228000D03*
X222750Y-30000D03*
X218000D03*
X230250Y-32500D03*
X230000Y-27500D03*
Y-12500D03*
Y-7500D03*
G54D14*
X-70500Y-3000D03*
Y16250D03*
Y6750D03*
X100000Y-102000D03*
X90000D03*
X120000D03*
X110000D03*
X140000D03*
X130000D03*
G54D24*
X20849Y10694D03*
Y13275D03*
Y15856D03*
X27899Y10694D03*
Y13275D03*
Y15856D03*
G54D15*
X-40000Y-87000D03*
Y87000D03*
X204961Y-124052D03*
Y123979D03*
G54D33*
X212827Y-107000D03*
X200827Y107000D03*
G54D25*
X4825Y13475D03*
Y11075D03*
X39500Y-13200D03*
Y-10800D03*
G54D34*
X195750Y-22500D03*
X208000Y-40000D03*
X203000D03*
X195750Y-17500D03*
X203000Y-5000D03*
X197750D03*
X195745Y12500D03*
X217750Y-60000D03*
X222750D03*
X218000Y-45000D03*
X222750D03*
X216000Y-17500D03*
X216250Y-12500D03*
X229909Y32582D03*
Y27500D03*
X215745Y32500D03*
Y27500D03*
G54D16*
X-22500Y-123250D03*
Y123250D03*
X10500Y-123250D03*
Y123250D03*
G54D35*
G01X-748Y-27598D02*
X827Y-26024D01*
G01X-4000Y-22874D02*
X-2323D01*
G01X-3898Y-27598D02*
X-2323Y-29173D01*
G01X827Y-34550D02*
Y-32323D01*
G01X-2323Y-34550D02*
Y-32323D01*
G01Y-26024D02*
X-2324D01*
X-3898Y-27598D01*
G01X827Y-29173D02*
X-748Y-30748D01*
G01Y-24449D02*
X827Y-22874D01*
G01X-2323Y-19724D02*
X-3898Y-18150D01*
G01X2401Y-8701D02*
X827Y-7126D01*
G01X-748Y-11850D02*
X827Y-10276D01*
G01Y-3976D02*
X-746Y-2402D01*
G01X827Y-827D02*
Y-829D01*
X-746Y-2402D01*
G01X-2323Y-3976D02*
Y-3427D01*
X-3750Y-2000D01*
G01X-2323Y-16575D02*
X-3898Y-18150D01*
G01X827Y-13425D02*
X-748Y-15000D01*
G01Y-18150D02*
X827Y-16575D01*
G01X-748Y-21299D02*
X827Y-19724D01*
G01X3976Y-34550D02*
Y-32323D01*
G01X10276Y-34550D02*
Y-32323D01*
G01X5551Y-27598D02*
X7126Y-26024D01*
G01Y-34550D02*
Y-32323D01*
G01X11850Y-30748D02*
X13425Y-32323D01*
G01D02*
Y-34550D01*
G01X8701Y-27598D02*
X10276Y-26024D01*
G01X11850Y-27598D02*
X13425Y-26024D01*
G01Y-22874D02*
X11850Y-24449D01*
G01X8701D02*
X10276Y-22874D01*
G01X7126D02*
X5551Y-24449D01*
G01X16575Y-29173D02*
X17802Y-30374D01*
G01X13425Y-29173D02*
X14626Y-30374D01*
X14652D01*
G01X10276Y-29173D02*
X8701Y-30748D01*
G01X7126Y-29173D02*
X5551Y-30748D01*
G01X3976Y-29173D02*
X2401Y-30748D01*
G01X3976Y-26024D02*
X2402Y-27598D01*
G01X19724Y-22874D02*
X21299Y-24449D01*
G01X20925Y-30374D02*
X20951D01*
G01X19724Y-29173D02*
X19750D01*
X20951Y-30374D01*
G01X2402Y-24449D02*
X3976Y-22874D01*
G01X21299Y-33898D02*
X24449D01*
G01X21299D02*
X19724Y-32323D01*
G01X16575D02*
X18150Y-33898D01*
X21299D01*
G01X11850Y-15000D02*
X13425Y-13425D01*
G01X8701Y-15000D02*
X10276Y-13425D01*
G01X2401Y-11851D02*
X3976Y-10276D01*
G01X11850Y-11851D02*
X13425Y-10276D01*
G01X2401Y-18150D02*
X3976Y-16575D01*
G01X10276Y-7126D02*
X8701Y-5551D01*
G01X7126Y-7126D02*
X5551Y-5551D01*
G01X13425Y-3976D02*
X13424D01*
X11850Y-2402D01*
G01X7126Y-10276D02*
X5551Y-8701D01*
G01X8701Y-11851D02*
X10276Y-10276D01*
G01X11850Y-8701D02*
X13425Y-7126D01*
G01X7126Y-19724D02*
X5551Y-21299D01*
G01X10276Y-19724D02*
X8701Y-21299D01*
G01X13425Y-19724D02*
X11850Y-21299D01*
G01Y-18150D02*
X13425Y-16575D01*
G01X10276D02*
X8701Y-18150D01*
G01X5551Y-15000D02*
X7126Y-16575D01*
G01X5551Y-11850D02*
X7126Y-13425D01*
G01X19724Y-16575D02*
X21299Y-18150D01*
G01X3976Y-13425D02*
X2401Y-15000D01*
G01X2402Y-5551D02*
X3976Y-7126D01*
G01X2402Y-2402D02*
X3976Y-3976D01*
G01X5551Y-2402D02*
X7126Y-3976D01*
G01X2402Y-21299D02*
X3976Y-19724D01*
G01X2402Y3898D02*
X3976Y2323D01*
G01X2402Y748D02*
X3976Y-827D01*
G01X2000Y11250D02*
X2500Y10000D01*
G01X13425Y2323D02*
X11850Y3898D01*
G01X13425Y-827D02*
X11850Y748D01*
G01X8701D02*
X10276Y-827D01*
G01X7126D02*
X5551Y748D01*
G01X32323Y-32323D02*
X33898Y-33898D01*
G01X32323Y-22874D02*
X33898Y-24449D01*
G01X32323Y-29173D02*
X33898Y-30748D01*
G01Y-27598D02*
X33025Y-26725D01*
G01D02*
X33024D01*
X32323Y-26024D01*
G01X26024Y-22874D02*
Y-22875D01*
X27598Y-24449D01*
G01X22874Y-22874D02*
X24449Y-24449D01*
G01X30748Y-27598D02*
X29173Y-29173D01*
G01X30748Y-30748D02*
X29173Y-32323D01*
G01X22874Y-29173D02*
X24075Y-30374D01*
X24101D01*
G01X26024Y-29173D02*
X27225Y-30374D01*
X27251D01*
G01X27599Y-33898D02*
X26024Y-32323D01*
G01X24449Y-33898D02*
X22874Y-32323D01*
G01X24449Y-33898D02*
X27599D01*
G01X32323Y-13425D02*
X34550D01*
G01X27599Y-18149D02*
X29173Y-16575D01*
G01X26024Y-10276D02*
Y-10275D01*
X27598Y-8701D01*
G01X32323Y-3976D02*
X33898Y-2402D01*
G01X24449Y-18150D02*
X22874Y-16575D01*
G01X32323Y-10276D02*
X34500D01*
X34550Y-10226D01*
G01X26024Y-3976D02*
X27598Y-2402D01*
G01X22874Y-3976D02*
X24449Y-2402D01*
G01X30749Y-18149D02*
X32323Y-16575D01*
G01X29173Y-827D02*
X30374Y400D01*
G01X24075Y374D02*
Y400D01*
G01X32323Y-827D02*
X33898Y748D01*
G01X22874Y-827D02*
Y-801D01*
X24075Y400D01*
G01X32323Y2323D02*
X33898Y3898D01*
G01X29173Y2323D02*
X30748Y3898D01*
G01X26024Y2323D02*
X26023D01*
G54D26*
X5716Y33231D03*
X12166D03*
X125025Y117500D03*
X131475D03*
G54D17*
X-28295Y-25354D03*
X-24048Y-28821D03*
X-22301Y-22301D03*
X-26272Y-16837D03*
X-28886Y-20795D03*
X-21521Y-2671D03*
Y-9604D03*
Y-7872D03*
X-17960Y-27346D03*
X-16903Y-18571D03*
X-7400Y27500D03*
X-13000Y37000D03*
X-11250Y24000D03*
X1500Y26000D03*
X15500D03*
X8728Y42877D03*
X8750Y54977D03*
X3750Y43677D03*
Y55077D03*
X38000Y-44500D03*
X39500Y28250D03*
X40250Y79750D03*
X41750Y74000D03*
X37750Y93750D03*
X38750Y86750D03*
X55250Y-65750D03*
X51000Y-67500D03*
X46500Y-66000D03*
X44000Y-60750D03*
X57500D03*
X54500Y-55251D03*
X45750Y-56501D03*
X50750Y-60750D03*
X55750Y-13000D03*
X45500Y-500D03*
X51000Y4750D03*
X57000Y28250D03*
X52500Y38750D03*
X63000Y34750D03*
X50250Y34250D03*
X58000Y61250D03*
X62500Y49250D03*
X49500Y57000D03*
X57750Y57250D03*
X52250Y48750D03*
X55750Y66500D03*
X52500Y71750D03*
X50250Y78250D03*
X44250Y67500D03*
X47375Y81565D03*
X49500Y74000D03*
X45750Y63250D03*
X52250Y67500D03*
X54250Y63250D03*
X48250Y86500D03*
X47750Y94250D03*
X45000Y97250D03*
X45500Y90250D03*
X76000Y-23500D03*
X66750Y-21000D03*
X76000Y-13750D03*
X68750Y12000D03*
X74750Y2000D03*
X65000Y1500D03*
X65500Y7250D03*
X73000Y18000D03*
X65750Y30000D03*
X72500Y32750D03*
X75500Y78250D03*
X81750Y97000D03*
X76250Y102250D03*
X71000D03*
X81750Y86250D03*
X78500Y100275D03*
X78000Y92700D03*
X81750Y122000D03*
X76250Y116750D03*
X71000D03*
X90050Y-87500D03*
X100050D03*
X97250Y-24750D03*
X105250Y-4750D03*
X104500Y-12250D03*
X92500Y-17000D03*
X104000Y13250D03*
X91500Y65250D03*
X95750D03*
X100000D03*
X104250D03*
X85250Y98500D03*
X89464Y95576D03*
X85225Y118725D03*
X103500Y118750D03*
X98250Y125000D03*
X89500Y129500D03*
X120050Y-87500D03*
X110050D03*
X114500Y-71000D03*
X126250Y-60000D03*
X121500Y-60500D03*
X124000Y-61500D03*
X117000Y-7000D03*
X113750Y3750D03*
X125000Y62000D03*
X111000Y64000D03*
X120000Y69000D03*
X122500Y74500D03*
X123500Y69250D03*
X110250Y66750D03*
X125750Y102750D03*
X121250Y98000D03*
X126500Y95750D03*
X121250Y116750D03*
X125750Y112000D03*
X121250Y107500D03*
X109250Y123000D03*
X116000Y132500D03*
X112500Y129250D03*
X125725Y129275D03*
X122450Y132500D03*
X106500Y127000D03*
X126750Y-91000D03*
X139950Y-87500D03*
X145875Y-76250D03*
X132450Y-82500D03*
X137719Y-71531D03*
X137500Y-78000D03*
X143050Y-59000D03*
X130750Y-61750D03*
X128750Y-7000D03*
X127250Y62750D03*
X146750Y121000D03*
X144000Y123000D03*
X132750Y113500D03*
X128250D03*
X142780Y111500D03*
X141750Y120000D03*
X135750Y121750D03*
X133000D03*
X135250Y118500D03*
X136700Y131300D03*
X134300D03*
X135750Y127250D03*
X133000D03*
X162250Y-84500D03*
X147975Y-77750D03*
X152750Y-66750D03*
X148000Y-61250D03*
X167550Y38050D03*
X162450D03*
Y61550D03*
X167550D03*
X152250Y72750D03*
X152000Y76500D03*
X156750Y77750D03*
X148500Y80250D03*
X154250Y68000D03*
X166250Y67250D03*
Y70000D03*
Y72500D03*
Y75250D03*
X164250Y95625D03*
X158750D03*
X152750Y101530D03*
X153250Y121050D03*
X150025Y117775D03*
X149272Y106250D03*
X154750Y108500D03*
X182500Y-37250D03*
Y-32750D03*
X185250Y-33772D03*
Y-36892D03*
X180000Y75000D03*
X169250Y67250D03*
Y70000D03*
Y72500D03*
Y75250D03*
X174000Y81000D03*
X181250Y88000D03*
X180700Y84800D03*
X176500Y84250D03*
X183000Y106000D03*
X175000Y107000D03*
X180000Y104000D03*
X176500D03*
X173220Y103970D03*
X169250Y104000D03*
X175780Y116280D03*
X179250Y116250D03*
X173200Y130250D03*
X177750Y133700D03*
X182500D03*
X170800Y130250D03*
X195250Y-65000D03*
X202750Y-57500D03*
X196750Y-52500D03*
X193250Y-23000D03*
X210000Y-41250D03*
X195750Y-3250D03*
X207000Y20000D03*
X209500Y5000D03*
X196500Y25000D03*
X213250Y-97500D03*
X222750Y-52500D03*
X228250Y-47500D03*
X215250Y-60250D03*
Y-45000D03*
X228250Y-34500D03*
X228500Y-25500D03*
X216500Y-27750D03*
X210500Y-10000D03*
X213250Y-12250D03*
Y-17500D03*
X215250Y15000D03*
X213250Y72500D03*
X222912Y90178D03*
X223005Y94915D03*
X232000Y65750D03*
G54D36*
G01X17549Y13275D02*
X19459D01*
G01X20849D02*
X19459D01*
G01D02*
X17047Y13258D01*
X15852Y14447D01*
X15799Y14500D01*
G54D18*
X-18940Y-5213D03*
X-21521D03*
X-24102D03*
X-18940Y-12263D03*
X-21521D03*
X-24102D03*
G54D27*
X31000Y106000D03*
X41000Y116000D03*
X31000Y126000D03*
X51000Y106000D03*
Y126000D03*
G54D37*
G01X-25750Y-5250D02*
G03X-47750Y-27250I0J-22000D01*
G01Y-27750D01*
G02X-61803Y-41803I-14053J0D01*
G01X-78250D01*
G01X-18705Y26913D02*
X-25245Y33453D01*
G03X-53250Y45053I-28005J-28005D01*
G01X-78250D01*
G01X27924Y17250D02*
Y39066D01*
G03X16250Y67250I-39858J0D01*
G01X-1080Y84581D01*
G03X-71500Y113750I-70420J-70420D01*
G01X-78250D01*
G01X-22500Y-123250D02*
Y-109748D01*
G01X-26502Y-123250D02*
X-22500D01*
G01D02*
X-18498D01*
G01X-2323Y-13425D02*
X-11199Y-22301D01*
X-22301D01*
G01X-21521Y-9604D02*
Y-12263D01*
G01Y-5213D02*
Y-7872D01*
G01D02*
Y-9604D01*
G01X-21567Y-91D02*
X-21521Y-3245D01*
Y-5213D01*
G01X-21571Y-18375D02*
X-21487Y-17401D01*
X-21521Y-14920D01*
Y-12263D01*
G01X-11250Y24000D02*
X-8125Y18587D01*
G01X-3795Y21087D02*
G02X-3070Y19418I-10331J-5479D01*
G01X-3795Y21087D02*
X-3070Y19418D01*
G01X-2793Y13270D02*
X-2594Y14156D01*
G01D02*
G02X-2793Y13270I-9611J1693D01*
G01X-3070Y19418D02*
G02X-2521Y17047I-11056J-3809D01*
G03X-2502Y16864I5147J442D01*
G02X-2483Y16682I-5127J-627D01*
G02X-2594Y14156I-9723J-838D01*
G01X-6257Y11270D02*
G02X-7283Y11617I2815J10015D01*
G01X-11559Y14778D02*
G02X-12455Y16087I8120J6519D01*
G01D02*
X-11559Y14778D01*
G01X-7283Y11617D02*
X-6257Y11270D01*
G01X-11559Y14778D02*
G03X-8665Y12288I8123J6515D01*
G03X-7283Y11617I5222J8997D01*
G01X-7400Y27500D02*
X-10045Y31913D01*
G01X-11250Y24000D02*
X-14375Y29413D01*
G01X-10045Y31913D02*
X-13000Y37000D01*
G01X-14375Y29413D02*
X-17500Y33928D01*
G01X10500Y-123250D02*
Y-109748D01*
G01X6498Y-123250D02*
X10500D01*
G01D02*
X14502D01*
G01X4790Y14680D02*
X4825Y14645D01*
G01D02*
Y13475D01*
G01X5000Y4093D02*
Y10900D01*
X4825Y11075D01*
G01X13250Y30000D02*
Y28913D01*
X12787Y28450D01*
X11618D01*
G01X33898Y-33898D02*
X38401Y-39651D01*
X47470Y-51237D01*
G02X50750Y-60750I-12154J-9513D01*
G01X39250Y-14125D02*
X39500Y-13875D01*
G01D02*
Y-13200D01*
G01X27899Y13275D02*
X30624D01*
G01D02*
X32874D01*
G01X31000Y99498D02*
Y106000D01*
G01Y119498D02*
Y126000D01*
G01Y106000D02*
Y112502D01*
G01X24498Y106000D02*
X31000D01*
G01D02*
X37502D01*
G01X31000Y126000D02*
Y132502D01*
G01X24498Y126000D02*
X31000D01*
G01D02*
X37502D01*
G01X51000Y99498D02*
Y106000D01*
G01Y119498D02*
Y126000D01*
G01Y106000D02*
Y112502D01*
G01X44498Y106000D02*
X51000D01*
G01D02*
X57502D01*
G01X51000Y126000D02*
Y132502D01*
G01X44498Y126000D02*
X51000D01*
G01D02*
X57502D01*
G01X103500Y118750D02*
X92000D01*
X89464Y116214D01*
Y95576D01*
G01X103500Y118750D02*
X113250D01*
X122750Y109250D01*
X146272D01*
X149272Y106250D01*
G01X125000Y32500D02*
X170250D01*
X190250Y52500D01*
X195745D01*
G01X124913Y119909D02*
G03X124900Y124250I-724787J0D01*
G01Y117625D02*
Y121075D01*
G01D02*
Y124250D01*
G01Y121075D02*
G03X124913Y119909I51185J-12D01*
G01D02*
G03X125025Y117500I51172J1172D01*
G01X131475D02*
X132475Y118500D01*
X135250D01*
G01X164000Y-106252D02*
Y-102000D01*
G01D02*
Y-97748D01*
G01X159748Y-102000D02*
X164000D01*
G01D02*
X168252D01*
G01X219300Y32500D02*
X215745D01*
G01X219300Y27500D02*
X215745D01*
G01X221700D02*
Y28700D01*
X223000Y30000D01*
G01X221700Y32500D02*
Y33700D01*
X223000Y35000D01*
G01X222413Y45413D02*
X222500Y45500D01*
G54D19*
X-18705Y26913D03*
X-12455Y16087D03*
X-8125Y18587D03*
X-3795Y21087D03*
X-14375Y29413D03*
X-10045Y31913D03*
G54D28*
X80000Y43000D03*
X154000Y-102000D03*
G54D38*
G01X75775Y-122581D02*
X76082Y-122684D01*
X76312Y-122943D01*
X76465Y-123253D01*
X76580Y-123666D01*
X76618Y-124131D01*
X76580Y-124596D01*
X76465Y-125009D01*
X76312Y-125319D01*
X76082Y-125578D01*
X75775Y-125681D01*
X75468Y-125578D01*
X75238Y-125319D01*
X75085Y-125009D01*
X74970Y-124596D01*
X74932Y-124131D01*
X74970Y-123666D01*
X75085Y-123253D01*
X75238Y-122943D01*
X75468Y-122684D01*
X75775Y-122581D01*
G01X72675Y-125681D02*
X72407Y-125629D01*
X72100Y-125474D01*
X71908Y-125216D01*
X71832Y-124854D01*
X71908Y-124493D01*
X72138Y-124183D01*
X72483Y-124028D01*
X72867D01*
X73097Y-123924D01*
X73288Y-123666D01*
X73365Y-123304D01*
X73250Y-122943D01*
X72982Y-122684D01*
X72675Y-122581D01*
X72368Y-122684D01*
X72100Y-122943D01*
X71985Y-123304D01*
X72062Y-123666D01*
X72253Y-123924D01*
X72483Y-124028D01*
X72867D01*
X73212Y-124183D01*
X73442Y-124493D01*
X73518Y-124854D01*
X73442Y-125216D01*
X73250Y-125474D01*
X72943Y-125629D01*
X72675Y-125681D01*
G01X70073Y-124648D02*
X69077D01*
G01X66475Y-122581D02*
X66782Y-122684D01*
X67012Y-122943D01*
X67165Y-123253D01*
X67280Y-123666D01*
X67318Y-124131D01*
X67280Y-124596D01*
X67165Y-125009D01*
X67012Y-125319D01*
X66782Y-125578D01*
X66475Y-125681D01*
X66168Y-125578D01*
X65938Y-125319D01*
X65785Y-125009D01*
X65670Y-124596D01*
X65632Y-124131D01*
X65670Y-123666D01*
X65785Y-123253D01*
X65938Y-122943D01*
X66168Y-122684D01*
X66475Y-122581D01*
G01X64218Y-125061D02*
X63988Y-125423D01*
X63682Y-125629D01*
X63337Y-125681D01*
X63030Y-125629D01*
X62723Y-125371D01*
X62532Y-125061D01*
X62493Y-124751D01*
X62570Y-124389D01*
X62838Y-124131D01*
X63107Y-124028D01*
X63452D01*
G01X63107D02*
X62877Y-123873D01*
X62685Y-123614D01*
X62608Y-123304D01*
X62685Y-122994D01*
X62877Y-122736D01*
X63222Y-122581D01*
X63567Y-122633D01*
X63912Y-122839D01*
G01X60352Y-125681D02*
X60275Y-125009D01*
X60160Y-124441D01*
X60007Y-123924D01*
X59815Y-123356D01*
X59508Y-122581D01*
X61042D01*
G01X58018Y-125216D02*
X57788Y-125474D01*
X57520Y-125629D01*
X57175Y-125681D01*
X56830Y-125578D01*
X56562Y-125371D01*
X56370Y-125009D01*
X56332Y-124596D01*
X56408Y-124183D01*
X56600Y-123924D01*
X56868Y-123718D01*
X57137Y-123666D01*
X57405Y-123718D01*
X57750Y-123924D01*
X57635Y-122581D01*
X56600D01*
G01X54075Y-125681D02*
Y-122581D01*
X54535Y-123201D01*
G01Y-125681D02*
X53615D01*
G01X51703Y-124389D02*
X51435Y-124028D01*
X51205Y-123821D01*
X50898Y-123718D01*
X50630Y-123821D01*
X50438Y-124028D01*
X50285Y-124338D01*
X50247Y-124699D01*
X50285Y-125009D01*
X50438Y-125319D01*
X50668Y-125578D01*
X50937Y-125681D01*
X51243Y-125578D01*
X51512Y-125268D01*
X51665Y-124803D01*
X51703Y-124286D01*
X51627Y-123614D01*
X51512Y-123253D01*
X51320Y-122891D01*
X51052Y-122633D01*
X50783Y-122581D01*
X50515Y-122684D01*
X50323Y-122943D01*
G01X45542Y-125681D02*
Y-122581D01*
X44583D01*
X44277Y-122736D01*
X44085Y-122943D01*
X44008Y-123356D01*
X44085Y-123769D01*
X44315Y-124028D01*
X44583Y-124183D01*
X45542D01*
G01X44583D02*
X44008Y-125681D01*
G01X40908D02*
X42442D01*
Y-122581D01*
X40908D01*
G01X41522Y-124079D02*
X42442D01*
G01X39533Y-122581D02*
X38575Y-125681D01*
X37617Y-122581D01*
G01X33333Y-125681D02*
X32375Y-122581D01*
X31417Y-125681D01*
G01X31762Y-124596D02*
X32988D01*
G01X73687Y-120283D02*
Y-117183D01*
X72231D01*
G01X72767Y-118681D02*
X73687D01*
G01X70856Y-120283D02*
Y-117183D01*
X69859Y-119766D01*
X68862Y-117183D01*
Y-120283D01*
G01X65916Y-117441D02*
X66146Y-117286D01*
X66414Y-117183D01*
X66721D01*
X67066Y-117338D01*
X67334Y-117596D01*
X67526Y-117906D01*
X67679Y-118423D01*
X67717Y-118888D01*
X67641Y-119353D01*
X67526Y-119663D01*
X67296Y-119973D01*
X67027Y-120180D01*
X66759Y-120283D01*
X66491D01*
X66222Y-120180D01*
X65992Y-120025D01*
X65801Y-119818D01*
G01X63659Y-120283D02*
X63966Y-120231D01*
X64234Y-120025D01*
X64464Y-119715D01*
X64617Y-119353D01*
X64694Y-118940D01*
Y-118526D01*
X64617Y-118113D01*
X64464Y-117751D01*
X64234Y-117441D01*
X63966Y-117235D01*
X63659Y-117183D01*
X63352Y-117235D01*
X63084Y-117441D01*
X62854Y-117751D01*
X62701Y-118113D01*
X62624Y-118526D01*
Y-118940D01*
X62701Y-119353D01*
X62854Y-119715D01*
X63084Y-120025D01*
X63352Y-120231D01*
X63659Y-120283D01*
G01X61556D02*
Y-117183D01*
X60559Y-119766D01*
X59562Y-117183D01*
Y-120283D01*
G01X58456D02*
Y-117183D01*
X57459Y-119766D01*
X56462Y-117183D01*
Y-120283D01*
G01X55164Y-119870D02*
X54857Y-120128D01*
X54512Y-120283D01*
X54206D01*
X53899Y-120128D01*
X53669Y-119870D01*
X53554Y-119508D01*
X53631Y-119146D01*
X53822Y-118836D01*
X54167Y-118630D01*
X54627Y-118526D01*
X54896Y-118320D01*
X55011Y-117958D01*
X54934Y-117596D01*
X54742Y-117338D01*
X54474Y-117183D01*
X54206D01*
X53937Y-117286D01*
X53707Y-117545D01*
G01X51987Y-120283D02*
Y-117183D01*
X50531D01*
G01X51067Y-118681D02*
X51987D01*
G01X49156Y-120283D02*
Y-117183D01*
X48159Y-119766D01*
X47162Y-117183D01*
Y-120283D01*
G01X44216Y-117441D02*
X44446Y-117286D01*
X44714Y-117183D01*
X45021D01*
X45366Y-117338D01*
X45634Y-117596D01*
X45826Y-117906D01*
X45979Y-118423D01*
X46017Y-118888D01*
X45941Y-119353D01*
X45826Y-119663D01*
X45596Y-119973D01*
X45327Y-120180D01*
X45059Y-120283D01*
X44791D01*
X44522Y-120180D01*
X44292Y-120025D01*
X44101Y-119818D01*
G01X41959Y-117183D02*
X42266Y-117286D01*
X42496Y-117545D01*
X42649Y-117855D01*
X42764Y-118268D01*
X42802Y-118733D01*
X42764Y-119198D01*
X42649Y-119611D01*
X42496Y-119921D01*
X42266Y-120180D01*
X41959Y-120283D01*
X41652Y-120180D01*
X41422Y-119921D01*
X41269Y-119611D01*
X41154Y-119198D01*
X41116Y-118733D01*
X41154Y-118268D01*
X41269Y-117855D01*
X41422Y-117545D01*
X41652Y-117286D01*
X41959Y-117183D01*
G01X38399Y-120283D02*
Y-117183D01*
X39817Y-119405D01*
X37901D01*
G01X36717Y-120283D02*
X35759Y-117183D01*
X34801Y-120283D01*
G01X35146Y-119198D02*
X36372D01*
G01X243443Y85898D02*
X246543D01*
X245923Y85438D01*
G01X243443D02*
Y86358D01*
G01X246543Y88998D02*
X246440Y88691D01*
X246181Y88461D01*
X245871Y88308D01*
X245458Y88193D01*
X244993Y88155D01*
X244528Y88193D01*
X244115Y88308D01*
X243805Y88461D01*
X243546Y88691D01*
X243443Y88998D01*
X243546Y89305D01*
X243805Y89535D01*
X244115Y89688D01*
X244528Y89803D01*
X244993Y89841D01*
X245458Y89803D01*
X245871Y89688D01*
X246181Y89535D01*
X246440Y89305D01*
X246543Y88998D01*
G54D29*
X80000Y53000D03*
X100000Y43000D03*
X90000D03*
X100000Y53000D03*
X90000D03*
X120000Y43000D03*
X110000D03*
X120000Y53000D03*
X110000D03*
X150000Y43000D03*
X140000D03*
X130000D03*
X150000Y53000D03*
X140000D03*
X130000D03*
X164000Y-102000D03*
X170000Y43000D03*
X160000D03*
X170000Y53000D03*
X160000D03*
X174000Y-102000D03*
G54D39*
G01X20250Y190750D02*
Y180750D01*
X25250D01*
G01X32750D02*
Y190750D01*
X31250Y188750D01*
G01Y180750D02*
X34250D01*
G01X42750Y190750D02*
X41750Y190417D01*
X41000Y189583D01*
X40500Y188583D01*
X40125Y187250D01*
X40000Y185750D01*
X40125Y184250D01*
X40500Y182917D01*
X41000Y181916D01*
X41750Y181083D01*
X42750Y180750D01*
X43750Y181083D01*
X44500Y181916D01*
X45000Y182917D01*
X45375Y184250D01*
X45500Y185750D01*
X45375Y187250D01*
X45000Y188583D01*
X44500Y189583D01*
X43750Y190417D01*
X42750Y190750D01*
G01X60125Y182083D02*
X61125Y181250D01*
X62250Y180750D01*
X63250D01*
X64250Y181250D01*
X65000Y182083D01*
X65375Y183250D01*
X65125Y184416D01*
X64500Y185417D01*
X63375Y186083D01*
X61875Y186417D01*
X61000Y187083D01*
X60625Y188250D01*
X60875Y189417D01*
X61500Y190250D01*
X62375Y190750D01*
X63250D01*
X64125Y190417D01*
X64875Y189583D01*
G01X75250Y180750D02*
X70250D01*
Y190750D01*
X75250D01*
G01X73250Y185917D02*
X70250D01*
G01X85500Y189917D02*
X84750Y190417D01*
X83875Y190750D01*
X82875D01*
X81750Y190250D01*
X80875Y189417D01*
X80250Y188417D01*
X79750Y186750D01*
X79625Y185250D01*
X79875Y183750D01*
X80250Y182750D01*
X81000Y181750D01*
X81875Y181083D01*
X82750Y180750D01*
X83625D01*
X84500Y181083D01*
X85250Y181583D01*
X85875Y182250D01*
G01X92750Y180750D02*
X91750Y180917D01*
X90875Y181583D01*
X90125Y182583D01*
X89625Y183750D01*
X89375Y185083D01*
Y186417D01*
X89625Y187750D01*
X90125Y188917D01*
X90875Y189917D01*
X91750Y190583D01*
X92750Y190750D01*
X93750Y190583D01*
X94625Y189917D01*
X95375Y188917D01*
X95875Y187750D01*
X96125Y186417D01*
Y185083D01*
X95875Y183750D01*
X95375Y182583D01*
X94625Y181583D01*
X93750Y180917D01*
X92750Y180750D01*
G01X99875D02*
Y190750D01*
X105625Y180750D01*
Y190750D01*
G01X110000Y180750D02*
Y190750D01*
X112500D01*
X113500Y190250D01*
X114250Y189583D01*
X114875Y188583D01*
X115375Y187416D01*
X115500Y185750D01*
X115375Y184083D01*
X114875Y182917D01*
X114250Y181916D01*
X113500Y181250D01*
X112500Y180750D01*
X110000D01*
G01X119625D02*
X122750Y190750D01*
X125875Y180750D01*
G01X124750Y184250D02*
X120750D01*
G01X130250Y180750D02*
Y190750D01*
X133375D01*
X134375Y190250D01*
X135000Y189583D01*
X135250Y188250D01*
X135000Y186917D01*
X134250Y186083D01*
X133375Y185583D01*
X130250D01*
G01X133375D02*
X135250Y180750D01*
G01X142750D02*
Y185250D01*
X140250Y190750D01*
G01X145250D02*
X142750Y185250D01*
G01X27750Y170750D02*
X26750Y170417D01*
X26000Y169583D01*
X25500Y168583D01*
X25125Y167250D01*
X25000Y165750D01*
X25125Y164250D01*
X25500Y162917D01*
X26000Y161916D01*
X26750Y161083D01*
X27750Y160750D01*
X28750Y161083D01*
X29500Y161916D01*
X30000Y162917D01*
X30375Y164250D01*
X30500Y165750D01*
X30375Y167250D01*
X30000Y168583D01*
X29500Y169583D01*
X28750Y170417D01*
X27750Y170750D01*
G01X37750Y160750D02*
X38625Y160917D01*
X39625Y161417D01*
X40250Y162250D01*
X40500Y163417D01*
X40250Y164583D01*
X39500Y165583D01*
X38375Y166083D01*
X37125D01*
X36375Y166417D01*
X35750Y167250D01*
X35500Y168417D01*
X35875Y169583D01*
X36750Y170417D01*
X37750Y170750D01*
X38750Y170417D01*
X39625Y169583D01*
X40000Y168417D01*
X39750Y167250D01*
X39125Y166417D01*
X38375Y166083D01*
X37125D01*
X36000Y165583D01*
X35250Y164583D01*
X35000Y163417D01*
X35250Y162250D01*
X35875Y161417D01*
X36875Y160917D01*
X37750Y160750D01*
G01X46125Y164083D02*
X49375D01*
G01X116125D02*
X119375D01*
G01X127750Y170750D02*
X126750Y170417D01*
X126000Y169583D01*
X125500Y168583D01*
X125125Y167250D01*
X125000Y165750D01*
X125125Y164250D01*
X125500Y162917D01*
X126000Y161916D01*
X126750Y161083D01*
X127750Y160750D01*
X128750Y161083D01*
X129500Y161916D01*
X130000Y162917D01*
X130375Y164250D01*
X130500Y165750D01*
X130375Y167250D01*
X130000Y168583D01*
X129500Y169583D01*
X128750Y170417D01*
X127750Y170750D01*
G01X135375Y169083D02*
X136125Y170083D01*
X137000Y170583D01*
X138000Y170750D01*
X139250Y170417D01*
X140125Y169583D01*
X140375Y168583D01*
X140250Y167583D01*
X139750Y166750D01*
X137250Y165083D01*
X136125Y163917D01*
X135375Y162250D01*
X135125Y160750D01*
X140375D01*
G01X60250Y140750D02*
Y150750D01*
X63375D01*
X64375Y150250D01*
X65000Y149583D01*
X65250Y148250D01*
X65000Y146917D01*
X64250Y146083D01*
X63375Y145583D01*
X60250D01*
G01X63375D02*
X65250Y140750D01*
G01X75250D02*
X70250D01*
Y150750D01*
X75250D01*
G01X73250Y145917D02*
X70250D01*
G01X79625Y150750D02*
X82750Y140750D01*
X85875Y150750D01*
G01X103750Y146083D02*
X104250Y146583D01*
X104625Y147416D01*
X104875Y148583D01*
X104625Y149583D01*
X104125Y150250D01*
X103250Y150750D01*
X99875D01*
Y140750D01*
X104000D01*
X104875Y141417D01*
X105375Y142417D01*
X105625Y143583D01*
X105375Y144750D01*
X104625Y145750D01*
X103750Y146083D01*
X99875D01*
G01X57750Y170750D02*
X56750Y170417D01*
X56000Y169583D01*
X55500Y168583D01*
X55125Y167250D01*
X55000Y165750D01*
X55125Y164250D01*
X55500Y162917D01*
X56000Y161916D01*
X56750Y161083D01*
X57750Y160750D01*
X58750Y161083D01*
X59500Y161916D01*
X60000Y162917D01*
X60375Y164250D01*
X60500Y165750D01*
X60375Y167250D01*
X60000Y168583D01*
X59500Y169583D01*
X58750Y170417D01*
X57750Y170750D01*
G01X65000Y162750D02*
X65750Y161583D01*
X66750Y160917D01*
X67875Y160750D01*
X68875Y160917D01*
X69875Y161750D01*
X70500Y162750D01*
X70625Y163750D01*
X70375Y164916D01*
X69500Y165750D01*
X68625Y166083D01*
X67500D01*
G01X68625D02*
X69375Y166583D01*
X70000Y167416D01*
X70250Y168417D01*
X70000Y169417D01*
X69375Y170250D01*
X68250Y170750D01*
X67125Y170583D01*
X66000Y169917D01*
G01X77500Y160750D02*
X77750Y162917D01*
X78125Y164750D01*
X78625Y166417D01*
X79250Y168250D01*
X80250Y170750D01*
X75250D01*
G01X85000Y162250D02*
X85750Y161417D01*
X86625Y160917D01*
X87750Y160750D01*
X88875Y161083D01*
X89750Y161750D01*
X90375Y162917D01*
X90500Y164250D01*
X90250Y165583D01*
X89625Y166417D01*
X88750Y167083D01*
X87875Y167250D01*
X87000Y167083D01*
X85875Y166417D01*
X86250Y170750D01*
X89625D01*
G01X97750Y160750D02*
Y170750D01*
X96250Y168750D01*
G01Y160750D02*
X99250D01*
G01X105375Y164916D02*
X106250Y166083D01*
X107000Y166750D01*
X108000Y167083D01*
X108875Y166750D01*
X109500Y166083D01*
X110000Y165083D01*
X110125Y163917D01*
X110000Y162917D01*
X109500Y161916D01*
X108750Y161083D01*
X107875Y160750D01*
X106875Y161083D01*
X106000Y162083D01*
X105500Y163583D01*
X105375Y165250D01*
X105625Y167416D01*
X106000Y168583D01*
X106625Y169750D01*
X107500Y170583D01*
X108375Y170750D01*
X109250Y170417D01*
X109875Y169583D01*
G01X-12050Y-6750D02*
X-11438Y-6708D01*
G01X-2323Y-7126D02*
X-2453Y-7255D01*
G02X-4250Y-8000I-1798J1797D01*
G01X-9032D01*
G02X-12050Y-6750I0J4268D01*
G01Y-10750D02*
X-11452Y-10780D01*
G01X-2323Y-10276D02*
X-2456Y-10143D01*
G03X-4250Y-9400I-1794J-1794D01*
G01X-9000D01*
G03X-11902Y-10602I0J-4104D01*
G01X-12050Y-10750D01*
G01X-1593Y11192D02*
X-1647Y11103D01*
G03X-1587Y8399I2496J-1297D01*
G01X827Y2323D02*
G02X75Y4025I1822J1822D01*
G01Y4650D01*
G03X-413Y6367I-3647J-109D01*
G01X-813Y7060D01*
X-1214Y7753D01*
X-1587Y8399D01*
G01X-5057Y9192D02*
X-5111Y9103D01*
G02X-3164Y8328I482J-1622D01*
G01X-2323Y2323D02*
G03X-1325Y3400I-82J1077D01*
G01Y4626D01*
G03X-1625Y5666I-2247J-85D01*
G01X-1626D01*
X-2026Y6359D01*
X-3164Y8328D01*
G01X18150Y-27599D02*
X19724Y-26024D01*
G01X15001Y-27599D02*
X16575Y-26024D01*
G01X21300Y-27599D02*
X22874Y-26024D01*
G01X18150Y-24449D02*
X16575Y-22874D01*
G01X15000Y-11851D02*
X16575Y-10276D01*
G01X15000Y-18150D02*
X16575Y-16575D01*
G01X21298Y-14999D02*
X19724Y-13425D01*
G01X21299Y-11850D02*
X22874Y-13425D01*
G01X18150Y-2401D02*
X19724Y-3976D01*
G01X21300Y-5551D02*
X22874Y-7126D01*
G01X18149Y-5550D02*
X16575Y-3976D01*
G01X21298Y-8700D02*
X19724Y-7126D01*
G01X18149Y-8700D02*
X16575Y-7126D01*
G01X18150Y-11850D02*
X19724Y-10276D01*
G01X18149Y-14999D02*
X16575Y-13425D01*
G01X21299Y-21299D02*
X22874Y-19724D01*
G01X18149Y-21299D02*
X19724Y-19724D01*
G01X18149Y-18150D02*
X16575Y-19724D01*
G01X11850Y-5550D02*
X10276Y-3976D01*
G01X16575Y-827D02*
X16499D01*
X15298Y374D01*
G01X7126Y4550D02*
Y2323D01*
G01X19724Y-827D02*
Y-801D01*
X20925Y400D01*
G01X18149Y3898D02*
X19724Y2323D01*
G01X15000Y3898D02*
X16575Y2323D01*
G01X10276D02*
Y4550D01*
G01X24450Y-27599D02*
X26024Y-26024D01*
G01X27599Y-27599D02*
X29173Y-26024D01*
G01X30747Y-21300D02*
X29173Y-22874D01*
G01X27599Y-11851D02*
X29173Y-13425D01*
G01X24449Y-15000D02*
X26024Y-16575D01*
G01X30747Y-11850D02*
X29173Y-10276D01*
G01X24449Y-11850D02*
X26024Y-13425D01*
G01X30747Y-2402D02*
X29173Y-3976D01*
G01X30748Y-5551D02*
X32323Y-7126D01*
G01X27599Y-5552D02*
X29173Y-7126D01*
G01X24450Y-5552D02*
X26024Y-7126D01*
G01X33897Y-18150D02*
X32323Y-19724D01*
G01X27599Y-21298D02*
X29173Y-19724D01*
G01X24449Y-21299D02*
X26024Y-19724D01*
G01X24448Y-8702D02*
X22874Y-10276D01*
G01X26024Y-827D02*
Y-801D01*
X27225Y400D01*
G01X26023Y-827D02*
Y-801D01*
X27224Y400D01*
G01X26023Y2323D02*
G02X25149Y4723I2858J2400D01*
G01Y9025D01*
G02X27057Y10716I1703J0D01*
G01X22874Y2323D02*
G03X23599Y4723I-3610J2400D01*
G01Y9025D01*
G03X21691Y10716I-1703J0D01*
M02*
