G04 ================== begin FILE IDENTIFICATION RECORD ==================*
G04 Layout Name:  08_037516b-1-14.brd*
G04 Film Name:    l4_gnd*
G04 File Format:  Gerber RS274X*
G04 File Origin:  Cadence Allegro 16.5-S031*
G04 Origin Date:  Tue Jan 14 09:43:34 2014*
G04 *
G04 Layer:  VIA CLASS/L4_GND*
G04 Layer:  PIN/L4_GND*
G04 Layer:  ETCH/L4_GND*
G04 Layer:  BOARD GEOMETRY/TOOLING_CORNERS*
G04 Layer:  BOARD GEOMETRY/LYR_4*
G04 Layer:  BOARD GEOMETRY/ROOT_NUMBER*
G04 *
G04 Offset:    (0.00 0.00)*
G04 Mirror:    No*
G04 Mode:      Positive*
G04 Rotation:  0*
G04 FullContactRelief:  No*
G04 UndefLineWidth:     8.00*
G04 ================== end FILE IDENTIFICATION RECORD ====================*
%FSLAX55Y55*MOIN*%
%IR0*IPPOS*OFA0.00000B0.00000*MIA0B0*SFA1.00000B1.00000*%
%ADD12O,.06X.25*%
%ADD10O,.25X.06*%
%ADD11C,.02*%
%ADD14C,.012*%
%ADD13C,.016*%
%ADD16C,.028*%
%ADD17C,.065*%
%ADD15C,.11*%
%ADD18C,.004*%
%ADD19C,.008*%
%ADD20C,.0049*%
%ADD24C,.03104*%
%ADD21C,.03504*%
%ADD25C,.08104*%
%ADD23C,.02704*%
%ADD29C,.05702*%
%ADD28C,.05586*%
%ADD27C,.11604*%
%ADD26C,.17104*%
%ADD22C,.22604*%
G75*
%LPD*%
G75*
G36*
G01X-29750Y-135750D02*
X-32000Y-133500D01*
X-80698Y-133302D01*
X-83307Y-130693D01*
Y130693D01*
X-80801Y133199D01*
X-32250Y133250D01*
X-29750Y135750D01*
X17750D01*
X20250Y133250D01*
X120530D01*
G02X120923Y132778I0J-400D01*
G03X123977I1527J-278D01*
G02X124370Y133250I393J72D01*
G01X133114D01*
G02X133357Y132532I0J-400D01*
G03X135243I943J-1232D01*
G02X135486Y133250I243J318D01*
G01X176259D01*
X176309Y133124D01*
G03X179191I1441J576D01*
G01X179241Y133250D01*
X181009D01*
X181059Y133124D01*
G03X183941I1441J576D01*
G01X183991Y133250D01*
X240250D01*
Y83948D01*
X245250D01*
Y-133250D01*
X20250D01*
X17750Y-135750D01*
X13800D01*
G02X13486Y-135103I0J400D01*
G03X14302Y-132750I-2986J2353D01*
G01Y-113750D01*
G03X6698I-3802J0D01*
G01Y-132750D01*
G03X7514Y-135103I3802J0D01*
G02X7200Y-135750I-314J-247D01*
G01X-19200D01*
G02X-19514Y-135103I0J400D01*
G03X-18698Y-132750I-2986J2353D01*
G01Y-113750D01*
G03X-26302I-3802J0D01*
G01Y-132750D01*
G03X-25486Y-135103I3802J0D01*
G02X-25800Y-135750I-314J-247D01*
G01X-29750D01*
G37*
%LPC*%
G75*
G36*
G01X134657Y126148D02*
G03X134093I-282J-283D01*
G02Y128352I-1093J1102D01*
G03X134657I282J283D01*
G02Y126148I1093J-1102D01*
G37*
G36*
G01X62575Y82030D02*
G03X61925I-325J-232D01*
G02Y84070I-1425J1020D01*
G03X62575I325J232D01*
G02Y82030I1425J-1020D01*
G37*
G36*
G01X168057Y66257D02*
G03X167443I-307J-256D01*
G02X165148Y68343I-1192J994D01*
G03Y68907I-283J282D01*
G02X165058Y70994I1102J1093D01*
G03Y71506I-307J256D01*
G02X165148Y73593I1192J994D01*
G03Y74157I-283J282D01*
G02X167443Y76243I1103J1092D01*
G03X168057I307J256D01*
G02X170352Y74157I1192J-994D01*
G03Y73593I283J-282D01*
G02X170442Y71506I-1102J-1093D01*
G03Y70994I307J-256D01*
G02X170352Y68907I-1192J-994D01*
G03Y68343I283J-282D01*
G02X168057Y66257I-1103J-1092D01*
G37*
G36*
G01X-38675Y15980D02*
G03X-39325I-325J-232D01*
G02Y18020I-1425J1020D01*
G03X-38675I325J232D01*
G02Y15980I1425J-1020D01*
G37*
G36*
G01X31749Y14618D02*
G02Y11932I1125J-1343D01*
G02Y14618I-1125J1343D01*
G37*
G36*
G01X-38675Y5480D02*
G03X-39325I-325J-232D01*
G02Y7520I-1425J1020D01*
G03X-38675I325J232D01*
G02Y5480I1425J-1020D01*
G37*
G36*
G01X-34675Y-34520D02*
G03X-35325I-325J-232D01*
G02Y-32480I-1425J1020D01*
G03X-34675I325J232D01*
G02Y-34520I1425J-1020D01*
G37*
G36*
G01Y-46020D02*
G03X-35325I-325J-232D01*
G02Y-43980I-1425J1020D01*
G03X-34675I325J232D01*
G02Y-46020I1425J-1020D01*
G37*
G36*
G01X34770Y-49425D02*
G03Y-50075I232J-325D01*
G02X32730I-1020J-1425D01*
G03Y-49425I-232J325D01*
G02X34770I1020J1425D01*
G37*
G36*
G01X125976Y-61528D02*
G03X125515Y-61835I-71J-394D01*
G02X122589Y-62146I-1515J335D01*
G03X122077Y-61941I-364J-166D01*
G02X122911Y-59854I-577J1441D01*
G03X123423Y-60059I364J166D01*
G02X124274Y-59972I577J-1441D01*
G03X124735Y-59665I71J394D01*
G02X125976Y-61528I1515J-335D01*
G37*
G36*
G01X136276Y119665D02*
G02X134622Y119919I-1025J-1165D01*
G03X134724Y120585I-162J366D01*
G02X134657Y120648I1029J1162D01*
G03X134093I-282J-283D01*
G02Y122852I-1093J1102D01*
G03X134657I282J283D01*
G02X136378Y120331I1093J-1102D01*
G03X136276Y119665I162J-366D01*
G37*
G36*
G01X177877Y116973D02*
G02X177864Y115551I1373J-724D01*
G03X177153Y115557I-357J-180D01*
G02X177166Y116979I-1373J724D01*
G03X177877Y116973I357J180D01*
G37*
G36*
G01X55925Y97980D02*
G02X52786Y99362I-1425J1020D01*
G03X52311Y99836I-391J83D01*
G02X45503Y109083I-1311J6164D01*
G03X44944Y109619I-349J196D01*
G02X37056I-3944J6381D01*
G03X36497Y109083I-210J-340D01*
G02X34083Y111497I-5497J-3083D01*
G03X34619Y112056I196J349D01*
G02Y119944I6381J3944D01*
G03X34083Y120503I-340J210D01*
G02X36497Y122917I-3083J5497D01*
G03X37056Y122381I349J-196D01*
G02X44944I3944J-6381D01*
G03X45503Y122917I210J340D01*
G02X47917Y120503I5497J3083D01*
G03X47381Y119944I-196J-349D01*
G02Y112056I-6381J-3944D01*
G03X47917Y111497I340J-210D01*
G02X55145Y101253I3084J-5496D01*
G03X55239Y100589I263J-301D01*
G02X55925Y100020I-739J-1589D01*
G03X56575I325J232D01*
G02Y97980I1425J-1020D01*
G03X55925I-325J-232D01*
G37*
G36*
G01Y90230D02*
G02X53640Y92777I-1424J1021D01*
G03Y93473I-196J348D01*
G02X55925Y96020I861J1526D01*
G03X56575I325J232D01*
G02X58860Y93473I1424J-1021D01*
G03Y92777I196J-348D01*
G02X56575Y90230I-861J-1526D01*
G03X55925I-325J-232D01*
G37*
G36*
G01X61925Y74280D02*
G02X59640Y76827I-1424J1021D01*
G03Y77523I-196J348D01*
G02X61925Y80070I861J1526D01*
G03X62575I325J232D01*
G02X64860Y77523I1424J-1021D01*
G03Y76827I196J-348D01*
G02X62575Y74280I-861J-1526D01*
G03X61925I-325J-232D01*
G37*
G36*
G01X186183Y-35652D02*
G02X184317I-933J-1240D01*
G03Y-35012I-240J320D01*
G02X186183I933J1240D01*
G03Y-35652I240J-320D01*
G37*
G54D24*
X1500Y26000D03*
X15500D03*
X78000Y92700D03*
X89464Y95576D03*
X103500Y118750D03*
X114500Y-71000D03*
X123500Y69250D03*
X110250Y66750D03*
X125725Y129275D03*
X106500Y127000D03*
X143050Y-59000D03*
X130750Y-61750D03*
X127250Y62750D03*
X162250Y-84500D03*
X152750Y101530D03*
X149272Y106250D03*
X154750Y108500D03*
X174000Y81000D03*
X180700Y84800D03*
X176500Y84250D03*
X173220Y103970D03*
X169250Y104000D03*
X170800Y130250D03*
X222912Y90178D03*
X223005Y94915D03*
G54D21*
X-70500Y-3000D03*
Y16250D03*
Y6750D03*
X-46750Y10000D03*
X-40750Y59500D03*
X-36750D03*
X-1550Y38177D03*
Y42177D03*
X30000Y-65750D03*
Y-61000D03*
X39299Y53000D03*
Y57000D03*
X61250Y-65750D03*
Y-61000D03*
X79250Y-3000D03*
X100000Y-102000D03*
X90000D03*
X110000D03*
X120000D03*
X125000Y32500D03*
X130000Y-102000D03*
X140000D03*
X157500Y89000D03*
X209909Y-92500D03*
Y-87500D03*
X195745Y-97500D03*
X202827Y-75000D03*
Y-70000D03*
Y-65000D03*
X197827D03*
X202827Y-55000D03*
Y-60000D03*
Y-50000D03*
X197827D03*
X207827Y-40000D03*
X202827D03*
X195745Y-22500D03*
X209909D03*
Y-27500D03*
Y-12500D03*
Y-7500D03*
X195745Y-17500D03*
X197827Y-5000D03*
X202827D03*
X195745Y7500D03*
Y12500D03*
X209909Y2500D03*
Y7500D03*
X202827Y20000D03*
X209909Y32500D03*
Y37500D03*
X195745Y22500D03*
Y27500D03*
X202827Y25000D03*
X209909Y47500D03*
Y52500D03*
Y62500D03*
X195745Y57500D03*
Y42500D03*
Y52500D03*
X209909Y67500D03*
Y77500D03*
Y82500D03*
X195745Y67500D03*
Y72500D03*
Y82500D03*
Y87500D03*
X229909Y-92500D03*
Y-87500D03*
X215745Y-97500D03*
X229909Y-72500D03*
Y-67500D03*
X215745Y-82500D03*
Y-77500D03*
X217827Y-60082D03*
X222827Y-45000D03*
X217827D03*
X227827Y-50000D03*
X222827D03*
Y-60082D03*
Y-30000D03*
X229909Y-27500D03*
Y-32500D03*
X217827Y-30000D03*
X215745Y-2500D03*
Y-12500D03*
Y-17500D03*
X229909Y-7500D03*
Y-12500D03*
Y7500D03*
Y12500D03*
X215745Y2500D03*
X217827Y15000D03*
X222827D03*
X215745Y32500D03*
X229909Y27500D03*
Y32582D03*
X215745Y27500D03*
X223000Y30000D03*
Y35000D03*
X215745Y42500D03*
Y62500D03*
X222827Y55000D03*
Y50000D03*
X227827D03*
X215745Y52500D03*
Y47500D03*
Y67500D03*
X229909Y72500D03*
Y82500D03*
X215745Y77500D03*
X229909Y67500D03*
X215745Y72500D03*
X220327Y101000D03*
X229909Y92500D03*
X215745Y97500D03*
Y87500D03*
G54D25*
X80000Y43000D03*
Y53000D03*
X100000Y43000D03*
X90000D03*
X100000Y53000D03*
X90000D03*
X120000Y43000D03*
X110000D03*
X120000Y53000D03*
X110000D03*
X150000Y43000D03*
X140000D03*
X130000D03*
X150000Y53000D03*
X140000D03*
X130000D03*
X164000Y-102000D03*
X154000D03*
X170000Y43000D03*
X160000D03*
X170000Y53000D03*
X160000D03*
X174000Y-102000D03*
G54D23*
X-748Y-24449D03*
Y-15000D03*
Y-18150D03*
Y-21299D03*
X3976Y-34550D03*
X8701Y-27598D03*
X11850D03*
Y-24449D03*
X8701D03*
X5551D03*
X17802Y-30374D03*
X14652D03*
X8701Y-30748D03*
X5551D03*
X2401D03*
X2402Y-27598D03*
X21299Y-24449D03*
X18150D03*
X20951Y-30374D03*
X2402Y-24449D03*
X21299Y-33898D03*
X11850Y-15000D03*
X8701D03*
Y-5551D03*
X5551D03*
X11850Y-2402D03*
X5551Y-8701D03*
X8701Y-11851D03*
X11850Y-8701D03*
X5551Y-21299D03*
X8701D03*
X11850D03*
Y-18150D03*
X8701D03*
X5551Y-15000D03*
Y-11850D03*
X21298Y-14999D03*
X21299Y-11850D03*
X18150Y-2401D03*
X21300Y-5551D03*
X18149Y-5550D03*
X21298Y-8700D03*
X18149D03*
X18150Y-11850D03*
X18149Y-14999D03*
X21299Y-21299D03*
X18149D03*
X21299Y-18150D03*
X18149D03*
X2401Y-15000D03*
X2402Y-5551D03*
Y-2402D03*
X5551D03*
X2402Y-21299D03*
X11850Y-5550D03*
X2402Y3898D03*
X10276Y4550D03*
X11850Y748D03*
X18149Y3898D03*
X15000D03*
X8701Y748D03*
X27598Y-24449D03*
X24449D03*
X30748Y-27598D03*
Y-30748D03*
X24101Y-30374D03*
X27251D03*
X27599Y-33898D03*
X24449D03*
X34550Y-10226D03*
X27599Y-11851D03*
X24449Y-15000D03*
X30747Y-11850D03*
X24449D03*
X30747Y-2402D03*
X30748Y-5551D03*
X27598Y-2402D03*
X27599Y-5552D03*
X24449Y-2402D03*
X24450Y-5552D03*
X33897Y-18150D03*
X30747Y-21300D03*
X27599Y-21298D03*
X24449Y-21299D03*
X24448Y-8702D03*
X30749Y-18149D03*
X33898Y3898D03*
X30748D03*
G54D29*
X50750Y-60750D03*
G54D28*
X-22301Y-22301D03*
G54D27*
X212827Y-107000D03*
X200827Y107000D03*
G54D26*
X204961Y-124052D03*
Y123979D03*
G54D22*
X-40000Y-87000D03*
Y87000D03*
%LPD*%
G75*
G54D10*
X-70750Y-58303D03*
Y-25303D03*
Y28553D03*
Y61553D03*
Y97250D03*
Y130250D03*
G54D20*
G01X-22500Y-123250D02*
X-18498Y-109748D01*
G01X-26502D02*
X-22500Y-123250D01*
G01X10500D02*
X14502Y-109748D01*
G01X6498D02*
X10500Y-123250D01*
G01X26202Y101202D02*
X31000Y106000D01*
G01D02*
X35798Y101202D01*
G01X26202Y121202D02*
X31000Y126000D01*
G01X26202Y110798D02*
X31000Y106000D01*
G01Y126000D02*
X35798Y130798D01*
G01X26202D02*
X31000Y126000D01*
G01X46202Y101202D02*
X51000Y106000D01*
G01D02*
X55798Y101202D01*
G01X51000Y126000D02*
X55798Y121202D01*
G01X51000Y106000D02*
X55798Y110798D01*
G01X51000Y126000D02*
X55798Y130798D01*
G01X46202D02*
X51000Y126000D01*
G01X160793Y-105207D02*
X164000Y-102000D01*
G01D02*
X167207Y-98793D01*
G01X160793D02*
X164000Y-102000D01*
G01D02*
X167207Y-105207D01*
G54D11*
X-81500Y-52553D03*
X-82000Y-48803D03*
X-81500Y-31053D03*
X-82000Y-34803D03*
X-81500Y34303D03*
X-82000Y38053D03*
X-81500Y55803D03*
X-82000Y52053D03*
X-81500Y103000D03*
X-82000Y106750D03*
Y120750D03*
X-81500Y124500D03*
X-61803Y-45678D03*
X-67285D03*
X-72768D03*
X-78250D03*
X-62500Y-52553D03*
X-67250D03*
X-72000D03*
X-76750D03*
X-72768Y-37928D03*
X-67285D03*
X-61803D03*
X-78250D03*
X-62500Y-31053D03*
X-67250D03*
X-72000D03*
X-76750D03*
X-63250Y41178D03*
X-68250D03*
X-73250D03*
X-78250D03*
X-62500Y34303D03*
X-67250D03*
X-72000D03*
X-76750D03*
X-73250Y48928D03*
X-68250D03*
X-63250D03*
X-78250D03*
X-62500Y55803D03*
X-67250D03*
X-72000D03*
X-76750D03*
X-67250Y103000D03*
X-62500D03*
X-76750D03*
X-72000D03*
X-61495Y109351D03*
X-66491Y109744D03*
X-71500Y109875D03*
Y117625D03*
X-66423Y117500D03*
X-61359Y117127D03*
X-78250Y109875D03*
Y117625D03*
X-67250Y124500D03*
X-62500D03*
X-76750D03*
X-72000D03*
X-51265Y-42254D03*
X-56263Y-44801D03*
X-56714Y-36564D03*
X-52989Y-32839D03*
X-51625Y-27750D03*
X-51128Y-22202D03*
X-42988Y-21649D03*
X-43875Y-27750D03*
X-44752Y-33290D03*
X-47299Y-38288D03*
X-49655Y-17348D03*
X-47264Y-12875D03*
X-40125Y-5736D03*
X-40413Y-16596D03*
X-44046Y-8954D03*
X-42209Y39429D03*
X-47661Y40738D03*
X-53250Y41178D03*
X-58250D03*
Y48928D03*
X-53250D03*
X-47575Y48556D03*
X-41996Y47447D03*
X-41923Y105190D03*
X-46727Y106614D03*
X-51600Y107783D03*
X-56527Y108697D03*
X-56319Y116505D03*
X-51315Y115637D03*
X-46360Y114524D03*
X-41466Y113170D03*
X-35652Y-3345D03*
X-30798Y-1872D03*
X-31351Y-10012D03*
X-36404Y-12587D03*
X-21543Y-15782D03*
X-25250Y1551D03*
X-21445Y24172D03*
X-27985Y30712D03*
X-32248Y34353D03*
X-37029Y37283D03*
X-26780Y39943D03*
X-22504Y36193D03*
X-36610Y45618D03*
X-31509Y43103D03*
X-19370Y94434D03*
X-23643Y97052D03*
X-28047Y99443D03*
X-32570Y101600D03*
X-37199Y103518D03*
X-18309Y102904D03*
X-36644Y111576D03*
X-31906Y109749D03*
X-27263Y107691D03*
X-22727Y105407D03*
X1000Y-134500D03*
X-2241Y-131098D03*
X-9875Y-130750D03*
X-13000Y-134500D03*
X-1409Y-104562D03*
X-2035Y-110206D03*
X-2291Y-115880D03*
X-2125Y-123759D03*
X-9875Y-123800D03*
X-10047Y-116621D03*
X-9881Y-111328D03*
X-9419Y-106054D03*
X942Y-93456D03*
X-415Y-98970D03*
X-8662Y-100813D03*
X-7613Y-95623D03*
X-6275Y-90500D03*
X-4653Y-85460D03*
X2653Y-88040D03*
X-3019Y-80447D03*
X-1630Y-75360D03*
X-488Y-70212D03*
X402Y-65015D03*
X1039Y-59780D03*
X1422Y-54521D03*
X1550Y-49250D03*
X1122Y-44221D03*
X-13758Y-41424D03*
X-6336Y-32317D03*
X-8989Y-38413D03*
X-14250Y-1750D03*
X-8750D03*
X-13250Y-17500D03*
X-14500Y-14500D03*
X-9750Y-15500D03*
X-11424Y4309D03*
X-13500Y9710D03*
X1516Y13577D03*
X-8739Y7948D03*
X-7250Y3250D03*
X-17500Y33928D03*
X1500Y30000D03*
X512Y77508D03*
X-3820Y81841D03*
X-7455Y85290D03*
X-11265Y88545D03*
X-15241Y91595D03*
X-14018Y100187D03*
X-9867Y97263D03*
X-5863Y94139D03*
X-2018Y90822D03*
X2000Y96500D03*
X-1500Y100750D03*
X-5250Y105000D03*
X1660Y87320D03*
X-7500Y109000D03*
X-9000Y113750D03*
X-9750Y118750D03*
Y125250D03*
X-2250Y125000D03*
Y118500D03*
X-1250Y113750D03*
X1000Y109250D03*
X-16750Y119750D03*
Y124500D03*
X1000Y134500D03*
X-13000D03*
X-16750Y134000D03*
Y129250D03*
X-2125Y130750D03*
X-9759Y131098D03*
X4404Y-82669D03*
X8069Y-66138D03*
X7115Y-71706D03*
X5892Y-77220D03*
X9300Y-49250D03*
X9163Y-54897D03*
X8752Y-60531D03*
X9300Y-49328D03*
X9724Y-43275D03*
X3129Y-37624D03*
X17549Y13275D03*
X15799Y14500D03*
X15532Y30202D03*
X18250Y44750D03*
X19250Y50250D03*
X22288Y50186D03*
X20127Y55402D03*
X17424Y58849D03*
X9675Y58934D03*
X16750Y81500D03*
X5992Y82987D03*
X9250Y80000D03*
X18990Y69989D03*
X22762Y65688D03*
X9177Y68843D03*
X4845Y73176D03*
X17574Y75752D03*
X9725Y64584D03*
X7250Y86750D03*
X5000Y92000D03*
X4750Y105000D03*
X8250Y100750D03*
X11000Y96500D03*
X13250Y92000D03*
X15250Y87000D03*
X4750Y119750D03*
Y115000D03*
Y124500D03*
Y134000D03*
Y129250D03*
X24474Y-43275D03*
X36599Y13025D03*
X33024Y17901D03*
X31799Y39066D03*
Y33612D03*
Y28158D03*
Y22704D03*
X24049Y28158D03*
Y33612D03*
Y39066D03*
X25940Y60932D03*
X28470Y55801D03*
X30309Y50385D03*
X31425Y44774D03*
X23606Y44695D03*
X32250Y116000D03*
X41000Y124750D03*
X48750Y-45750D03*
X50750Y-36250D03*
X62250Y-31750D03*
X56000Y-20750D03*
X51750Y-2250D03*
X47000Y-18000D03*
X62311Y20519D03*
X46299Y12487D03*
X49500Y116000D03*
X82000Y-70500D03*
X67250Y-28500D03*
X65250Y-11500D03*
X84500Y-4750D03*
Y-12500D03*
X79500Y18000D03*
X74500Y12250D03*
X84500Y2250D03*
X104500Y-64500D03*
X90750Y-50750D03*
X101750Y-61750D03*
X94000D03*
X91250D03*
X86250Y-35250D03*
Y-23500D03*
X87750Y-16000D03*
X93000Y13750D03*
X122750Y-36000D03*
X115500Y-36250D03*
X106750D03*
X134500Y-36000D03*
X128250Y20750D03*
X195745Y-87500D03*
X209909Y-97500D03*
X195745Y-92500D03*
X192568Y-76802D03*
X209909Y-62500D03*
Y-77500D03*
Y-82500D03*
X197087Y-69260D03*
X195745Y-42500D03*
X209909Y-47500D03*
X195745Y-57500D03*
X209909Y-32500D03*
X195745Y-27500D03*
X209909Y-2500D03*
Y-17500D03*
X195745Y-12500D03*
X209909Y12500D03*
X195745Y17500D03*
Y2500D03*
X209909Y27500D03*
X195745Y32500D03*
X191000Y57750D03*
X195745Y62500D03*
X209909Y57500D03*
Y42500D03*
X195745Y47500D03*
X209909Y72500D03*
X195745Y77500D03*
Y92500D03*
X209909Y87500D03*
X205327Y101000D03*
X229909Y-97500D03*
X215745Y-87500D03*
Y-92500D03*
X229909Y-82500D03*
Y-77500D03*
Y-62500D03*
X215745Y-72500D03*
Y-67500D03*
X229909Y-57500D03*
Y-42500D03*
X215745Y-52500D03*
X229909Y-37500D03*
Y-22500D03*
X215745D03*
Y-37500D03*
X229909Y-17500D03*
Y-2500D03*
X215745Y-7500D03*
X229909Y2500D03*
Y17500D03*
X215745Y7500D03*
X229909Y37500D03*
X215745D03*
X229909Y22500D03*
X215745D03*
X229909Y42500D03*
X222500Y45500D03*
X229909Y57500D03*
Y62500D03*
X215745Y82500D03*
X229909Y77500D03*
X215745Y92500D03*
X229909Y97500D03*
Y87500D03*
X241500Y40500D03*
Y60500D03*
X236750Y100250D03*
Y116000D03*
G54D12*
X-22500Y-123250D03*
Y123250D03*
X10500Y-123250D03*
Y123250D03*
G54D13*
X-28295Y-25354D03*
X-24048Y-28821D03*
X-26272Y-16837D03*
X-28886Y-20795D03*
X-21521Y-2671D03*
Y-9604D03*
Y-7872D03*
X-17960Y-27346D03*
X-16903Y-18571D03*
X-7400Y27500D03*
X-13000Y37000D03*
X-11250Y24000D03*
X8728Y42877D03*
X8750Y54977D03*
X3750Y43677D03*
Y55077D03*
X38000Y-44500D03*
X39500Y28250D03*
X40250Y79750D03*
X41750Y74000D03*
X37750Y93750D03*
X38750Y86750D03*
X55250Y-65750D03*
X51000Y-67500D03*
X46500Y-66000D03*
X44000Y-60750D03*
X57500D03*
X54500Y-55251D03*
X45750Y-56501D03*
X55750Y-13000D03*
X45500Y-500D03*
X51000Y4750D03*
X57000Y28250D03*
X52500Y38750D03*
X63000Y34750D03*
X50250Y34250D03*
X58000Y61250D03*
X62500Y49250D03*
X49500Y57000D03*
X57750Y57250D03*
X52250Y48750D03*
X55750Y66500D03*
X52500Y71750D03*
X50250Y78250D03*
X44250Y67500D03*
X47375Y81565D03*
X49500Y74000D03*
X45750Y63250D03*
X52250Y67500D03*
X54250Y63250D03*
X48250Y86500D03*
X47750Y94250D03*
X45000Y97250D03*
X45500Y90250D03*
X76000Y-23500D03*
X66750Y-21000D03*
X76000Y-13750D03*
X68750Y12000D03*
X74750Y2000D03*
X65000Y1500D03*
X65500Y7250D03*
X73000Y18000D03*
X65750Y30000D03*
X72500Y32750D03*
X75500Y78250D03*
X81750Y97000D03*
X76250Y102250D03*
X71000D03*
X81750Y86250D03*
X78500Y100275D03*
X81750Y122000D03*
X76250Y116750D03*
X71000D03*
X90050Y-87500D03*
X100050D03*
X97250Y-24750D03*
X105250Y-4750D03*
X104500Y-12250D03*
X92500Y-17000D03*
X104000Y13250D03*
X91500Y65250D03*
X95750D03*
X100000D03*
X104250D03*
X85250Y98500D03*
X85225Y118725D03*
X98250Y125000D03*
X89500Y129500D03*
X120050Y-87500D03*
X110050D03*
X117000Y-7000D03*
X113750Y3750D03*
X125000Y62000D03*
X111000Y64000D03*
X120000Y69000D03*
X122500Y74500D03*
X125750Y102750D03*
X121250Y98000D03*
X126500Y95750D03*
X121250Y116750D03*
X125750Y112000D03*
X121250Y107500D03*
X109250Y123000D03*
X116000Y132500D03*
X112500Y129250D03*
X126750Y-91000D03*
X139950Y-87500D03*
X145875Y-76250D03*
X132450Y-82500D03*
X137719Y-71531D03*
X137500Y-78000D03*
X128750Y-7000D03*
X146750Y121000D03*
X144000Y123000D03*
X132750Y113500D03*
X128250D03*
X142780Y111500D03*
X141750Y120000D03*
X136700Y131300D03*
X147975Y-77750D03*
X152750Y-66750D03*
X148000Y-61250D03*
X167550Y38050D03*
X162450D03*
Y61550D03*
X167550D03*
X152250Y72750D03*
X152000Y76500D03*
X156750Y77750D03*
X148500Y80250D03*
X154250Y68000D03*
X164250Y95625D03*
X158750D03*
X153250Y121050D03*
X150025Y117775D03*
X182500Y-37250D03*
Y-32750D03*
X180000Y75000D03*
X181250Y88000D03*
X183000Y106000D03*
X175000Y107000D03*
X180000Y104000D03*
X176500D03*
X173200Y130250D03*
X195250Y-65000D03*
X202750Y-57500D03*
X196750Y-52500D03*
X193250Y-23000D03*
X210000Y-41250D03*
X195750Y-3250D03*
X207000Y20000D03*
X209500Y5000D03*
X196500Y25000D03*
X213250Y-97500D03*
X222750Y-52500D03*
X228250Y-47500D03*
X215250Y-60250D03*
Y-45000D03*
X228250Y-34500D03*
X228500Y-25500D03*
X216500Y-27750D03*
X210500Y-10000D03*
X213250Y-12250D03*
Y-17500D03*
X215250Y15000D03*
X213250Y72500D03*
X232000Y65750D03*
G54D14*
X-748Y-30748D03*
Y-27598D03*
X-2323Y-34550D03*
X827D03*
X-4000Y-22874D03*
X-3898Y-27598D03*
X-3750Y-2000D03*
X-3898Y-18150D03*
X-748Y-11850D03*
X-746Y-2402D03*
X10276Y-34550D03*
X5551Y-27598D03*
X7126Y-34550D03*
X11850Y-30748D03*
X22250Y-36500D03*
X13750Y-36250D03*
X13425Y-34550D03*
X15001Y-27599D03*
X18150D03*
X21300D03*
X2401Y-18150D03*
X11850Y-11851D03*
X15000Y-18150D03*
X2401Y-11851D03*
X15000D03*
X2401Y-8701D03*
X2402Y748D03*
X7126Y4550D03*
X20299Y7000D03*
X14000D03*
X2500Y10000D03*
X15298Y374D03*
X20925Y400D03*
X11850Y3898D03*
X24750Y-37250D03*
X38500Y-32500D03*
X24450Y-27599D03*
X27599D03*
X33898Y-24449D03*
Y-30748D03*
Y-27598D03*
X24449Y-18150D03*
X27599Y-18149D03*
X34550Y-13425D03*
X33898Y-2402D03*
X27598Y-8701D03*
X27224Y400D03*
X28299Y7000D03*
X33898Y748D03*
X30748D03*
X27225Y400D03*
X24075D03*
G54D15*
X31000Y106000D03*
Y126000D03*
X51000Y106000D03*
Y126000D03*
G54D16*
X91250Y81250D03*
X94000Y84000D03*
X96500Y81250D03*
X91250Y86750D03*
X96500D03*
X98750Y110250D03*
X93250D03*
X98750Y115500D03*
X96000Y112750D03*
X93250Y115500D03*
X122750Y-70000D03*
Y-77000D03*
X129750Y-70000D03*
Y-77000D03*
X138750Y103000D03*
X141500Y100250D03*
X144250Y103000D03*
X138750Y97750D03*
X144250D03*
G54D17*
X164000Y-102000D03*
G54D18*
G01X243443Y117988D02*
X246543D01*
X244321Y119406D01*
Y117490D01*
G54D19*
G01X27750Y170750D02*
X26750Y170417D01*
X26000Y169583D01*
X25500Y168583D01*
X25125Y167250D01*
X25000Y165750D01*
X25125Y164250D01*
X25500Y162917D01*
X26000Y161916D01*
X26750Y161083D01*
X27750Y160750D01*
X28750Y161083D01*
X29500Y161916D01*
X30000Y162917D01*
X30375Y164250D01*
X30500Y165750D01*
X30375Y167250D01*
X30000Y168583D01*
X29500Y169583D01*
X28750Y170417D01*
X27750Y170750D01*
G01X37750Y160750D02*
X38625Y160917D01*
X39625Y161417D01*
X40250Y162250D01*
X40500Y163417D01*
X40250Y164583D01*
X39500Y165583D01*
X38375Y166083D01*
X37125D01*
X36375Y166417D01*
X35750Y167250D01*
X35500Y168417D01*
X35875Y169583D01*
X36750Y170417D01*
X37750Y170750D01*
X38750Y170417D01*
X39625Y169583D01*
X40000Y168417D01*
X39750Y167250D01*
X39125Y166417D01*
X38375Y166083D01*
X37125D01*
X36000Y165583D01*
X35250Y164583D01*
X35000Y163417D01*
X35250Y162250D01*
X35875Y161417D01*
X36875Y160917D01*
X37750Y160750D01*
G01X46125Y164083D02*
X49375D01*
G01X116125D02*
X119375D01*
G01X127750Y170750D02*
X126750Y170417D01*
X126000Y169583D01*
X125500Y168583D01*
X125125Y167250D01*
X125000Y165750D01*
X125125Y164250D01*
X125500Y162917D01*
X126000Y161916D01*
X126750Y161083D01*
X127750Y160750D01*
X128750Y161083D01*
X129500Y161916D01*
X130000Y162917D01*
X130375Y164250D01*
X130500Y165750D01*
X130375Y167250D01*
X130000Y168583D01*
X129500Y169583D01*
X128750Y170417D01*
X127750Y170750D01*
G01X135625Y161916D02*
X136500Y161083D01*
X137500Y160750D01*
X138500Y161083D01*
X139375Y162083D01*
X140000Y163583D01*
X140250Y165083D01*
Y166917D01*
X140000Y168417D01*
X139375Y169750D01*
X138625Y170417D01*
X137750Y170750D01*
X136750Y170417D01*
X136000Y169750D01*
X135500Y168750D01*
X135250Y167416D01*
X135500Y166250D01*
X136125Y165083D01*
X136875Y164416D01*
X137750Y164250D01*
X138750Y164583D01*
X139500Y165417D01*
X140250Y166917D01*
G01X60250Y140750D02*
Y150750D01*
X63375D01*
X64375Y150250D01*
X65000Y149583D01*
X65250Y148250D01*
X65000Y146917D01*
X64250Y146083D01*
X63375Y145583D01*
X60250D01*
G01X63375D02*
X65250Y140750D01*
G01X75250D02*
X70250D01*
Y150750D01*
X75250D01*
G01X73250Y145917D02*
X70250D01*
G01X79625Y150750D02*
X82750Y140750D01*
X85875Y150750D01*
G01X103750Y146083D02*
X104250Y146583D01*
X104625Y147416D01*
X104875Y148583D01*
X104625Y149583D01*
X104125Y150250D01*
X103250Y150750D01*
X99875D01*
Y140750D01*
X104000D01*
X104875Y141417D01*
X105375Y142417D01*
X105625Y143583D01*
X105375Y144750D01*
X104625Y145750D01*
X103750Y146083D01*
X99875D01*
G01X57750Y170750D02*
X56750Y170417D01*
X56000Y169583D01*
X55500Y168583D01*
X55125Y167250D01*
X55000Y165750D01*
X55125Y164250D01*
X55500Y162917D01*
X56000Y161916D01*
X56750Y161083D01*
X57750Y160750D01*
X58750Y161083D01*
X59500Y161916D01*
X60000Y162917D01*
X60375Y164250D01*
X60500Y165750D01*
X60375Y167250D01*
X60000Y168583D01*
X59500Y169583D01*
X58750Y170417D01*
X57750Y170750D01*
G01X65000Y162750D02*
X65750Y161583D01*
X66750Y160917D01*
X67875Y160750D01*
X68875Y160917D01*
X69875Y161750D01*
X70500Y162750D01*
X70625Y163750D01*
X70375Y164916D01*
X69500Y165750D01*
X68625Y166083D01*
X67500D01*
G01X68625D02*
X69375Y166583D01*
X70000Y167416D01*
X70250Y168417D01*
X70000Y169417D01*
X69375Y170250D01*
X68250Y170750D01*
X67125Y170583D01*
X66000Y169917D01*
G01X77500Y160750D02*
X77750Y162917D01*
X78125Y164750D01*
X78625Y166417D01*
X79250Y168250D01*
X80250Y170750D01*
X75250D01*
G01X85000Y162250D02*
X85750Y161417D01*
X86625Y160917D01*
X87750Y160750D01*
X88875Y161083D01*
X89750Y161750D01*
X90375Y162917D01*
X90500Y164250D01*
X90250Y165583D01*
X89625Y166417D01*
X88750Y167083D01*
X87875Y167250D01*
X87000Y167083D01*
X85875Y166417D01*
X86250Y170750D01*
X89625D01*
G01X97750Y160750D02*
Y170750D01*
X96250Y168750D01*
G01Y160750D02*
X99250D01*
G01X105375Y164916D02*
X106250Y166083D01*
X107000Y166750D01*
X108000Y167083D01*
X108875Y166750D01*
X109500Y166083D01*
X110000Y165083D01*
X110125Y163917D01*
X110000Y162917D01*
X109500Y161916D01*
X108750Y161083D01*
X107875Y160750D01*
X106875Y161083D01*
X106000Y162083D01*
X105500Y163583D01*
X105375Y165250D01*
X105625Y167416D01*
X106000Y168583D01*
X106625Y169750D01*
X107500Y170583D01*
X108375Y170750D01*
X109250Y170417D01*
X109875Y169583D01*
G01X55250Y190750D02*
Y180750D01*
X60250D01*
G01X69250D02*
Y190750D01*
X64625Y183583D01*
X70875D01*
G01X88500Y185750D02*
X91000D01*
Y182750D01*
X90250Y181750D01*
X89375Y181083D01*
X88125Y180750D01*
X86875Y181083D01*
X86000Y181750D01*
X85250Y182750D01*
X84750Y183917D01*
X84500Y185250D01*
Y186417D01*
X84750Y187416D01*
X85250Y188583D01*
X86000Y189583D01*
X86750Y190250D01*
X87750Y190750D01*
X88625D01*
X89625Y190417D01*
X90375Y189750D01*
G01X94875Y180750D02*
Y190750D01*
X100625Y180750D01*
Y190750D01*
G01X105000Y180750D02*
Y190750D01*
X107500D01*
X108500Y190250D01*
X109250Y189583D01*
X109875Y188583D01*
X110375Y187416D01*
X110500Y185750D01*
X110375Y184083D01*
X109875Y182917D01*
X109250Y181916D01*
X108500Y181250D01*
X107500Y180750D01*
X105000D01*
M02*
