G04 ================== begin FILE IDENTIFICATION RECORD ==================*
G04 Layout Name:  08_037516b-1-14.brd*
G04 Film Name:    l5_sig*
G04 File Format:  Gerber RS274X*
G04 File Origin:  Cadence Allegro 16.5-S031*
G04 Origin Date:  Tue Jan 14 09:43:34 2014*
G04 *
G04 Layer:  VIA CLASS/L5_SIG*
G04 Layer:  PIN/L5_SIG*
G04 Layer:  ETCH/L5_SIG*
G04 Layer:  BOARD GEOMETRY/TOOLING_CORNERS*
G04 Layer:  BOARD GEOMETRY/LYR_5*
G04 Layer:  BOARD GEOMETRY/ROOT_NUMBER*
G04 *
G04 Offset:    (0.00 0.00)*
G04 Mirror:    No*
G04 Mode:      Positive*
G04 Rotation:  0*
G04 FullContactRelief:  No*
G04 UndefLineWidth:     8.00*
G04 ================== end FILE IDENTIFICATION RECORD ====================*
%FSLAX55Y55*MOIN*%
%IR0*IPPOS*OFA0.00000B0.00000*MIA0B0*SFA1.00000B1.00000*%
%ADD12O,.06X.25*%
%ADD10O,.25X.06*%
%ADD11C,.02*%
%ADD14C,.012*%
%ADD13C,.016*%
%ADD17C,.028*%
%ADD16C,.065*%
%ADD15C,.11*%
%ADD18C,.004*%
%ADD19C,.008*%
%ADD20C,.0038*%
%ADD21C,.0049*%
%ADD23C,.06004*%
%ADD25C,.08104*%
%ADD24C,.05604*%
%ADD26C,.10504*%
%ADD22C,.25004*%
G75*
%LPD*%
G75*
G36*
G01X-29750Y-135750D02*
X-32000Y-133500D01*
X-80698Y-133302D01*
X-83307Y-130693D01*
Y130443D01*
X-80807Y132943D01*
Y133199D01*
X-32250Y133250D01*
X-29750Y135750D01*
X17750D01*
X20250Y133250D01*
X119267D01*
G02X119665Y132806I0J-400D01*
G03X122514Y129699I2785J-306D01*
G02X122923Y129296I9J-400D01*
G03X125661Y132076I2802J-21D01*
G02X125252Y132479I-9J400D01*
G03X125235Y132806I-2802J18D01*
G02X125633Y133250I398J44D01*
G01X131498D01*
G02X131848Y132656I0J-400D01*
G03X131810Y130014I2452J-1357D01*
G02X131724Y129744I-178J-92D01*
G03X131565Y124844I1276J-2494D01*
G02Y124156I-205J-344D01*
G03X132492Y118994I1435J-2407D01*
G03X137743Y119780I2758J-494D01*
G03X137185Y124156I-1993J1969D01*
G02Y124844I205J344D01*
G03X137070Y129722I-1435J2407D01*
G02X136889Y130228I188J353D01*
G03X136752Y132656I-2589J1072D01*
G02X137102Y133250I350J194D01*
G01X168931D01*
G02X169165Y132525I0J-400D01*
G03X172435I1635J-2275D01*
G02X172669Y133250I234J325D01*
G01X174980D01*
X175014Y133093D01*
G03X179828Y131821I2735J607D01*
G02X180422I297J-269D01*
G03X185236Y133093I2079J1879D01*
G01X185270Y133250D01*
X200025D01*
G02X200219Y132501I-1J-400D01*
G03X209703I4742J-8522D01*
G02X209897Y133250I195J349D01*
G01X240250D01*
Y116800D01*
X240208D01*
Y110096D01*
X240250D01*
Y83948D01*
X245250D01*
Y-133250D01*
X210026D01*
G02X209827Y-132503I0J400D01*
G03X200095I-4866J8451D01*
G02X199896Y-133250I-199J-347D01*
G01X20250D01*
X17750Y-135750D01*
X13800D01*
G02X13486Y-135103I0J400D01*
G03X14302Y-132750I-2986J2353D01*
G01Y-113750D01*
G03X6698I-3802J0D01*
G01Y-132750D01*
G03X7514Y-135103I3802J0D01*
G02X7200Y-135750I-314J-247D01*
G01X-19200D01*
G02X-19514Y-135103I0J400D01*
G03X-18698Y-132750I-2986J2353D01*
G01Y-113750D01*
G03X-26302I-3802J0D01*
G01Y-132750D01*
G03X-25486Y-135103I3802J0D01*
G02X-25800Y-135750I-314J-247D01*
G01X-29750D01*
G37*
%LPC*%
G75*
G36*
G01X197781Y70294D02*
G03Y69706I271J-294D01*
G02X193709I-2036J-2206D01*
G03Y70294I-271J294D01*
G02X197781I2036J2206D01*
G37*
G36*
G01X171691Y68625D02*
G02X167750Y64883I-2441J-1375D01*
G02X163809Y68625I-1500J2367D01*
G02X163742Y71250I2441J1376D01*
G02X163809Y73875I2508J1249D01*
G02X167750Y77617I2441J1375D01*
G02X171691Y73875I1500J-2367D01*
G02X171758Y71250I-2441J-1376D01*
G02X171691Y68625I-2508J-1249D01*
G37*
G36*
G01X197781Y55294D02*
G03Y54706I271J-294D01*
G02X193709I-2036J-2206D01*
G03Y55294I-271J294D01*
G02X197781I2036J2206D01*
G37*
G36*
G01X216565Y-101079D02*
G02X213057Y-100002I-3737J-5921D01*
G03X213385Y-99355I13J400D01*
G02X215498Y-94508I2360J1855D01*
G01X215571Y-94502D01*
X227319Y-82754D01*
X229819D01*
X234253Y-78319D01*
Y-74830D01*
G03X233571Y-74547I-400J0D01*
G01X226246Y-81872D01*
Y-82644D01*
X217394Y-91496D01*
X213257D01*
G03X212863Y-91967I0J-400D01*
G02X206955I-2954J-533D01*
G03X206561Y-91496I-394J71D01*
G01X45569D01*
X17254Y-63181D01*
Y-42639D01*
G03X16571Y-42356I-400J0D01*
G01X5431Y-53496D01*
X-25431D01*
X-31490Y-47437D01*
X-31625Y-47524D01*
G02X-35000Y-47439I-1625J2524D01*
G02X-39736Y-44688I-1750J2439D01*
G03X-40134Y-44246I-398J42D01*
G01X-41431D01*
X-57746Y-27931D01*
Y-20431D01*
X-60931Y-17246D01*
X-70181D01*
X-79996Y-7431D01*
Y16431D01*
X-71181Y25246D01*
X-56181D01*
X-55246Y26181D01*
Y35254D01*
X-59181D01*
X-62996Y39069D01*
Y51431D01*
X-58181Y56246D01*
X-56431D01*
X-38831Y73846D01*
G03X-39142Y74528I-283J283D01*
G02X-27498Y86897I-858J12473D01*
G03X-26816Y86611I400J-3D01*
G01X-8181Y105246D01*
X24307D01*
G03X24707Y105668I0J400D01*
G02X34083Y111497I6293J332D01*
G03X34619Y112056I196J349D01*
G02Y119944I6381J3944D01*
G03X34083Y120503I-340J210D01*
G02X36497Y122917I-3083J5497D01*
G03X37056Y122381I349J-196D01*
G02X44944I3944J-6381D01*
G03X45503Y122917I210J340D01*
G02X47917Y120503I5497J3083D01*
G03X47381Y119944I-196J-349D01*
G02Y112056I-6381J-3944D01*
G03X47917Y111497I340J-210D01*
G02X55978Y102136I3083J-5497D01*
G03X56083Y101551I316J-245D01*
G02X56250Y101439I-1588J-2548D01*
G02X60973Y99419I1750J-2439D01*
G01X60997Y99246D01*
X79431D01*
X81181Y97496D01*
X84319D01*
X86319Y99496D01*
X106681D01*
X132246Y73931D01*
Y57747D01*
G02X134646Y55449I-2246J-4748D01*
G03X135354I354J186D01*
G02X144646I4646J-2449D01*
G03X145354I354J186D01*
G02X153831Y56592I4646J-2449D01*
G03X154406Y56583I292J274D01*
G01X157569Y59746D01*
X166431D01*
X168231Y57946D01*
X168348Y57985D01*
G02X172449Y48354I1651J-4986D01*
G03Y47646I186J-354D01*
G02X175177Y42118I-2449J-4646D01*
G01X175160Y42016D01*
X175375Y41802D01*
X175819Y42246D01*
X192743D01*
Y42450D01*
G02X195493Y45491I3002J50D01*
G01X195565Y45498D01*
X196814Y46746D01*
X206525D01*
G03X206923Y47188I0J400D01*
G02X207873Y49706I2986J312D01*
G03Y50294I-271J294D01*
G02X212484Y54043I2036J2206D01*
G03X213170I343J206D01*
G02X216282Y55454I2575J-1543D01*
G03X216754Y55847I72J393D01*
G01Y59153D01*
G03X216282Y59546I-400J0D01*
G02X213170Y60957I-537J2954D01*
G03X212484I-343J-206D01*
G02X207873Y64706I-2575J1543D01*
G03Y65294I-271J294D01*
G02X206989Y68199I2036J2206D01*
G01X207015Y68307D01*
X197319Y78004D01*
X191069D01*
X184179Y84894D01*
G03X183497Y84635I-283J-283D01*
G02X178998Y82574I-2797J165D01*
G03X178718Y82538I-122J-159D01*
G02X176956Y81485I-2219J1712D01*
G03X176789Y81269I32J-197D01*
G02X173544Y83765I-2789J-269D01*
G03X173711Y83981I-32J197D01*
G02X178202Y86476I2789J269D01*
G03X178482Y86512I122J159D01*
G02X180535Y87597I2218J-1712D01*
G03X180794Y88279I-24J399D01*
G01X169789Y99284D01*
X154425D01*
G02X150321Y102927I-1675J2246D01*
G03X149886Y103516I-347J199D01*
G02X151264Y108221I-614J2734D01*
G03X151948Y108502I284J281D01*
G02X152758Y106529I2802J-2D01*
G03X152074Y106248I-284J-281D01*
G02X151701Y104853I-2802J2D01*
G03X152136Y104264I347J-199D01*
G02X154425Y103776I614J-2734D01*
G01X166448D01*
Y103978D01*
G02X170874Y106284I2802J22D01*
G01X170926Y106246D01*
X171431D01*
X171494Y106183D01*
X171631Y106278D01*
G02X175983Y104436I1589J-2308D01*
G01X175994Y104374D01*
X187871Y92496D01*
X196111D01*
G03X196394Y93179I0J400D01*
G01X180819Y108754D01*
X180129D01*
X175376Y113506D01*
X175314Y113517D01*
G02X177534Y118465I466J2763D01*
G02X182013Y116716I1716J-2215D01*
G01X182024Y116654D01*
X193257Y105420D01*
G03X193933Y105773I282J283D01*
G02X199600Y100106I6894J1227D01*
G03X199247Y99430I-70J-394D01*
G01X199681Y98996D01*
X209931D01*
X212080Y96847D01*
G03X212761Y97173I283J282D01*
G02X216799Y100311I2984J327D01*
G03X217338Y100722I141J374D01*
G02X219273Y98189I2989J278D01*
G03X218734Y97778I-141J-374D01*
G02X215418Y94516I-2989J-278D01*
G03X215092Y93835I-44J-398D01*
G01X216681Y92246D01*
X221022D01*
G02X221235Y92422I1889J-2069D01*
G03X221241Y92738I-120J160D01*
G02X224849Y92805I1764J2177D01*
G03X224837Y92214I263J-301D01*
G02X225257Y88645I-1925J-2036D01*
G01X225168Y88509D01*
X226431Y87246D01*
X231681D01*
X238496Y80431D01*
Y54819D01*
X233302Y49625D01*
X238746Y44181D01*
Y-80181D01*
X232650Y-86277D01*
G02X231945Y-89706I-2741J-1223D01*
G03Y-90294I271J-294D01*
G02X227873I-2036J-2206D01*
G03Y-89706I-271J294D01*
G02X227611Y-89431I2038J2204D01*
G03X227021Y-89406I-306J-257D01*
G01X218742Y-97685D01*
X218736Y-97758D01*
G02X216657Y-100360I-2991J258D01*
G03X216565Y-101079I122J-381D01*
G37*
G54D23*
X100000Y-102000D03*
X90000D03*
X110000D03*
X120000D03*
X130000D03*
X140000D03*
X157500Y89000D03*
X195745Y-97500D03*
X229909Y92500D03*
G54D25*
X164000Y-102000D03*
G54D24*
X103500Y118750D03*
X106500Y127000D03*
G54D26*
X154000Y-102000D03*
X174000D03*
G54D22*
X-40000Y-87000D03*
%LPD*%
G75*
G36*
G01X-36411Y-1911D02*
X-38319Y-4D01*
X-44069D01*
X-47004Y2931D01*
Y6569D01*
X-46570Y7002D01*
X-46498Y7009D01*
G03X-44813Y7706I-251J2992D01*
G01X-44757Y7754D01*
X-44043D01*
G02X-43656Y7253I0J-400D01*
G03X-39000Y4061I2906J-753D01*
G03X-34344Y7253I1750J2439D01*
G02X-33957Y7754I387J101D01*
G01X-32319D01*
X-31179Y8894D01*
G02X-30496Y8611I283J-283D01*
G01Y-11611D01*
G02X-31179Y-11894I-400J0D01*
G01X-35754Y-7319D01*
Y-3500D01*
G03X-36411Y-1911I-2247J1D01*
G37*
G36*
G01X-42128Y25764D02*
Y50944D01*
X-41284Y51789D01*
G02X-40602Y51506I282J-283D01*
G01Y39356D01*
X-41020Y38937D01*
Y25907D01*
X-41446Y25481D01*
G02X-42128Y25764I-282J283D01*
G37*
G36*
G01X-58429Y40856D02*
X-58504Y40931D01*
Y49569D01*
X-58429Y49644D01*
G02X-57747Y49361I282J-283D01*
G01Y41139D01*
G02X-58429Y40856I-400J0D01*
G37*
G36*
G01X-47304Y40481D02*
X-48004Y41181D01*
Y51819D01*
X-47304Y52519D01*
G02X-46621Y52236I283J-283D01*
G01Y40764D01*
G02X-47304Y40481I-400J0D01*
G37*
G36*
G01X-53069Y41246D02*
X-53254Y41431D01*
Y49819D01*
X-53179Y49894D01*
G02X-52496Y49611I283J-283D01*
G01Y41246D01*
X-53069D01*
G37*
G36*
G01X-19069Y-28254D02*
X-21670Y-25653D01*
G02X-21502Y-24987I283J283D01*
G03X-19578Y-22960I-800J2685D01*
G02X-18906Y-22771I389J-94D01*
G01X-14106Y-27571D01*
G02X-14389Y-28254I-283J-283D01*
G01X-19069D01*
G37*
G36*
G01X-25321Y-4144D02*
G02X-26004Y-3861I-283J283D01*
G01Y22069D01*
X-22788Y25284D01*
Y52034D01*
X-10069Y64754D01*
X-8996D01*
Y57569D01*
X-7356Y55929D01*
G02X-7639Y55247I-283J-282D01*
G01X-18431D01*
X-21496Y52181D01*
Y24830D01*
X-24246Y22080D01*
Y69D01*
X-22106Y-2071D01*
G02X-22389Y-2754I-283J-283D01*
G01X-23000D01*
G03X-24589Y-3411I-1J-2247D01*
G01X-25321Y-4144D01*
G37*
G36*
G01X-7497Y-4610D02*
G02X-8179Y-4893I-400J0D01*
G01X-10004Y-3068D01*
Y181D01*
X-12694Y2872D01*
X-16944D01*
X-17004Y2931D01*
Y4569D01*
X-16819Y4754D01*
X-11319D01*
X-8179Y7894D01*
G02X-7497Y7611I282J-283D01*
G01Y-4610D01*
G37*
G36*
G01X-19753Y9139D02*
Y11611D01*
G02X-19071Y11894I400J0D01*
G01X-18681Y11504D01*
X-12246D01*
Y10181D01*
X-13181Y9246D01*
X-18681D01*
X-19071Y8856D01*
G02X-19753Y9139I-282J283D01*
G37*
G36*
G01X5649Y45576D02*
X2131Y42058D01*
G02X1449Y42321I-283J283D01*
G03X-1818Y45167I-2999J-144D01*
G02X-2254Y45565I-36J399D01*
G01Y46259D01*
X5366D01*
G02X5649Y45576I0J-400D01*
G37*
G36*
G01X-13144Y87929D02*
X-4319Y96754D01*
X-3889D01*
G02X-3606Y96071I0J-400D01*
G01X-12431Y87247D01*
X-12861D01*
G02X-13144Y87929I0J400D01*
G37*
G36*
G01X-17235Y82588D02*
X-17069Y82754D01*
X-10569D01*
X-819Y92504D01*
X22069D01*
X24819Y89754D01*
X40069D01*
X43569Y86254D01*
X58573D01*
G02X58799Y85524I0J-400D01*
G03X58146Y84913I1702J-2473D01*
G02X57549Y84878I-314J248D01*
G01X56681Y85746D01*
X8569D01*
X6311Y83488D01*
X-2882D01*
X-4028Y82342D01*
X-4085D01*
X-4181Y82246D01*
X-17094D01*
G02X-17235Y82588I0J200D01*
G37*
G36*
G01X19024Y6348D02*
G03X18920Y6383I-882J-2448D01*
G01X18780Y6427D01*
Y10320D01*
X15942Y13158D01*
Y18092D01*
X20158Y22308D01*
X22994D01*
G02X23276Y21626I-1J-400D01*
G01X19558Y17908D01*
Y6725D01*
G02X19024Y6348I-400J0D01*
G37*
G36*
G01X81769Y38054D02*
X119949Y-126D01*
G02X119666Y-808I-283J-282D01*
G01X116408D01*
X87908Y27692D01*
X20334D01*
G02X20051Y28374I0J400D01*
G01X20431Y28754D01*
X64181D01*
X75249Y39822D01*
G02X75848Y39784I283J-283D01*
G03X81652Y38015I4152J3216D01*
G01X81769Y38054D01*
G37*
G36*
G01X77551Y47646D02*
G03X75253Y45246I2450J-4646D01*
G01X74319D01*
X62319Y33246D01*
X20139D01*
G02X19856Y33929I0J400D01*
G01X20181Y34254D01*
X61681D01*
X76504Y49077D01*
X76644Y48960D01*
G03X77551Y48354I3355J4040D01*
G02Y47646I-186J-354D01*
G37*
G36*
G01X13356Y55929D02*
X14746Y57319D01*
Y66004D01*
X16069D01*
X16254Y65819D01*
Y59819D01*
X19819Y56254D01*
X23931D01*
X26246Y58569D01*
Y61754D01*
X26569D01*
X31073Y57250D01*
X29069Y55246D01*
X13639D01*
G02X13356Y55929I0J400D01*
G37*
G36*
G01X6246Y66681D02*
X4856Y68071D01*
G02X5139Y68754I283J283D01*
G01X10111D01*
G02X10394Y68071I0J-400D01*
G01X10254Y67931D01*
Y59246D01*
X6246D01*
Y66681D01*
G37*
G36*
G01X21071Y61356D02*
X20746Y61681D01*
Y67681D01*
X20356Y68071D01*
G02X20639Y68754I283J283D01*
G01X23569D01*
X25394Y66929D01*
G02X25111Y66246I-283J-283D01*
G01X23819D01*
X21754Y64181D01*
Y61639D01*
G02X21071Y61356I-400J0D01*
G37*
G36*
G01X34417Y78496D02*
X32917Y79996D01*
X14677D01*
X14177Y79496D01*
X9681D01*
X9177Y80000D01*
X10431Y81254D01*
X54819D01*
X56099Y79974D01*
G02X55816Y79292I-283J-282D01*
G01X54678D01*
X53883Y78496D01*
X34417D01*
G37*
G36*
G01X46050Y-51200D02*
X44408Y-49558D01*
X44274D01*
G02X44132Y-49217I0J200D01*
G01X46442Y-46908D01*
Y-42756D01*
G02X47124Y-42474I400J-1D01*
G01X49058Y-44408D01*
Y-51908D01*
X51592Y-54442D01*
X57408D01*
X60192Y-51658D01*
Y-44908D01*
X60408Y-44692D01*
X65177D01*
X65308Y-44823D01*
Y-70908D01*
X71342Y-76942D01*
X192427D01*
X192525Y-77039D01*
G02X192383Y-77380I-142J-141D01*
G01X49730D01*
X39692Y-67343D01*
Y-62823D01*
X46050Y-56465D01*
G03X46692Y-54915I-1550J1550D01*
G01Y-52750D01*
G03X46050Y-51200I-2192J0D01*
G37*
G36*
G01X21746Y-61319D02*
Y-36466D01*
X21900Y-36430D01*
G03X22874Y-35969I-602J2531D01*
G03X23672Y-36381I1575J2071D01*
G01X23719Y-36396D01*
X24754Y-37431D01*
Y-63361D01*
G02X24071Y-63644I-400J0D01*
G01X21746Y-61319D01*
G37*
G36*
G01X41923Y-1677D02*
X50658Y7058D01*
X57244D01*
G02X57526Y6376I-1J-400D01*
G01X55808Y4658D01*
Y-1908D01*
X55919Y-2018D01*
G02X55777Y-2360I-141J-142D01*
G01X42205D01*
G02X41923Y-1677I1J400D01*
G37*
G36*
G01X111658Y-41558D02*
X75942Y-5842D01*
Y-4765D01*
G02X76683Y-4557I400J0D01*
G03X76336Y-2280I2567J1556D01*
G01X76298Y-2432D01*
X75942D01*
Y-1842D01*
X73158Y942D01*
X61192D01*
Y1808D01*
X73408D01*
X76192Y4592D01*
Y9658D01*
X73408Y12442D01*
X48427D01*
X38927Y2942D01*
X36643D01*
X36402Y3182D01*
X36428Y3291D01*
G03X32323Y5969I-2530J607D01*
G03X29529Y6197I-1575J-2071D01*
G02X28942Y6550I-187J353D01*
G01Y10124D01*
G02X29492Y10495I400J0D01*
G03X31749Y10492I1132J2780D01*
G03X35838Y12798I1125J2783D01*
G01X35865Y12966D01*
X75519D01*
X87177Y1308D01*
X92558D01*
Y-808D01*
X86342D01*
X84058Y-3092D01*
Y-8408D01*
X86592Y-10942D01*
X93842D01*
X94058Y-11158D01*
Y-19158D01*
X108092Y-33192D01*
X116558D01*
Y-39158D01*
X118276Y-40876D01*
G02X117994Y-41558I-283J-282D01*
G01X111658D01*
G37*
G36*
G01X31556Y67122D02*
X31265Y67412D01*
G02X31406Y67754I141J142D01*
G01X60094D01*
G02X60235Y67412I0J-200D01*
G01X59944Y67122D01*
X31556D01*
G37*
G36*
G01X31431Y72246D02*
X28856Y74821D01*
G02X29139Y75504I283J283D01*
G01X31055D01*
X32555Y74004D01*
X55745D01*
X56540Y74798D01*
X57536D01*
X57571Y74642D01*
G03X58621Y72958I2929J657D01*
G02X58371Y72246I-250J-312D01*
G01X31431D01*
G37*
G36*
G01X54442Y-42561D02*
Y-42177D01*
X45692Y-33427D01*
Y-32006D01*
G02X46374Y-31724I400J-1D01*
G01X54342Y-39692D01*
X56829D01*
G02X57111Y-40374I-1J-400D01*
G01X54783Y-42703D01*
G02X54442Y-42561I-141J142D01*
G37*
G36*
G01X73573Y-71558D02*
X70692Y-68677D01*
Y-66548D01*
G02X71374Y-66266I400J-1D01*
G01X73842Y-68734D01*
X83531D01*
X98073Y-54192D01*
X98797D01*
X99808Y-55203D01*
Y-56177D01*
X94266Y-61720D01*
Y-66865D01*
X98276Y-70876D01*
G02X97994Y-71558I-283J-282D01*
G01X73573D01*
G37*
G36*
G01X87942Y-55744D02*
Y-50342D01*
X84908Y-47308D01*
X77192D01*
Y-45942D01*
X85158D01*
X88192Y-42908D01*
Y-38006D01*
G02X88874Y-37724I400J-1D01*
G01X99276Y-48126D01*
G02X98994Y-48808I-283J-282D01*
G01X95842D01*
X88624Y-56026D01*
G02X87942Y-55744I-282J283D01*
G37*
G36*
G01X66808Y-11823D02*
X83611Y-28626D01*
G02X83329Y-29308I-283J-282D01*
G01X66714D01*
X64877Y-27472D01*
X65442Y-26908D01*
Y-8192D01*
X66808D01*
Y-11823D01*
G37*
G36*
G01X85677Y22308D02*
X95111Y12874D01*
G02X94829Y12191I-283J-283D01*
G01X90158D01*
X87692Y14658D01*
Y17658D01*
X83724Y21626D01*
G02X84006Y22308I283J282D01*
G01X85677D01*
G37*
G36*
G01X124722Y63959D02*
G02X124078Y63849I-361J172D01*
G01X106931Y80996D01*
X89681D01*
X87181Y83496D01*
X66973D01*
X66940Y83656D01*
G03X65701Y85524I-2940J-605D01*
G02X65927Y86254I226J330D01*
G01X89681D01*
X90431Y87004D01*
X96819D01*
X97569Y86254D01*
X103319D01*
X120726Y68846D01*
X120737Y68784D01*
G03X124466Y66620I2763J466D01*
G02X125004Y66244I138J-376D01*
G01Y64425D01*
G03X124722Y63959I2245J-1677D01*
G37*
G36*
G01X131308Y-55942D02*
Y-58552D01*
G02X130889Y-58951I-400J0D01*
G03X129448Y-59269I-138J-2799D01*
G02X128886Y-59050I-186J354D01*
G03X123976Y-58363I-2636J-950D01*
G02X123383Y-58425I-324J234D01*
G03X118699Y-60420I-1883J-2075D01*
G02X118299Y-60808I-400J12D01*
G01X113592D01*
X108342Y-66058D01*
X101073D01*
X99648Y-64634D01*
Y-63951D01*
X105192Y-58408D01*
Y-55006D01*
G02X105874Y-54724I400J-1D01*
G01X107092Y-55942D01*
X131308D01*
G37*
G36*
G01X172861Y-12624D02*
X147927Y-37558D01*
X122573D01*
X121942Y-36927D01*
Y-30842D01*
X118908Y-27808D01*
X110323D01*
X99442Y-16927D01*
Y-16524D01*
G02X99783Y-16382I200J0D01*
G01X105092Y-21692D01*
X122073D01*
X125942Y-17823D01*
Y-14692D01*
X130308D01*
Y-17658D01*
X134342Y-21692D01*
X162658D01*
X172408Y-11942D01*
X172579D01*
G02X172861Y-12624I-1J-400D01*
G37*
G36*
G01X107323Y-16308D02*
X103692Y-12677D01*
Y3329D01*
G02X104374Y3611I400J-1D01*
G01X114177Y-6192D01*
X169579D01*
G02X169861Y-6874I-1J-400D01*
G01X160427Y-16308D01*
X136573D01*
X135692Y-15427D01*
Y-12427D01*
X132573Y-9308D01*
X123677D01*
X120558Y-12427D01*
Y-15592D01*
X119842Y-16308D01*
X107323D01*
G37*
G36*
G01X117299Y-71139D02*
G03X114737Y-68208I-2799J139D01*
G02X114488Y-67527I34J398D01*
G01X115823Y-66192D01*
X128569D01*
X128809Y-66432D01*
X128917D01*
X133361Y-70876D01*
G02X133079Y-71558I-283J-282D01*
G01X117698D01*
G02X117299Y-71139I0J400D01*
G37*
G36*
G01X138323Y-61808D02*
X136692Y-60177D01*
Y-53342D01*
X135724Y-52374D01*
G02X136006Y-51692I283J282D01*
G01X147994D01*
G02X148276Y-52374I-1J-400D01*
G01X148058Y-52592D01*
Y-61808D01*
X145160D01*
G02X144896Y-61108I0J400D01*
G03X141204I-1846J2108D01*
G02X140940Y-61808I-264J-300D01*
G01X138323D01*
G37*
G36*
G01X206303Y37071D02*
X201478Y32246D01*
X162681D01*
X162246Y32681D01*
Y36611D01*
G02X162929Y36894I400J0D01*
G01X165569Y34254D01*
X174181D01*
X177681Y37754D01*
X206020D01*
G02X206303Y37071I0J-400D01*
G37*
G36*
G01X199586Y-71808D02*
X193836Y-66058D01*
X180256D01*
G02X179974Y-65376I1J400D01*
G01X180692Y-64658D01*
Y-61756D01*
G02X181374Y-61474I400J-1D01*
G01X183365Y-63464D01*
X194620D01*
G02X194997Y-63998I0J-400D01*
G03X199823Y-67242I2830J-1002D01*
G01X199880Y-67192D01*
X200774D01*
X200831Y-67242D01*
G03X200951Y-67344I2004J2236D01*
G02Y-67656I-125J-156D01*
G03X200094Y-71243I1876J-2344D01*
G02X199730Y-71808I-364J-165D01*
G01X199586D01*
G37*
G36*
G01X199308Y-45592D02*
X197903Y-46998D01*
X197820D01*
G03X195342Y-51684I7J-3002D01*
G02X195011Y-52308I-331J-224D01*
G01X189323D01*
X189192Y-52177D01*
Y-48158D01*
X196876Y-40474D01*
G02X197558Y-40756I282J-283D01*
G01Y-42658D01*
X199308Y-44408D01*
Y-45592D01*
G37*
G36*
G01X218732Y-82800D02*
G03X217781Y-80294I-2987J300D01*
G02Y-79706I271J294D01*
G03X218744Y-77633I-2036J2206D01*
G01X218753Y-77442D01*
X221408D01*
X225018Y-73831D01*
Y-62134D01*
G03X221024Y-57682I-2191J2052D01*
G01X220885Y-57786D01*
X220081Y-56982D01*
X218281D01*
G03X217606Y-57088I-2J-2191D01*
G03X217178Y-57151I222J-2994D01*
G02X216692Y-56760I-86J390D01*
G01Y-55250D01*
G03X216050Y-53700I-2192J0D01*
G01X214158Y-51808D01*
X210018D01*
Y-42052D01*
G03X205621Y-37964I-2191J2052D01*
G02X205033I-294J271D01*
G03X204936Y-37863I-2213J-2028D01*
G02X204935Y-37580I140J142D01*
G01X207192Y-35323D01*
Y-29990D01*
G02X207864Y-29698I400J-1D01*
G03X210728Y-30388I2045J2198D01*
G01X210841Y-30356D01*
X214513Y-34028D01*
X215700Y-35214D01*
X218074Y-37590D01*
X219636Y-39150D01*
Y-41765D01*
X219113Y-42288D01*
G03X219823Y-47242I-1286J-2712D01*
G01X219880Y-47192D01*
X220408D01*
X220589Y-47010D01*
X220730Y-47148D01*
G03X220791Y-47206I2099J2146D01*
G02Y-47794I-271J-294D01*
G03X225033Y-52036I2036J-2206D01*
G02X225621I294J-271D01*
G03X227926Y-47000I2206J2036D01*
G01X227922Y-46995D01*
Y-35509D01*
G02X228508Y-35155I400J0D01*
G03X231184Y-35218I1401J2655D01*
G02X231754Y-35580I170J-362D01*
G01Y-64420D01*
G02X231184Y-64782I-400J0D01*
G03X227873Y-69706I-1275J-2718D01*
G02Y-70294I-271J-294D01*
G03X227488Y-74276I2036J-2206D01*
G01X221754Y-80010D01*
Y-80782D01*
X219413Y-83123D01*
G02X218732Y-82800I-283J283D01*
G37*
G36*
G01X203962Y28375D02*
X206676Y31090D01*
G02X207305Y31006I282J-283D01*
G03X212484Y30957I2604J1494D01*
G02X213170I343J-206D01*
G03X213709Y30294I2575J1543D01*
G02Y29706I-271J-294D01*
G03X217781I2036J-2206D01*
G02Y30294I271J294D01*
G03X218702Y31981I-2036J2206D01*
G02X219379Y32194I394J-69D01*
G01X220285Y31288D01*
X220233Y31164D01*
G03X224625Y27476I2767J-1164D01*
G01X224760Y27563D01*
X225004Y27319D01*
Y25569D01*
X227819Y22754D01*
X229069D01*
X231754Y20069D01*
Y15580D01*
G02X231184Y15218I-400J0D01*
G03X227873Y10294I-1275J-2718D01*
G02Y9706I-271J-294D01*
G03X231184Y4782I2036J-2206D01*
G02X231754Y4420I170J-362D01*
G01Y-4420D01*
G02X231184Y-4782I-400J0D01*
G03X227873Y-9706I-1275J-2718D01*
G02Y-10294I-271J-294D01*
G03X231184Y-15218I2036J-2206D01*
G02X231754Y-15580I170J-362D01*
G01Y-24420D01*
G02X231184Y-24782I-400J0D01*
G03X228508Y-24845I-1275J-2718D01*
G02X227922Y-24491I-186J354D01*
G01Y-19822D01*
X220480Y-12380D01*
X218750D01*
X218732Y-12200D01*
G03X213170Y-10957I-2987J-300D01*
G02X212484I-343J206D01*
G03X211945Y-10294I-2575J-1543D01*
G02Y-9706I271J294D01*
G03X210161Y-4509I-2036J2206D01*
G01X210089Y-4502D01*
X198688Y6898D01*
X198705Y7000D01*
G03X198747Y7550I-2960J503D01*
G01Y7754D01*
X206907D01*
Y7550D01*
G03X207873Y5294I3002J-50D01*
G02Y4706I-271J-294D01*
G03X212484Y957I2036J-2206D01*
G02X213170I343J-206D01*
G03X213709Y294I2575J1543D01*
G02Y-294I-271J-294D01*
G03X217781I2036J-2206D01*
G02Y294I271J294D01*
G03X213170Y4043I-2036J2206D01*
G02X212484I-343J206D01*
G03X211945Y4706I-2575J-1543D01*
G02Y5294I271J294D01*
G03X212911Y7550I-2036J2206D01*
G01Y7754D01*
X218758D01*
X223007Y12002D01*
X223079Y12009D01*
G03X220621Y17036I-252J2991D01*
G02X220033I-294J271D01*
G03X218079Y17991I-2206J-2036D01*
G01X218007Y17998D01*
X217008Y18996D01*
X212319D01*
X210569Y17247D01*
X207406D01*
G02X207265Y17588I0J200D01*
G01X207496Y17819D01*
Y24681D01*
X204931Y27246D01*
X204820D01*
X204764Y27294D01*
G03X204078Y27729I-1936J-2295D01*
G02X203962Y28375I167J363D01*
G37*
G36*
G01X198747Y12246D02*
Y12450D01*
G03Y12550I-3002J50D01*
G01Y12754D01*
X212431D01*
X214181Y14504D01*
X214862D01*
X214897Y14347D01*
G03X215659Y12923I2930J652D01*
G02X215371Y12246I-289J-277D01*
G01X198747D01*
G37*
G36*
G01X210018Y-73917D02*
Y-62408D01*
X210485Y-61942D01*
X213908D01*
X214511Y-61339D01*
G02X215150Y-61441I282J-283D01*
G03X219070Y-62815I2677J1359D01*
G02X219636Y-63179I166J-364D01*
G01Y-71600D01*
X219177Y-72058D01*
X212842D01*
X210701Y-74199D01*
G02X210018Y-73917I-283J283D01*
G37*
G36*
G01X219120Y-18635D02*
X222538Y-22053D01*
Y-27007D01*
X222369Y-27033D01*
G03X220621Y-27964I458J-2967D01*
G02X220033I-294J271D01*
G03X216296Y-27418I-2206J-2036D01*
G02X215692Y-27074I-204J344D01*
G01Y-20842D01*
X215550Y-20701D01*
X215748Y-20503D01*
X215827Y-20501D01*
G03X218474Y-18751I-82J3001D01*
G02X219120Y-18635I363J-167D01*
G37*
G36*
G01X221712Y37715D02*
X218377Y41050D01*
X218440Y41178D01*
G03X217781Y44706I-2695J1322D01*
G02Y45294I271J294D01*
G03X218702Y46981I-2036J2206D01*
G02X219379Y47194I394J-69D01*
G01X221319Y45254D01*
X231319D01*
X234254Y42319D01*
Y24889D01*
G02X233571Y24606I-400J0D01*
G01X232384Y25793D01*
X232466Y25928D01*
G03X231905Y29742I-2557J1572D01*
G02Y30340I266J299D01*
G03X226910Y32715I-1996J2242D01*
G02X226228Y32449I-400J17D01*
G01X225437Y33240D01*
X225524Y33375D01*
G03X221836Y37767I-2524J1625D01*
G01X221712Y37715D01*
G37*
G36*
G01X218635Y75597D02*
X226911Y67320D01*
X226918Y67248D01*
G03X230963Y64689I2991J252D01*
G02X231504Y64315I141J-374D01*
G01Y59431D01*
X227492Y55420D01*
X225804D01*
X225772Y55581D01*
G03X221785Y57815I-2945J-581D01*
G02X221246Y58191I-139J375D01*
G01Y68931D01*
X218603Y71574D01*
X218635Y71687D01*
G03X217781Y74706I-2890J813D01*
G02Y75294I271J294D01*
G03X218045Y75571I-2037J2205D01*
G02X218635Y75597I307J-257D01*
G37*
%LPC*%
G75*
G36*
G01X63399Y-63096D02*
G03Y-63654I287J-279D01*
G02X59101I-2149J-2096D01*
G03Y-63096I-287J279D01*
G02X63399I2149J2096D01*
G37*
G54D24*
X50750Y-60750D03*
%LPD*%
G75*
G54D10*
X-70750Y-58303D03*
Y-25303D03*
Y28553D03*
Y61553D03*
Y97250D03*
Y130250D03*
G54D20*
G01X217827Y-60082D02*
Y-59627D01*
X218281Y-59173D01*
X219173D01*
X221827Y-61827D01*
Y-72508D01*
X220085Y-74250D01*
X213750D01*
X212250Y-75750D01*
Y-78585D01*
X211263Y-79572D01*
X48822D01*
X37500Y-68251D01*
Y-61915D01*
X44500Y-54915D01*
Y-52750D01*
X43500Y-51750D01*
X37500D01*
X36750Y-51000D01*
Y-48250D01*
X37500Y-47500D01*
X42750D01*
X44250Y-46000D01*
Y-41085D01*
X37000Y-33835D01*
Y-26750D01*
X35188Y-24938D01*
Y-23914D01*
X34433Y-23159D01*
X33408D01*
X32038Y-21789D01*
Y-20764D01*
X31283Y-20009D01*
X28135D01*
X28134Y-20008D01*
X26759D01*
X25739Y-18988D01*
Y-17615D01*
X24984Y-16860D01*
X23249D01*
X22944Y-16555D01*
Y-15250D01*
X22369Y-14675D01*
X21622D01*
X21298Y-14999D01*
G01X18150Y-2401D02*
X19103Y-3354D01*
X19641D01*
X19910Y-3085D01*
Y-2232D01*
X18500Y-822D01*
Y1665D01*
X20168Y3332D01*
X21750Y4914D01*
Y17000D01*
X25500Y20750D01*
X55915D01*
X57836Y18829D01*
X65414D01*
X67335Y20750D01*
X81500D01*
X85500Y16750D01*
Y13750D01*
X89250Y10000D01*
X96250D01*
X101500Y4750D01*
Y-13585D01*
X106415Y-18500D01*
X120750D01*
X122750Y-16500D01*
Y-13335D01*
X124585Y-11500D01*
X131665D01*
X133500Y-13335D01*
Y-16335D01*
X135665Y-18500D01*
X161335D01*
X171085Y-8750D01*
X183665D01*
X194487Y-19572D01*
X211322D01*
X213500Y-21750D01*
Y-28500D01*
X215583Y-30583D01*
X217958Y-32957D01*
X220332Y-35332D01*
X222827Y-37827D01*
Y-45000D01*
G01X21300Y-5551D02*
X20349Y-4600D01*
Y-4062D01*
X20910Y-3501D01*
Y-1817D01*
X19500Y-407D01*
Y1250D01*
X20876Y2624D01*
X22750Y4499D01*
Y16585D01*
X25915Y19750D01*
X55500D01*
X57421Y17829D01*
X65829D01*
X67750Y19750D01*
X81085D01*
X84500Y16335D01*
Y13335D01*
X88835Y9000D01*
X95835D01*
X100500Y4335D01*
Y-14000D01*
X106000Y-19500D01*
X121165D01*
X123750Y-16915D01*
Y-13750D01*
X125000Y-12500D01*
X131250D01*
X132500Y-13750D01*
Y-16750D01*
X135250Y-19500D01*
X161750D01*
X171500Y-9750D01*
X183250D01*
X194072Y-20572D01*
X210907D01*
X212500Y-22165D01*
Y-28916D01*
X216063Y-32478D01*
X217250Y-33665D01*
X219624Y-36040D01*
X221827Y-38242D01*
Y-42673D01*
X219500Y-45000D01*
X217827D01*
G01X18149Y-5550D02*
X18017D01*
X14759Y-2292D01*
Y-912D01*
X13750Y97D01*
Y3323D01*
X13710Y3363D01*
Y4433D01*
X14527Y5250D01*
X15088D01*
X15588Y5750D01*
Y8997D01*
X12750Y11835D01*
Y19415D01*
X18835Y25500D01*
X87000D01*
X115500Y-3000D01*
X188178D01*
X193599Y-8420D01*
X194293Y-9114D01*
Y-9115D01*
X194987Y-9810D01*
X203935D01*
X208697Y-14572D01*
X219572D01*
X225730Y-20730D01*
Y-47903D01*
X227827Y-50000D01*
G01X21298Y-8700D02*
X19449Y-6851D01*
Y-5011D01*
X19178Y-4740D01*
X19164D01*
X18684Y-4260D01*
X18142D01*
X15759Y-1877D01*
Y-990D01*
X16588Y-161D01*
Y9412D01*
X13750Y12250D01*
Y19000D01*
X19250Y24500D01*
X86585D01*
X115085Y-4000D01*
X187763D01*
X192891Y-9128D01*
X194572Y-10810D01*
X203520D01*
X208282Y-15572D01*
X219157D01*
X224730Y-21145D01*
Y-48520D01*
X223250Y-50000D01*
X222827D01*
G01X18149Y-8700D02*
X19448Y-9999D01*
X22250D01*
X22908Y-9341D01*
Y-8092D01*
X23599Y-7401D01*
X39566D01*
X41415Y-9250D01*
X44664D01*
X46000Y-10586D01*
Y-13836D01*
X46415Y-14251D01*
X48584D01*
X49000Y-13835D01*
Y-9250D01*
X50000Y-8250D01*
X52500D01*
X53500Y-9250D01*
Y-27000D01*
X55250Y-28750D01*
X63056D01*
X65806Y-31500D01*
X87165D01*
X108415Y-52750D01*
X133000D01*
X134500Y-54250D01*
Y-61085D01*
X137415Y-64000D01*
X149250D01*
X150250Y-63000D01*
Y-53500D01*
X151750Y-52000D01*
X156000D01*
X157500Y-53500D01*
Y-63085D01*
X158415Y-64000D01*
X176835D01*
X177500Y-63335D01*
Y-60415D01*
X176585Y-59500D01*
X169250D01*
X165750Y-56000D01*
Y-47085D01*
X178263Y-34572D01*
X184450D01*
X185250Y-33772D01*
G01X18150Y-11850D02*
X19440Y-13140D01*
X21860D01*
X23000Y-12000D01*
Y-11474D01*
X24482Y-9992D01*
X27062D01*
X27063Y-9991D01*
X28133D01*
X29723Y-8401D01*
X39151D01*
X41000Y-10250D01*
X44249D01*
X45000Y-11001D01*
Y-14251D01*
X46000Y-15251D01*
X48999D01*
X50000Y-14250D01*
Y-9665D01*
X50415Y-9250D01*
X52085D01*
X52500Y-9665D01*
Y-27415D01*
X54835Y-29750D01*
X62641D01*
X65391Y-32500D01*
X86750D01*
X108000Y-53750D01*
X132585D01*
X133500Y-54665D01*
Y-61500D01*
X137000Y-65000D01*
X149665D01*
X151250Y-63415D01*
Y-53915D01*
X152165Y-53000D01*
X155585D01*
X156500Y-53915D01*
Y-63500D01*
X158000Y-65000D01*
X177250D01*
X178500Y-63750D01*
Y-60000D01*
X177000Y-58500D01*
X169665D01*
X166750Y-55585D01*
Y-47500D01*
X178678Y-35572D01*
X183930D01*
X185250Y-36892D01*
G01X222827Y-60082D02*
Y-72923D01*
X220500Y-75250D01*
X214165D01*
X213250Y-76165D01*
Y-79000D01*
X211678Y-80572D01*
X48407D01*
X36792Y-68958D01*
X36500Y-68666D01*
Y-61500D01*
X43500Y-54500D01*
Y-53165D01*
X43085Y-52750D01*
X37085D01*
X35750Y-51415D01*
Y-47835D01*
X37085Y-46500D01*
X42335D01*
X43250Y-45585D01*
Y-41500D01*
X36000Y-34250D01*
Y-27165D01*
X34574Y-25739D01*
X33363D01*
X32608Y-24984D01*
Y-23774D01*
X31424Y-22590D01*
X30212D01*
X30211Y-22589D01*
X28135D01*
X28134Y-22588D01*
X27064D01*
X26309Y-21833D01*
Y-20974D01*
X24820Y-19485D01*
X23869D01*
X23114Y-18730D01*
Y-18140D01*
X21309Y-16335D01*
X19485D01*
X18149Y-14999D01*
G01X24449Y-15000D02*
Y-14551D01*
X25250Y-13750D01*
X25750D01*
X28375Y-16375D01*
X31460D01*
X32607Y-17523D01*
Y-18685D01*
X33362Y-19440D01*
X34525D01*
X42500Y-27415D01*
Y-34750D01*
X51250Y-43500D01*
Y-51000D01*
X52500Y-52250D01*
X56500D01*
X58000Y-50750D01*
Y-44000D01*
X59500Y-42500D01*
X66085D01*
X67500Y-43915D01*
Y-70000D01*
X72250Y-74750D01*
X193335D01*
X196585Y-78000D01*
X204500D01*
X207827Y-74673D01*
Y-61500D01*
X209577Y-59750D01*
X213000D01*
X214500Y-58250D01*
Y-55250D01*
X213250Y-54000D01*
X208327D01*
X207827Y-53500D01*
Y-40000D01*
G01X24449Y-11850D02*
X25349Y-12750D01*
X26165D01*
X28790Y-15375D01*
X31875D01*
X33316Y-16817D01*
X33359Y-16860D01*
X34433D01*
X35188Y-17615D01*
Y-18688D01*
X43500Y-27000D01*
Y-34335D01*
X52250Y-43085D01*
Y-50585D01*
X52915Y-51250D01*
X56085D01*
X57000Y-50335D01*
Y-43585D01*
X59085Y-41500D01*
X66500D01*
X68500Y-43500D01*
Y-69585D01*
X72665Y-73750D01*
X193750D01*
X197000Y-77000D01*
X204085D01*
X206827Y-74258D01*
Y-61085D01*
X209162Y-58750D01*
X212585D01*
X213500Y-57835D01*
Y-55665D01*
X212835Y-55000D01*
X207912D01*
X206827Y-53915D01*
Y-43327D01*
X203500Y-40000D01*
X202827D01*
G01Y-75000D02*
X198263D01*
X192513Y-69250D01*
X134835D01*
X129825Y-64240D01*
X129717D01*
X129477Y-64000D01*
X114915D01*
X109665Y-69250D01*
X99750D01*
X96457Y-65957D01*
Y-62628D01*
X102000Y-57085D01*
Y-54295D01*
X99705Y-52000D01*
X97165D01*
X82623Y-66542D01*
X74750D01*
X73000Y-64792D01*
Y-58000D01*
X74750Y-56250D01*
X83335D01*
X84750Y-54835D01*
Y-51665D01*
X83585Y-50500D01*
X75585D01*
X74000Y-48915D01*
Y-44500D01*
X75750Y-42750D01*
X83835D01*
X85000Y-41585D01*
Y-38915D01*
X83585Y-37500D01*
X55250D01*
X47000Y-29250D01*
Y-22250D01*
X43250Y-18500D01*
Y-16750D01*
X40322Y-13822D01*
X35978D01*
X35085Y-14715D01*
X34015D01*
X32622Y-13322D01*
X29069D01*
X27599Y-11852D01*
Y-11851D01*
G01X202827Y-70000D02*
Y-72356D01*
X201183Y-74000D01*
X198678D01*
X192928Y-68250D01*
X135250D01*
X130240Y-63240D01*
X130132D01*
X129892Y-63000D01*
X114500D01*
X109250Y-68250D01*
X100165D01*
X97457Y-65542D01*
Y-63043D01*
X103000Y-57500D01*
Y-53880D01*
X100120Y-51000D01*
X96750D01*
X82208Y-65542D01*
X75165D01*
X74000Y-64377D01*
Y-58415D01*
X75165Y-57250D01*
X83750D01*
X85750Y-55250D01*
Y-51250D01*
X84000Y-49500D01*
X76000D01*
X75000Y-48500D01*
Y-44915D01*
X76165Y-43750D01*
X84250D01*
X86000Y-42000D01*
Y-38500D01*
X84000Y-36500D01*
X55665D01*
X48000Y-28835D01*
Y-21835D01*
X44250Y-18085D01*
Y-16335D01*
X40737Y-12822D01*
X36250D01*
X35278Y-11850D01*
X33850D01*
X32750Y-10750D01*
X31250D01*
X30747Y-11253D01*
Y-11850D01*
G01Y-2402D02*
Y-2497D01*
X32801Y-4551D01*
X56216D01*
X59000Y-7335D01*
Y-25585D01*
X59415Y-26000D01*
X61835D01*
X62250Y-25585D01*
Y-6750D01*
X64000Y-5000D01*
X68250D01*
X70000Y-6750D01*
Y-10500D01*
X86250Y-26750D01*
X88165D01*
X109915Y-48500D01*
X158000D01*
X179000Y-27500D01*
X183343D01*
X188730Y-32887D01*
Y-39520D01*
X182250Y-46000D01*
X176165D01*
X175000Y-47165D01*
Y-49585D01*
X176165Y-50750D01*
X181415D01*
X183500Y-52835D01*
Y-59085D01*
X184688Y-60273D01*
X199273D01*
X202000Y-63000D01*
Y-64173D01*
X202827Y-65000D01*
G01X30748Y-5551D02*
X55801D01*
X58000Y-7750D01*
Y-26000D01*
X59000Y-27000D01*
X62250D01*
X63250Y-26000D01*
Y-7165D01*
X64415Y-6000D01*
X67835D01*
X69000Y-7165D01*
Y-10915D01*
X85835Y-27750D01*
X87750D01*
X109500Y-49500D01*
X158415D01*
X179415Y-28500D01*
X182928D01*
X187730Y-33302D01*
Y-39105D01*
X181835Y-45000D01*
X175750D01*
X174000Y-46750D01*
Y-50000D01*
X175750Y-51750D01*
X181000D01*
X182500Y-53250D01*
Y-59500D01*
X184273Y-61273D01*
X198858D01*
X201000Y-63415D01*
Y-64322D01*
X200322Y-65000D01*
X197827D01*
G01X27598Y-2402D02*
Y-2298D01*
X29000Y-896D01*
Y950D01*
X30098Y2048D01*
X34437D01*
X35735Y750D01*
X39835D01*
X49335Y10250D01*
X72500D01*
X74000Y8750D01*
Y5500D01*
X72500Y4000D01*
X59665D01*
X59000Y3335D01*
Y-585D01*
X59665Y-1250D01*
X72250D01*
X73750Y-2750D01*
Y-6750D01*
X110750Y-43750D01*
X153250D01*
X175000Y-22000D01*
X184290D01*
X192290Y-30000D01*
X196250D01*
X198250Y-32000D01*
Y-36000D01*
X187000Y-47250D01*
Y-53085D01*
X188415Y-54500D01*
X197428D01*
X199750Y-56822D01*
X201005D01*
X202827Y-55000D01*
G01X27599Y-5552D02*
X29075Y-4076D01*
Y-2236D01*
X30561Y-750D01*
X35250D01*
X35750Y-250D01*
X40250D01*
X49750Y9250D01*
X72085D01*
X73000Y8335D01*
Y5915D01*
X72085Y5000D01*
X59250D01*
X58000Y3750D01*
Y-1000D01*
X59250Y-2250D01*
X71835D01*
X72750Y-3165D01*
Y-7165D01*
X110335Y-44750D01*
X153665D01*
X175415Y-23000D01*
X183875D01*
X191875Y-31000D01*
X195835D01*
X197250Y-32415D01*
Y-35585D01*
X186000Y-46835D01*
Y-53500D01*
X188000Y-55500D01*
X197013D01*
X199042Y-57529D01*
Y-57557D01*
X199327Y-57842D01*
X200669D01*
X202827Y-60000D01*
G01X24449Y-2402D02*
Y-1814D01*
X22785Y-150D01*
Y949D01*
X23536Y1700D01*
X24824D01*
X25750Y2626D01*
Y14000D01*
X27908Y16158D01*
X76842D01*
X88500Y4500D01*
X94000D01*
X95750Y2750D01*
Y-2415D01*
X94165Y-4000D01*
X87665D01*
X87250Y-4415D01*
Y-7085D01*
X87915Y-7750D01*
X95165D01*
X97250Y-9835D01*
Y-17835D01*
X109415Y-30000D01*
X118000D01*
X119750Y-31750D01*
Y-37835D01*
X121665Y-39750D01*
X148835D01*
X175585Y-13000D01*
X179915D01*
X191487Y-24572D01*
X201072D01*
X205000Y-28500D01*
Y-34415D01*
X200750Y-38665D01*
Y-41335D01*
X202500Y-43085D01*
Y-49673D01*
X202827Y-50000D01*
G01X24450Y-5552D02*
X26000Y-4002D01*
Y-1950D01*
X25375Y-1325D01*
Y836D01*
X25376D01*
X25995Y1455D01*
X25994D01*
X26750Y2211D01*
Y13585D01*
X28323Y15158D01*
X76427D01*
X88085Y3500D01*
X93585D01*
X94750Y2335D01*
Y-2000D01*
X93750Y-3000D01*
X87250D01*
X86250Y-4000D01*
Y-7500D01*
X87500Y-8750D01*
X94750D01*
X96250Y-10250D01*
Y-18250D01*
X109000Y-31000D01*
X117585D01*
X118750Y-32165D01*
Y-38250D01*
X121250Y-40750D01*
X149250D01*
X176000Y-14000D01*
X179500D01*
X191072Y-25572D01*
X200657D01*
X204000Y-28915D01*
Y-34000D01*
X199750Y-38250D01*
Y-41750D01*
X201500Y-43500D01*
Y-46500D01*
X198000Y-50000D01*
X197827D01*
G54D11*
X-81500Y-52553D03*
X-82000Y-48803D03*
X-81500Y-31053D03*
X-82000Y-34803D03*
X-81500Y34303D03*
X-82000Y38053D03*
X-81500Y55803D03*
X-82000Y52053D03*
X-81500Y103000D03*
X-82000Y106750D03*
Y120750D03*
X-81500Y124500D03*
X-61803Y-45678D03*
X-67285D03*
X-72768D03*
X-78250D03*
X-62500Y-52553D03*
X-67250D03*
X-72000D03*
X-76750D03*
X-72768Y-37928D03*
X-67285D03*
X-61803D03*
X-78250D03*
X-62500Y-31053D03*
X-67250D03*
X-72000D03*
X-76750D03*
X-70500Y16250D03*
X-63250Y41178D03*
X-68250D03*
X-73250D03*
X-78250D03*
X-62500Y34303D03*
X-67250D03*
X-72000D03*
X-76750D03*
X-73250Y48928D03*
X-68250D03*
X-63250D03*
X-78250D03*
X-62500Y55803D03*
X-67250D03*
X-72000D03*
X-76750D03*
X-67250Y103000D03*
X-62500D03*
X-76750D03*
X-72000D03*
X-61495Y109351D03*
X-66491Y109744D03*
X-71500Y109875D03*
Y117625D03*
X-66423Y117500D03*
X-61359Y117127D03*
X-78250Y109875D03*
Y117625D03*
X-67250Y124500D03*
X-62500D03*
X-76750D03*
X-72000D03*
X-51265Y-42254D03*
X-56263Y-44801D03*
X-56714Y-36564D03*
X-52989Y-32839D03*
X-46750Y10000D03*
X-58250Y41178D03*
Y48928D03*
X-53250D03*
X-47575Y48556D03*
X-41996Y47447D03*
X-41923Y105190D03*
X-46727Y106614D03*
X-51600Y107783D03*
X-56527Y108697D03*
X-56319Y116505D03*
X-51315Y115637D03*
X-46360Y114524D03*
X-41466Y113170D03*
X-35652Y-3345D03*
X-30798Y-1872D03*
X-31351Y-10012D03*
X-25250Y1551D03*
X-22504Y36193D03*
X-19370Y94434D03*
X-23643Y97052D03*
X-28047Y99443D03*
X-32570Y101600D03*
X-37199Y103518D03*
X-18309Y102904D03*
X-36644Y111576D03*
X-31906Y109749D03*
X-27263Y107691D03*
X-22727Y105407D03*
X1000Y-134500D03*
X-2241Y-131098D03*
X-9875Y-130750D03*
X-13000Y-134500D03*
X-1409Y-104562D03*
X-2035Y-110206D03*
X-2291Y-115880D03*
X-2125Y-123759D03*
X-9875Y-123800D03*
X-10047Y-116621D03*
X-9881Y-111328D03*
X-9419Y-106054D03*
X942Y-93456D03*
X-415Y-98970D03*
X-8662Y-100813D03*
X-7613Y-95623D03*
X-6275Y-90500D03*
X-4653Y-85460D03*
X2653Y-88040D03*
X-3019Y-80447D03*
X-1630Y-75360D03*
X-488Y-70212D03*
X402Y-65015D03*
X1039Y-59780D03*
X1422Y-54521D03*
X-8750Y-1750D03*
X-11424Y4309D03*
X-13500Y9710D03*
X-7455Y85290D03*
X-11265Y88545D03*
X-14018Y100187D03*
X-5863Y94139D03*
X-2018Y90822D03*
X1660Y87320D03*
X-7500Y109000D03*
X-9000Y113750D03*
X-9750Y118750D03*
Y125250D03*
X-2250Y125000D03*
Y118500D03*
X-1250Y113750D03*
X1000Y109250D03*
X-16750Y119750D03*
Y124500D03*
X1000Y134500D03*
X-13000D03*
X-16750Y134000D03*
Y129250D03*
X-2125Y130750D03*
X-9759Y131098D03*
X4404Y-82669D03*
X8069Y-66138D03*
X7115Y-71706D03*
X5892Y-77220D03*
X9163Y-54897D03*
X8752Y-60531D03*
X17549Y13275D03*
X20127Y55402D03*
X9250Y80000D03*
X22762Y65688D03*
X9725Y64584D03*
X7250Y86750D03*
X5000Y92000D03*
X13250D03*
X15250Y87000D03*
X4750Y119750D03*
Y115000D03*
Y124500D03*
Y134000D03*
Y129250D03*
X24474Y-43275D03*
X31799Y33612D03*
Y28158D03*
X24049D03*
Y33612D03*
X28470Y55801D03*
X32250Y116000D03*
X41000Y124750D03*
X48750Y-45750D03*
X50750Y-36250D03*
X51750Y-2250D03*
X46299Y12487D03*
X49500Y116000D03*
X82000Y-70500D03*
X67250Y-28500D03*
X84500Y-12500D03*
X74500Y12250D03*
X84500Y2250D03*
X104500Y-64500D03*
X90750Y-50750D03*
X94000Y-61750D03*
X91250D03*
X87750Y-16000D03*
X93000Y13750D03*
X122750Y-36000D03*
X115500Y-36250D03*
X106750D03*
X134500Y-36000D03*
X209909Y-97500D03*
X195745Y-92500D03*
X197087Y-69260D03*
X202827Y-75000D03*
Y-70000D03*
Y-65000D03*
X197827D03*
X195745Y-42500D03*
X202827Y-55000D03*
Y-60000D03*
Y-50000D03*
X197827D03*
X209909Y-32500D03*
X207827Y-40000D03*
X202827D03*
X209909Y-12500D03*
Y-2500D03*
Y-7500D03*
X195745Y7500D03*
X209909Y12500D03*
Y27500D03*
X195745Y32500D03*
X209909D03*
Y37500D03*
X195745Y22500D03*
Y27500D03*
X202827Y25000D03*
X191000Y57750D03*
X195745Y62500D03*
X209909Y57500D03*
X195745Y47500D03*
Y42500D03*
Y77500D03*
Y92500D03*
X205327Y101000D03*
X229909Y-97500D03*
X215745Y-92500D03*
Y-97500D03*
X229909Y-82500D03*
Y-62500D03*
X215745Y-67500D03*
X229909Y-57500D03*
Y-42500D03*
X215745Y-52500D03*
X217827Y-60082D03*
X222827Y-45000D03*
X217827D03*
X227827Y-50000D03*
X222827D03*
Y-60082D03*
X229909Y-37500D03*
Y-22500D03*
X215745D03*
Y-37500D03*
X229909Y-17500D03*
Y-2500D03*
X215745Y-7500D03*
X229909Y2500D03*
Y17500D03*
X215745Y7500D03*
X217827Y15000D03*
X222827D03*
X229909Y37500D03*
X215745Y22500D03*
X229909Y42500D03*
Y62500D03*
X222827Y50000D03*
X227827D03*
X229909Y67500D03*
X215745Y72500D03*
X229909Y97500D03*
Y87500D03*
X241500Y40500D03*
Y60500D03*
X236750Y100250D03*
Y116000D03*
G54D21*
G01X17802Y-30374D02*
Y-37948D01*
X4500Y-51250D01*
X-24500D01*
X-33750Y-42000D01*
X-40500D01*
X-55500Y-27000D01*
Y-19500D01*
X-60000Y-15000D01*
X-69250D01*
X-77750Y-6500D01*
Y15500D01*
X-70250Y23000D01*
X-55250D01*
X-53000Y25250D01*
Y36250D01*
X-54250Y37500D01*
X-58250D01*
X-60750Y40000D01*
Y50500D01*
X-57250Y54000D01*
X-55500D01*
X-27000Y82500D01*
Y83250D01*
X-7250Y103000D01*
X23500D01*
X27000Y99500D01*
X48500D01*
X51000Y97000D01*
X78500D01*
X80250Y95250D01*
X85250D01*
X87250Y97250D01*
X105750D01*
X130000Y73000D01*
Y53000D01*
G01X14652Y-30374D02*
X15250Y-30972D01*
Y-37000D01*
X11500Y-40750D01*
X9000D01*
X3750Y-46000D01*
X-25500D01*
X-35000Y-36500D01*
X-39000D01*
X-51553Y-23947D01*
X-51851D01*
X-53459Y-22339D01*
Y-18791D01*
X-64238Y-8012D01*
X-68738D01*
X-75500Y-1250D01*
Y15000D01*
X-69500Y21000D01*
X-54250D01*
X-49750Y25500D01*
Y36250D01*
X-52500Y39000D01*
X-54000D01*
X-55500Y40500D01*
Y50750D01*
X-17500Y88750D01*
X-15500D01*
X-5250Y99000D01*
X23000D01*
X25500Y96500D01*
X42750D01*
X46750Y92500D01*
X50750D01*
X51250Y93000D01*
X74750D01*
X76750Y91000D01*
X108250D01*
X127250Y72000D01*
Y62750D01*
G01X-70500Y16250D02*
Y15750D01*
X-65375Y10625D01*
Y-4625D01*
X-43995Y-26005D01*
X-43152D01*
X-37657Y-31500D01*
X-32000D01*
X-20250Y-43250D01*
X-1250D01*
X-250Y-42250D01*
X4750D01*
X11750Y-35250D01*
Y-33750D01*
X10250Y-32250D01*
Y-27250D01*
X11500Y-26000D01*
X12250D01*
X13250Y-25000D01*
Y-20750D01*
X12250Y-19750D01*
X11250D01*
X10250Y-18750D01*
Y-11500D01*
X10046Y-11296D01*
Y-11293D01*
X9259Y-10506D01*
X9256D01*
X7000Y-8250D01*
Y-953D01*
X8701Y748D01*
G01X123500Y69250D02*
X104250Y88500D01*
X98500D01*
X97750Y89250D01*
X89500D01*
X88750Y88500D01*
X44500D01*
X41000Y92000D01*
X25750D01*
X23000Y94750D01*
X-1750D01*
X-11500Y85000D01*
X-18000D01*
X-50250Y52750D01*
Y40250D01*
X-47125Y37125D01*
Y24375D01*
X-58500Y13000D01*
Y-6035D01*
X-47910Y-16625D01*
Y-19195D01*
X-43711Y-23394D01*
X-41357D01*
X-36000Y-28750D01*
X-31500D01*
X-20750Y-39500D01*
X-10370D01*
X-9712Y-40158D01*
X-8266D01*
X-7608Y-39500D01*
X4250D01*
X8701Y-35049D01*
Y-30748D01*
G01Y-27598D02*
Y-28845D01*
X7356Y-30190D01*
Y-32394D01*
X5500Y-34250D01*
Y-34929D01*
X4534Y-35895D01*
X3418D01*
X3272Y-35750D01*
X1750D01*
X1500Y-36000D01*
X-20250D01*
X-30000Y-26250D01*
X-33250D01*
X-44250Y-15250D01*
Y-13421D01*
X-54500Y-3171D01*
Y12750D01*
X-44375Y22875D01*
Y51875D01*
X-38500Y57750D01*
Y60500D01*
X-19000Y80000D01*
X-3250D01*
X-3154Y80096D01*
X-3097D01*
X-1951Y81242D01*
X7242D01*
X9500Y83500D01*
X55750D01*
X58000Y81250D01*
X86250D01*
X88750Y78750D01*
X106000D01*
X126000Y58750D01*
Y51000D01*
X128000Y49000D01*
X152500D01*
X154750Y51250D01*
Y53750D01*
X158500Y57500D01*
X165500D01*
X170000Y53000D01*
G01X11850Y-24449D02*
X10801D01*
X9250Y-26000D01*
X8250D01*
X7000Y-27250D01*
Y-28250D01*
X6250Y-29000D01*
X-9500D01*
X-18750Y-19750D01*
X-26000D01*
X-27750Y-18000D01*
X-34000D01*
X-39500Y-12500D01*
Y-10750D01*
X-51000Y750D01*
Y9500D01*
X-34250Y26250D01*
Y52500D01*
X-12500Y74250D01*
X1329D01*
X2000Y74921D01*
X6329D01*
X7500Y73750D01*
X26750D01*
X30500Y70000D01*
X62250D01*
X65500Y73250D01*
X101250D01*
X109000Y65500D01*
Y63814D01*
X114314Y58500D01*
X120250D01*
X124250Y54500D01*
Y50500D01*
X127750Y47000D01*
X153250D01*
X159250Y53000D01*
X160000D01*
G01X8701Y-24449D02*
X7551D01*
X6000Y-26000D01*
X-7288D01*
X-16288Y-17000D01*
X-20293D01*
X-20820Y-17527D01*
X-23223D01*
X-25500Y-15250D01*
X-31000D01*
X-38000Y-8250D01*
Y-3500D01*
X-39250Y-2250D01*
X-45000D01*
X-49250Y2000D01*
Y7500D01*
X-46750Y10000D01*
G01X110250Y66750D02*
Y68750D01*
X102500Y76500D01*
X67168D01*
X66623Y77045D01*
X55609D01*
X54814Y76250D01*
X33486D01*
X31986Y77750D01*
X15608D01*
X15108Y77250D01*
X8750D01*
X6750Y79250D01*
X1238D01*
X1235Y79253D01*
X-211D01*
X-1714Y77750D01*
X-14750D01*
X-38355Y54145D01*
Y38425D01*
X-38774Y38006D01*
Y24976D01*
X-52750Y11000D01*
Y-1750D01*
X-45791Y-8709D01*
Y-9677D01*
X-44769Y-10699D01*
X-43801D01*
X-31750Y-22750D01*
X-27750D01*
X-20000Y-30500D01*
X-5000D01*
X-3000Y-32500D01*
X3799D01*
X5551Y-30748D01*
G01X-46750Y10000D02*
X-33250D01*
X-31750Y11500D01*
Y13500D01*
X-33000Y14750D01*
X-37750D01*
X-38995Y15995D01*
Y19056D01*
X-37901Y20150D01*
X-33350D01*
X-31750Y21750D01*
Y28000D01*
X-29730Y30020D01*
Y53270D01*
X-12000Y71000D01*
X17533D01*
X18267Y71734D01*
X19713D01*
X20447Y71000D01*
X24500D01*
X30625Y64875D01*
X60875D01*
X66250Y70250D01*
X101500D01*
X106250Y65500D01*
Y63000D01*
X114750Y54500D01*
Y52250D01*
X118000Y49000D01*
X122250D01*
X126005Y45245D01*
Y41344D01*
X128344Y39005D01*
X156005D01*
X160000Y43000D01*
G01X-22500Y-123250D02*
X-18498Y-109748D01*
G01X-26502D02*
X-22500Y-123250D01*
G01X11850Y-21299D02*
X10505Y-22644D01*
X-2327D01*
X-3442Y-21529D01*
X-7471D01*
X-11505Y-17495D01*
Y-14245D01*
X-13313Y-12437D01*
X-13437D01*
X-13500Y-12500D01*
X-18500D01*
X-19500Y-11500D01*
Y-6000D01*
X-20500Y-5000D01*
X-23000D01*
X-24250Y-6250D01*
Y-11500D01*
X-25250Y-12500D01*
X-27250D01*
X-28250Y-11500D01*
Y23000D01*
X-25035Y26215D01*
Y52965D01*
X-11000Y67000D01*
X-7500D01*
X-6750Y66250D01*
Y58500D01*
X-5750Y57500D01*
X-3250D01*
X-2250Y58500D01*
Y66000D01*
X-750Y67500D01*
X2250D01*
X4000Y65750D01*
Y58250D01*
X5250Y57000D01*
X11250D01*
X12500Y58250D01*
Y67000D01*
X13750Y68250D01*
X17000D01*
X18500Y66750D01*
Y60750D01*
X20750Y58500D01*
X23000D01*
X24000Y59500D01*
Y63250D01*
X24750Y64000D01*
X27500D01*
X32250Y59250D01*
X59250D01*
X67500Y67500D01*
X100000D01*
X102154Y65346D01*
Y62846D01*
X110000Y55000D01*
Y53000D01*
G01X8701Y-21299D02*
X7152Y-19750D01*
X-4750D01*
X-8000Y-16500D01*
Y-13000D01*
X-22000Y1000D01*
Y21149D01*
X-19250Y23899D01*
Y51250D01*
X-17500Y53000D01*
X30000D01*
X32000Y55000D01*
X58500D01*
X69000Y65500D01*
X89000D01*
X91000Y63500D01*
X95500D01*
X105000Y54000D01*
Y51750D01*
X108750Y48000D01*
X111004D01*
X116004Y43000D01*
X120000D01*
G01X90000D02*
X85250Y47750D01*
Y54750D01*
X82500Y57500D01*
X77250D01*
X60561Y40811D01*
X14779D01*
X2223Y28255D01*
X1569D01*
X-229Y26457D01*
Y-521D01*
X750Y-1500D01*
Y-6025D01*
X2081Y-7356D01*
X2959D01*
X3746Y-8143D01*
Y-9021D01*
X4950Y-10225D01*
X5975D01*
X7250Y-11500D01*
Y-13549D01*
X8701Y-15000D01*
G01Y-18150D02*
X7051Y-16500D01*
X-1750D01*
X-4750Y-13500D01*
Y-11499D01*
X-12250Y-3999D01*
Y-750D01*
X-13625Y625D01*
X-17875D01*
X-19250Y2000D01*
Y5500D01*
X-17750Y7000D01*
X-12250D01*
X-10000Y9250D01*
Y12750D01*
X-11000Y13750D01*
X-17750D01*
X-19250Y15250D01*
Y20000D01*
X-17750Y21500D01*
X-11000D01*
X-9250Y23250D01*
Y27250D01*
X-11000Y29000D01*
X-14000D01*
X-15500Y30500D01*
Y34250D01*
X-14750Y35000D01*
X-6000D01*
X-4250Y36750D01*
Y39750D01*
X-5750Y41250D01*
X-15750D01*
X-16500Y42000D01*
Y47750D01*
X-15745Y48505D01*
X-11005D01*
X-10000Y47500D01*
Y44750D01*
X-9250Y44000D01*
X-5250D01*
X-4500Y44750D01*
Y47505D01*
X-3500Y48505D01*
X21501D01*
X21565Y48441D01*
X31191D01*
X34000Y51250D01*
X58500D01*
X70750Y63500D01*
X88500D01*
X99000Y53000D01*
X100000D01*
G01X5551Y-15000D02*
X4051Y-13500D01*
X-1001D01*
X-2093Y-12408D01*
Y-12407D01*
X-2250Y-12250D01*
Y-10500D01*
X-5250Y-7500D01*
Y31500D01*
X10000Y46750D01*
X57500D01*
X72250Y61500D01*
X87500D01*
X95000Y54000D01*
Y50000D01*
X100000Y45000D01*
Y43000D01*
G01X90000Y53000D02*
Y54000D01*
X84500Y59500D01*
X75250D01*
X58750Y43000D01*
X24379D01*
X24329Y42950D01*
X22883D01*
X22833Y43000D01*
X11250D01*
X-2250Y29500D01*
Y-6322D01*
X1750Y-10322D01*
X3000D01*
X4528Y-11850D01*
X5551D01*
G01X10500Y-123250D02*
X14502Y-109748D01*
G01X6498D02*
X10500Y-123250D01*
G01X195745Y42500D02*
X197745Y44500D01*
X211000D01*
X215500Y40000D01*
X216250D01*
X220250Y36000D01*
Y34500D01*
X222750Y32000D01*
X223500D01*
X227250Y28250D01*
Y26500D01*
X228750Y25000D01*
X230000D01*
X234000Y21000D01*
Y-70941D01*
X224000Y-80941D01*
Y-81713D01*
X216463Y-89250D01*
X46500D01*
X19500Y-62250D01*
Y-30169D01*
X18331Y-29000D01*
X13252D01*
X11850Y-27598D01*
G01Y-8701D02*
X14451D01*
X16804Y-11054D01*
Y-18708D01*
X17591Y-19495D01*
X18495D01*
X19954Y-20954D01*
Y-21857D01*
X20741Y-22644D01*
X21644D01*
X23104Y-24104D01*
Y-25007D01*
X23891Y-25794D01*
X24794D01*
X26000Y-27000D01*
Y-29722D01*
X25906Y-29816D01*
Y-30932D01*
X26000Y-31026D01*
Y-35500D01*
X27000Y-36500D01*
Y-65750D01*
X45750Y-84500D01*
X162250D01*
G01X11850Y-15000D02*
X13250Y-13600D01*
Y-11250D01*
X12154Y-10154D01*
X11404D01*
X11296Y-10046D01*
X11292D01*
X10250Y-9004D01*
Y2250D01*
X8500Y4000D01*
Y21500D01*
X15000Y28000D01*
X16500D01*
X19500Y31000D01*
X63250D01*
X75250Y43000D01*
X80000D01*
G01X5551Y-8701D02*
Y-7551D01*
X4000Y-6000D01*
Y21250D01*
X19250Y36500D01*
X60750D01*
X77250Y53000D01*
X80000D01*
G01X26202Y121202D02*
X31000Y126000D01*
G01X26202Y110798D02*
X31000Y106000D01*
G01D02*
Y112502D01*
G01Y126000D02*
X35798Y130798D01*
G01X26202D02*
X31000Y126000D01*
G01X51000D02*
X55798Y121202D01*
G01X51000Y106000D02*
X55798Y110798D01*
G01X51000Y106000D02*
Y112502D01*
G01Y126000D02*
X55798Y130798D01*
G01X46202D02*
X51000Y126000D01*
G01X80000Y43000D02*
X122500Y500D01*
X195250D01*
X200250Y-4500D01*
Y-5250D01*
X202500Y-7500D01*
X204909D01*
X209909Y-12500D01*
G01Y-7500D02*
X197409Y5000D01*
X122250D01*
X85000Y42250D01*
Y44500D01*
X80000Y49500D01*
Y53000D01*
G01X195745Y7500D02*
X124500D01*
X90000Y42000D01*
Y43000D01*
G01X100000D02*
X128000Y15000D01*
X211500D01*
X213250Y16750D01*
X216077D01*
X217827Y15000D01*
G01X222827D02*
X217827Y10000D01*
X126250D01*
X95000Y41250D01*
Y44000D01*
X90000Y49000D01*
Y53000D01*
G01X202827Y25000D02*
X204000D01*
X205250Y23750D01*
Y18750D01*
X204000Y17500D01*
X200000D01*
X197500Y20000D01*
X192245D01*
X191250Y19005D01*
X127527D01*
X124250Y22282D01*
Y23250D01*
X125250Y24250D01*
X131000D01*
X132250Y25500D01*
Y27500D01*
X131234Y28516D01*
X118016D01*
X116250Y30282D01*
Y32250D01*
X117250Y33250D01*
X120750D01*
X122500Y35000D01*
Y37000D01*
X121109Y38391D01*
X108141D01*
X105000Y41532D01*
Y44750D01*
X100000Y49750D01*
Y53000D01*
G01X120000Y43000D02*
X140500Y22500D01*
X195745D01*
G01Y27500D02*
X141250D01*
X139750Y29000D01*
Y30250D01*
X141000Y31500D01*
X146000D01*
X147500Y33000D01*
Y34250D01*
X146000Y35750D01*
X129500D01*
X124000Y41250D01*
Y45250D01*
X122250Y47000D01*
X116000D01*
X110000Y53000D01*
G01X160793Y-105207D02*
X164000Y-102000D01*
G01D02*
X167207Y-98793D01*
G01X160793D02*
X164000Y-102000D01*
G01D02*
X167207Y-105207D01*
G01X160000Y53000D02*
X164750Y48250D01*
Y38250D01*
X166500Y36500D01*
X173250D01*
X176750Y40000D01*
X210000D01*
X211750Y38250D01*
Y34341D01*
X209909Y32500D01*
G01X160000Y43000D02*
Y31750D01*
X161750Y30000D01*
X202409D01*
X209909Y37500D01*
G01X152750Y101530D02*
X170720D01*
X192000Y80250D01*
X198250D01*
X208500Y70000D01*
X217000D01*
X219000Y68000D01*
Y50750D01*
X222250Y47500D01*
X232250D01*
X236500Y43250D01*
Y-79250D01*
X230750Y-85000D01*
X228250D01*
X215750Y-97500D01*
X215745D01*
G01X173220Y103970D02*
X186940Y90250D01*
X199000D01*
X209250Y80000D01*
X217409D01*
X229909Y67500D01*
G01X169250Y104000D02*
X170500D01*
X189250Y85250D01*
X198000D01*
X208500Y74750D01*
X213495D01*
X215745Y72500D01*
G01X175780Y116280D02*
X181060Y111000D01*
X181750D01*
X198000Y94750D01*
X205250D01*
X215250Y84750D01*
X220750D01*
X225500Y80000D01*
X230500D01*
X233750Y76750D01*
Y58500D01*
X228423Y53173D01*
X226000D01*
X222827Y50000D01*
G01X179250Y116250D02*
X198750Y96750D01*
X209000D01*
X215750Y90000D01*
X220500D01*
X225500Y85000D01*
X230750D01*
X236250Y79500D01*
Y55750D01*
X230500Y50000D01*
X227827D01*
G54D12*
X-22500Y-123250D03*
Y123250D03*
X10500Y-123250D03*
Y123250D03*
G54D13*
X-17960Y-27346D03*
X3750Y43677D03*
X39500Y28250D03*
X40250Y79750D03*
X41750Y74000D03*
X38750Y86750D03*
X55250Y-65750D03*
X51000Y-67500D03*
X46500Y-66000D03*
X44000Y-60750D03*
X57500D03*
X54500Y-55251D03*
X45500Y-500D03*
X51000Y4750D03*
X57000Y28250D03*
X63000Y34750D03*
X50250Y34250D03*
X44250Y67500D03*
X49500Y74000D03*
X52250Y67500D03*
X76000Y-23500D03*
X66750Y-21000D03*
X74750Y2000D03*
X65000Y1500D03*
X65750Y30000D03*
X72500Y32750D03*
X76250Y102250D03*
X71000D03*
X81750Y86250D03*
X78500Y100275D03*
X81750Y122000D03*
X76250Y116750D03*
X71000D03*
X97250Y-24750D03*
X105250Y-4750D03*
X104500Y-12250D03*
X92500Y-17000D03*
X104000Y13250D03*
X85250Y98500D03*
X85225Y118725D03*
X98250Y125000D03*
X89500Y129500D03*
X117000Y-7000D03*
X113750Y3750D03*
X120000Y69000D03*
X123500Y69250D03*
X110250Y66750D03*
X125750Y102750D03*
X121250Y98000D03*
X126500Y95750D03*
X121250Y116750D03*
X125750Y112000D03*
X121250Y107500D03*
X109250Y123000D03*
X116000Y132500D03*
X112500Y129250D03*
X128750Y-7000D03*
X127250Y62750D03*
X146750Y121000D03*
X144000Y123000D03*
X132750Y113500D03*
X128250D03*
X142780Y111500D03*
X141750Y120000D03*
X162250Y-84500D03*
X148000Y-61250D03*
X162450Y61550D03*
X167550D03*
X152250Y72750D03*
X152000Y76500D03*
X156750Y77750D03*
X148500Y80250D03*
X154250Y68000D03*
X164250Y95625D03*
X158750D03*
X152750Y101530D03*
X153250Y121050D03*
X150025Y117775D03*
X185250Y-33772D03*
Y-36892D03*
X180000Y75000D03*
X183000Y106000D03*
X175000Y107000D03*
X180000Y104000D03*
X176500D03*
X173220Y103970D03*
X169250Y104000D03*
X175780Y116280D03*
X179250Y116250D03*
G54D14*
X22250Y-36500D03*
X8701Y-27598D03*
X11850D03*
Y-24449D03*
X8701D03*
X17802Y-30374D03*
X14652D03*
X8701Y-30748D03*
X5551D03*
X11850Y-15000D03*
X8701D03*
X5551Y-8701D03*
X11850D03*
X8701Y-21299D03*
X11850D03*
X8701Y-18150D03*
X5551Y-15000D03*
Y-11850D03*
X21298Y-14999D03*
X18150Y-2401D03*
X21300Y-5551D03*
X18149Y-5550D03*
X21298Y-8700D03*
X18149D03*
X18150Y-11850D03*
X18149Y-14999D03*
X8701Y748D03*
X27599Y-11851D03*
X24449Y-15000D03*
X30747Y-11850D03*
X24449D03*
X30747Y-2402D03*
X30748Y-5551D03*
X27598Y-2402D03*
X27599Y-5552D03*
X24449Y-2402D03*
X24450Y-5552D03*
G54D15*
X31000Y106000D03*
Y126000D03*
X51000Y106000D03*
Y126000D03*
G54D16*
X80000Y43000D03*
Y53000D03*
X100000Y43000D03*
X90000D03*
X100000Y53000D03*
X90000D03*
X120000Y43000D03*
X110000Y53000D03*
X130000D03*
X164000Y-102000D03*
X160000Y43000D03*
X170000Y53000D03*
X160000D03*
G54D17*
X91250Y81250D03*
X94000Y84000D03*
X96500Y81250D03*
X91250Y86750D03*
X96500D03*
X98750Y110250D03*
X93250D03*
X98750Y115500D03*
X96000Y112750D03*
X93250Y115500D03*
X122750Y-70000D03*
Y-77000D03*
X129750Y-70000D03*
Y-77000D03*
X138750Y103000D03*
X141500Y100250D03*
X144250Y103000D03*
X138750Y97750D03*
X144250D03*
G54D18*
G01X243908Y114291D02*
X243650Y114061D01*
X243495Y113793D01*
X243443Y113448D01*
X243546Y113103D01*
X243753Y112835D01*
X244115Y112643D01*
X244528Y112605D01*
X244941Y112681D01*
X245200Y112873D01*
X245406Y113141D01*
X245458Y113410D01*
X245406Y113678D01*
X245200Y114023D01*
X246543Y113908D01*
Y112873D01*
G54D19*
G01X27750Y170750D02*
X26750Y170417D01*
X26000Y169583D01*
X25500Y168583D01*
X25125Y167250D01*
X25000Y165750D01*
X25125Y164250D01*
X25500Y162917D01*
X26000Y161916D01*
X26750Y161083D01*
X27750Y160750D01*
X28750Y161083D01*
X29500Y161916D01*
X30000Y162917D01*
X30375Y164250D01*
X30500Y165750D01*
X30375Y167250D01*
X30000Y168583D01*
X29500Y169583D01*
X28750Y170417D01*
X27750Y170750D01*
G01X37750Y160750D02*
X38625Y160917D01*
X39625Y161417D01*
X40250Y162250D01*
X40500Y163417D01*
X40250Y164583D01*
X39500Y165583D01*
X38375Y166083D01*
X37125D01*
X36375Y166417D01*
X35750Y167250D01*
X35500Y168417D01*
X35875Y169583D01*
X36750Y170417D01*
X37750Y170750D01*
X38750Y170417D01*
X39625Y169583D01*
X40000Y168417D01*
X39750Y167250D01*
X39125Y166417D01*
X38375Y166083D01*
X37125D01*
X36000Y165583D01*
X35250Y164583D01*
X35000Y163417D01*
X35250Y162250D01*
X35875Y161417D01*
X36875Y160917D01*
X37750Y160750D01*
G01X46125Y164083D02*
X49375D01*
G01X116125D02*
X119375D01*
G01X127750Y160750D02*
Y170750D01*
X126250Y168750D01*
G01Y160750D02*
X129250D01*
G01X137750Y170750D02*
X136750Y170417D01*
X136000Y169583D01*
X135500Y168583D01*
X135125Y167250D01*
X135000Y165750D01*
X135125Y164250D01*
X135500Y162917D01*
X136000Y161916D01*
X136750Y161083D01*
X137750Y160750D01*
X138750Y161083D01*
X139500Y161916D01*
X140000Y162917D01*
X140375Y164250D01*
X140500Y165750D01*
X140375Y167250D01*
X140000Y168583D01*
X139500Y169583D01*
X138750Y170417D01*
X137750Y170750D01*
G01X60250Y140750D02*
Y150750D01*
X63375D01*
X64375Y150250D01*
X65000Y149583D01*
X65250Y148250D01*
X65000Y146917D01*
X64250Y146083D01*
X63375Y145583D01*
X60250D01*
G01X63375D02*
X65250Y140750D01*
G01X75250D02*
X70250D01*
Y150750D01*
X75250D01*
G01X73250Y145917D02*
X70250D01*
G01X79625Y150750D02*
X82750Y140750D01*
X85875Y150750D01*
G01X103750Y146083D02*
X104250Y146583D01*
X104625Y147416D01*
X104875Y148583D01*
X104625Y149583D01*
X104125Y150250D01*
X103250Y150750D01*
X99875D01*
Y140750D01*
X104000D01*
X104875Y141417D01*
X105375Y142417D01*
X105625Y143583D01*
X105375Y144750D01*
X104625Y145750D01*
X103750Y146083D01*
X99875D01*
G01X57750Y170750D02*
X56750Y170417D01*
X56000Y169583D01*
X55500Y168583D01*
X55125Y167250D01*
X55000Y165750D01*
X55125Y164250D01*
X55500Y162917D01*
X56000Y161916D01*
X56750Y161083D01*
X57750Y160750D01*
X58750Y161083D01*
X59500Y161916D01*
X60000Y162917D01*
X60375Y164250D01*
X60500Y165750D01*
X60375Y167250D01*
X60000Y168583D01*
X59500Y169583D01*
X58750Y170417D01*
X57750Y170750D01*
G01X65000Y162750D02*
X65750Y161583D01*
X66750Y160917D01*
X67875Y160750D01*
X68875Y160917D01*
X69875Y161750D01*
X70500Y162750D01*
X70625Y163750D01*
X70375Y164916D01*
X69500Y165750D01*
X68625Y166083D01*
X67500D01*
G01X68625D02*
X69375Y166583D01*
X70000Y167416D01*
X70250Y168417D01*
X70000Y169417D01*
X69375Y170250D01*
X68250Y170750D01*
X67125Y170583D01*
X66000Y169917D01*
G01X77500Y160750D02*
X77750Y162917D01*
X78125Y164750D01*
X78625Y166417D01*
X79250Y168250D01*
X80250Y170750D01*
X75250D01*
G01X85000Y162250D02*
X85750Y161417D01*
X86625Y160917D01*
X87750Y160750D01*
X88875Y161083D01*
X89750Y161750D01*
X90375Y162917D01*
X90500Y164250D01*
X90250Y165583D01*
X89625Y166417D01*
X88750Y167083D01*
X87875Y167250D01*
X87000Y167083D01*
X85875Y166417D01*
X86250Y170750D01*
X89625D01*
G01X97750Y160750D02*
Y170750D01*
X96250Y168750D01*
G01Y160750D02*
X99250D01*
G01X105375Y164916D02*
X106250Y166083D01*
X107000Y166750D01*
X108000Y167083D01*
X108875Y166750D01*
X109500Y166083D01*
X110000Y165083D01*
X110125Y163917D01*
X110000Y162917D01*
X109500Y161916D01*
X108750Y161083D01*
X107875Y160750D01*
X106875Y161083D01*
X106000Y162083D01*
X105500Y163583D01*
X105375Y165250D01*
X105625Y167416D01*
X106000Y168583D01*
X106625Y169750D01*
X107500Y170583D01*
X108375Y170750D01*
X109250Y170417D01*
X109875Y169583D01*
G01X55250Y190750D02*
Y180750D01*
X60250D01*
G01X65000Y182250D02*
X65750Y181417D01*
X66625Y180917D01*
X67750Y180750D01*
X68875Y181083D01*
X69750Y181750D01*
X70375Y182917D01*
X70500Y184250D01*
X70250Y185583D01*
X69625Y186417D01*
X68750Y187083D01*
X67875Y187250D01*
X67000Y187083D01*
X65875Y186417D01*
X66250Y190750D01*
X69625D01*
G01X85125Y182083D02*
X86125Y181250D01*
X87250Y180750D01*
X88250D01*
X89250Y181250D01*
X90000Y182083D01*
X90375Y183250D01*
X90125Y184416D01*
X89500Y185417D01*
X88375Y186083D01*
X86875Y186417D01*
X86000Y187083D01*
X85625Y188250D01*
X85875Y189417D01*
X86500Y190250D01*
X87375Y190750D01*
X88250D01*
X89125Y190417D01*
X89875Y189583D01*
G01X96250Y190750D02*
X99250D01*
G01X97750D02*
Y180750D01*
G01X96250D02*
X99250D01*
G01X108500Y185750D02*
X111000D01*
Y182750D01*
X110250Y181750D01*
X109375Y181083D01*
X108125Y180750D01*
X106875Y181083D01*
X106000Y181750D01*
X105250Y182750D01*
X104750Y183917D01*
X104500Y185250D01*
Y186417D01*
X104750Y187416D01*
X105250Y188583D01*
X106000Y189583D01*
X106750Y190250D01*
X107750Y190750D01*
X108625D01*
X109625Y190417D01*
X110375Y189750D01*
M02*
