G04 ================== begin FILE IDENTIFICATION RECORD ==================*
G04 Layout Name:  08_037516b-1-14.brd*
G04 Film Name:    mask_prm*
G04 File Format:  Gerber RS274X*
G04 File Origin:  Cadence Allegro 16.5-S031*
G04 Origin Date:  Tue Jan 14 09:43:35 2014*
G04 *
G04 Layer:  VIA CLASS/SOLDERMASK_TOP*
G04 Layer:  PIN/SOLDERMASK_TOP*
G04 Layer:  PACKAGE GEOMETRY/SOLDERMASK_TOP*
G04 Layer:  BOARD GEOMETRY/TOOLING_CORNERS*
G04 Layer:  BOARD GEOMETRY/SOLDERMASK_TOP*
G04 Layer:  BOARD GEOMETRY/ROOT_NUMBER*
G04 *
G04 Offset:    (0.00 0.00)*
G04 Mirror:    No*
G04 Mode:      Positive*
G04 Rotation:  0*
G04 FullContactRelief:  No*
G04 UndefLineWidth:     8.00*
G04 ================== end FILE IDENTIFICATION RECORD ====================*
%FSLAX55Y55*MOIN*%
%IR0*IPPOS*OFA0.00000B0.00000*MIA0B0*SFA1.00000B1.00000*%
%ADD15R,.023X.105*%
%ADD41R,.063X.15*%
%ADD47C,.03*%
%ADD34C,.033*%
%ADD29C,.07*%
%ADD14C,.08*%
%ADD13C,.017*%
%AMMACRO25*
21,1,.019,.019,0.0,0.0,165.*%
%ADD25MACRO25*%
%ADD12R,.065X.255*%
%ADD10R,.255X.065*%
%ADD28R,.07X.07*%
%ADD31R,.087X.087*%
%ADD37O,.045X.014*%
%ADD36O,.014X.045*%
%ADD30R,.04X.044*%
%ADD43O,.043X.018*%
%ADD22R,.044X.04*%
%ADD44O,.018X.043*%
%ADD16R,.028X.031*%
%ADD32O,.045X.018*%
%ADD19R,.031X.028*%
%ADD46R,.018X.07*%
%ADD33O,.018X.045*%
%ADD23R,.035X.07*%
%AMMACRO26*
21,1,.06,.053,0.0,0.0,75.*%
%ADD26MACRO26*%
%ADD24C,.125*%
%ADD11C,.18*%
%ADD42R,.102X.102*%
%ADD27R,.072X.055*%
%ADD40R,.063X.056*%
%ADD17R,.019X.019*%
%ADD18R,.019X.019*%
%ADD45R,.084X.054*%
%AMMACRO21*
21,1,.019,.019,0.0,0.0,65.*%
%ADD21MACRO21*%
%ADD35R,.106X.106*%
%ADD20R,.048X.064*%
%ADD39R,.068X.056*%
%ADD38R,.056X.068*%
%ADD48C,.008*%
G75*
%LPD*%
G75*
G36*
G01X-83194Y-50600D02*
Y-56100D01*
X-60194D01*
Y-50600D01*
X-83194D01*
G37*
G36*
G01Y-33100D02*
Y-28100D01*
X-60194D01*
Y-33100D01*
X-83194D01*
G37*
G36*
G01Y36256D02*
Y30756D01*
X-60194D01*
Y36256D01*
X-83194D01*
G37*
G36*
G01Y53756D02*
Y58756D01*
X-60194D01*
Y53756D01*
X-83194D01*
G37*
G36*
G01Y105006D02*
Y99506D01*
X-60194D01*
Y105006D01*
X-83194D01*
G37*
G36*
G01Y122506D02*
Y127506D01*
X-60194D01*
Y122506D01*
X-83194D01*
G37*
G36*
G01X9788Y54436D02*
X10657Y58117D01*
X10959Y58112D01*
G03X10953Y72386I-3188189J5797D01*
G03X-911Y101499I-41559J38D01*
G02X-8779Y120126I17880J18528D01*
G01X-8852Y132663D01*
X-10330Y132660D01*
X-11830Y133460D01*
X-11819Y135751D01*
X-62D01*
X-79Y133467D01*
X-1590Y132683D01*
X-3150Y132681D01*
X-3239Y120224D01*
G03X2330Y106109I20297J-148D01*
G01X4135Y104229D01*
X5835Y102276D01*
X7480Y100159D01*
X9368Y97361D01*
X11024Y94465D01*
X11963Y92605D01*
X12472Y91530D01*
X13065Y90087D01*
X14063Y87427D01*
X15243Y83257D01*
X15939Y79719D01*
X16285Y77103D01*
X16433Y75051D01*
X16518Y72542D01*
Y58161D01*
X17098D01*
X17396Y54446D01*
X9788Y54436D01*
G37*
G36*
G01X-14744Y135694D02*
X-20244D01*
Y112694D01*
X-14744D01*
Y135694D01*
G37*
G36*
G01X2756D02*
X7756D01*
Y112694D01*
X2756D01*
Y135694D01*
G37*
G54D10*
X-70750Y-58303D03*
Y-25303D03*
Y28553D03*
Y61553D03*
Y97250D03*
Y130250D03*
G54D20*
X-2948Y20527D03*
X5290D03*
X12852Y20577D03*
X21090D03*
G54D11*
X-40000Y-87000D03*
Y87000D03*
G54D21*
X8632Y-36662D03*
X7618Y-38838D03*
G54D30*
X81750Y100275D03*
Y106725D03*
Y112275D03*
Y118725D03*
X152000Y80025D03*
Y86475D03*
X150000Y121025D03*
Y127475D03*
G54D12*
X-22500Y-123250D03*
Y123250D03*
X10500Y-123250D03*
Y123250D03*
G54D40*
X109750Y86450D03*
Y94050D03*
G54D22*
X21275Y13250D03*
X27725D03*
X109025Y73000D03*
X115475D03*
X109025Y78750D03*
X115475D03*
X122475Y129250D03*
X116025D03*
X143025Y-66750D03*
X141525Y-81000D03*
X147975D03*
X149475Y-66750D03*
X162475Y72750D03*
X156025D03*
G54D31*
X94000Y84000D03*
X96000Y112750D03*
G54D13*
X-22500Y-123250D03*
Y123250D03*
X10500Y-123250D03*
Y123250D03*
G54D23*
X13728Y36925D03*
X8728D03*
X3728D03*
X13728Y49425D03*
X8728D03*
X3728D03*
G54D32*
X86520Y80161D03*
X101480D03*
X86520Y82720D03*
Y85280D03*
Y87839D03*
X101480D03*
Y85280D03*
Y82720D03*
X88520Y108911D03*
Y111470D03*
Y114030D03*
Y116589D03*
X103480D03*
Y114030D03*
Y111470D03*
Y108911D03*
G54D14*
X-22250Y-22500D03*
X50750Y-60750D03*
G54D41*
X129900Y78750D03*
X139600D03*
G54D42*
X141500Y100250D03*
G54D24*
X31000Y106000D03*
X41000Y116000D03*
X31000Y126000D03*
X51000Y106000D03*
Y126000D03*
X204961Y-124052D03*
Y123979D03*
G54D33*
X97839Y76520D03*
X95280D03*
X92720D03*
X90161D03*
Y91480D03*
X92720D03*
X95280D03*
X97839D03*
X92161Y120230D03*
X94720D03*
X97280D03*
X99839D03*
Y105270D03*
X97280D03*
X94720D03*
X92161D03*
G54D15*
X-6000Y-130750D03*
Y130750D03*
G54D16*
X-6500Y-25875D03*
Y-30125D03*
X-5750Y-4375D03*
Y-8625D03*
X-6000Y-20625D03*
Y-16375D03*
X-4750Y625D03*
Y4875D03*
X16250Y-36875D03*
Y-41125D03*
X19750Y-36875D03*
Y-41125D03*
X37750Y-21125D03*
Y-16875D03*
X37000Y-8375D03*
Y-12625D03*
X161500Y99875D03*
Y95625D03*
X174000Y88125D03*
Y83875D03*
G54D43*
X133728Y96411D03*
Y98970D03*
Y101530D03*
Y104089D03*
X149272Y101530D03*
Y98970D03*
Y96411D03*
Y104089D03*
G54D25*
X57062Y12450D03*
X59380Y11828D03*
G54D34*
X91250Y81250D03*
X94000Y84000D03*
X96500Y81250D03*
X91250Y86750D03*
X96500D03*
X98750Y110250D03*
X93250D03*
X98750Y115500D03*
X96000Y112750D03*
X93250Y115500D03*
X122750Y-70000D03*
Y-77000D03*
X129750Y-70000D03*
Y-77000D03*
X138750Y103000D03*
X141500Y100250D03*
X144250Y103000D03*
X138750Y97750D03*
X144250D03*
G54D35*
X126250Y-73500D03*
G54D17*
X-1925Y-27425D03*
Y-25025D03*
X-5000Y-35050D03*
Y-37450D03*
X-1500Y-950D03*
X750Y-8450D03*
Y-6050D03*
Y-11872D03*
Y-14272D03*
X-3175Y-11775D03*
Y-14175D03*
X-1500Y1450D03*
X5500Y-43175D03*
Y-45575D03*
X20000Y-27800D03*
Y-30200D03*
X8250Y2300D03*
Y4700D03*
X6768Y29653D03*
Y27253D03*
X10768Y29653D03*
Y27253D03*
X25750Y-27550D03*
Y-29950D03*
X33000Y-13200D03*
Y-10800D03*
X26000Y800D03*
Y3200D03*
X80000Y82800D03*
Y85200D03*
Y92700D03*
Y90300D03*
X71000Y114700D03*
Y112300D03*
X76250Y114700D03*
Y112300D03*
X71000Y104300D03*
Y106700D03*
X76250Y104300D03*
Y106700D03*
X81750Y124550D03*
Y126950D03*
X91500Y67300D03*
Y69700D03*
X100000Y67300D03*
Y69700D03*
X104250Y67300D03*
Y69700D03*
X95750Y67300D03*
Y69700D03*
X122500Y76550D03*
Y78950D03*
X126500Y93700D03*
Y91300D03*
X109250Y120950D03*
Y118550D03*
X147000Y84300D03*
Y86700D03*
X128250Y115550D03*
Y117950D03*
X132750Y115550D03*
Y117950D03*
X141750Y115550D03*
Y117950D03*
X137250D03*
Y115550D03*
X144000Y125050D03*
Y127450D03*
X162250Y-84450D03*
Y-82050D03*
X156750Y80550D03*
Y82950D03*
X154750Y104050D03*
X155750Y96550D03*
Y98950D03*
X154750Y106450D03*
X178500Y87200D03*
Y84800D03*
X182500Y131700D03*
Y129300D03*
X177750Y131700D03*
Y129300D03*
G54D26*
X48905Y14559D03*
X51147Y22926D03*
X54991Y12928D03*
X57233Y21295D03*
G54D44*
X145339Y92478D03*
X142780D03*
X140220D03*
X137661D03*
Y108022D03*
X140220D03*
X142780D03*
X145339D03*
G54D45*
X165500Y79241D03*
Y89259D03*
G54D18*
X1775Y-32225D03*
X-625D03*
X1950Y-19250D03*
X-450D03*
X5425Y-49250D03*
X7825D03*
X17050Y-32875D03*
X19450D03*
X9050Y-10750D03*
X11450D03*
X14050Y-7250D03*
X16450D03*
X3550Y750D03*
X5950D03*
X31300Y-29250D03*
X33700D03*
X24800Y-36250D03*
X27200D03*
X39775Y-30475D03*
X37375D03*
X27900Y-16750D03*
X30300D03*
X25825Y8125D03*
X23425D03*
X41200Y98000D03*
X38800D03*
X77550Y74000D03*
X79950D03*
Y78250D03*
X77550D03*
X102450Y-90500D03*
X100050D03*
X92450D03*
X90050D03*
X102450Y-95750D03*
X100050D03*
X92450D03*
X90050D03*
X87300Y98500D03*
X89700D03*
X97200Y127000D03*
X94800D03*
X104450D03*
X102050D03*
X87050D03*
X89450D03*
X122450Y-90500D03*
X120050D03*
X112450D03*
X110050D03*
X122450Y-96000D03*
X120050D03*
X112450D03*
X110050D03*
X137550Y-90500D03*
X139950D03*
X132450Y-96250D03*
X130050D03*
X137550Y-96000D03*
X139950D03*
X132450Y-90500D03*
X130050D03*
X143050Y-61250D03*
X145450D03*
X136700Y129250D03*
X134300D03*
X167550Y36000D03*
X162450D03*
X160050D03*
X167550Y59500D03*
X162450D03*
X160050D03*
X157300Y68000D03*
X159700D03*
X169950Y36000D03*
Y59500D03*
X173200Y128250D03*
X170800D03*
G54D27*
X64500Y96850D03*
Y109150D03*
X70500Y68600D03*
Y80900D03*
G54D36*
X122313Y-65550D03*
X124281D03*
Y-81450D03*
X122313D03*
X126250Y-65550D03*
X128219D03*
X130187D03*
Y-81450D03*
X128219D03*
X126250D03*
G54D46*
X178339Y98754D03*
X175780D03*
X173220D03*
X170661D03*
Y121746D03*
X173220D03*
X175780D03*
X178339D03*
G54D19*
X-7375Y-12500D03*
X-11625D03*
X2375Y7500D03*
X6625D03*
X28875Y-45750D03*
X24625D03*
X31875Y-35500D03*
X36125D03*
X42125Y-26000D03*
X37875D03*
X141625Y-73500D03*
X145875D03*
X138625Y124500D03*
X134375D03*
D03*
X130125D03*
G54D37*
X118300Y-77437D03*
Y-75469D03*
Y-73500D03*
Y-71531D03*
Y-69563D03*
X134200D03*
Y-71531D03*
Y-73500D03*
Y-75469D03*
Y-77437D03*
G54D28*
X80000Y43000D03*
X154000Y-102000D03*
G54D38*
X114000Y102750D03*
X121500D03*
X114000Y112000D03*
X121500D03*
G54D29*
X80000Y53000D03*
X100000Y43000D03*
X90000D03*
X100000Y53000D03*
X90000D03*
X120000Y43000D03*
X110000D03*
X120000Y53000D03*
X110000D03*
X150000Y43000D03*
X140000D03*
X130000D03*
X150000Y53000D03*
X140000D03*
X130000D03*
X164000Y-102000D03*
X170000Y43000D03*
X160000D03*
X170000Y53000D03*
X160000D03*
X174000Y-102000D03*
X212827Y-107000D03*
X200827Y107000D03*
G54D47*
X205327Y-87500D03*
Y-92500D03*
Y-97500D03*
X200327Y-87500D03*
Y-92500D03*
Y-97500D03*
X205327Y-62500D03*
Y-67500D03*
Y-72500D03*
Y-77500D03*
Y-82500D03*
X200327Y-62500D03*
Y-67500D03*
Y-72500D03*
Y-77500D03*
Y-82500D03*
X205327Y-42500D03*
Y-47500D03*
Y-52500D03*
Y-57500D03*
X200327Y-42500D03*
Y-47500D03*
Y-52500D03*
Y-57500D03*
X205327Y-22500D03*
Y-27500D03*
Y-32500D03*
Y-37500D03*
X200327Y-22500D03*
Y-27500D03*
Y-32500D03*
Y-37500D03*
X205327Y-2500D03*
Y-7500D03*
Y-12500D03*
Y-17500D03*
X200327Y-2500D03*
Y-7500D03*
Y-12500D03*
Y-17500D03*
X205327Y17500D03*
Y12500D03*
Y7500D03*
Y2500D03*
X200327Y17500D03*
Y12500D03*
Y7500D03*
Y2500D03*
X205327Y37500D03*
Y32500D03*
Y27500D03*
Y22500D03*
X200327Y37500D03*
Y32500D03*
Y27500D03*
Y22500D03*
X205327Y62500D03*
Y57500D03*
Y52500D03*
Y47500D03*
Y42500D03*
X200327Y62500D03*
Y57500D03*
Y52500D03*
Y47500D03*
Y42500D03*
X205327Y82500D03*
Y77500D03*
Y72500D03*
Y67500D03*
X200327Y82500D03*
Y77500D03*
Y72500D03*
Y67500D03*
X205327Y97500D03*
Y92500D03*
Y87500D03*
X200327Y97500D03*
Y92500D03*
Y87500D03*
X220327Y-87500D03*
Y-92500D03*
Y-97500D03*
X225327Y-87500D03*
Y-92500D03*
Y-97500D03*
X220327Y-62500D03*
Y-67500D03*
Y-72500D03*
Y-77500D03*
Y-82500D03*
X225327Y-62500D03*
Y-67500D03*
Y-72500D03*
Y-77500D03*
Y-82500D03*
X220327Y-42500D03*
Y-47500D03*
Y-52500D03*
Y-57500D03*
X225327Y-42500D03*
Y-47500D03*
Y-52500D03*
Y-57500D03*
X220327Y-22500D03*
Y-27500D03*
Y-32500D03*
Y-37500D03*
X225327Y-22500D03*
Y-27500D03*
Y-32500D03*
Y-37500D03*
X220327Y-2500D03*
Y-7500D03*
Y-12500D03*
Y-17500D03*
X225327Y-2500D03*
Y-7500D03*
Y-12500D03*
Y-17500D03*
X220327Y17500D03*
Y12500D03*
Y7500D03*
Y2500D03*
X225327Y17500D03*
Y12500D03*
Y7500D03*
Y2500D03*
X220327Y37500D03*
Y32500D03*
Y27500D03*
Y22500D03*
X225327Y37500D03*
Y32500D03*
Y27500D03*
Y22500D03*
X220327Y62500D03*
Y57500D03*
Y52500D03*
Y47500D03*
Y42500D03*
X225327Y62500D03*
Y57500D03*
Y52500D03*
Y47500D03*
Y42500D03*
X220327Y82500D03*
Y77500D03*
Y72500D03*
Y67500D03*
X225327Y82500D03*
Y77500D03*
Y72500D03*
Y67500D03*
X220327Y97500D03*
Y92500D03*
Y87500D03*
X225327Y97500D03*
Y92500D03*
Y87500D03*
G54D48*
G01X-4875Y182083D02*
X-3875Y181250D01*
X-2750Y180750D01*
X-1750D01*
X-750Y181250D01*
X0Y182083D01*
X375Y183250D01*
X125Y184416D01*
X-500Y185417D01*
X-1625Y186083D01*
X-3125Y186417D01*
X-4000Y187083D01*
X-4375Y188250D01*
X-4125Y189417D01*
X-3500Y190250D01*
X-2625Y190750D01*
X-1750D01*
X-875Y190417D01*
X-125Y189583D01*
G01X7750Y180750D02*
X6750Y180917D01*
X5875Y181583D01*
X5125Y182583D01*
X4625Y183750D01*
X4375Y185083D01*
Y186417D01*
X4625Y187750D01*
X5125Y188917D01*
X5875Y189917D01*
X6750Y190583D01*
X7750Y190750D01*
X8750Y190583D01*
X9625Y189917D01*
X10375Y188917D01*
X10875Y187750D01*
X11125Y186417D01*
Y185083D01*
X10875Y183750D01*
X10375Y182583D01*
X9625Y181583D01*
X8750Y180917D01*
X7750Y180750D01*
G01X15250Y190750D02*
Y180750D01*
X20250D01*
G01X25000D02*
Y190750D01*
X27500D01*
X28500Y190250D01*
X29250Y189583D01*
X29875Y188583D01*
X30375Y187416D01*
X30500Y185750D01*
X30375Y184083D01*
X29875Y182917D01*
X29250Y181916D01*
X28500Y181250D01*
X27500Y180750D01*
X25000D01*
G01X40250D02*
X35250D01*
Y190750D01*
X40250D01*
G01X38250Y185917D02*
X35250D01*
G01X45250Y180750D02*
Y190750D01*
X48375D01*
X49375Y190250D01*
X50000Y189583D01*
X50250Y188250D01*
X50000Y186917D01*
X49250Y186083D01*
X48375Y185583D01*
X45250D01*
G01X48375D02*
X50250Y180750D01*
G01X54500D02*
Y190750D01*
X57750Y182417D01*
X61000Y190750D01*
Y180750D01*
G01X64625D02*
X67750Y190750D01*
X70875Y180750D01*
G01X69750Y184250D02*
X65750D01*
G01X75125Y182083D02*
X76125Y181250D01*
X77250Y180750D01*
X78250D01*
X79250Y181250D01*
X80000Y182083D01*
X80375Y183250D01*
X80125Y184416D01*
X79500Y185417D01*
X78375Y186083D01*
X76875Y186417D01*
X76000Y187083D01*
X75625Y188250D01*
X75875Y189417D01*
X76500Y190250D01*
X77375Y190750D01*
X78250D01*
X79125Y190417D01*
X79875Y189583D01*
G01X85000Y180750D02*
Y190750D01*
G01X89750D02*
X85000Y184583D01*
G01X90500Y180750D02*
X87125Y187416D01*
G01X105250Y180750D02*
Y190750D01*
X108250D01*
X109250Y190250D01*
X110000Y189083D01*
X110250Y187750D01*
X110000Y186417D01*
X109375Y185417D01*
X108250Y184916D01*
X105250D01*
G01X115250Y180750D02*
Y190750D01*
X118375D01*
X119375Y190250D01*
X120000Y189583D01*
X120250Y188250D01*
X120000Y186917D01*
X119250Y186083D01*
X118375Y185583D01*
X115250D01*
G01X118375D02*
X120250Y180750D01*
G01X126250Y190750D02*
X129250D01*
G01X127750D02*
Y180750D01*
G01X126250D02*
X129250D01*
G01X134500D02*
Y190750D01*
X137750Y182417D01*
X141000Y190750D01*
Y180750D01*
G01X144625D02*
X147750Y190750D01*
X150875Y180750D01*
G01X149750Y184250D02*
X145750D01*
G01X155250Y180750D02*
Y190750D01*
X158375D01*
X159375Y190250D01*
X160000Y189583D01*
X160250Y188250D01*
X160000Y186917D01*
X159250Y186083D01*
X158375Y185583D01*
X155250D01*
G01X158375D02*
X160250Y180750D01*
G01X167750D02*
Y185250D01*
X165250Y190750D01*
G01X170250D02*
X167750Y185250D01*
G01X27750Y170750D02*
X26750Y170417D01*
X26000Y169583D01*
X25500Y168583D01*
X25125Y167250D01*
X25000Y165750D01*
X25125Y164250D01*
X25500Y162917D01*
X26000Y161916D01*
X26750Y161083D01*
X27750Y160750D01*
X28750Y161083D01*
X29500Y161916D01*
X30000Y162917D01*
X30375Y164250D01*
X30500Y165750D01*
X30375Y167250D01*
X30000Y168583D01*
X29500Y169583D01*
X28750Y170417D01*
X27750Y170750D01*
G01X37750Y160750D02*
X38625Y160917D01*
X39625Y161417D01*
X40250Y162250D01*
X40500Y163417D01*
X40250Y164583D01*
X39500Y165583D01*
X38375Y166083D01*
X37125D01*
X36375Y166417D01*
X35750Y167250D01*
X35500Y168417D01*
X35875Y169583D01*
X36750Y170417D01*
X37750Y170750D01*
X38750Y170417D01*
X39625Y169583D01*
X40000Y168417D01*
X39750Y167250D01*
X39125Y166417D01*
X38375Y166083D01*
X37125D01*
X36000Y165583D01*
X35250Y164583D01*
X35000Y163417D01*
X35250Y162250D01*
X35875Y161417D01*
X36875Y160917D01*
X37750Y160750D01*
G01X46125Y164083D02*
X49375D01*
G01X116125D02*
X119375D01*
G01X127750Y170750D02*
X126750Y170417D01*
X126000Y169583D01*
X125500Y168583D01*
X125125Y167250D01*
X125000Y165750D01*
X125125Y164250D01*
X125500Y162917D01*
X126000Y161916D01*
X126750Y161083D01*
X127750Y160750D01*
X128750Y161083D01*
X129500Y161916D01*
X130000Y162917D01*
X130375Y164250D01*
X130500Y165750D01*
X130375Y167250D01*
X130000Y168583D01*
X129500Y169583D01*
X128750Y170417D01*
X127750Y170750D01*
G01X139250Y160750D02*
Y170750D01*
X134625Y163583D01*
X140875D01*
G01X60250Y140750D02*
Y150750D01*
X63375D01*
X64375Y150250D01*
X65000Y149583D01*
X65250Y148250D01*
X65000Y146917D01*
X64250Y146083D01*
X63375Y145583D01*
X60250D01*
G01X63375D02*
X65250Y140750D01*
G01X75250D02*
X70250D01*
Y150750D01*
X75250D01*
G01X73250Y145917D02*
X70250D01*
G01X79625Y150750D02*
X82750Y140750D01*
X85875Y150750D01*
G01X103750Y146083D02*
X104250Y146583D01*
X104625Y147416D01*
X104875Y148583D01*
X104625Y149583D01*
X104125Y150250D01*
X103250Y150750D01*
X99875D01*
Y140750D01*
X104000D01*
X104875Y141417D01*
X105375Y142417D01*
X105625Y143583D01*
X105375Y144750D01*
X104625Y145750D01*
X103750Y146083D01*
X99875D01*
G01X57750Y170750D02*
X56750Y170417D01*
X56000Y169583D01*
X55500Y168583D01*
X55125Y167250D01*
X55000Y165750D01*
X55125Y164250D01*
X55500Y162917D01*
X56000Y161916D01*
X56750Y161083D01*
X57750Y160750D01*
X58750Y161083D01*
X59500Y161916D01*
X60000Y162917D01*
X60375Y164250D01*
X60500Y165750D01*
X60375Y167250D01*
X60000Y168583D01*
X59500Y169583D01*
X58750Y170417D01*
X57750Y170750D01*
G01X65000Y162750D02*
X65750Y161583D01*
X66750Y160917D01*
X67875Y160750D01*
X68875Y160917D01*
X69875Y161750D01*
X70500Y162750D01*
X70625Y163750D01*
X70375Y164916D01*
X69500Y165750D01*
X68625Y166083D01*
X67500D01*
G01X68625D02*
X69375Y166583D01*
X70000Y167416D01*
X70250Y168417D01*
X70000Y169417D01*
X69375Y170250D01*
X68250Y170750D01*
X67125Y170583D01*
X66000Y169917D01*
G01X77500Y160750D02*
X77750Y162917D01*
X78125Y164750D01*
X78625Y166417D01*
X79250Y168250D01*
X80250Y170750D01*
X75250D01*
G01X85000Y162250D02*
X85750Y161417D01*
X86625Y160917D01*
X87750Y160750D01*
X88875Y161083D01*
X89750Y161750D01*
X90375Y162917D01*
X90500Y164250D01*
X90250Y165583D01*
X89625Y166417D01*
X88750Y167083D01*
X87875Y167250D01*
X87000Y167083D01*
X85875Y166417D01*
X86250Y170750D01*
X89625D01*
G01X97750Y160750D02*
Y170750D01*
X96250Y168750D01*
G01Y160750D02*
X99250D01*
G01X105375Y164916D02*
X106250Y166083D01*
X107000Y166750D01*
X108000Y167083D01*
X108875Y166750D01*
X109500Y166083D01*
X110000Y165083D01*
X110125Y163917D01*
X110000Y162917D01*
X109500Y161916D01*
X108750Y161083D01*
X107875Y160750D01*
X106875Y161083D01*
X106000Y162083D01*
X105500Y163583D01*
X105375Y165250D01*
X105625Y167416D01*
X106000Y168583D01*
X106625Y169750D01*
X107500Y170583D01*
X108375Y170750D01*
X109250Y170417D01*
X109875Y169583D01*
G54D39*
X119500Y86500D03*
Y94000D03*
M02*
