G04 ================== begin FILE IDENTIFICATION RECORD ==================*
G04 Layout Name:  08_037516b-1-14.brd*
G04 Film Name:    paste_sec*
G04 File Format:  Gerber RS274X*
G04 File Origin:  Cadence Allegro 16.5-S031*
G04 Origin Date:  Tue Jan 14 09:43:35 2014*
G04 *
G04 Layer:  VIA CLASS/PASTEMASK_BOTTOM*
G04 Layer:  PIN/PASTEMASK_BOTTOM*
G04 Layer:  PACKAGE GEOMETRY/PASTEMASK_BOTTOM*
G04 Layer:  BOARD GEOMETRY/TOOLING_CORNERS*
G04 Layer:  BOARD GEOMETRY/PASTEMASK_BOTTOM*
G04 Layer:  BOARD GEOMETRY/ROOT_NUMBER*
G04 *
G04 Offset:    (0.00 0.00)*
G04 Mirror:    No*
G04 Mode:      Positive*
G04 Rotation:  0*
G04 FullContactRelief:  No*
G04 UndefLineWidth:     8.00*
G04 ================== end FILE IDENTIFICATION RECORD ====================*
%FSLAX55Y55*MOIN*%
%IR0*IPPOS*OFA0.00000B0.00000*MIA0B0*SFA1.00000B1.00000*%
%ADD10R,.1X.017*%
%ADD11R,.25X.06*%
%ADD12C,.012*%
%ADD15C,.014*%
%ADD23R,.03X.014*%
%ADD20R,.014X.012*%
%AMMACRO14*
21,1,.03,.065,0.0,0.0,30.*%
%ADD14MACRO14*%
%ADD24R,.014X.03*%
%ADD18R,.025X.02*%
%ADD16R,.012X.014*%
%ADD22R,.038X.03*%
%ADD19R,.039X.014*%
%ADD13R,.014X.039*%
%ADD21R,.0385X.035*%
%AMMACRO17*
21,1,.012,.014,0.0,0.0,120.*%
%ADD17MACRO17*%
%ADD25C,.008*%
G75*
%LPD*%
G75*
G54D10*
X-78250Y-41803D03*
Y45053D03*
Y113750D03*
G54D20*
X4825Y13475D03*
Y11075D03*
X39500Y-13200D03*
Y-10800D03*
G54D11*
X-70750Y-58303D03*
Y-25303D03*
Y28553D03*
Y61553D03*
Y97250D03*
Y130250D03*
G54D21*
X5716Y33231D03*
X12166D03*
X125025Y117500D03*
X131475D03*
G54D12*
X-70750Y-58303D03*
Y-25303D03*
Y28553D03*
Y61553D03*
Y97250D03*
Y130250D03*
G54D13*
X-18940Y-5213D03*
X-21521D03*
X-24102D03*
X-18940Y-12263D03*
X-21521D03*
X-24102D03*
G54D22*
X118600Y124250D03*
X124900D03*
G54D14*
X-18705Y26913D03*
X-12455Y16087D03*
X-8125Y18587D03*
X-3795Y21087D03*
X-14375Y29413D03*
X-10045Y31913D03*
G54D23*
X185500Y-37000D03*
Y-33750D03*
X203000Y-75000D03*
Y-70000D03*
X198250Y-65000D03*
X203000D03*
X197750Y-50000D03*
X203000D03*
Y-60000D03*
Y-55000D03*
X209750Y-27500D03*
Y-22500D03*
X223000Y-50000D03*
X228000D03*
X222750Y-30000D03*
X218000D03*
X230250Y-32500D03*
X230000Y-27500D03*
Y-12500D03*
Y-7500D03*
G54D24*
X195750Y-22500D03*
X208000Y-40000D03*
X203000D03*
X195750Y-17500D03*
X203000Y-5000D03*
X197750D03*
X195745Y12500D03*
X217750Y-60000D03*
X222750D03*
X218000Y-45000D03*
X222750D03*
X216000Y-17500D03*
X216250Y-12500D03*
X229909Y32582D03*
Y27500D03*
X215745Y32500D03*
Y27500D03*
G54D15*
X827Y-22874D03*
X-2323D03*
X827Y-26024D03*
X-2323D03*
X827Y-29173D03*
X-2323D03*
X827Y-32323D03*
X-2323D03*
X827Y-827D03*
X-2323D03*
X827Y-3976D03*
X-2323D03*
X827Y-7126D03*
X-2323D03*
X827Y-10276D03*
X-2323D03*
X827Y-13425D03*
X-2323D03*
X827Y-16575D03*
X-2323D03*
X827Y-19724D03*
X-2323D03*
X827Y2323D03*
X-2323D03*
X22874Y-22874D03*
X19724D03*
X16575D03*
X13425D03*
X10276D03*
X7126D03*
X3976D03*
X22874Y-26024D03*
X19724D03*
X16575D03*
X13425D03*
X10276D03*
X7126D03*
X3976D03*
X22874Y-29173D03*
X19724D03*
X16575D03*
X13425D03*
X10276D03*
X7126D03*
X3976D03*
X22874Y-32323D03*
X19724D03*
X16575D03*
X13425D03*
X10276D03*
X7126D03*
X3976D03*
X22874Y-827D03*
X19724D03*
X16575D03*
X13425D03*
X10276D03*
X7126D03*
X3976D03*
X22874Y-3976D03*
X19724D03*
X16575D03*
X13425D03*
X10276D03*
X7126D03*
X3976D03*
X22874Y-7126D03*
X19724D03*
X16575D03*
X13425D03*
X10276D03*
X7126D03*
X3976D03*
X22874Y-10276D03*
X19724D03*
X16575D03*
X13425D03*
X10276D03*
X7126D03*
X3976D03*
X22874Y-13425D03*
X19724D03*
X16575D03*
X13425D03*
X10276D03*
X7126D03*
X3976D03*
X22874Y-16575D03*
X19724D03*
X16575D03*
X13425D03*
X10276D03*
X7126D03*
X3976D03*
X22874Y-19724D03*
X19724D03*
X16575D03*
X13425D03*
X10276D03*
X7126D03*
X3976D03*
X22874Y2323D03*
X19724D03*
X16575D03*
X13425D03*
X10276D03*
X7126D03*
X3976D03*
X32323Y-22874D03*
X29173D03*
X26024D03*
X32323Y-26024D03*
X29173D03*
X26024D03*
X32323Y-29173D03*
X29173D03*
X26024D03*
X32323Y-32323D03*
X29173D03*
X26024D03*
X32323Y-827D03*
X29173D03*
X26024D03*
X32323Y-3976D03*
X29173D03*
X26024D03*
X32323Y-7126D03*
X29173D03*
X26024D03*
X32323Y-10276D03*
X29173D03*
X26024D03*
X32323Y-13425D03*
X29173D03*
X26024D03*
X32323Y-16575D03*
X29173D03*
X26024D03*
X32323Y-19724D03*
X29173D03*
X26024D03*
X32323Y2323D03*
X29173D03*
X26024D03*
G54D25*
G01X-9750Y180750D02*
Y190750D01*
X-6750D01*
X-5750Y190250D01*
X-5000Y189083D01*
X-4750Y187750D01*
X-5000Y186417D01*
X-5625Y185417D01*
X-6750Y184916D01*
X-9750D01*
G01X-375Y180750D02*
X2750Y190750D01*
X5875Y180750D01*
G01X4750Y184250D02*
X750D01*
G01X10125Y182083D02*
X11125Y181250D01*
X12250Y180750D01*
X13250D01*
X14250Y181250D01*
X15000Y182083D01*
X15375Y183250D01*
X15125Y184416D01*
X14500Y185417D01*
X13375Y186083D01*
X11875Y186417D01*
X11000Y187083D01*
X10625Y188250D01*
X10875Y189417D01*
X11500Y190250D01*
X12375Y190750D01*
X13250D01*
X14125Y190417D01*
X14875Y189583D01*
G01X22750Y190750D02*
Y180750D01*
G01X19875Y190750D02*
X25625D01*
G01X35250Y180750D02*
X30250D01*
Y190750D01*
X35250D01*
G01X33250Y185917D02*
X30250D01*
G01X39500Y180750D02*
Y190750D01*
X42750Y182417D01*
X46000Y190750D01*
Y180750D01*
G01X49625D02*
X52750Y190750D01*
X55875Y180750D01*
G01X54750Y184250D02*
X50750D01*
G01X60125Y182083D02*
X61125Y181250D01*
X62250Y180750D01*
X63250D01*
X64250Y181250D01*
X65000Y182083D01*
X65375Y183250D01*
X65125Y184416D01*
X64500Y185417D01*
X63375Y186083D01*
X61875Y186417D01*
X61000Y187083D01*
X60625Y188250D01*
X60875Y189417D01*
X61500Y190250D01*
X62375Y190750D01*
X63250D01*
X64125Y190417D01*
X64875Y189583D01*
G01X70000Y180750D02*
Y190750D01*
G01X74750D02*
X70000Y184583D01*
G01X75500Y180750D02*
X72125Y187416D01*
G01X90125Y182083D02*
X91125Y181250D01*
X92250Y180750D01*
X93250D01*
X94250Y181250D01*
X95000Y182083D01*
X95375Y183250D01*
X95125Y184416D01*
X94500Y185417D01*
X93375Y186083D01*
X91875Y186417D01*
X91000Y187083D01*
X90625Y188250D01*
X90875Y189417D01*
X91500Y190250D01*
X92375Y190750D01*
X93250D01*
X94125Y190417D01*
X94875Y189583D01*
G01X105250Y180750D02*
X100250D01*
Y190750D01*
X105250D01*
G01X103250Y185917D02*
X100250D01*
G01X115500Y189917D02*
X114750Y190417D01*
X113875Y190750D01*
X112875D01*
X111750Y190250D01*
X110875Y189417D01*
X110250Y188417D01*
X109750Y186750D01*
X109625Y185250D01*
X109875Y183750D01*
X110250Y182750D01*
X111000Y181750D01*
X111875Y181083D01*
X112750Y180750D01*
X113625D01*
X114500Y181083D01*
X115250Y181583D01*
X115875Y182250D01*
G01X122750Y180750D02*
X121750Y180917D01*
X120875Y181583D01*
X120125Y182583D01*
X119625Y183750D01*
X119375Y185083D01*
Y186417D01*
X119625Y187750D01*
X120125Y188917D01*
X120875Y189917D01*
X121750Y190583D01*
X122750Y190750D01*
X123750Y190583D01*
X124625Y189917D01*
X125375Y188917D01*
X125875Y187750D01*
X126125Y186417D01*
Y185083D01*
X125875Y183750D01*
X125375Y182583D01*
X124625Y181583D01*
X123750Y180917D01*
X122750Y180750D01*
G01X129875D02*
Y190750D01*
X135625Y180750D01*
Y190750D01*
G01X140000Y180750D02*
Y190750D01*
X142500D01*
X143500Y190250D01*
X144250Y189583D01*
X144875Y188583D01*
X145375Y187416D01*
X145500Y185750D01*
X145375Y184083D01*
X144875Y182917D01*
X144250Y181916D01*
X143500Y181250D01*
X142500Y180750D01*
X140000D01*
G01X149625D02*
X152750Y190750D01*
X155875Y180750D01*
G01X154750Y184250D02*
X150750D01*
G01X160250Y180750D02*
Y190750D01*
X163375D01*
X164375Y190250D01*
X165000Y189583D01*
X165250Y188250D01*
X165000Y186917D01*
X164250Y186083D01*
X163375Y185583D01*
X160250D01*
G01X163375D02*
X165250Y180750D01*
G01X172750D02*
Y185250D01*
X170250Y190750D01*
G01X175250D02*
X172750Y185250D01*
G01X27750Y170750D02*
X26750Y170417D01*
X26000Y169583D01*
X25500Y168583D01*
X25125Y167250D01*
X25000Y165750D01*
X25125Y164250D01*
X25500Y162917D01*
X26000Y161916D01*
X26750Y161083D01*
X27750Y160750D01*
X28750Y161083D01*
X29500Y161916D01*
X30000Y162917D01*
X30375Y164250D01*
X30500Y165750D01*
X30375Y167250D01*
X30000Y168583D01*
X29500Y169583D01*
X28750Y170417D01*
X27750Y170750D01*
G01X37750Y160750D02*
X38625Y160917D01*
X39625Y161417D01*
X40250Y162250D01*
X40500Y163417D01*
X40250Y164583D01*
X39500Y165583D01*
X38375Y166083D01*
X37125D01*
X36375Y166417D01*
X35750Y167250D01*
X35500Y168417D01*
X35875Y169583D01*
X36750Y170417D01*
X37750Y170750D01*
X38750Y170417D01*
X39625Y169583D01*
X40000Y168417D01*
X39750Y167250D01*
X39125Y166417D01*
X38375Y166083D01*
X37125D01*
X36000Y165583D01*
X35250Y164583D01*
X35000Y163417D01*
X35250Y162250D01*
X35875Y161417D01*
X36875Y160917D01*
X37750Y160750D01*
G01X46125Y164083D02*
X49375D01*
G01X116125D02*
X119375D01*
G01X127750Y160750D02*
Y170750D01*
X126250Y168750D01*
G01Y160750D02*
X129250D01*
G01X135375Y164916D02*
X136250Y166083D01*
X137000Y166750D01*
X138000Y167083D01*
X138875Y166750D01*
X139500Y166083D01*
X140000Y165083D01*
X140125Y163917D01*
X140000Y162917D01*
X139500Y161916D01*
X138750Y161083D01*
X137875Y160750D01*
X136875Y161083D01*
X136000Y162083D01*
X135500Y163583D01*
X135375Y165250D01*
X135625Y167416D01*
X136000Y168583D01*
X136625Y169750D01*
X137500Y170583D01*
X138375Y170750D01*
X139250Y170417D01*
X139875Y169583D01*
G01X60250Y140750D02*
Y150750D01*
X63375D01*
X64375Y150250D01*
X65000Y149583D01*
X65250Y148250D01*
X65000Y146917D01*
X64250Y146083D01*
X63375Y145583D01*
X60250D01*
G01X63375D02*
X65250Y140750D01*
G01X75250D02*
X70250D01*
Y150750D01*
X75250D01*
G01X73250Y145917D02*
X70250D01*
G01X79625Y150750D02*
X82750Y140750D01*
X85875Y150750D01*
G01X103750Y146083D02*
X104250Y146583D01*
X104625Y147416D01*
X104875Y148583D01*
X104625Y149583D01*
X104125Y150250D01*
X103250Y150750D01*
X99875D01*
Y140750D01*
X104000D01*
X104875Y141417D01*
X105375Y142417D01*
X105625Y143583D01*
X105375Y144750D01*
X104625Y145750D01*
X103750Y146083D01*
X99875D01*
G01X57750Y170750D02*
X56750Y170417D01*
X56000Y169583D01*
X55500Y168583D01*
X55125Y167250D01*
X55000Y165750D01*
X55125Y164250D01*
X55500Y162917D01*
X56000Y161916D01*
X56750Y161083D01*
X57750Y160750D01*
X58750Y161083D01*
X59500Y161916D01*
X60000Y162917D01*
X60375Y164250D01*
X60500Y165750D01*
X60375Y167250D01*
X60000Y168583D01*
X59500Y169583D01*
X58750Y170417D01*
X57750Y170750D01*
G01X65000Y162750D02*
X65750Y161583D01*
X66750Y160917D01*
X67875Y160750D01*
X68875Y160917D01*
X69875Y161750D01*
X70500Y162750D01*
X70625Y163750D01*
X70375Y164916D01*
X69500Y165750D01*
X68625Y166083D01*
X67500D01*
G01X68625D02*
X69375Y166583D01*
X70000Y167416D01*
X70250Y168417D01*
X70000Y169417D01*
X69375Y170250D01*
X68250Y170750D01*
X67125Y170583D01*
X66000Y169917D01*
G01X77500Y160750D02*
X77750Y162917D01*
X78125Y164750D01*
X78625Y166417D01*
X79250Y168250D01*
X80250Y170750D01*
X75250D01*
G01X85000Y162250D02*
X85750Y161417D01*
X86625Y160917D01*
X87750Y160750D01*
X88875Y161083D01*
X89750Y161750D01*
X90375Y162917D01*
X90500Y164250D01*
X90250Y165583D01*
X89625Y166417D01*
X88750Y167083D01*
X87875Y167250D01*
X87000Y167083D01*
X85875Y166417D01*
X86250Y170750D01*
X89625D01*
G01X97750Y160750D02*
Y170750D01*
X96250Y168750D01*
G01Y160750D02*
X99250D01*
G01X105375Y164916D02*
X106250Y166083D01*
X107000Y166750D01*
X108000Y167083D01*
X108875Y166750D01*
X109500Y166083D01*
X110000Y165083D01*
X110125Y163917D01*
X110000Y162917D01*
X109500Y161916D01*
X108750Y161083D01*
X107875Y160750D01*
X106875Y161083D01*
X106000Y162083D01*
X105500Y163583D01*
X105375Y165250D01*
X105625Y167416D01*
X106000Y168583D01*
X106625Y169750D01*
X107500Y170583D01*
X108375Y170750D01*
X109250Y170417D01*
X109875Y169583D01*
G54D16*
X-12050Y-10750D03*
X-14450D03*
X-12050Y-6750D03*
X-14450D03*
X9218Y28450D03*
X11618D03*
X219300Y32500D03*
X221700D03*
X219300Y27500D03*
X221700D03*
G54D17*
X-1593Y11192D03*
X-2793Y13270D03*
X-5057Y9192D03*
X-6257Y11270D03*
G54D18*
X10500Y16500D03*
Y13000D03*
X43500Y-10250D03*
Y-13750D03*
G54D19*
X20849Y10694D03*
Y13275D03*
Y15856D03*
X27899Y10694D03*
Y13275D03*
Y15856D03*
M02*
