G04 ================== begin FILE IDENTIFICATION RECORD ==================*
G04 Layout Name:  08_037516b-1-14.brd*
G04 Film Name:    silk_sec*
G04 File Format:  Gerber RS274X*
G04 File Origin:  Cadence Allegro 16.5-S031*
G04 Origin Date:  Tue Jan 14 09:43:35 2014*
G04 *
G04 Layer:  REF DES/SILKSCREEN_BOTTOM*
G04 Layer:  PACKAGE GEOMETRY/SILKSCREEN_BOTTOM*
G04 Layer:  BOARD GEOMETRY/TOOLING_CORNERS*
G04 Layer:  BOARD GEOMETRY/SILKSCREEN_BOTTOM*
G04 Layer:  BOARD GEOMETRY/ROOT_NUMBER*
G04 *
G04 Offset:    (0.00 0.00)*
G04 Mirror:    No*
G04 Mode:      Positive*
G04 Rotation:  0*
G04 FullContactRelief:  No*
G04 UndefLineWidth:     8.00*
G04 ================== end FILE IDENTIFICATION RECORD ====================*
%FSLAX55Y55*MOIN*%
%IR0*IPPOS*OFA0.00000B0.00000*MIA0B0*SFA1.00000B1.00000*%
%ADD10C,.002*%
%ADD11C,.004*%
%ADD12C,.008*%
%ADD13C,.005*%
%ADD14C,.006*%
G75*
%LPD*%
G75*
G36*
G01X-25250Y-203D02*
G03I-1000J0D01*
G37*
G36*
G01X-7122Y-38622D02*
G03I-1500J0D01*
G37*
G36*
G01X-2916Y35163D02*
G02I-1500J0D01*
G37*
G36*
G01X34061Y17968D02*
G03I-1000J0D01*
G37*
G36*
G01X54585Y-43139D02*
Y-61889D01*
X179835D01*
Y-43139D01*
X54585D01*
G37*
G36*
G01X160435Y-40423D02*
X135435D01*
Y-15423D01*
X160435D01*
Y-40423D01*
G37*
G36*
G01X127856Y119600D02*
Y115300D01*
X128644D01*
Y119600D01*
X127856D01*
G37*
%LPC*%
G75*
G36*
G01X139435Y-27923D02*
X155435Y-18923D01*
Y-36423D01*
X139435Y-27923D01*
G37*
%LPD*%
G75*
G54D10*
G01X-13149Y-10850D02*
G02I-101J0D01*
G01X-13150Y-6850D02*
G03I-100J0D01*
G01X-2180Y12181D02*
G03I-100J0D01*
G01X-5644Y10181D02*
G03I-100J0D01*
G01X10518Y28550D02*
G03I-100J0D01*
G01X39500Y-12000D02*
G03I-100J0D01*
G54D11*
G01X-66904Y-74196D02*
X-67096Y-74506D01*
X-67326Y-74713D01*
X-67594Y-74816D01*
X-67901Y-74713D01*
X-68131Y-74506D01*
X-68361Y-74196D01*
X-68438Y-73783D01*
Y-71716D01*
G01X-70771Y-74816D02*
Y-71716D01*
X-70311Y-72336D01*
G01Y-74816D02*
X-71231D01*
G01X-73871D02*
Y-71716D01*
X-73411Y-72336D01*
G01Y-74816D02*
X-74331D01*
G01X-76971D02*
Y-71716D01*
X-76511Y-72336D01*
G01Y-74816D02*
X-77431D01*
G01X-51133Y-2250D02*
X-51800Y250D01*
X-52467Y-2250D01*
G01X-52227Y-1375D02*
X-51373D01*
G01X-53413Y250D02*
Y-1542D01*
X-53520Y-1917D01*
X-53733Y-2167D01*
X-54000Y-2250D01*
X-54267Y-2167D01*
X-54480Y-1917D01*
X-54587Y-1542D01*
Y250D01*
G01X-55640Y-2250D02*
X-56760Y250D01*
G01X-55640D02*
X-56760Y-2250D01*
G01X-57813D02*
Y250D01*
X-58347D01*
X-58560Y125D01*
X-58720Y-42D01*
X-58853Y-292D01*
X-58960Y-583D01*
X-58987Y-1000D01*
X-58960Y-1417D01*
X-58853Y-1708D01*
X-58720Y-1958D01*
X-58560Y-2125D01*
X-58347Y-2250D01*
X-57813D01*
G01X-59933D02*
X-60600Y250D01*
X-61267Y-2250D01*
G01X-61027Y-1375D02*
X-60173D01*
G01X-63387Y42D02*
X-63227Y167D01*
X-63040Y250D01*
X-62827D01*
X-62587Y125D01*
X-62400Y-83D01*
X-62267Y-333D01*
X-62160Y-750D01*
X-62133Y-1125D01*
X-62187Y-1500D01*
X-62267Y-1750D01*
X-62427Y-2000D01*
X-62613Y-2167D01*
X-62800Y-2250D01*
X-62987D01*
X-63173Y-2167D01*
X-63333Y-2042D01*
X-63467Y-1875D01*
G01X-64493Y-167D02*
X-64653Y83D01*
X-64840Y208D01*
X-65053Y250D01*
X-65320Y167D01*
X-65507Y-42D01*
X-65560Y-292D01*
X-65533Y-542D01*
X-65427Y-750D01*
X-64893Y-1167D01*
X-64653Y-1458D01*
X-64493Y-1875D01*
X-64440Y-2250D01*
X-65560D01*
G01X-51383Y7250D02*
X-52050Y9750D01*
X-52717Y7250D01*
G01X-52477Y8125D02*
X-51623D01*
G01X-53663Y9750D02*
Y7958D01*
X-53770Y7583D01*
X-53983Y7333D01*
X-54250Y7250D01*
X-54517Y7333D01*
X-54730Y7583D01*
X-54837Y7958D01*
Y9750D01*
G01X-55890Y7250D02*
X-57010Y9750D01*
G01X-55890D02*
X-57010Y7250D01*
G01X-58063D02*
Y9750D01*
X-58597D01*
X-58810Y9625D01*
X-58970Y9458D01*
X-59103Y9208D01*
X-59210Y8917D01*
X-59237Y8500D01*
X-59210Y8083D01*
X-59103Y7792D01*
X-58970Y7542D01*
X-58810Y7375D01*
X-58597Y7250D01*
X-58063D01*
G01X-60183D02*
X-60850Y9750D01*
X-61517Y7250D01*
G01X-61277Y8125D02*
X-60423D01*
G01X-63637Y9542D02*
X-63477Y9667D01*
X-63290Y9750D01*
X-63077D01*
X-62837Y9625D01*
X-62650Y9417D01*
X-62517Y9167D01*
X-62410Y8750D01*
X-62383Y8375D01*
X-62437Y8000D01*
X-62517Y7750D01*
X-62677Y7500D01*
X-62863Y7333D01*
X-63050Y7250D01*
X-63237D01*
X-63423Y7333D01*
X-63583Y7458D01*
X-63717Y7625D01*
G01X-65250Y7250D02*
Y9750D01*
X-64930Y9250D01*
G01Y7250D02*
X-65570D01*
G01X-53133Y14750D02*
X-53800Y17250D01*
X-54467Y14750D01*
G01X-54227Y15625D02*
X-53373D01*
G01X-55413Y17250D02*
Y15458D01*
X-55520Y15083D01*
X-55733Y14833D01*
X-56000Y14750D01*
X-56267Y14833D01*
X-56480Y15083D01*
X-56587Y15458D01*
Y17250D01*
G01X-57640Y14750D02*
X-58760Y17250D01*
G01X-57640D02*
X-58760Y14750D01*
G01X-59733D02*
X-60400Y17250D01*
X-61067Y14750D01*
G01X-60827Y15625D02*
X-59973D01*
G01X-62013Y14750D02*
Y17250D01*
X-62547D01*
X-62760Y17125D01*
X-62920Y16958D01*
X-63053Y16708D01*
X-63160Y16417D01*
X-63187Y16000D01*
X-63160Y15583D01*
X-63053Y15292D01*
X-62920Y15042D01*
X-62760Y14875D01*
X-62547Y14750D01*
X-62013D01*
G01X-65387Y17042D02*
X-65227Y17167D01*
X-65040Y17250D01*
X-64827D01*
X-64587Y17125D01*
X-64400Y16917D01*
X-64267Y16667D01*
X-64160Y16250D01*
X-64133Y15875D01*
X-64187Y15500D01*
X-64267Y15250D01*
X-64427Y15000D01*
X-64613Y14833D01*
X-64800Y14750D01*
X-64987D01*
X-65173Y14833D01*
X-65333Y14958D01*
X-65467Y15125D01*
G01X-67222Y73927D02*
X-67414Y73617D01*
X-67644Y73410D01*
X-67912Y73307D01*
X-68219Y73410D01*
X-68449Y73617D01*
X-68679Y73927D01*
X-68756Y74340D01*
Y76407D01*
G01X-71089Y73307D02*
Y76407D01*
X-70629Y75787D01*
G01Y73307D02*
X-71549D01*
G01X-74189D02*
Y76407D01*
X-73729Y75787D01*
G01Y73307D02*
X-74649D01*
G01X-77289Y76407D02*
X-76982Y76304D01*
X-76752Y76045D01*
X-76599Y75735D01*
X-76484Y75322D01*
X-76446Y74857D01*
X-76484Y74392D01*
X-76599Y73979D01*
X-76752Y73669D01*
X-76982Y73410D01*
X-77289Y73307D01*
X-77596Y73410D01*
X-77826Y73669D01*
X-77979Y73979D01*
X-78094Y74392D01*
X-78132Y74857D01*
X-78094Y75322D01*
X-77979Y75735D01*
X-77826Y76045D01*
X-77596Y76304D01*
X-77289Y76407D01*
G01X-66904Y89678D02*
X-67096Y89368D01*
X-67326Y89161D01*
X-67594Y89058D01*
X-67901Y89161D01*
X-68131Y89368D01*
X-68361Y89678D01*
X-68438Y90091D01*
Y92158D01*
G01X-70771Y89058D02*
Y92158D01*
X-70311Y91538D01*
G01Y89058D02*
X-71231D01*
G01X-73871D02*
Y92158D01*
X-73411Y91538D01*
G01Y89058D02*
X-74331D01*
G01X-76128Y89678D02*
X-76358Y89316D01*
X-76664Y89110D01*
X-77009Y89058D01*
X-77316Y89110D01*
X-77623Y89368D01*
X-77814Y89678D01*
X-77853Y89988D01*
X-77776Y90350D01*
X-77508Y90608D01*
X-77239Y90711D01*
X-76894D01*
G01X-77239D02*
X-77469Y90866D01*
X-77661Y91125D01*
X-77738Y91435D01*
X-77661Y91745D01*
X-77469Y92003D01*
X-77124Y92158D01*
X-76779Y92106D01*
X-76434Y91900D01*
G01X-40434Y-1253D02*
X-43534D01*
G01X-40434Y-2135D02*
Y-371D01*
G01X-43534Y1847D02*
X-40434D01*
X-41054Y1387D01*
G01X-43534D02*
Y2307D01*
G01X-40434Y4947D02*
X-40537Y4640D01*
X-40796Y4410D01*
X-41106Y4257D01*
X-41519Y4142D01*
X-41984Y4104D01*
X-42449Y4142D01*
X-42862Y4257D01*
X-43172Y4410D01*
X-43431Y4640D01*
X-43534Y4947D01*
X-43431Y5254D01*
X-43172Y5484D01*
X-42862Y5637D01*
X-42449Y5752D01*
X-41984Y5790D01*
X-41519Y5752D01*
X-41106Y5637D01*
X-40796Y5484D01*
X-40537Y5254D01*
X-40434Y4947D01*
G01X-40951Y7319D02*
X-40641Y7549D01*
X-40486Y7817D01*
X-40434Y8124D01*
X-40537Y8507D01*
X-40796Y8775D01*
X-41106Y8852D01*
X-41416Y8814D01*
X-41674Y8660D01*
X-42191Y7894D01*
X-42552Y7549D01*
X-43069Y7319D01*
X-43534Y7242D01*
Y8852D01*
G01X-29560Y2346D02*
X-29330Y2501D01*
X-29062Y2604D01*
X-28755D01*
X-28410Y2449D01*
X-28142Y2191D01*
X-27950Y1881D01*
X-27797Y1364D01*
X-27759Y899D01*
X-27835Y434D01*
X-27950Y124D01*
X-28180Y-186D01*
X-28449Y-393D01*
X-28717Y-496D01*
X-28985D01*
X-29254Y-393D01*
X-29484Y-238D01*
X-29675Y-31D01*
G01X-31817Y-496D02*
Y2604D01*
X-31357Y1984D01*
G01Y-496D02*
X-32277D01*
G01X-34917Y2604D02*
X-34610Y2501D01*
X-34380Y2242D01*
X-34227Y1932D01*
X-34112Y1519D01*
X-34074Y1054D01*
X-34112Y589D01*
X-34227Y176D01*
X-34380Y-134D01*
X-34610Y-393D01*
X-34917Y-496D01*
X-35224Y-393D01*
X-35454Y-134D01*
X-35607Y176D01*
X-35722Y589D01*
X-35760Y1054D01*
X-35722Y1519D01*
X-35607Y1932D01*
X-35454Y2242D01*
X-35224Y2501D01*
X-34917Y2604D01*
G01X-37365Y-134D02*
X-37634Y-393D01*
X-37940Y-496D01*
X-38247Y-393D01*
X-38515Y-83D01*
X-38707Y382D01*
X-38784Y847D01*
Y1416D01*
X-38707Y1881D01*
X-38515Y2294D01*
X-38285Y2501D01*
X-38017Y2604D01*
X-37710Y2501D01*
X-37480Y2294D01*
X-37327Y1984D01*
X-37250Y1571D01*
X-37327Y1209D01*
X-37519Y847D01*
X-37749Y641D01*
X-38017Y589D01*
X-38324Y692D01*
X-38554Y951D01*
X-38784Y1416D01*
G01X-14386Y8372D02*
X-14136Y8250D01*
X-13913Y8070D01*
X-13760Y7804D01*
X-13721Y7428D01*
X-13811Y7066D01*
X-13983Y6745D01*
X-14354Y6354D01*
X-14738Y6088D01*
X-15179Y5922D01*
X-15505Y5867D01*
X-15888Y5911D01*
X-16201Y6040D01*
X-16425Y6221D01*
X-16559Y6453D01*
X-16604Y6737D01*
X-16585Y7014D01*
X-16502Y7283D01*
G01X-17975Y8906D02*
X-15290Y10456D01*
X-15597Y9748D01*
G01X-17745Y8508D02*
X-18205Y9304D01*
G01X-16840Y13141D02*
X-16776Y12824D01*
X-16885Y12495D01*
X-17077Y12208D01*
X-17378Y11901D01*
X-17761Y11636D01*
X-18183Y11436D01*
X-18598Y11329D01*
X-18944Y11307D01*
X-19282Y11377D01*
X-19525Y11591D01*
X-19589Y11908D01*
X-19480Y12236D01*
X-19288Y12524D01*
X-18988Y12831D01*
X-18604Y13096D01*
X-18183Y13296D01*
X-17767Y13403D01*
X-17422Y13425D01*
X-17083Y13355D01*
X-16840Y13141D01*
G01X-19592Y14291D02*
X-19413Y14704D01*
X-19349Y15007D01*
X-19413Y15324D01*
X-19637Y15505D01*
X-19911Y15567D01*
X-20257Y15545D01*
X-20589Y15398D01*
X-20838Y15209D01*
X-21030Y14921D01*
X-21139Y14593D01*
X-21094Y14309D01*
X-20851Y14095D01*
X-20449Y14018D01*
X-19969Y14118D01*
X-19503Y14343D01*
X-18959Y14745D01*
X-18704Y15025D01*
X-18486Y15372D01*
X-18397Y15734D01*
X-18486Y15992D01*
X-18710Y16173D01*
X-19029Y16209D01*
G01X-29322Y7667D02*
X-29092Y7822D01*
X-28824Y7925D01*
X-28517D01*
X-28172Y7770D01*
X-27904Y7512D01*
X-27712Y7202D01*
X-27559Y6685D01*
X-27521Y6220D01*
X-27597Y5755D01*
X-27712Y5445D01*
X-27942Y5135D01*
X-28211Y4928D01*
X-28479Y4825D01*
X-28747D01*
X-29016Y4928D01*
X-29246Y5083D01*
X-29437Y5290D01*
G01X-31579Y4825D02*
Y7925D01*
X-31119Y7305D01*
G01Y4825D02*
X-32039D01*
G01X-34679Y7925D02*
X-34372Y7822D01*
X-34142Y7563D01*
X-33989Y7253D01*
X-33874Y6840D01*
X-33836Y6375D01*
X-33874Y5910D01*
X-33989Y5497D01*
X-34142Y5187D01*
X-34372Y4928D01*
X-34679Y4825D01*
X-34986Y4928D01*
X-35216Y5187D01*
X-35369Y5497D01*
X-35484Y5910D01*
X-35522Y6375D01*
X-35484Y6840D01*
X-35369Y7253D01*
X-35216Y7563D01*
X-34986Y7822D01*
X-34679Y7925D01*
G01X-37779Y4825D02*
X-38047Y4877D01*
X-38354Y5032D01*
X-38546Y5290D01*
X-38622Y5652D01*
X-38546Y6013D01*
X-38316Y6323D01*
X-37971Y6478D01*
X-37587D01*
X-37357Y6582D01*
X-37166Y6840D01*
X-37089Y7202D01*
X-37204Y7563D01*
X-37472Y7822D01*
X-37779Y7925D01*
X-38086Y7822D01*
X-38354Y7563D01*
X-38469Y7202D01*
X-38392Y6840D01*
X-38201Y6582D01*
X-37971Y6478D01*
X-37587D01*
X-37242Y6323D01*
X-37012Y6013D01*
X-36936Y5652D01*
X-37012Y5290D01*
X-37204Y5032D01*
X-37511Y4877D01*
X-37779Y4825D01*
G01X-19574Y5353D02*
X-19324Y5231D01*
X-19101Y5051D01*
X-18948Y4785D01*
X-18909Y4409D01*
X-18999Y4047D01*
X-19171Y3726D01*
X-19542Y3335D01*
X-19926Y3069D01*
X-20367Y2903D01*
X-20693Y2848D01*
X-21076Y2892D01*
X-21389Y3021D01*
X-21613Y3202D01*
X-21747Y3434D01*
X-21792Y3718D01*
X-21773Y3995D01*
X-21690Y4264D01*
G01X-23163Y5887D02*
X-20478Y7437D01*
X-20785Y6729D01*
G01X-22933Y5489D02*
X-23393Y6285D01*
G01X-22028Y10122D02*
X-21964Y9805D01*
X-22073Y9476D01*
X-22265Y9189D01*
X-22566Y8882D01*
X-22949Y8617D01*
X-23371Y8417D01*
X-23786Y8310D01*
X-24132Y8288D01*
X-24470Y8358D01*
X-24713Y8572D01*
X-24777Y8889D01*
X-24668Y9217D01*
X-24476Y9505D01*
X-24176Y9812D01*
X-23792Y10077D01*
X-23371Y10277D01*
X-22955Y10384D01*
X-22610Y10406D01*
X-22271Y10336D01*
X-22028Y10122D01*
G01X-26225Y11191D02*
X-25681Y11593D01*
X-25247Y11976D01*
X-24876Y12368D01*
X-24480Y12818D01*
X-23962Y13471D01*
X-23195Y12143D01*
G01X-22257Y21365D02*
X-20707Y18680D01*
G01X-21493Y21806D02*
X-23020Y20924D01*
G01X-23392Y17130D02*
X-24942Y19815D01*
X-24234Y19508D01*
G01X-22994Y17360D02*
X-23790Y16900D01*
G01X-27627Y18265D02*
X-27310Y18329D01*
X-26981Y18220D01*
X-26694Y18028D01*
X-26387Y17727D01*
X-26122Y17344D01*
X-25922Y16922D01*
X-25815Y16507D01*
X-25793Y16161D01*
X-25863Y15823D01*
X-26077Y15580D01*
X-26394Y15516D01*
X-26722Y15625D01*
X-27010Y15817D01*
X-27317Y16117D01*
X-27582Y16501D01*
X-27782Y16922D01*
X-27889Y17338D01*
X-27911Y17683D01*
X-27841Y18022D01*
X-27627Y18265D01*
G01X-28762Y14030D02*
X-30312Y16715D01*
X-29604Y16408D01*
G01X-28364Y14260D02*
X-29160Y13800D01*
G01X-7380Y-128667D02*
X-7690Y-128475D01*
X-7897Y-128245D01*
X-8000Y-127977D01*
X-7897Y-127670D01*
X-7690Y-127440D01*
X-7380Y-127210D01*
X-6967Y-127133D01*
X-4900D01*
G01X-8000Y-124800D02*
X-4900D01*
X-5520Y-125260D01*
G01X-8000D02*
Y-124340D01*
G01X-4900Y-121700D02*
X-5003Y-122007D01*
X-5262Y-122237D01*
X-5572Y-122390D01*
X-5985Y-122505D01*
X-6450Y-122543D01*
X-6915Y-122505D01*
X-7328Y-122390D01*
X-7638Y-122237D01*
X-7897Y-122007D01*
X-8000Y-121700D01*
X-7897Y-121393D01*
X-7638Y-121163D01*
X-7328Y-121010D01*
X-6915Y-120895D01*
X-6450Y-120857D01*
X-5985Y-120895D01*
X-5572Y-121010D01*
X-5262Y-121163D01*
X-5003Y-121393D01*
X-4900Y-121700D01*
G01X-5417Y-119328D02*
X-5107Y-119098D01*
X-4952Y-118830D01*
X-4900Y-118523D01*
X-5003Y-118140D01*
X-5262Y-117872D01*
X-5572Y-117795D01*
X-5882Y-117833D01*
X-6140Y-117987D01*
X-6657Y-118753D01*
X-7018Y-119098D01*
X-7535Y-119328D01*
X-8000Y-119405D01*
Y-117795D01*
G01X-12413Y116083D02*
X-12723Y116275D01*
X-12930Y116505D01*
X-13033Y116773D01*
X-12930Y117080D01*
X-12723Y117310D01*
X-12413Y117540D01*
X-12000Y117617D01*
X-9933D01*
G01X-13033Y119950D02*
X-9933D01*
X-10553Y119490D01*
G01X-13033D02*
Y120410D01*
G01Y123050D02*
X-9933D01*
X-10553Y122590D01*
G01X-13033D02*
Y123510D01*
G01X-10450Y125422D02*
X-10140Y125652D01*
X-9985Y125920D01*
X-9933Y126227D01*
X-10036Y126610D01*
X-10295Y126878D01*
X-10605Y126955D01*
X-10915Y126917D01*
X-11173Y126763D01*
X-11690Y125997D01*
X-12051Y125652D01*
X-12568Y125422D01*
X-13033Y125345D01*
Y126955D01*
G01X15509Y11193D02*
X15664Y10963D01*
X15767Y10695D01*
Y10388D01*
X15612Y10043D01*
X15354Y9775D01*
X15044Y9583D01*
X14527Y9430D01*
X14062Y9392D01*
X13597Y9468D01*
X13287Y9583D01*
X12977Y9813D01*
X12770Y10082D01*
X12667Y10350D01*
Y10618D01*
X12770Y10887D01*
X12925Y11117D01*
X13132Y11308D01*
G01X13287Y12607D02*
X12925Y12837D01*
X12719Y13143D01*
X12667Y13488D01*
X12719Y13795D01*
X12977Y14102D01*
X13287Y14293D01*
X13597Y14332D01*
X13959Y14255D01*
X14217Y13987D01*
X14320Y13718D01*
Y13373D01*
G01Y13718D02*
X14475Y13948D01*
X14734Y14140D01*
X15044Y14217D01*
X15354Y14140D01*
X15612Y13948D01*
X15767Y13603D01*
X15715Y13258D01*
X15509Y12913D01*
G01X13287Y15707D02*
X12925Y15937D01*
X12719Y16243D01*
X12667Y16588D01*
X12719Y16895D01*
X12977Y17202D01*
X13287Y17393D01*
X13597Y17432D01*
X13959Y17355D01*
X14217Y17087D01*
X14320Y16818D01*
Y16473D01*
G01Y16818D02*
X14475Y17048D01*
X14734Y17240D01*
X15044Y17317D01*
X15354Y17240D01*
X15612Y17048D01*
X15767Y16703D01*
X15715Y16358D01*
X15509Y16013D01*
G01X13132Y18807D02*
X12874Y19037D01*
X12719Y19305D01*
X12667Y19650D01*
X12770Y19995D01*
X12977Y20263D01*
X13339Y20455D01*
X13752Y20493D01*
X14165Y20417D01*
X14424Y20225D01*
X14630Y19957D01*
X14682Y19688D01*
X14630Y19420D01*
X14424Y19075D01*
X15767Y19190D01*
Y20225D01*
G01X3467Y15833D02*
X6567D01*
Y16792D01*
X6412Y17098D01*
X6205Y17290D01*
X5792Y17367D01*
X5379Y17290D01*
X5120Y17060D01*
X4965Y16792D01*
Y15833D01*
G01Y16792D02*
X3467Y17367D01*
G01Y19700D02*
X6567D01*
X5947Y19240D01*
G01X3467D02*
Y20160D01*
G01X6050Y22072D02*
X6360Y22302D01*
X6515Y22570D01*
X6567Y22877D01*
X6464Y23260D01*
X6205Y23528D01*
X5895Y23605D01*
X5585Y23567D01*
X5327Y23413D01*
X4810Y22647D01*
X4449Y22302D01*
X3932Y22072D01*
X3467Y21995D01*
Y23605D01*
G01X3932Y25057D02*
X3674Y25287D01*
X3519Y25555D01*
X3467Y25900D01*
X3570Y26245D01*
X3777Y26513D01*
X4139Y26705D01*
X4552Y26743D01*
X4965Y26667D01*
X5224Y26475D01*
X5430Y26207D01*
X5482Y25938D01*
X5430Y25670D01*
X5224Y25325D01*
X6567Y25440D01*
Y26475D01*
G01X20463Y29459D02*
X20623Y29584D01*
X20810Y29667D01*
X21023D01*
X21263Y29542D01*
X21450Y29334D01*
X21583Y29084D01*
X21690Y28667D01*
X21717Y28292D01*
X21663Y27917D01*
X21583Y27667D01*
X21423Y27417D01*
X21237Y27250D01*
X21050Y27167D01*
X20863D01*
X20677Y27250D01*
X20517Y27375D01*
X20383Y27542D01*
G01X18850Y27167D02*
Y29667D01*
X19170Y29167D01*
G01Y27167D02*
X18530D01*
G01X16650D02*
Y29667D01*
X16970Y29167D01*
G01Y27167D02*
X16330D01*
G01X14450D02*
X14263Y27209D01*
X14050Y27334D01*
X13917Y27542D01*
X13863Y27834D01*
X13917Y28125D01*
X14077Y28375D01*
X14317Y28500D01*
X14583D01*
X14743Y28584D01*
X14877Y28792D01*
X14930Y29084D01*
X14850Y29375D01*
X14663Y29584D01*
X14450Y29667D01*
X14237Y29584D01*
X14050Y29375D01*
X13970Y29084D01*
X14023Y28792D01*
X14157Y28584D01*
X14317Y28500D01*
X14583D01*
X14823Y28375D01*
X14983Y28125D01*
X15037Y27834D01*
X14983Y27542D01*
X14850Y27334D01*
X14637Y27209D01*
X14450Y27167D01*
G01X21963Y34959D02*
X22123Y35084D01*
X22310Y35167D01*
X22523D01*
X22763Y35042D01*
X22950Y34834D01*
X23083Y34584D01*
X23190Y34167D01*
X23217Y33792D01*
X23163Y33417D01*
X23083Y33167D01*
X22923Y32917D01*
X22737Y32750D01*
X22550Y32667D01*
X22363D01*
X22177Y32750D01*
X22017Y32875D01*
X21883Y33042D01*
G01X20350Y32667D02*
Y35167D01*
X20670Y34667D01*
G01Y32667D02*
X20030D01*
G01X18150D02*
Y35167D01*
X18470Y34667D01*
G01Y32667D02*
X17830D01*
G01X16403Y32959D02*
X16217Y32750D01*
X16003Y32667D01*
X15790Y32750D01*
X15603Y33000D01*
X15470Y33375D01*
X15417Y33750D01*
Y34209D01*
X15470Y34584D01*
X15603Y34917D01*
X15763Y35084D01*
X15950Y35167D01*
X16163Y35084D01*
X16323Y34917D01*
X16430Y34667D01*
X16483Y34334D01*
X16430Y34042D01*
X16297Y33750D01*
X16137Y33584D01*
X15950Y33542D01*
X15737Y33625D01*
X15577Y33834D01*
X15417Y34209D01*
G01X40842Y-6807D02*
X40997Y-7037D01*
X41100Y-7305D01*
Y-7612D01*
X40945Y-7957D01*
X40687Y-8225D01*
X40377Y-8417D01*
X39860Y-8570D01*
X39395Y-8608D01*
X38930Y-8532D01*
X38620Y-8417D01*
X38310Y-8187D01*
X38103Y-7918D01*
X38000Y-7650D01*
Y-7382D01*
X38103Y-7113D01*
X38258Y-6883D01*
X38465Y-6692D01*
G01X38620Y-5393D02*
X38258Y-5163D01*
X38052Y-4857D01*
X38000Y-4512D01*
X38052Y-4205D01*
X38310Y-3898D01*
X38620Y-3707D01*
X38930Y-3668D01*
X39292Y-3745D01*
X39550Y-4013D01*
X39653Y-4282D01*
Y-4627D01*
G01Y-4282D02*
X39808Y-4052D01*
X40067Y-3860D01*
X40377Y-3783D01*
X40687Y-3860D01*
X40945Y-4052D01*
X41100Y-4397D01*
X41048Y-4742D01*
X40842Y-5087D01*
G01X38465Y-2293D02*
X38207Y-2063D01*
X38052Y-1795D01*
X38000Y-1450D01*
X38103Y-1105D01*
X38310Y-837D01*
X38672Y-645D01*
X39085Y-607D01*
X39498Y-683D01*
X39757Y-875D01*
X39963Y-1143D01*
X40015Y-1412D01*
X39963Y-1680D01*
X39757Y-2025D01*
X41100Y-1910D01*
Y-875D01*
G01X38465Y807D02*
X38207Y1037D01*
X38052Y1305D01*
X38000Y1650D01*
X38103Y1995D01*
X38310Y2263D01*
X38672Y2455D01*
X39085Y2493D01*
X39498Y2417D01*
X39757Y2225D01*
X39963Y1957D01*
X40015Y1688D01*
X39963Y1420D01*
X39757Y1075D01*
X41100Y1190D01*
Y2225D01*
G01X36566Y8850D02*
X33466D01*
G01X36566Y7968D02*
Y9732D01*
G01X33466Y11950D02*
X36566D01*
X35946Y11490D01*
G01X33466D02*
Y12410D01*
G01X36566Y15050D02*
X36463Y14743D01*
X36204Y14513D01*
X35894Y14360D01*
X35481Y14245D01*
X35016Y14207D01*
X34551Y14245D01*
X34138Y14360D01*
X33828Y14513D01*
X33569Y14743D01*
X33466Y15050D01*
X33569Y15357D01*
X33828Y15587D01*
X34138Y15740D01*
X34551Y15855D01*
X35016Y15893D01*
X35481Y15855D01*
X35894Y15740D01*
X36204Y15587D01*
X36463Y15357D01*
X36566Y15050D01*
G01X33466Y18610D02*
X36566D01*
X34344Y17192D01*
Y19108D01*
G01X46295Y84348D02*
X46103Y84038D01*
X45873Y83831D01*
X45605Y83728D01*
X45298Y83831D01*
X45068Y84038D01*
X44838Y84348D01*
X44761Y84761D01*
Y86828D01*
G01X42428Y83728D02*
Y86828D01*
X42888Y86208D01*
G01Y83728D02*
X41968D01*
G01X39328Y86828D02*
X39635Y86725D01*
X39865Y86466D01*
X40018Y86156D01*
X40133Y85743D01*
X40171Y85278D01*
X40133Y84813D01*
X40018Y84400D01*
X39865Y84090D01*
X39635Y83831D01*
X39328Y83728D01*
X39021Y83831D01*
X38791Y84090D01*
X38638Y84400D01*
X38523Y84813D01*
X38485Y85278D01*
X38523Y85743D01*
X38638Y86156D01*
X38791Y86466D01*
X39021Y86725D01*
X39328Y86828D01*
G01X37071Y84193D02*
X36841Y83935D01*
X36573Y83780D01*
X36228Y83728D01*
X35883Y83831D01*
X35615Y84038D01*
X35423Y84400D01*
X35385Y84813D01*
X35461Y85226D01*
X35653Y85485D01*
X35921Y85691D01*
X36190Y85743D01*
X36458Y85691D01*
X36803Y85485D01*
X36688Y86828D01*
X35653D01*
G01X46342Y-5307D02*
X46497Y-5537D01*
X46600Y-5805D01*
Y-6112D01*
X46445Y-6457D01*
X46187Y-6725D01*
X45877Y-6917D01*
X45360Y-7070D01*
X44895Y-7108D01*
X44430Y-7032D01*
X44120Y-6917D01*
X43810Y-6687D01*
X43603Y-6418D01*
X43500Y-6150D01*
Y-5882D01*
X43603Y-5613D01*
X43758Y-5383D01*
X43965Y-5192D01*
G01X44120Y-3893D02*
X43758Y-3663D01*
X43552Y-3357D01*
X43500Y-3012D01*
X43552Y-2705D01*
X43810Y-2398D01*
X44120Y-2207D01*
X44430Y-2168D01*
X44792Y-2245D01*
X45050Y-2513D01*
X45153Y-2782D01*
Y-3127D01*
G01Y-2782D02*
X45308Y-2552D01*
X45567Y-2360D01*
X45877Y-2283D01*
X46187Y-2360D01*
X46445Y-2552D01*
X46600Y-2897D01*
X46548Y-3242D01*
X46342Y-3587D01*
G01X43965Y-793D02*
X43707Y-563D01*
X43552Y-295D01*
X43500Y50D01*
X43603Y395D01*
X43810Y663D01*
X44172Y855D01*
X44585Y893D01*
X44998Y817D01*
X45257Y625D01*
X45463Y357D01*
X45515Y88D01*
X45463Y-180D01*
X45257Y-525D01*
X46600Y-410D01*
Y625D01*
G01X43500Y3610D02*
X46600D01*
X44378Y2192D01*
Y4108D01*
G01X79000Y20917D02*
Y19383D01*
X82100D01*
Y20917D01*
G01X80602Y20303D02*
Y19383D01*
G01X79000Y22368D02*
X82100D01*
X79000Y24132D01*
X82100D01*
G01X79000Y25392D02*
X82100Y26350D01*
X79000Y27308D01*
G01X80085Y26963D02*
Y25737D01*
G01X80653Y29757D02*
X80808Y29910D01*
X81067Y30025D01*
X81428Y30102D01*
X81738Y30025D01*
X81945Y29872D01*
X82100Y29603D01*
Y28568D01*
X79000D01*
Y29833D01*
X79207Y30102D01*
X79517Y30255D01*
X79878Y30332D01*
X80240Y30255D01*
X80550Y30025D01*
X80653Y29757D01*
Y28568D01*
G01X82100Y31783D02*
X79000D01*
Y33317D01*
G01Y36417D02*
Y34883D01*
X82100D01*
Y36417D01*
G01X80602Y35803D02*
Y34883D01*
G01X72000Y40932D02*
Y44032D01*
X72460Y43412D01*
G01Y40932D02*
X71540D01*
G01X81100Y61150D02*
X78000D01*
G01X81100Y60268D02*
Y62032D01*
G01X78000Y63445D02*
X81100Y65055D01*
G01Y63445D02*
X78000Y65055D01*
G01Y66468D02*
X81100D01*
X78000Y68232D01*
X81100D01*
G01X78000Y69683D02*
X81100D01*
Y70642D01*
X80945Y70948D01*
X80738Y71140D01*
X80325Y71217D01*
X79912Y71140D01*
X79653Y70910D01*
X79498Y70642D01*
Y69683D01*
G01Y70642D02*
X78000Y71217D01*
G01Y72745D02*
X81100Y74355D01*
G01Y72745D02*
X78000Y74355D01*
G01X72728Y57515D02*
X72498Y57825D01*
X72230Y57980D01*
X71923Y58032D01*
X71540Y57929D01*
X71272Y57670D01*
X71195Y57360D01*
X71233Y57050D01*
X71387Y56792D01*
X72153Y56275D01*
X72498Y55914D01*
X72728Y55397D01*
X72805Y54932D01*
X71195D01*
G01X91250Y-122117D02*
X88750Y-121450D01*
X91250Y-120783D01*
G01X88750Y-119837D02*
X91250D01*
Y-119303D01*
X91125Y-119090D01*
X90958Y-118930D01*
X90708Y-118797D01*
X90417Y-118690D01*
X90000Y-118663D01*
X89583Y-118690D01*
X89292Y-118797D01*
X89042Y-118930D01*
X88875Y-119090D01*
X88750Y-119303D01*
Y-119837D01*
G01Y-117637D02*
X91250D01*
Y-117103D01*
X91125Y-116890D01*
X90958Y-116730D01*
X90708Y-116597D01*
X90417Y-116490D01*
X90000Y-116463D01*
X89583Y-116490D01*
X89292Y-116597D01*
X89042Y-116730D01*
X88875Y-116890D01*
X88750Y-117103D01*
Y-117637D01*
G01X87917Y-115650D02*
Y-114050D01*
G01X90000Y-112490D02*
Y-111957D01*
X89250D01*
X89000Y-112117D01*
X88833Y-112303D01*
X88750Y-112570D01*
X88833Y-112837D01*
X89000Y-113023D01*
X89250Y-113183D01*
X89542Y-113290D01*
X89875Y-113343D01*
X90167D01*
X90417Y-113290D01*
X90708Y-113183D01*
X90958Y-113023D01*
X91125Y-112863D01*
X91250Y-112650D01*
Y-112463D01*
X91167Y-112250D01*
X91000Y-112090D01*
G01X88750Y-110983D02*
X91250D01*
Y-110343D01*
X91125Y-110130D01*
X90833Y-109970D01*
X90500Y-109917D01*
X90167Y-109970D01*
X89917Y-110103D01*
X89792Y-110343D01*
Y-110983D01*
G01X88750Y-108250D02*
X88792Y-108463D01*
X88958Y-108650D01*
X89208Y-108810D01*
X89500Y-108917D01*
X89833Y-108970D01*
X90167D01*
X90500Y-108917D01*
X90792Y-108810D01*
X91042Y-108650D01*
X91208Y-108463D01*
X91250Y-108250D01*
X91208Y-108037D01*
X91042Y-107850D01*
X90792Y-107690D01*
X90500Y-107583D01*
X90167Y-107530D01*
X89833D01*
X89500Y-107583D01*
X89208Y-107690D01*
X88958Y-107850D01*
X88792Y-108037D01*
X88750Y-108250D01*
G01X99000Y-115287D02*
X98708Y-115127D01*
X98542Y-114913D01*
X98500Y-114673D01*
X98542Y-114460D01*
X98750Y-114247D01*
X99000Y-114113D01*
X99250Y-114087D01*
X99542Y-114140D01*
X99750Y-114327D01*
X99833Y-114513D01*
Y-114753D01*
G01Y-114513D02*
X99958Y-114353D01*
X100167Y-114220D01*
X100417Y-114167D01*
X100667Y-114220D01*
X100875Y-114353D01*
X101000Y-114593D01*
X100958Y-114833D01*
X100792Y-115073D01*
G01X98500Y-113033D02*
X101000D01*
Y-112393D01*
X100875Y-112180D01*
X100583Y-112020D01*
X100250Y-111967D01*
X99917Y-112020D01*
X99667Y-112153D01*
X99542Y-112393D01*
Y-113033D01*
G01X99000Y-110887D02*
X98708Y-110727D01*
X98542Y-110513D01*
X98500Y-110273D01*
X98542Y-110060D01*
X98750Y-109847D01*
X99000Y-109713D01*
X99250Y-109687D01*
X99542Y-109740D01*
X99750Y-109927D01*
X99833Y-110113D01*
Y-110353D01*
G01Y-110113D02*
X99958Y-109953D01*
X100167Y-109820D01*
X100417Y-109767D01*
X100667Y-109820D01*
X100875Y-109953D01*
X101000Y-110193D01*
X100958Y-110433D01*
X100792Y-110673D01*
G01X101000Y-108767D02*
X98500Y-108100D01*
X101000Y-107433D01*
G01X89000Y20917D02*
Y19383D01*
X92100D01*
Y20917D01*
G01X90602Y20303D02*
Y19383D01*
G01X89000Y22368D02*
X92100D01*
X89000Y24132D01*
X92100D01*
G01X87967Y25200D02*
Y27500D01*
G01X89000Y28492D02*
X92100Y29450D01*
X89000Y30408D01*
G01X90085Y30063D02*
Y28837D01*
G01X90550Y32780D02*
Y33547D01*
X89620D01*
X89310Y33317D01*
X89103Y33048D01*
X89000Y32665D01*
X89103Y32282D01*
X89310Y32013D01*
X89620Y31783D01*
X89982Y31630D01*
X90395Y31553D01*
X90757D01*
X91067Y31630D01*
X91428Y31783D01*
X91738Y32013D01*
X91945Y32243D01*
X92100Y32550D01*
Y32818D01*
X91997Y33125D01*
X91790Y33355D01*
G01X91842Y36493D02*
X91997Y36263D01*
X92100Y35995D01*
Y35688D01*
X91945Y35343D01*
X91687Y35075D01*
X91377Y34883D01*
X90860Y34730D01*
X90395Y34692D01*
X89930Y34768D01*
X89620Y34883D01*
X89310Y35113D01*
X89103Y35382D01*
X89000Y35650D01*
Y35918D01*
X89103Y36187D01*
X89258Y36417D01*
X89465Y36608D01*
G01X101342Y10993D02*
X101497Y10763D01*
X101600Y10495D01*
Y10188D01*
X101445Y9843D01*
X101187Y9575D01*
X100877Y9383D01*
X100360Y9230D01*
X99895Y9192D01*
X99430Y9268D01*
X99120Y9383D01*
X98810Y9613D01*
X98603Y9882D01*
X98500Y10150D01*
Y10418D01*
X98603Y10687D01*
X98758Y10917D01*
X98965Y11108D01*
G01X101600Y13250D02*
X98500D01*
G01X101600Y12368D02*
Y14132D01*
G01X98500Y15583D02*
X101600D01*
Y16542D01*
X101445Y16848D01*
X101238Y17040D01*
X100825Y17117D01*
X100412Y17040D01*
X100153Y16810D01*
X99998Y16542D01*
Y15583D01*
G01Y16542D02*
X98500Y17117D01*
G01X101600Y18683D02*
X98500D01*
Y20217D01*
G01X97467Y21400D02*
Y23700D01*
G01X98500Y25650D02*
X98552Y25343D01*
X98758Y25075D01*
X99068Y24845D01*
X99430Y24692D01*
X99843Y24615D01*
X100257D01*
X100670Y24692D01*
X101032Y24845D01*
X101342Y25075D01*
X101548Y25343D01*
X101600Y25650D01*
X101548Y25957D01*
X101342Y26225D01*
X101032Y26455D01*
X100670Y26608D01*
X100257Y26685D01*
X99843D01*
X99430Y26608D01*
X99068Y26455D01*
X98758Y26225D01*
X98552Y25957D01*
X98500Y25650D01*
G01X101600Y27907D02*
X99378D01*
X98913Y28060D01*
X98603Y28367D01*
X98500Y28750D01*
X98603Y29133D01*
X98913Y29440D01*
X99378Y29593D01*
X101600D01*
G01Y31850D02*
X98500D01*
G01X101600Y30968D02*
Y32732D01*
G01X99792Y34222D02*
X100153Y34490D01*
X100360Y34720D01*
X100463Y35027D01*
X100360Y35295D01*
X100153Y35487D01*
X99843Y35640D01*
X99482Y35678D01*
X99172Y35640D01*
X98862Y35487D01*
X98603Y35257D01*
X98500Y34988D01*
X98603Y34682D01*
X98913Y34413D01*
X99378Y34260D01*
X99895Y34222D01*
X100567Y34298D01*
X100928Y34413D01*
X101290Y34605D01*
X101548Y34873D01*
X101600Y35142D01*
X101497Y35410D01*
X101238Y35602D01*
G01X87842Y60743D02*
X87997Y60513D01*
X88100Y60245D01*
Y59938D01*
X87945Y59593D01*
X87687Y59325D01*
X87377Y59133D01*
X86860Y58980D01*
X86395Y58942D01*
X85930Y59018D01*
X85620Y59133D01*
X85310Y59363D01*
X85103Y59632D01*
X85000Y59900D01*
Y60168D01*
X85103Y60437D01*
X85258Y60667D01*
X85465Y60858D01*
G01X88100Y63000D02*
X85000D01*
G01X88100Y62118D02*
Y63882D01*
G01X85000Y65333D02*
X88100D01*
Y66292D01*
X87945Y66598D01*
X87738Y66790D01*
X87325Y66867D01*
X86912Y66790D01*
X86653Y66560D01*
X86498Y66292D01*
Y65333D01*
G01Y66292D02*
X85000Y66867D01*
G01X88100Y68433D02*
X85000D01*
Y69967D01*
G01X83967Y71150D02*
Y73450D01*
G01X85000Y75400D02*
X85052Y75093D01*
X85258Y74825D01*
X85568Y74595D01*
X85930Y74442D01*
X86343Y74365D01*
X86757D01*
X87170Y74442D01*
X87532Y74595D01*
X87842Y74825D01*
X88048Y75093D01*
X88100Y75400D01*
X88048Y75707D01*
X87842Y75975D01*
X87532Y76205D01*
X87170Y76358D01*
X86757Y76435D01*
X86343D01*
X85930Y76358D01*
X85568Y76205D01*
X85258Y75975D01*
X85052Y75707D01*
X85000Y75400D01*
G01X88100Y77657D02*
X85878D01*
X85413Y77810D01*
X85103Y78117D01*
X85000Y78500D01*
X85103Y78883D01*
X85413Y79190D01*
X85878Y79343D01*
X88100D01*
G01Y81600D02*
X85000D01*
G01X88100Y80718D02*
Y82482D01*
G01X85000Y84623D02*
X85672Y84700D01*
X86240Y84815D01*
X86757Y84968D01*
X87325Y85160D01*
X88100Y85467D01*
Y83933D01*
G01X102592Y61993D02*
X102747Y61763D01*
X102850Y61495D01*
Y61188D01*
X102695Y60843D01*
X102437Y60575D01*
X102127Y60383D01*
X101610Y60230D01*
X101145Y60192D01*
X100680Y60268D01*
X100370Y60383D01*
X100060Y60613D01*
X99853Y60882D01*
X99750Y61150D01*
Y61418D01*
X99853Y61687D01*
X100008Y61917D01*
X100215Y62108D01*
G01X102850Y64250D02*
X99750D01*
G01X102850Y63368D02*
Y65132D01*
G01X99750Y66583D02*
X102850D01*
Y67542D01*
X102695Y67848D01*
X102488Y68040D01*
X102075Y68117D01*
X101662Y68040D01*
X101403Y67810D01*
X101248Y67542D01*
Y66583D01*
G01Y67542D02*
X99750Y68117D01*
G01X102850Y69683D02*
X99750D01*
Y71217D01*
G01X98717Y72400D02*
Y74700D01*
G01X99750Y76650D02*
X99802Y76343D01*
X100008Y76075D01*
X100318Y75845D01*
X100680Y75692D01*
X101093Y75615D01*
X101507D01*
X101920Y75692D01*
X102282Y75845D01*
X102592Y76075D01*
X102798Y76343D01*
X102850Y76650D01*
X102798Y76957D01*
X102592Y77225D01*
X102282Y77455D01*
X101920Y77608D01*
X101507Y77685D01*
X101093D01*
X100680Y77608D01*
X100318Y77455D01*
X100008Y77225D01*
X99802Y76957D01*
X99750Y76650D01*
G01X102850Y78907D02*
X100628D01*
X100163Y79060D01*
X99853Y79367D01*
X99750Y79750D01*
X99853Y80133D01*
X100163Y80440D01*
X100628Y80593D01*
X102850D01*
G01Y82850D02*
X99750D01*
G01X102850Y81968D02*
Y83732D01*
G01X100215Y85107D02*
X99957Y85337D01*
X99802Y85605D01*
X99750Y85950D01*
X99853Y86295D01*
X100060Y86563D01*
X100422Y86755D01*
X100835Y86793D01*
X101248Y86717D01*
X101507Y86525D01*
X101713Y86257D01*
X101765Y85988D01*
X101713Y85720D01*
X101507Y85375D01*
X102850Y85490D01*
Y86525D01*
G01X112436Y122706D02*
Y125806D01*
X111670D01*
X111363Y125651D01*
X111133Y125444D01*
X110941Y125134D01*
X110788Y124773D01*
X110750Y124256D01*
X110788Y123739D01*
X110941Y123378D01*
X111133Y123068D01*
X111363Y122861D01*
X111670Y122706D01*
X112436D01*
G01X109298Y123119D02*
X108991Y122861D01*
X108646Y122706D01*
X108340D01*
X108033Y122861D01*
X107803Y123119D01*
X107688Y123481D01*
X107765Y123843D01*
X107956Y124153D01*
X108301Y124359D01*
X108761Y124463D01*
X109030Y124669D01*
X109145Y125031D01*
X109068Y125393D01*
X108876Y125651D01*
X108608Y125806D01*
X108340D01*
X108071Y125703D01*
X107841Y125444D01*
G01X106121Y125289D02*
X105891Y125599D01*
X105623Y125754D01*
X105316Y125806D01*
X104933Y125703D01*
X104665Y125444D01*
X104588Y125134D01*
X104626Y124824D01*
X104780Y124566D01*
X105546Y124049D01*
X105891Y123688D01*
X106121Y123171D01*
X106198Y122706D01*
X104588D01*
G01X102293Y125806D02*
X102600Y125703D01*
X102830Y125444D01*
X102983Y125134D01*
X103098Y124721D01*
X103136Y124256D01*
X103098Y123791D01*
X102983Y123378D01*
X102830Y123068D01*
X102600Y122809D01*
X102293Y122706D01*
X101986Y122809D01*
X101756Y123068D01*
X101603Y123378D01*
X101488Y123791D01*
X101450Y124256D01*
X101488Y124721D01*
X101603Y125134D01*
X101756Y125444D01*
X101986Y125703D01*
X102293Y125806D01*
G01X99193Y122706D02*
Y125806D01*
X99653Y125186D01*
G01Y122706D02*
X98733D01*
G01X118750Y-116950D02*
X121250D01*
X120750Y-117270D01*
G01X118750D02*
Y-116630D01*
G01Y-115283D02*
X121250D01*
Y-114643D01*
X121125Y-114430D01*
X120833Y-114270D01*
X120500Y-114217D01*
X120167Y-114270D01*
X119917Y-114403D01*
X119792Y-114643D01*
Y-115283D01*
G01X119250Y-113137D02*
X118958Y-112977D01*
X118792Y-112763D01*
X118750Y-112523D01*
X118792Y-112310D01*
X119000Y-112097D01*
X119250Y-111963D01*
X119500Y-111937D01*
X119792Y-111990D01*
X120000Y-112177D01*
X120083Y-112363D01*
Y-112603D01*
G01Y-112363D02*
X120208Y-112203D01*
X120417Y-112070D01*
X120667Y-112017D01*
X120917Y-112070D01*
X121125Y-112203D01*
X121250Y-112443D01*
X121208Y-112683D01*
X121042Y-112923D01*
G01X117917Y-111150D02*
Y-109550D01*
G01X118750Y-108817D02*
X121250Y-108150D01*
X118750Y-107483D01*
G01X119625Y-107723D02*
Y-108577D01*
G01X109250Y-122037D02*
X108958Y-121877D01*
X108792Y-121663D01*
X108750Y-121423D01*
X108792Y-121210D01*
X109000Y-120997D01*
X109250Y-120863D01*
X109500Y-120837D01*
X109792Y-120890D01*
X110000Y-121077D01*
X110083Y-121263D01*
Y-121503D01*
G01Y-121263D02*
X110208Y-121103D01*
X110417Y-120970D01*
X110667Y-120917D01*
X110917Y-120970D01*
X111125Y-121103D01*
X111250Y-121343D01*
X111208Y-121583D01*
X111042Y-121823D01*
G01X108750Y-119783D02*
X111250D01*
Y-119143D01*
X111125Y-118930D01*
X110833Y-118770D01*
X110500Y-118717D01*
X110167Y-118770D01*
X109917Y-118903D01*
X109792Y-119143D01*
Y-119783D01*
G01X109250Y-117637D02*
X108958Y-117477D01*
X108792Y-117263D01*
X108750Y-117023D01*
X108792Y-116810D01*
X109000Y-116597D01*
X109250Y-116463D01*
X109500Y-116437D01*
X109792Y-116490D01*
X110000Y-116677D01*
X110083Y-116863D01*
Y-117103D01*
G01Y-116863D02*
X110208Y-116703D01*
X110417Y-116570D01*
X110667Y-116517D01*
X110917Y-116570D01*
X111125Y-116703D01*
X111250Y-116943D01*
X111208Y-117183D01*
X111042Y-117423D01*
G01X111250Y-115517D02*
X108750Y-114850D01*
X111250Y-114183D01*
G01X108750Y-113317D02*
X111250Y-112650D01*
X108750Y-111983D01*
G01X109625Y-112223D02*
Y-113077D01*
G01X111250Y-111037D02*
X109458D01*
X109083Y-110930D01*
X108833Y-110717D01*
X108750Y-110450D01*
X108833Y-110183D01*
X109083Y-109970D01*
X109458Y-109863D01*
X111250D01*
G01X108750Y-108810D02*
X111250Y-107690D01*
G01Y-108810D02*
X108750Y-107690D01*
G01X111842Y10993D02*
X111997Y10763D01*
X112100Y10495D01*
Y10188D01*
X111945Y9843D01*
X111687Y9575D01*
X111377Y9383D01*
X110860Y9230D01*
X110395Y9192D01*
X109930Y9268D01*
X109620Y9383D01*
X109310Y9613D01*
X109103Y9882D01*
X109000Y10150D01*
Y10418D01*
X109103Y10687D01*
X109258Y10917D01*
X109465Y11108D01*
G01X112100Y13250D02*
X109000D01*
G01X112100Y12368D02*
Y14132D01*
G01X109000Y15583D02*
X112100D01*
Y16542D01*
X111945Y16848D01*
X111738Y17040D01*
X111325Y17117D01*
X110912Y17040D01*
X110653Y16810D01*
X110498Y16542D01*
Y15583D01*
G01Y16542D02*
X109000Y17117D01*
G01X112100Y18683D02*
X109000D01*
Y20217D01*
G01X107967Y21400D02*
Y23700D01*
G01X109000Y25650D02*
X109052Y25343D01*
X109258Y25075D01*
X109568Y24845D01*
X109930Y24692D01*
X110343Y24615D01*
X110757D01*
X111170Y24692D01*
X111532Y24845D01*
X111842Y25075D01*
X112048Y25343D01*
X112100Y25650D01*
X112048Y25957D01*
X111842Y26225D01*
X111532Y26455D01*
X111170Y26608D01*
X110757Y26685D01*
X110343D01*
X109930Y26608D01*
X109568Y26455D01*
X109258Y26225D01*
X109052Y25957D01*
X109000Y25650D01*
G01X112100Y27907D02*
X109878D01*
X109413Y28060D01*
X109103Y28367D01*
X109000Y28750D01*
X109103Y29133D01*
X109413Y29440D01*
X109878Y29593D01*
X112100D01*
G01Y31850D02*
X109000D01*
G01X112100Y30968D02*
Y32732D01*
G01X109000Y35410D02*
X112100D01*
X109878Y33992D01*
Y35908D01*
G01X121842Y10993D02*
X121997Y10763D01*
X122100Y10495D01*
Y10188D01*
X121945Y9843D01*
X121687Y9575D01*
X121377Y9383D01*
X120860Y9230D01*
X120395Y9192D01*
X119930Y9268D01*
X119620Y9383D01*
X119310Y9613D01*
X119103Y9882D01*
X119000Y10150D01*
Y10418D01*
X119103Y10687D01*
X119258Y10917D01*
X119465Y11108D01*
G01X122100Y13250D02*
X119000D01*
G01X122100Y12368D02*
Y14132D01*
G01X119000Y15583D02*
X122100D01*
Y16542D01*
X121945Y16848D01*
X121738Y17040D01*
X121325Y17117D01*
X120912Y17040D01*
X120653Y16810D01*
X120498Y16542D01*
Y15583D01*
G01Y16542D02*
X119000Y17117D01*
G01X122100Y18683D02*
X119000D01*
Y20217D01*
G01X117967Y21400D02*
Y23700D01*
G01X119000Y25650D02*
X119052Y25343D01*
X119258Y25075D01*
X119568Y24845D01*
X119930Y24692D01*
X120343Y24615D01*
X120757D01*
X121170Y24692D01*
X121532Y24845D01*
X121842Y25075D01*
X122048Y25343D01*
X122100Y25650D01*
X122048Y25957D01*
X121842Y26225D01*
X121532Y26455D01*
X121170Y26608D01*
X120757Y26685D01*
X120343D01*
X119930Y26608D01*
X119568Y26455D01*
X119258Y26225D01*
X119052Y25957D01*
X119000Y25650D01*
G01X122100Y27907D02*
X119878D01*
X119413Y28060D01*
X119103Y28367D01*
X119000Y28750D01*
X119103Y29133D01*
X119413Y29440D01*
X119878Y29593D01*
X122100D01*
G01Y31850D02*
X119000D01*
G01X122100Y30968D02*
Y32732D01*
G01X121583Y34222D02*
X121893Y34452D01*
X122048Y34720D01*
X122100Y35027D01*
X121997Y35410D01*
X121738Y35678D01*
X121428Y35755D01*
X121118Y35717D01*
X120860Y35563D01*
X120343Y34797D01*
X119982Y34452D01*
X119465Y34222D01*
X119000Y34145D01*
Y35755D01*
G01X111842Y61993D02*
X111997Y61763D01*
X112100Y61495D01*
Y61188D01*
X111945Y60843D01*
X111687Y60575D01*
X111377Y60383D01*
X110860Y60230D01*
X110395Y60192D01*
X109930Y60268D01*
X109620Y60383D01*
X109310Y60613D01*
X109103Y60882D01*
X109000Y61150D01*
Y61418D01*
X109103Y61687D01*
X109258Y61917D01*
X109465Y62108D01*
G01X112100Y64250D02*
X109000D01*
G01X112100Y63368D02*
Y65132D01*
G01X109000Y66583D02*
X112100D01*
Y67542D01*
X111945Y67848D01*
X111738Y68040D01*
X111325Y68117D01*
X110912Y68040D01*
X110653Y67810D01*
X110498Y67542D01*
Y66583D01*
G01Y67542D02*
X109000Y68117D01*
G01X112100Y69683D02*
X109000D01*
Y71217D01*
G01X107967Y72400D02*
Y74700D01*
G01X109000Y76650D02*
X109052Y76343D01*
X109258Y76075D01*
X109568Y75845D01*
X109930Y75692D01*
X110343Y75615D01*
X110757D01*
X111170Y75692D01*
X111532Y75845D01*
X111842Y76075D01*
X112048Y76343D01*
X112100Y76650D01*
X112048Y76957D01*
X111842Y77225D01*
X111532Y77455D01*
X111170Y77608D01*
X110757Y77685D01*
X110343D01*
X109930Y77608D01*
X109568Y77455D01*
X109258Y77225D01*
X109052Y76957D01*
X109000Y76650D01*
G01X112100Y78907D02*
X109878D01*
X109413Y79060D01*
X109103Y79367D01*
X109000Y79750D01*
X109103Y80133D01*
X109413Y80440D01*
X109878Y80593D01*
X112100D01*
G01Y82850D02*
X109000D01*
G01X112100Y81968D02*
Y83732D01*
G01X109620Y85107D02*
X109258Y85337D01*
X109052Y85643D01*
X109000Y85988D01*
X109052Y86295D01*
X109310Y86602D01*
X109620Y86793D01*
X109930Y86832D01*
X110292Y86755D01*
X110550Y86487D01*
X110653Y86218D01*
Y85873D01*
G01Y86218D02*
X110808Y86448D01*
X111067Y86640D01*
X111377Y86717D01*
X111687Y86640D01*
X111945Y86448D01*
X112100Y86103D01*
X112048Y85758D01*
X111842Y85413D01*
G01X121342Y61993D02*
X121497Y61763D01*
X121600Y61495D01*
Y61188D01*
X121445Y60843D01*
X121187Y60575D01*
X120877Y60383D01*
X120360Y60230D01*
X119895Y60192D01*
X119430Y60268D01*
X119120Y60383D01*
X118810Y60613D01*
X118603Y60882D01*
X118500Y61150D01*
Y61418D01*
X118603Y61687D01*
X118758Y61917D01*
X118965Y62108D01*
G01X121600Y64250D02*
X118500D01*
G01X121600Y63368D02*
Y65132D01*
G01X118500Y66583D02*
X121600D01*
Y67542D01*
X121445Y67848D01*
X121238Y68040D01*
X120825Y68117D01*
X120412Y68040D01*
X120153Y67810D01*
X119998Y67542D01*
Y66583D01*
G01Y67542D02*
X118500Y68117D01*
G01X121600Y69683D02*
X118500D01*
Y71217D01*
G01X117467Y72400D02*
Y74700D01*
G01X118500Y76650D02*
X118552Y76343D01*
X118758Y76075D01*
X119068Y75845D01*
X119430Y75692D01*
X119843Y75615D01*
X120257D01*
X120670Y75692D01*
X121032Y75845D01*
X121342Y76075D01*
X121548Y76343D01*
X121600Y76650D01*
X121548Y76957D01*
X121342Y77225D01*
X121032Y77455D01*
X120670Y77608D01*
X120257Y77685D01*
X119843D01*
X119430Y77608D01*
X119068Y77455D01*
X118758Y77225D01*
X118552Y76957D01*
X118500Y76650D01*
G01X121600Y78907D02*
X119378D01*
X118913Y79060D01*
X118603Y79367D01*
X118500Y79750D01*
X118603Y80133D01*
X118913Y80440D01*
X119378Y80593D01*
X121600D01*
G01Y82850D02*
X118500D01*
G01X121600Y81968D02*
Y83732D01*
G01X118500Y85950D02*
X121600D01*
X120980Y85490D01*
G01X118500D02*
Y86410D01*
G01X120117Y115626D02*
Y118726D01*
X119158D01*
X118852Y118571D01*
X118660Y118364D01*
X118583Y117951D01*
X118660Y117538D01*
X118890Y117279D01*
X119158Y117124D01*
X120117D01*
G01X119158D02*
X118583Y115626D01*
G01X116978Y118209D02*
X116748Y118519D01*
X116480Y118674D01*
X116173Y118726D01*
X115790Y118623D01*
X115522Y118364D01*
X115445Y118054D01*
X115483Y117744D01*
X115637Y117486D01*
X116403Y116969D01*
X116748Y116608D01*
X116978Y116091D01*
X117055Y115626D01*
X115445D01*
G01X113150Y118726D02*
X113457Y118623D01*
X113687Y118364D01*
X113840Y118054D01*
X113955Y117641D01*
X113993Y117176D01*
X113955Y116711D01*
X113840Y116298D01*
X113687Y115988D01*
X113457Y115729D01*
X113150Y115626D01*
X112843Y115729D01*
X112613Y115988D01*
X112460Y116298D01*
X112345Y116711D01*
X112307Y117176D01*
X112345Y117641D01*
X112460Y118054D01*
X112613Y118364D01*
X112843Y118623D01*
X113150Y118726D01*
G01X110893Y116091D02*
X110663Y115833D01*
X110395Y115678D01*
X110050Y115626D01*
X109705Y115729D01*
X109437Y115936D01*
X109245Y116298D01*
X109207Y116711D01*
X109283Y117124D01*
X109475Y117383D01*
X109743Y117589D01*
X110012Y117641D01*
X110280Y117589D01*
X110625Y117383D01*
X110510Y118726D01*
X109475D01*
G01X139000Y-116950D02*
X141500D01*
X141000Y-117270D01*
G01X139000D02*
Y-116630D01*
G01Y-115283D02*
X141500D01*
Y-114643D01*
X141375Y-114430D01*
X141083Y-114270D01*
X140750Y-114217D01*
X140417Y-114270D01*
X140167Y-114403D01*
X140042Y-114643D01*
Y-115283D01*
G01X139500Y-113137D02*
X139208Y-112977D01*
X139042Y-112763D01*
X139000Y-112523D01*
X139042Y-112310D01*
X139250Y-112097D01*
X139500Y-111963D01*
X139750Y-111937D01*
X140042Y-111990D01*
X140250Y-112177D01*
X140333Y-112363D01*
Y-112603D01*
G01Y-112363D02*
X140458Y-112203D01*
X140667Y-112070D01*
X140917Y-112017D01*
X141167Y-112070D01*
X141375Y-112203D01*
X141500Y-112443D01*
X141458Y-112683D01*
X141292Y-112923D01*
G01X138167Y-111150D02*
Y-109550D01*
G01X140333Y-107937D02*
X140458Y-107830D01*
X140667Y-107750D01*
X140958Y-107697D01*
X141208Y-107750D01*
X141375Y-107857D01*
X141500Y-108043D01*
Y-108763D01*
X139000D01*
Y-107883D01*
X139167Y-107697D01*
X139417Y-107590D01*
X139708Y-107537D01*
X140000Y-107590D01*
X140250Y-107750D01*
X140333Y-107937D01*
Y-108763D01*
G01X130750Y-121617D02*
X128250Y-120950D01*
X130750Y-120283D01*
G01X128250Y-119337D02*
X130750D01*
Y-118803D01*
X130625Y-118590D01*
X130458Y-118430D01*
X130208Y-118297D01*
X129917Y-118190D01*
X129500Y-118163D01*
X129083Y-118190D01*
X128792Y-118297D01*
X128542Y-118430D01*
X128375Y-118590D01*
X128250Y-118803D01*
Y-119337D01*
G01Y-117137D02*
X130750D01*
Y-116603D01*
X130625Y-116390D01*
X130458Y-116230D01*
X130208Y-116097D01*
X129917Y-115990D01*
X129500Y-115963D01*
X129083Y-115990D01*
X128792Y-116097D01*
X128542Y-116230D01*
X128375Y-116390D01*
X128250Y-116603D01*
Y-117137D01*
G01X127417Y-115150D02*
Y-113550D01*
G01X130750Y-112470D02*
Y-111830D01*
G01Y-112150D02*
X128250D01*
G01Y-112470D02*
Y-111830D01*
G01Y-110563D02*
X130750D01*
X128250Y-109337D01*
X130750D01*
G01Y-107750D02*
X128250D01*
G01X130750Y-108363D02*
Y-107137D01*
G01X131842Y10993D02*
X131997Y10763D01*
X132100Y10495D01*
Y10188D01*
X131945Y9843D01*
X131687Y9575D01*
X131377Y9383D01*
X130860Y9230D01*
X130395Y9192D01*
X129930Y9268D01*
X129620Y9383D01*
X129310Y9613D01*
X129103Y9882D01*
X129000Y10150D01*
Y10418D01*
X129103Y10687D01*
X129258Y10917D01*
X129465Y11108D01*
G01X132100Y13250D02*
X129000D01*
G01X132100Y12368D02*
Y14132D01*
G01X129000Y15583D02*
X132100D01*
Y16542D01*
X131945Y16848D01*
X131738Y17040D01*
X131325Y17117D01*
X130912Y17040D01*
X130653Y16810D01*
X130498Y16542D01*
Y15583D01*
G01Y16542D02*
X129000Y17117D01*
G01X132100Y18683D02*
X129000D01*
Y20217D01*
G01X127967Y21400D02*
Y23700D01*
G01X129000Y25650D02*
X129052Y25343D01*
X129258Y25075D01*
X129568Y24845D01*
X129930Y24692D01*
X130343Y24615D01*
X130757D01*
X131170Y24692D01*
X131532Y24845D01*
X131842Y25075D01*
X132048Y25343D01*
X132100Y25650D01*
X132048Y25957D01*
X131842Y26225D01*
X131532Y26455D01*
X131170Y26608D01*
X130757Y26685D01*
X130343D01*
X129930Y26608D01*
X129568Y26455D01*
X129258Y26225D01*
X129052Y25957D01*
X129000Y25650D01*
G01X132100Y27907D02*
X129878D01*
X129413Y28060D01*
X129103Y28367D01*
X129000Y28750D01*
X129103Y29133D01*
X129413Y29440D01*
X129878Y29593D01*
X132100D01*
G01Y31850D02*
X129000D01*
G01X132100Y30968D02*
Y32732D01*
G01Y34950D02*
X131997Y34643D01*
X131738Y34413D01*
X131428Y34260D01*
X131015Y34145D01*
X130550Y34107D01*
X130085Y34145D01*
X129672Y34260D01*
X129362Y34413D01*
X129103Y34643D01*
X129000Y34950D01*
X129103Y35257D01*
X129362Y35487D01*
X129672Y35640D01*
X130085Y35755D01*
X130550Y35793D01*
X131015Y35755D01*
X131428Y35640D01*
X131738Y35487D01*
X131997Y35257D01*
X132100Y34950D01*
G01X140550Y26380D02*
Y27147D01*
X139620D01*
X139310Y26917D01*
X139103Y26648D01*
X139000Y26265D01*
X139103Y25882D01*
X139310Y25613D01*
X139620Y25383D01*
X139982Y25230D01*
X140395Y25153D01*
X140757D01*
X141067Y25230D01*
X141428Y25383D01*
X141738Y25613D01*
X141945Y25843D01*
X142100Y26150D01*
Y26418D01*
X141997Y26725D01*
X141790Y26955D01*
G01X139000Y28483D02*
X142100D01*
Y29403D01*
X141945Y29710D01*
X141583Y29940D01*
X141170Y30017D01*
X140757Y29940D01*
X140447Y29748D01*
X140292Y29403D01*
Y28483D01*
G01X139000Y32350D02*
X139052Y32043D01*
X139258Y31775D01*
X139568Y31545D01*
X139930Y31392D01*
X140343Y31315D01*
X140757D01*
X141170Y31392D01*
X141532Y31545D01*
X141842Y31775D01*
X142048Y32043D01*
X142100Y32350D01*
X142048Y32657D01*
X141842Y32925D01*
X141532Y33155D01*
X141170Y33308D01*
X140757Y33385D01*
X140343D01*
X139930Y33308D01*
X139568Y33155D01*
X139258Y32925D01*
X139052Y32657D01*
X139000Y32350D01*
G01Y35450D02*
X142100D01*
X141480Y34990D01*
G01X139000D02*
Y35910D01*
G01X129550Y61380D02*
Y62147D01*
X128620D01*
X128310Y61917D01*
X128103Y61648D01*
X128000Y61265D01*
X128103Y60882D01*
X128310Y60613D01*
X128620Y60383D01*
X128982Y60230D01*
X129395Y60153D01*
X129757D01*
X130067Y60230D01*
X130428Y60383D01*
X130738Y60613D01*
X130945Y60843D01*
X131100Y61150D01*
Y61418D01*
X130997Y61725D01*
X130790Y61955D01*
G01X128000Y63483D02*
X131100D01*
Y64403D01*
X130945Y64710D01*
X130583Y64940D01*
X130170Y65017D01*
X129757Y64940D01*
X129447Y64748D01*
X129292Y64403D01*
Y63483D01*
G01X128000Y67350D02*
X128052Y67043D01*
X128258Y66775D01*
X128568Y66545D01*
X128930Y66392D01*
X129343Y66315D01*
X129757D01*
X130170Y66392D01*
X130532Y66545D01*
X130842Y66775D01*
X131048Y67043D01*
X131100Y67350D01*
X131048Y67657D01*
X130842Y67925D01*
X130532Y68155D01*
X130170Y68308D01*
X129757Y68385D01*
X129343D01*
X128930Y68308D01*
X128568Y68155D01*
X128258Y67925D01*
X128052Y67657D01*
X128000Y67350D01*
G01X131100Y70450D02*
X130997Y70143D01*
X130738Y69913D01*
X130428Y69760D01*
X130015Y69645D01*
X129550Y69607D01*
X129085Y69645D01*
X128672Y69760D01*
X128362Y69913D01*
X128103Y70143D01*
X128000Y70450D01*
X128103Y70757D01*
X128362Y70987D01*
X128672Y71140D01*
X129085Y71255D01*
X129550Y71293D01*
X130015Y71255D01*
X130428Y71140D01*
X130738Y70987D01*
X130997Y70757D01*
X131100Y70450D01*
G01X139550Y61380D02*
Y62147D01*
X138620D01*
X138310Y61917D01*
X138103Y61648D01*
X138000Y61265D01*
X138103Y60882D01*
X138310Y60613D01*
X138620Y60383D01*
X138982Y60230D01*
X139395Y60153D01*
X139757D01*
X140067Y60230D01*
X140428Y60383D01*
X140738Y60613D01*
X140945Y60843D01*
X141100Y61150D01*
Y61418D01*
X140997Y61725D01*
X140790Y61955D01*
G01X138000Y63483D02*
X141100D01*
Y64403D01*
X140945Y64710D01*
X140583Y64940D01*
X140170Y65017D01*
X139757Y64940D01*
X139447Y64748D01*
X139292Y64403D01*
Y63483D01*
G01X138000Y67350D02*
X138052Y67043D01*
X138258Y66775D01*
X138568Y66545D01*
X138930Y66392D01*
X139343Y66315D01*
X139757D01*
X140170Y66392D01*
X140532Y66545D01*
X140842Y66775D01*
X141048Y67043D01*
X141100Y67350D01*
X141048Y67657D01*
X140842Y67925D01*
X140532Y68155D01*
X140170Y68308D01*
X139757Y68385D01*
X139343D01*
X138930Y68308D01*
X138568Y68155D01*
X138258Y67925D01*
X138052Y67657D01*
X138000Y67350D01*
G01X140583Y69722D02*
X140893Y69952D01*
X141048Y70220D01*
X141100Y70527D01*
X140997Y70910D01*
X140738Y71178D01*
X140428Y71255D01*
X140118Y71217D01*
X139860Y71063D01*
X139343Y70297D01*
X138982Y69952D01*
X138465Y69722D01*
X138000Y69645D01*
Y71255D01*
G01X153050Y-116767D02*
X152758Y-116607D01*
X152592Y-116393D01*
X152550Y-116153D01*
X152592Y-115940D01*
X152800Y-115727D01*
X153050Y-115593D01*
X153300Y-115567D01*
X153592Y-115620D01*
X153800Y-115807D01*
X153883Y-115993D01*
Y-116233D01*
G01Y-115993D02*
X154008Y-115833D01*
X154217Y-115700D01*
X154467Y-115647D01*
X154717Y-115700D01*
X154925Y-115833D01*
X155050Y-116073D01*
X155008Y-116313D01*
X154842Y-116553D01*
G01X152550Y-114513D02*
X155050D01*
Y-113873D01*
X154925Y-113660D01*
X154633Y-113500D01*
X154300Y-113447D01*
X153967Y-113500D01*
X153717Y-113633D01*
X153592Y-113873D01*
Y-114513D01*
G01X153050Y-112367D02*
X152758Y-112207D01*
X152592Y-111993D01*
X152550Y-111753D01*
X152592Y-111540D01*
X152800Y-111327D01*
X153050Y-111193D01*
X153300Y-111167D01*
X153592Y-111220D01*
X153800Y-111407D01*
X153883Y-111593D01*
Y-111833D01*
G01Y-111593D02*
X154008Y-111433D01*
X154217Y-111300D01*
X154467Y-111247D01*
X154717Y-111300D01*
X154925Y-111433D01*
X155050Y-111673D01*
X155008Y-111913D01*
X154842Y-112153D01*
G01X155050Y-110247D02*
X152550Y-109580D01*
X155050Y-108913D01*
G01X163860Y-113780D02*
Y-113247D01*
X163110D01*
X162860Y-113407D01*
X162693Y-113593D01*
X162610Y-113860D01*
X162693Y-114127D01*
X162860Y-114313D01*
X163110Y-114473D01*
X163402Y-114580D01*
X163735Y-114633D01*
X164027D01*
X164277Y-114580D01*
X164568Y-114473D01*
X164818Y-114313D01*
X164985Y-114153D01*
X165110Y-113940D01*
Y-113753D01*
X165027Y-113540D01*
X164860Y-113380D01*
G01X162610Y-112353D02*
X165110D01*
X162610Y-111127D01*
X165110D01*
G01X162610Y-110127D02*
X165110D01*
Y-109593D01*
X164985Y-109380D01*
X164818Y-109220D01*
X164568Y-109087D01*
X164277Y-108980D01*
X163860Y-108953D01*
X163443Y-108980D01*
X163152Y-109087D01*
X162902Y-109220D01*
X162735Y-109380D01*
X162610Y-109593D01*
Y-110127D01*
G01X181533Y-38416D02*
Y-35916D01*
X180867D01*
X180653Y-36041D01*
X180520Y-36208D01*
X180467Y-36541D01*
X180520Y-36874D01*
X180680Y-37083D01*
X180867Y-37208D01*
X181533D01*
G01X180867D02*
X180467Y-38416D01*
G01X179360D02*
X178240Y-35916D01*
G01X179360D02*
X178240Y-38416D01*
G01X177400Y-39249D02*
X175800D01*
G01X174987Y-38416D02*
Y-35916D01*
X174453D01*
X174240Y-36041D01*
X174080Y-36208D01*
X173947Y-36458D01*
X173840Y-36749D01*
X173813Y-37166D01*
X173840Y-37583D01*
X173947Y-37874D01*
X174080Y-38124D01*
X174240Y-38291D01*
X174453Y-38416D01*
X174987D01*
G01X172787Y-38041D02*
X172627Y-38249D01*
X172440Y-38374D01*
X172200Y-38416D01*
X171960Y-38333D01*
X171773Y-38166D01*
X171640Y-37874D01*
X171613Y-37541D01*
X171667Y-37208D01*
X171800Y-36999D01*
X171987Y-36833D01*
X172173Y-36791D01*
X172360Y-36833D01*
X172600Y-36999D01*
X172520Y-35916D01*
X171800D01*
G01X170800Y-39249D02*
X169200D01*
G01X168333Y-38416D02*
Y-35916D01*
X167693D01*
X167480Y-36041D01*
X167320Y-36333D01*
X167267Y-36666D01*
X167320Y-36999D01*
X167453Y-37249D01*
X167693Y-37374D01*
X168333D01*
G01X181283Y-34166D02*
Y-31666D01*
X180617D01*
X180403Y-31791D01*
X180270Y-31958D01*
X180217Y-32291D01*
X180270Y-32624D01*
X180430Y-32833D01*
X180617Y-32958D01*
X181283D01*
G01X180617D02*
X180217Y-34166D01*
G01X179110D02*
X177990Y-31666D01*
G01X179110D02*
X177990Y-34166D01*
G01X177150Y-34999D02*
X175550D01*
G01X174737Y-34166D02*
Y-31666D01*
X174203D01*
X173990Y-31791D01*
X173830Y-31958D01*
X173697Y-32208D01*
X173590Y-32499D01*
X173563Y-32916D01*
X173590Y-33333D01*
X173697Y-33624D01*
X173830Y-33874D01*
X173990Y-34041D01*
X174203Y-34166D01*
X174737D01*
G01X172537Y-33791D02*
X172377Y-33999D01*
X172190Y-34124D01*
X171950Y-34166D01*
X171710Y-34083D01*
X171523Y-33916D01*
X171390Y-33624D01*
X171363Y-33291D01*
X171417Y-32958D01*
X171550Y-32749D01*
X171737Y-32583D01*
X171923Y-32541D01*
X172110Y-32583D01*
X172350Y-32749D01*
X172270Y-31666D01*
X171550D01*
G01X170550Y-34999D02*
X168950D01*
G01X168163Y-34166D02*
Y-31666D01*
X166937Y-34166D01*
Y-31666D01*
G01X161842Y13993D02*
X161997Y13763D01*
X162100Y13495D01*
Y13188D01*
X161945Y12843D01*
X161687Y12575D01*
X161377Y12383D01*
X160860Y12230D01*
X160395Y12192D01*
X159930Y12268D01*
X159620Y12383D01*
X159310Y12613D01*
X159103Y12882D01*
X159000Y13150D01*
Y13418D01*
X159103Y13687D01*
X159258Y13917D01*
X159465Y14108D01*
G01X162100Y16250D02*
X159000D01*
G01X162100Y15368D02*
Y17132D01*
G01X159000Y18583D02*
X162100D01*
Y19542D01*
X161945Y19848D01*
X161738Y20040D01*
X161325Y20117D01*
X160912Y20040D01*
X160653Y19810D01*
X160498Y19542D01*
Y18583D01*
G01Y19542D02*
X159000Y20117D01*
G01X162100Y21683D02*
X159000D01*
Y23217D01*
G01X157967Y24400D02*
Y26700D01*
G01X162100Y28190D02*
Y29110D01*
G01Y28650D02*
X159000D01*
G01Y28190D02*
Y29110D01*
G01Y30868D02*
X162100D01*
X159000Y32632D01*
X162100D01*
G01X159620Y34007D02*
X159258Y34237D01*
X159052Y34543D01*
X159000Y34888D01*
X159052Y35195D01*
X159310Y35502D01*
X159620Y35693D01*
X159930Y35732D01*
X160292Y35655D01*
X160550Y35387D01*
X160653Y35118D01*
Y34773D01*
G01Y35118D02*
X160808Y35348D01*
X161067Y35540D01*
X161377Y35617D01*
X161687Y35540D01*
X161945Y35348D01*
X162100Y35003D01*
X162048Y34658D01*
X161842Y34313D01*
G01X150550Y26380D02*
Y27147D01*
X149620D01*
X149310Y26917D01*
X149103Y26648D01*
X149000Y26265D01*
X149103Y25882D01*
X149310Y25613D01*
X149620Y25383D01*
X149982Y25230D01*
X150395Y25153D01*
X150757D01*
X151067Y25230D01*
X151428Y25383D01*
X151738Y25613D01*
X151945Y25843D01*
X152100Y26150D01*
Y26418D01*
X151997Y26725D01*
X151790Y26955D01*
G01X149000Y28483D02*
X152100D01*
Y29403D01*
X151945Y29710D01*
X151583Y29940D01*
X151170Y30017D01*
X150757Y29940D01*
X150447Y29748D01*
X150292Y29403D01*
Y28483D01*
G01X149000Y32350D02*
X149052Y32043D01*
X149258Y31775D01*
X149568Y31545D01*
X149930Y31392D01*
X150343Y31315D01*
X150757D01*
X151170Y31392D01*
X151532Y31545D01*
X151842Y31775D01*
X152048Y32043D01*
X152100Y32350D01*
X152048Y32657D01*
X151842Y32925D01*
X151532Y33155D01*
X151170Y33308D01*
X150757Y33385D01*
X150343D01*
X149930Y33308D01*
X149568Y33155D01*
X149258Y32925D01*
X149052Y32657D01*
X149000Y32350D01*
G01X149620Y34607D02*
X149258Y34837D01*
X149052Y35143D01*
X149000Y35488D01*
X149052Y35795D01*
X149310Y36102D01*
X149620Y36293D01*
X149930Y36332D01*
X150292Y36255D01*
X150550Y35987D01*
X150653Y35718D01*
Y35373D01*
G01Y35718D02*
X150808Y35948D01*
X151067Y36140D01*
X151377Y36217D01*
X151687Y36140D01*
X151945Y35948D01*
X152100Y35603D01*
X152048Y35258D01*
X151842Y34913D01*
G01X150842Y61993D02*
X150997Y61763D01*
X151100Y61495D01*
Y61188D01*
X150945Y60843D01*
X150687Y60575D01*
X150377Y60383D01*
X149860Y60230D01*
X149395Y60192D01*
X148930Y60268D01*
X148620Y60383D01*
X148310Y60613D01*
X148103Y60882D01*
X148000Y61150D01*
Y61418D01*
X148103Y61687D01*
X148258Y61917D01*
X148465Y62108D01*
G01X151100Y63483D02*
X148000D01*
Y65017D01*
G01Y66507D02*
X151100D01*
G01Y67963D02*
X149188Y66507D01*
G01X148000Y68193D02*
X150067Y67158D01*
G01X146967Y69300D02*
Y71600D01*
G01X148000Y73550D02*
X148052Y73243D01*
X148258Y72975D01*
X148568Y72745D01*
X148930Y72592D01*
X149343Y72515D01*
X149757D01*
X150170Y72592D01*
X150532Y72745D01*
X150842Y72975D01*
X151048Y73243D01*
X151100Y73550D01*
X151048Y73857D01*
X150842Y74125D01*
X150532Y74355D01*
X150170Y74508D01*
X149757Y74585D01*
X149343D01*
X148930Y74508D01*
X148568Y74355D01*
X148258Y74125D01*
X148052Y73857D01*
X148000Y73550D01*
G01X151100Y75807D02*
X148878D01*
X148413Y75960D01*
X148103Y76267D01*
X148000Y76650D01*
X148103Y77033D01*
X148413Y77340D01*
X148878Y77493D01*
X151100D01*
G01Y79750D02*
X148000D01*
G01X151100Y78868D02*
Y80632D01*
G01X160842Y61993D02*
X160997Y61763D01*
X161100Y61495D01*
Y61188D01*
X160945Y60843D01*
X160687Y60575D01*
X160377Y60383D01*
X159860Y60230D01*
X159395Y60192D01*
X158930Y60268D01*
X158620Y60383D01*
X158310Y60613D01*
X158103Y60882D01*
X158000Y61150D01*
Y61418D01*
X158103Y61687D01*
X158258Y61917D01*
X158465Y62108D01*
G01X161100Y64250D02*
X158000D01*
G01X161100Y63368D02*
Y65132D01*
G01X158000Y66583D02*
X161100D01*
Y67542D01*
X160945Y67848D01*
X160738Y68040D01*
X160325Y68117D01*
X159912Y68040D01*
X159653Y67810D01*
X159498Y67542D01*
Y66583D01*
G01Y67542D02*
X158000Y68117D01*
G01X161100Y69683D02*
X158000D01*
Y71217D01*
G01X156967Y72400D02*
Y74700D01*
G01X161100Y76190D02*
Y77110D01*
G01Y76650D02*
X158000D01*
G01Y76190D02*
Y77110D01*
G01Y78868D02*
X161100D01*
X158000Y80632D01*
X161100D01*
G01X160583Y82122D02*
X160893Y82352D01*
X161048Y82620D01*
X161100Y82927D01*
X160997Y83310D01*
X160738Y83578D01*
X160428Y83655D01*
X160118Y83617D01*
X159860Y83463D01*
X159343Y82697D01*
X158982Y82352D01*
X158465Y82122D01*
X158000Y82045D01*
Y83655D01*
G01X170842Y61993D02*
X170997Y61763D01*
X171100Y61495D01*
Y61188D01*
X170945Y60843D01*
X170687Y60575D01*
X170377Y60383D01*
X169860Y60230D01*
X169395Y60192D01*
X168930Y60268D01*
X168620Y60383D01*
X168310Y60613D01*
X168103Y60882D01*
X168000Y61150D01*
Y61418D01*
X168103Y61687D01*
X168258Y61917D01*
X168465Y62108D01*
G01X171100Y64250D02*
X168000D01*
G01X171100Y63368D02*
Y65132D01*
G01X168000Y66583D02*
X171100D01*
Y67542D01*
X170945Y67848D01*
X170738Y68040D01*
X170325Y68117D01*
X169912Y68040D01*
X169653Y67810D01*
X169498Y67542D01*
Y66583D01*
G01Y67542D02*
X168000Y68117D01*
G01X171100Y69683D02*
X168000D01*
Y71217D01*
G01X166967Y72400D02*
Y74700D01*
G01X171100Y76190D02*
Y77110D01*
G01Y76650D02*
X168000D01*
G01Y76190D02*
Y77110D01*
G01Y78868D02*
X171100D01*
X168000Y80632D01*
X171100D01*
G01Y82850D02*
X170997Y82543D01*
X170738Y82313D01*
X170428Y82160D01*
X170015Y82045D01*
X169550Y82007D01*
X169085Y82045D01*
X168672Y82160D01*
X168362Y82313D01*
X168103Y82543D01*
X168000Y82850D01*
X168103Y83157D01*
X168362Y83387D01*
X168672Y83540D01*
X169085Y83655D01*
X169550Y83693D01*
X170015Y83655D01*
X170428Y83540D01*
X170738Y83387D01*
X170997Y83157D01*
X171100Y82850D01*
G01X172680Y-114250D02*
X175180D01*
X174680Y-114570D01*
G01X172680D02*
Y-113930D01*
G01X174763Y-112557D02*
X175013Y-112397D01*
X175138Y-112210D01*
X175180Y-111997D01*
X175097Y-111730D01*
X174888Y-111543D01*
X174638Y-111490D01*
X174388Y-111517D01*
X174180Y-111623D01*
X173763Y-112157D01*
X173472Y-112397D01*
X173055Y-112557D01*
X172680Y-112610D01*
Y-111490D01*
G01X175180Y-110517D02*
X172680Y-109850D01*
X175180Y-109183D01*
G01X199787Y-72750D02*
Y-70250D01*
X199253D01*
X199040Y-70375D01*
X198880Y-70542D01*
X198747Y-70792D01*
X198640Y-71083D01*
X198613Y-71500D01*
X198640Y-71917D01*
X198747Y-72208D01*
X198880Y-72458D01*
X199040Y-72625D01*
X199253Y-72750D01*
X199787D01*
G01X197667D02*
X197000Y-70250D01*
X196333Y-72750D01*
G01X196573Y-71875D02*
X197427D01*
G01X194800Y-70250D02*
Y-72750D01*
G01X195413Y-70250D02*
X194187D01*
G01X193267Y-72750D02*
X192600Y-70250D01*
X191933Y-72750D01*
G01X192173Y-71875D02*
X193027D01*
G01X191200Y-73583D02*
X189600D01*
G01X187613Y-70458D02*
X187773Y-70333D01*
X187960Y-70250D01*
X188173D01*
X188413Y-70375D01*
X188600Y-70583D01*
X188733Y-70833D01*
X188840Y-71250D01*
X188867Y-71625D01*
X188813Y-72000D01*
X188733Y-72250D01*
X188573Y-72500D01*
X188387Y-72667D01*
X188200Y-72750D01*
X188013D01*
X187827Y-72667D01*
X187667Y-72542D01*
X187533Y-72375D01*
G01X186533Y-70250D02*
Y-72750D01*
X185467D01*
G01X184387D02*
Y-70250D01*
G01X183373D02*
X184387Y-71792D01*
G01X183213Y-72750D02*
X183933Y-71083D01*
G01X182400Y-73583D02*
X180800D01*
G01X180013Y-72750D02*
Y-70250D01*
X178787Y-72750D01*
Y-70250D01*
G01X199937Y-75916D02*
Y-73416D01*
X199403D01*
X199190Y-73541D01*
X199030Y-73708D01*
X198897Y-73958D01*
X198790Y-74249D01*
X198763Y-74666D01*
X198790Y-75083D01*
X198897Y-75374D01*
X199030Y-75624D01*
X199190Y-75791D01*
X199403Y-75916D01*
X199937D01*
G01X197817D02*
X197150Y-73416D01*
X196483Y-75916D01*
G01X196723Y-75041D02*
X197577D01*
G01X194950Y-73416D02*
Y-75916D01*
G01X195563Y-73416D02*
X194337D01*
G01X193417Y-75916D02*
X192750Y-73416D01*
X192083Y-75916D01*
G01X192323Y-75041D02*
X193177D01*
G01X191350Y-76749D02*
X189750D01*
G01X187763Y-73624D02*
X187923Y-73499D01*
X188110Y-73416D01*
X188323D01*
X188563Y-73541D01*
X188750Y-73749D01*
X188883Y-73999D01*
X188990Y-74416D01*
X189017Y-74791D01*
X188963Y-75166D01*
X188883Y-75416D01*
X188723Y-75666D01*
X188537Y-75833D01*
X188350Y-75916D01*
X188163D01*
X187977Y-75833D01*
X187817Y-75708D01*
X187683Y-75541D01*
G01X186683Y-73416D02*
Y-75916D01*
X185617D01*
G01X184537D02*
Y-73416D01*
G01X183523D02*
X184537Y-74958D01*
G01X183363Y-75916D02*
X184083Y-74249D01*
G01X182550Y-76749D02*
X180950D01*
G01X180083Y-75916D02*
Y-73416D01*
X179443D01*
X179230Y-73541D01*
X179070Y-73833D01*
X179017Y-74166D01*
X179070Y-74499D01*
X179203Y-74749D01*
X179443Y-74874D01*
X180083D01*
G01X171842Y13993D02*
X171997Y13763D01*
X172100Y13495D01*
Y13188D01*
X171945Y12843D01*
X171687Y12575D01*
X171377Y12383D01*
X170860Y12230D01*
X170395Y12192D01*
X169930Y12268D01*
X169620Y12383D01*
X169310Y12613D01*
X169103Y12882D01*
X169000Y13150D01*
Y13418D01*
X169103Y13687D01*
X169258Y13917D01*
X169465Y14108D01*
G01X172100Y16250D02*
X169000D01*
G01X172100Y15368D02*
Y17132D01*
G01X169000Y18583D02*
X172100D01*
Y19542D01*
X171945Y19848D01*
X171738Y20040D01*
X171325Y20117D01*
X170912Y20040D01*
X170653Y19810D01*
X170498Y19542D01*
Y18583D01*
G01Y19542D02*
X169000Y20117D01*
G01X172100Y21683D02*
X169000D01*
Y23217D01*
G01X167967Y24400D02*
Y26700D01*
G01X172100Y28190D02*
Y29110D01*
G01Y28650D02*
X169000D01*
G01Y28190D02*
Y29110D01*
G01Y30868D02*
X172100D01*
X169000Y32632D01*
X172100D01*
G01X169000Y34850D02*
X172100D01*
X171480Y34390D01*
G01X169000D02*
Y35310D01*
G01X181278Y54515D02*
X181048Y54825D01*
X180780Y54980D01*
X180473Y55032D01*
X180090Y54929D01*
X179822Y54670D01*
X179745Y54360D01*
X179783Y54050D01*
X179937Y53792D01*
X180703Y53275D01*
X181048Y52914D01*
X181278Y52397D01*
X181355Y51932D01*
X179745D01*
G01X177450Y55032D02*
X177757Y54929D01*
X177987Y54670D01*
X178140Y54360D01*
X178255Y53947D01*
X178293Y53482D01*
X178255Y53017D01*
X178140Y52604D01*
X177987Y52294D01*
X177757Y52035D01*
X177450Y51932D01*
X177143Y52035D01*
X176913Y52294D01*
X176760Y52604D01*
X176645Y53017D01*
X176607Y53482D01*
X176645Y53947D01*
X176760Y54360D01*
X176913Y54670D01*
X177143Y54929D01*
X177450Y55032D01*
G01X180550Y42932D02*
Y46032D01*
X181010Y45412D01*
G01Y42932D02*
X180090D01*
G01X178102Y43294D02*
X177833Y43035D01*
X177527Y42932D01*
X177220Y43035D01*
X176952Y43345D01*
X176760Y43810D01*
X176683Y44275D01*
Y44844D01*
X176760Y45309D01*
X176952Y45722D01*
X177182Y45929D01*
X177450Y46032D01*
X177757Y45929D01*
X177987Y45722D01*
X178140Y45412D01*
X178217Y44999D01*
X178140Y44637D01*
X177948Y44275D01*
X177718Y44069D01*
X177450Y44017D01*
X177143Y44120D01*
X176913Y44379D01*
X176683Y44844D01*
G01X198750Y-47457D02*
X201250D01*
Y-46443D01*
G01X200042Y-46817D02*
Y-47457D01*
G01X200083Y-44537D02*
X200208Y-44430D01*
X200417Y-44350D01*
X200708Y-44297D01*
X200958Y-44350D01*
X201125Y-44457D01*
X201250Y-44643D01*
Y-45363D01*
X198750D01*
Y-44483D01*
X198917Y-44297D01*
X199167Y-44190D01*
X199458Y-44137D01*
X199750Y-44190D01*
X200000Y-44350D01*
X200083Y-44537D01*
Y-45363D01*
G01X197917Y-43350D02*
Y-41750D01*
G01X201042Y-39763D02*
X201167Y-39923D01*
X201250Y-40110D01*
Y-40323D01*
X201125Y-40563D01*
X200917Y-40750D01*
X200667Y-40883D01*
X200250Y-40990D01*
X199875Y-41017D01*
X199500Y-40963D01*
X199250Y-40883D01*
X199000Y-40723D01*
X198833Y-40537D01*
X198750Y-40350D01*
Y-40163D01*
X198833Y-39977D01*
X198958Y-39817D01*
X199125Y-39683D01*
G01X201250Y-38683D02*
X198750D01*
Y-37617D01*
G01Y-36537D02*
X201250D01*
G01Y-35523D02*
X199708Y-36537D01*
G01X198750Y-35363D02*
X200417Y-36083D01*
G01X197917Y-34550D02*
Y-32950D01*
G01X198750Y-32163D02*
X201250D01*
X198750Y-30937D01*
X201250D01*
G01X205000Y-1950D02*
X202500D01*
G01X205000Y-2563D02*
Y-1337D01*
G01X202500Y-310D02*
X205000Y810D01*
G01Y-310D02*
X202500Y810D01*
G01X201667Y1650D02*
Y3250D01*
G01X202500Y4063D02*
X205000D01*
Y4597D01*
X204875Y4810D01*
X204708Y4970D01*
X204458Y5103D01*
X204167Y5210D01*
X203750Y5237D01*
X203333Y5210D01*
X203042Y5103D01*
X202792Y4970D01*
X202625Y4810D01*
X202500Y4597D01*
Y4063D01*
G01X202875Y6263D02*
X202667Y6423D01*
X202542Y6610D01*
X202500Y6850D01*
X202583Y7090D01*
X202750Y7277D01*
X203042Y7410D01*
X203375Y7437D01*
X203708Y7383D01*
X203917Y7250D01*
X204083Y7063D01*
X204125Y6877D01*
X204083Y6690D01*
X203917Y6450D01*
X205000Y6530D01*
Y7250D01*
G01X201667Y8250D02*
Y9850D01*
G01X202500Y10717D02*
X205000D01*
Y11357D01*
X204875Y11570D01*
X204583Y11730D01*
X204250Y11783D01*
X203917Y11730D01*
X203667Y11597D01*
X203542Y11357D01*
Y10717D01*
G01X200500Y-1950D02*
X198000D01*
G01X200500Y-2563D02*
Y-1337D01*
G01X198000Y-310D02*
X200500Y810D01*
G01Y-310D02*
X198000Y810D01*
G01X197167Y1650D02*
Y3250D01*
G01X198000Y4063D02*
X200500D01*
Y4597D01*
X200375Y4810D01*
X200208Y4970D01*
X199958Y5103D01*
X199667Y5210D01*
X199250Y5237D01*
X198833Y5210D01*
X198542Y5103D01*
X198292Y4970D01*
X198125Y4810D01*
X198000Y4597D01*
Y4063D01*
G01X198375Y6263D02*
X198167Y6423D01*
X198042Y6610D01*
X198000Y6850D01*
X198083Y7090D01*
X198250Y7277D01*
X198542Y7410D01*
X198875Y7437D01*
X199208Y7383D01*
X199417Y7250D01*
X199583Y7063D01*
X199625Y6877D01*
X199583Y6690D01*
X199417Y6450D01*
X200500Y6530D01*
Y7250D01*
G01X197167Y8250D02*
Y9850D01*
G01X198000Y10637D02*
X200500D01*
X198000Y11863D01*
X200500D01*
G01X223000Y-83983D02*
X225500D01*
Y-83317D01*
X225375Y-83103D01*
X225208Y-82970D01*
X224875Y-82917D01*
X224542Y-82970D01*
X224333Y-83130D01*
X224208Y-83317D01*
Y-83983D01*
G01Y-83317D02*
X223000Y-82917D01*
G01Y-81810D02*
X225500Y-80690D01*
G01Y-81810D02*
X223000Y-80690D01*
G01X222167Y-79850D02*
Y-78250D01*
G01X223000Y-77357D02*
X225500D01*
Y-76343D01*
G01X224292Y-76717D02*
Y-77357D01*
G01X223000Y-75183D02*
X225500D01*
Y-74517D01*
X225375Y-74303D01*
X225208Y-74170D01*
X224875Y-74117D01*
X224542Y-74170D01*
X224333Y-74330D01*
X224208Y-74517D01*
Y-75183D01*
G01Y-74517D02*
X223000Y-74117D01*
G01Y-73117D02*
X225500Y-72450D01*
X223000Y-71783D01*
G01X223875Y-72023D02*
Y-72877D01*
G01X223000Y-70943D02*
X225500D01*
X223417Y-70250D01*
X225500Y-69557D01*
X223000D01*
G01Y-67517D02*
Y-68583D01*
X225500D01*
Y-67517D01*
G01X224292Y-67943D02*
Y-68583D01*
G01X222167Y-66650D02*
Y-65050D01*
G01X223000Y-64263D02*
X225500D01*
X223000Y-63037D01*
X225500D01*
G01X217750Y-83983D02*
X220250D01*
Y-83317D01*
X220125Y-83103D01*
X219958Y-82970D01*
X219625Y-82917D01*
X219292Y-82970D01*
X219083Y-83130D01*
X218958Y-83317D01*
Y-83983D01*
G01Y-83317D02*
X217750Y-82917D01*
G01Y-81810D02*
X220250Y-80690D01*
G01Y-81810D02*
X217750Y-80690D01*
G01X216917Y-79850D02*
Y-78250D01*
G01X217750Y-77357D02*
X220250D01*
Y-76343D01*
G01X219042Y-76717D02*
Y-77357D01*
G01X217750Y-75183D02*
X220250D01*
Y-74517D01*
X220125Y-74303D01*
X219958Y-74170D01*
X219625Y-74117D01*
X219292Y-74170D01*
X219083Y-74330D01*
X218958Y-74517D01*
Y-75183D01*
G01Y-74517D02*
X217750Y-74117D01*
G01Y-73117D02*
X220250Y-72450D01*
X217750Y-71783D01*
G01X218625Y-72023D02*
Y-72877D01*
G01X217750Y-70943D02*
X220250D01*
X218167Y-70250D01*
X220250Y-69557D01*
X217750D01*
G01Y-67517D02*
Y-68583D01*
X220250D01*
Y-67517D01*
G01X219042Y-67943D02*
Y-68583D01*
G01X216917Y-66650D02*
Y-65050D01*
G01X217750Y-64183D02*
X220250D01*
Y-63543D01*
X220125Y-63330D01*
X219833Y-63170D01*
X219500Y-63117D01*
X219167Y-63170D01*
X218917Y-63303D01*
X218792Y-63543D01*
Y-64183D01*
G01X211500Y-48207D02*
X214000D01*
Y-47193D01*
G01X212792Y-47567D02*
Y-48207D01*
G01X212833Y-45287D02*
X212958Y-45180D01*
X213167Y-45100D01*
X213458Y-45047D01*
X213708Y-45100D01*
X213875Y-45207D01*
X214000Y-45393D01*
Y-46113D01*
X211500D01*
Y-45233D01*
X211667Y-45047D01*
X211917Y-44940D01*
X212208Y-44887D01*
X212500Y-44940D01*
X212750Y-45100D01*
X212833Y-45287D01*
Y-46113D01*
G01X210667Y-44100D02*
Y-42500D01*
G01X213792Y-40513D02*
X213917Y-40673D01*
X214000Y-40860D01*
Y-41073D01*
X213875Y-41313D01*
X213667Y-41500D01*
X213417Y-41633D01*
X213000Y-41740D01*
X212625Y-41767D01*
X212250Y-41713D01*
X212000Y-41633D01*
X211750Y-41473D01*
X211583Y-41287D01*
X211500Y-41100D01*
Y-40913D01*
X211583Y-40727D01*
X211708Y-40567D01*
X211875Y-40433D01*
G01X214000Y-39433D02*
X211500D01*
Y-38367D01*
G01Y-37287D02*
X214000D01*
G01Y-36273D02*
X212458Y-37287D01*
G01X211500Y-36113D02*
X213167Y-36833D01*
G01X210667Y-35300D02*
Y-33700D01*
G01X211500Y-32833D02*
X214000D01*
Y-32193D01*
X213875Y-31980D01*
X213583Y-31820D01*
X213250Y-31767D01*
X212917Y-31820D01*
X212667Y-31953D01*
X212542Y-32193D01*
Y-32833D01*
G01X221250Y-27700D02*
X218750D01*
G01X221250Y-28313D02*
Y-27087D01*
G01X218750Y-26060D02*
X221250Y-24940D01*
G01Y-26060D02*
X218750Y-24940D01*
G01X217917Y-24100D02*
Y-22500D01*
G01X218750Y-21607D02*
X221250D01*
Y-20593D01*
G01X220042Y-20967D02*
Y-21607D01*
G01X218750Y-19433D02*
X221250D01*
Y-18767D01*
X221125Y-18553D01*
X220958Y-18420D01*
X220625Y-18367D01*
X220292Y-18420D01*
X220083Y-18580D01*
X219958Y-18767D01*
Y-19433D01*
G01Y-18767D02*
X218750Y-18367D01*
G01Y-17367D02*
X221250Y-16700D01*
X218750Y-16033D01*
G01X219625Y-16273D02*
Y-17127D01*
G01X218750Y-15193D02*
X221250D01*
X219167Y-14500D01*
X221250Y-13807D01*
X218750D01*
G01Y-11767D02*
Y-12833D01*
X221250D01*
Y-11767D01*
G01X220042Y-12193D02*
Y-12833D01*
G01X217917Y-10900D02*
Y-9300D01*
G01X218750Y-8513D02*
X221250D01*
X218750Y-7287D01*
X221250D01*
G01X226500Y-27700D02*
X224000D01*
G01X226500Y-28313D02*
Y-27087D01*
G01X224000Y-26060D02*
X226500Y-24940D01*
G01Y-26060D02*
X224000Y-24940D01*
G01X223167Y-24100D02*
Y-22500D01*
G01X224000Y-21607D02*
X226500D01*
Y-20593D01*
G01X225292Y-20967D02*
Y-21607D01*
G01X224000Y-19433D02*
X226500D01*
Y-18767D01*
X226375Y-18553D01*
X226208Y-18420D01*
X225875Y-18367D01*
X225542Y-18420D01*
X225333Y-18580D01*
X225208Y-18767D01*
Y-19433D01*
G01Y-18767D02*
X224000Y-18367D01*
G01Y-17367D02*
X226500Y-16700D01*
X224000Y-16033D01*
G01X224875Y-16273D02*
Y-17127D01*
G01X224000Y-15193D02*
X226500D01*
X224417Y-14500D01*
X226500Y-13807D01*
X224000D01*
G01Y-11767D02*
Y-12833D01*
X226500D01*
Y-11767D01*
G01X225292Y-12193D02*
Y-12833D01*
G01X223167Y-10900D02*
Y-9300D01*
G01X224000Y-8433D02*
X226500D01*
Y-7793D01*
X226375Y-7580D01*
X226083Y-7420D01*
X225750Y-7367D01*
X225417Y-7420D01*
X225167Y-7553D01*
X225042Y-7793D01*
Y-8433D01*
G01X223083Y34250D02*
Y36750D01*
X222417D01*
X222203Y36625D01*
X222070Y36458D01*
X222017Y36125D01*
X222070Y35792D01*
X222230Y35583D01*
X222417Y35458D01*
X223083D01*
G01X222417D02*
X222017Y34250D01*
G01X220857Y36333D02*
X220697Y36583D01*
X220510Y36708D01*
X220297Y36750D01*
X220030Y36667D01*
X219843Y36458D01*
X219790Y36208D01*
X219817Y35958D01*
X219923Y35750D01*
X220457Y35333D01*
X220697Y35042D01*
X220857Y34625D01*
X220910Y34250D01*
X219790D01*
G01X218657Y36333D02*
X218497Y36583D01*
X218310Y36708D01*
X218097Y36750D01*
X217830Y36667D01*
X217643Y36458D01*
X217590Y36208D01*
X217617Y35958D01*
X217723Y35750D01*
X218257Y35333D01*
X218497Y35042D01*
X218657Y34625D01*
X218710Y34250D01*
X217590D01*
G01X216537Y34625D02*
X216377Y34417D01*
X216190Y34292D01*
X215950Y34250D01*
X215710Y34333D01*
X215523Y34500D01*
X215390Y34792D01*
X215363Y35125D01*
X215417Y35458D01*
X215550Y35667D01*
X215737Y35833D01*
X215923Y35875D01*
X216110Y35833D01*
X216350Y35667D01*
X216270Y36750D01*
X215550D01*
G01X224333Y23250D02*
Y25750D01*
X223667D01*
X223453Y25625D01*
X223320Y25458D01*
X223267Y25125D01*
X223320Y24792D01*
X223480Y24583D01*
X223667Y24458D01*
X224333D01*
G01X223667D02*
X223267Y23250D01*
G01X222107Y25333D02*
X221947Y25583D01*
X221760Y25708D01*
X221547Y25750D01*
X221280Y25667D01*
X221093Y25458D01*
X221040Y25208D01*
X221067Y24958D01*
X221173Y24750D01*
X221707Y24333D01*
X221947Y24042D01*
X222107Y23625D01*
X222160Y23250D01*
X221040D01*
G01X219907Y25333D02*
X219747Y25583D01*
X219560Y25708D01*
X219347Y25750D01*
X219080Y25667D01*
X218893Y25458D01*
X218840Y25208D01*
X218867Y24958D01*
X218973Y24750D01*
X219507Y24333D01*
X219747Y24042D01*
X219907Y23625D01*
X219960Y23250D01*
X218840D01*
G01X217707Y24292D02*
X217520Y24583D01*
X217360Y24750D01*
X217147Y24833D01*
X216960Y24750D01*
X216827Y24583D01*
X216720Y24333D01*
X216693Y24042D01*
X216720Y23792D01*
X216827Y23542D01*
X216987Y23333D01*
X217173Y23250D01*
X217387Y23333D01*
X217573Y23583D01*
X217680Y23958D01*
X217707Y24375D01*
X217653Y24917D01*
X217573Y25208D01*
X217440Y25500D01*
X217253Y25708D01*
X217067Y25750D01*
X216880Y25667D01*
X216747Y25458D01*
G54D12*
G01X-66000Y-3000D02*
G03I-4500J0D01*
G01Y16250D02*
G03I-4500J0D01*
G01Y6750D02*
G03I-4500J0D01*
G01X-14210Y-31667D02*
Y-35250D01*
X-14463Y-36000D01*
X-14969Y-36500D01*
X-15602Y-36667D01*
X-16236Y-36500D01*
X-16742Y-36000D01*
X-16995Y-35250D01*
Y-31667D01*
G01X-20700Y-36667D02*
Y-31667D01*
X-19941Y-32667D01*
G01Y-36667D02*
X-21460D01*
G01X-25798Y-31667D02*
X-25292Y-31834D01*
X-24912Y-32250D01*
X-24659Y-32750D01*
X-24469Y-33417D01*
X-24406Y-34167D01*
X-24469Y-34917D01*
X-24659Y-35584D01*
X-24912Y-36084D01*
X-25292Y-36500D01*
X-25798Y-36667D01*
X-26305Y-36500D01*
X-26685Y-36084D01*
X-26938Y-35584D01*
X-27128Y-34917D01*
X-27191Y-34167D01*
X-27128Y-33417D01*
X-26938Y-32750D01*
X-26685Y-32250D01*
X-26305Y-31834D01*
X-25798Y-31667D01*
G01X-30896Y-36667D02*
Y-31667D01*
X-30137Y-32667D01*
G01Y-36667D02*
X-31656D01*
G01X-26958Y-15713D02*
X-16084D01*
Y-1763D01*
X-26958D01*
Y-15713D01*
G01X-8956Y38026D02*
X-24544Y29026D01*
X-13544Y9974D01*
X2044Y18974D01*
X-8956Y38026D01*
G01X-9803Y-34887D02*
X-6705Y-33930D01*
X-9803Y-32972D01*
G01X-8719Y-33316D02*
Y-34543D01*
G01X-9803Y-30832D02*
X-6705D01*
X-7325Y-31291D01*
G01X-9803D02*
Y-30372D01*
G01X35685Y-35685D02*
Y5685D01*
X-5685D01*
Y-35685D01*
X35685D01*
G01X-9803Y1295D02*
X-6705D01*
X-9287Y2291D01*
X-6705Y3288D01*
X-9803D01*
G01X-14875Y182083D02*
X-13875Y181250D01*
X-12750Y180750D01*
X-11750D01*
X-10750Y181250D01*
X-10000Y182083D01*
X-9625Y183250D01*
X-9875Y184416D01*
X-10500Y185417D01*
X-11625Y186083D01*
X-13125Y186417D01*
X-14000Y187083D01*
X-14375Y188250D01*
X-14125Y189417D01*
X-13500Y190250D01*
X-12625Y190750D01*
X-11750D01*
X-10875Y190417D01*
X-10125Y189583D01*
G01X-3750Y190750D02*
X-750D01*
G01X-2250D02*
Y180750D01*
G01X-3750D02*
X-750D01*
G01X5250Y190750D02*
Y180750D01*
X10250D01*
G01X15000D02*
Y190750D01*
G01X19750D02*
X15000Y184583D01*
G01X20500Y180750D02*
X17125Y187416D01*
G01X25125Y182083D02*
X26125Y181250D01*
X27250Y180750D01*
X28250D01*
X29250Y181250D01*
X30000Y182083D01*
X30375Y183250D01*
X30125Y184416D01*
X29500Y185417D01*
X28375Y186083D01*
X26875Y186417D01*
X26000Y187083D01*
X25625Y188250D01*
X25875Y189417D01*
X26500Y190250D01*
X27375Y190750D01*
X28250D01*
X29125Y190417D01*
X29875Y189583D01*
G01X40500Y189917D02*
X39750Y190417D01*
X38875Y190750D01*
X37875D01*
X36750Y190250D01*
X35875Y189417D01*
X35250Y188417D01*
X34750Y186750D01*
X34625Y185250D01*
X34875Y183750D01*
X35250Y182750D01*
X36000Y181750D01*
X36875Y181083D01*
X37750Y180750D01*
X38625D01*
X39500Y181083D01*
X40250Y181583D01*
X40875Y182250D01*
G01X45250Y180750D02*
Y190750D01*
X48375D01*
X49375Y190250D01*
X50000Y189583D01*
X50250Y188250D01*
X50000Y186917D01*
X49250Y186083D01*
X48375Y185583D01*
X45250D01*
G01X48375D02*
X50250Y180750D01*
G01X60250D02*
X55250D01*
Y190750D01*
X60250D01*
G01X58250Y185917D02*
X55250D01*
G01X70250Y180750D02*
X65250D01*
Y190750D01*
X70250D01*
G01X68250Y185917D02*
X65250D01*
G01X74875Y180750D02*
Y190750D01*
X80625Y180750D01*
Y190750D01*
G01X95125Y182083D02*
X96125Y181250D01*
X97250Y180750D01*
X98250D01*
X99250Y181250D01*
X100000Y182083D01*
X100375Y183250D01*
X100125Y184416D01*
X99500Y185417D01*
X98375Y186083D01*
X96875Y186417D01*
X96000Y187083D01*
X95625Y188250D01*
X95875Y189417D01*
X96500Y190250D01*
X97375Y190750D01*
X98250D01*
X99125Y190417D01*
X99875Y189583D01*
G01X110250Y180750D02*
X105250D01*
Y190750D01*
X110250D01*
G01X108250Y185917D02*
X105250D01*
G01X120500Y189917D02*
X119750Y190417D01*
X118875Y190750D01*
X117875D01*
X116750Y190250D01*
X115875Y189417D01*
X115250Y188417D01*
X114750Y186750D01*
X114625Y185250D01*
X114875Y183750D01*
X115250Y182750D01*
X116000Y181750D01*
X116875Y181083D01*
X117750Y180750D01*
X118625D01*
X119500Y181083D01*
X120250Y181583D01*
X120875Y182250D01*
G01X127750Y180750D02*
X126750Y180917D01*
X125875Y181583D01*
X125125Y182583D01*
X124625Y183750D01*
X124375Y185083D01*
Y186417D01*
X124625Y187750D01*
X125125Y188917D01*
X125875Y189917D01*
X126750Y190583D01*
X127750Y190750D01*
X128750Y190583D01*
X129625Y189917D01*
X130375Y188917D01*
X130875Y187750D01*
X131125Y186417D01*
Y185083D01*
X130875Y183750D01*
X130375Y182583D01*
X129625Y181583D01*
X128750Y180917D01*
X127750Y180750D01*
G01X134875D02*
Y190750D01*
X140625Y180750D01*
Y190750D01*
G01X145000Y180750D02*
Y190750D01*
X147500D01*
X148500Y190250D01*
X149250Y189583D01*
X149875Y188583D01*
X150375Y187416D01*
X150500Y185750D01*
X150375Y184083D01*
X149875Y182917D01*
X149250Y181916D01*
X148500Y181250D01*
X147500Y180750D01*
X145000D01*
G01X154625D02*
X157750Y190750D01*
X160875Y180750D01*
G01X159750Y184250D02*
X155750D01*
G01X165250Y180750D02*
Y190750D01*
X168375D01*
X169375Y190250D01*
X170000Y189583D01*
X170250Y188250D01*
X170000Y186917D01*
X169250Y186083D01*
X168375Y185583D01*
X165250D01*
G01X168375D02*
X170250Y180750D01*
G01X177750D02*
Y185250D01*
X175250Y190750D01*
G01X180250D02*
X177750Y185250D01*
G01X17399Y18712D02*
Y7838D01*
X31349D01*
Y18712D01*
X17399D01*
G01X4025Y12225D02*
Y12325D01*
X5625D01*
Y12225D01*
X4025D01*
G01X31142Y-41410D02*
X34240D01*
X33620Y-41869D01*
G01X31142D02*
Y-40950D01*
G01X33724Y-39040D02*
X34033Y-38810D01*
X34188Y-38541D01*
X34240Y-38235D01*
X34137Y-37852D01*
X33879Y-37583D01*
X33569Y-37507D01*
X33259Y-37545D01*
X33001Y-37698D01*
X32484Y-38465D01*
X32123Y-38810D01*
X31607Y-39040D01*
X31142Y-39116D01*
Y-37507D01*
G01X49000Y101000D02*
G02X33000I-8000J13240D01*
G01X26000Y108000D02*
G02Y124000I15499J8000D01*
G01X33000Y131000D02*
G02X49000I8000J-13240D01*
G01X27750Y170750D02*
X26750Y170417D01*
X26000Y169583D01*
X25500Y168583D01*
X25125Y167250D01*
X25000Y165750D01*
X25125Y164250D01*
X25500Y162917D01*
X26000Y161916D01*
X26750Y161083D01*
X27750Y160750D01*
X28750Y161083D01*
X29500Y161916D01*
X30000Y162917D01*
X30375Y164250D01*
X30500Y165750D01*
X30375Y167250D01*
X30000Y168583D01*
X29500Y169583D01*
X28750Y170417D01*
X27750Y170750D01*
G01X37750Y160750D02*
X38625Y160917D01*
X39625Y161417D01*
X40250Y162250D01*
X40500Y163417D01*
X40250Y164583D01*
X39500Y165583D01*
X38375Y166083D01*
X37125D01*
X36375Y166417D01*
X35750Y167250D01*
X35500Y168417D01*
X35875Y169583D01*
X36750Y170417D01*
X37750Y170750D01*
X38750Y170417D01*
X39625Y169583D01*
X40000Y168417D01*
X39750Y167250D01*
X39125Y166417D01*
X38375Y166083D01*
X37125D01*
X36000Y165583D01*
X35250Y164583D01*
X35000Y163417D01*
X35250Y162250D01*
X35875Y161417D01*
X36875Y160917D01*
X37750Y160750D01*
G01X46125Y164083D02*
X49375D01*
G01X116125D02*
X119375D01*
G01X127750Y170750D02*
X126750Y170417D01*
X126000Y169583D01*
X125500Y168583D01*
X125125Y167250D01*
X125000Y165750D01*
X125125Y164250D01*
X125500Y162917D01*
X126000Y161916D01*
X126750Y161083D01*
X127750Y160750D01*
X128750Y161083D01*
X129500Y161916D01*
X130000Y162917D01*
X130375Y164250D01*
X130500Y165750D01*
X130375Y167250D01*
X130000Y168583D01*
X129500Y169583D01*
X128750Y170417D01*
X127750Y170750D01*
G01X135000Y162250D02*
X135750Y161417D01*
X136625Y160917D01*
X137750Y160750D01*
X138875Y161083D01*
X139750Y161750D01*
X140375Y162917D01*
X140500Y164250D01*
X140250Y165583D01*
X139625Y166417D01*
X138750Y167083D01*
X137875Y167250D01*
X137000Y167083D01*
X135875Y166417D01*
X136250Y170750D01*
X139625D01*
G01X56000Y124000D02*
G02Y108000I-15520J-8000D01*
G01X60250Y140750D02*
Y150750D01*
X63375D01*
X64375Y150250D01*
X65000Y149583D01*
X65250Y148250D01*
X65000Y146917D01*
X64250Y146083D01*
X63375Y145583D01*
X60250D01*
G01X63375D02*
X65250Y140750D01*
G01X75250D02*
X70250D01*
Y150750D01*
X75250D01*
G01X73250Y145917D02*
X70250D01*
G01X79625Y150750D02*
X82750Y140750D01*
X85875Y150750D01*
G01X103750Y146083D02*
X104250Y146583D01*
X104625Y147416D01*
X104875Y148583D01*
X104625Y149583D01*
X104125Y150250D01*
X103250Y150750D01*
X99875D01*
Y140750D01*
X104000D01*
X104875Y141417D01*
X105375Y142417D01*
X105625Y143583D01*
X105375Y144750D01*
X104625Y145750D01*
X103750Y146083D01*
X99875D01*
G01X57750Y170750D02*
X56750Y170417D01*
X56000Y169583D01*
X55500Y168583D01*
X55125Y167250D01*
X55000Y165750D01*
X55125Y164250D01*
X55500Y162917D01*
X56000Y161916D01*
X56750Y161083D01*
X57750Y160750D01*
X58750Y161083D01*
X59500Y161916D01*
X60000Y162917D01*
X60375Y164250D01*
X60500Y165750D01*
X60375Y167250D01*
X60000Y168583D01*
X59500Y169583D01*
X58750Y170417D01*
X57750Y170750D01*
G01X65000Y162750D02*
X65750Y161583D01*
X66750Y160917D01*
X67875Y160750D01*
X68875Y160917D01*
X69875Y161750D01*
X70500Y162750D01*
X70625Y163750D01*
X70375Y164916D01*
X69500Y165750D01*
X68625Y166083D01*
X67500D01*
G01X68625D02*
X69375Y166583D01*
X70000Y167416D01*
X70250Y168417D01*
X70000Y169417D01*
X69375Y170250D01*
X68250Y170750D01*
X67125Y170583D01*
X66000Y169917D01*
G01X77500Y160750D02*
X77750Y162917D01*
X78125Y164750D01*
X78625Y166417D01*
X79250Y168250D01*
X80250Y170750D01*
X75250D01*
G01X85000Y162250D02*
X85750Y161417D01*
X86625Y160917D01*
X87750Y160750D01*
X88875Y161083D01*
X89750Y161750D01*
X90375Y162917D01*
X90500Y164250D01*
X90250Y165583D01*
X89625Y166417D01*
X88750Y167083D01*
X87875Y167250D01*
X87000Y167083D01*
X85875Y166417D01*
X86250Y170750D01*
X89625D01*
G01X97750Y160750D02*
Y170750D01*
X96250Y168750D01*
G01Y160750D02*
X99250D01*
G01X105375Y164916D02*
X106250Y166083D01*
X107000Y166750D01*
X108000Y167083D01*
X108875Y166750D01*
X109500Y166083D01*
X110000Y165083D01*
X110125Y163917D01*
X110000Y162917D01*
X109500Y161916D01*
X108750Y161083D01*
X107875Y160750D01*
X106875Y161083D01*
X106000Y162083D01*
X105500Y163583D01*
X105375Y165250D01*
X105625Y167416D01*
X106000Y168583D01*
X106625Y169750D01*
X107500Y170583D01*
X108375Y170750D01*
X109250Y170417D01*
X109875Y169583D01*
G01X75000Y56000D02*
X77000Y58000D01*
X175000D01*
Y38000D01*
X77000D01*
X75000Y40000D01*
Y56000D01*
G01X104500Y-102000D02*
G03I-4500J0D01*
G01X94500D02*
G03I-4500J0D01*
G01X124500D02*
G03I-4500J0D01*
G01X114500D02*
G03I-4500J0D01*
G01X128300Y121170D02*
X116150D01*
X114540Y122780D01*
Y125720D01*
X116150Y127330D01*
X128300D01*
Y121170D01*
G01X144500Y-102000D02*
G03I-4500J0D01*
G01X134500D02*
G03I-4500J0D01*
G01X146751Y-97119D02*
Y-92119D01*
X147511Y-93119D01*
G01Y-97119D02*
X145991D01*
G01X151000Y-97000D02*
X179000D01*
Y-107000D01*
X151000D01*
X149000Y-105000D01*
Y-99000D01*
X151000Y-97000D01*
G01X172965Y-94619D02*
Y-89619D01*
X171445D01*
X170938Y-89869D01*
X170558Y-90452D01*
X170431Y-91119D01*
X170558Y-91786D01*
X170875Y-92286D01*
X171445Y-92536D01*
X172965D01*
G01X167991Y-93619D02*
X167611Y-94202D01*
X167105Y-94536D01*
X166535Y-94619D01*
X166028Y-94536D01*
X165521Y-94119D01*
X165205Y-93619D01*
X165141Y-93119D01*
X165268Y-92536D01*
X165711Y-92119D01*
X166155Y-91952D01*
X166725D01*
G01X166155D02*
X165775Y-91702D01*
X165458Y-91286D01*
X165331Y-90786D01*
X165458Y-90286D01*
X165775Y-89869D01*
X166345Y-89619D01*
X166915Y-89702D01*
X167485Y-90036D01*
G01X161498Y-89619D02*
X162005Y-89786D01*
X162385Y-90202D01*
X162638Y-90702D01*
X162828Y-91369D01*
X162891Y-92119D01*
X162828Y-92869D01*
X162638Y-93536D01*
X162385Y-94036D01*
X162005Y-94452D01*
X161498Y-94619D01*
X160991Y-94452D01*
X160611Y-94036D01*
X160358Y-93536D01*
X160168Y-92869D01*
X160105Y-92119D01*
X160168Y-91369D01*
X160358Y-90702D01*
X160611Y-90202D01*
X160991Y-89786D01*
X161498Y-89619D01*
G01X156398Y-94619D02*
Y-89619D01*
X157158Y-90619D01*
G01Y-94619D02*
X155638D01*
G01X183500Y-35750D02*
Y-38250D01*
X187500D01*
Y-35750D01*
X183500D01*
G01Y-32500D02*
Y-35000D01*
X187500D01*
Y-32500D01*
X183500D01*
G01X201000Y-73750D02*
Y-76250D01*
X205000D01*
Y-73750D01*
X201000D01*
G01Y-68750D02*
Y-71250D01*
X205000D01*
Y-68750D01*
X201000D01*
G01X206750Y-42000D02*
X209250D01*
Y-38000D01*
X206750D01*
Y-42000D01*
G01X204250Y-38000D02*
X201750D01*
Y-42000D01*
X204250D01*
Y-38000D01*
G01X201750Y-7000D02*
X204250D01*
Y-3000D01*
X201750D01*
Y-7000D01*
G01X196500D02*
X199000D01*
Y-3000D01*
X196500D01*
Y-7000D01*
G01X216500Y-62000D02*
X219000D01*
Y-58000D01*
X216500D01*
Y-62000D01*
G01X224000Y-58000D02*
X221500D01*
Y-62000D01*
X224000D01*
Y-58000D01*
G01X220750Y-28750D02*
Y-31250D01*
X224750D01*
Y-28750D01*
X220750D01*
G01X216000D02*
Y-31250D01*
X220000D01*
Y-28750D01*
X216000D01*
G01X220550Y31700D02*
X220450D01*
Y33300D01*
X220550D01*
Y31700D01*
G01Y26700D02*
X220450D01*
Y28300D01*
X220550D01*
Y26700D01*
G54D13*
G01X-65883Y-68917D02*
Y-63917D01*
X-67467D01*
X-67973Y-64167D01*
X-68290Y-64500D01*
X-68417Y-65167D01*
X-68290Y-65834D01*
X-67910Y-66250D01*
X-67467Y-66500D01*
X-65883D01*
G01X-67467D02*
X-68417Y-68917D01*
G01X-70920D02*
X-73580Y-63917D01*
G01X-70920D02*
X-73580Y-68917D01*
G01X-77857Y-66250D02*
X-78110Y-66000D01*
X-78300Y-65584D01*
X-78427Y-65000D01*
X-78300Y-64500D01*
X-78047Y-64167D01*
X-77603Y-63917D01*
X-75893D01*
Y-68917D01*
X-77983D01*
X-78427Y-68584D01*
X-78680Y-68084D01*
X-78807Y-67500D01*
X-78680Y-66917D01*
X-78300Y-66417D01*
X-77857Y-66250D01*
X-75893D01*
G01X-66495Y66127D02*
Y71127D01*
X-68079D01*
X-68585Y70877D01*
X-68902Y70544D01*
X-69029Y69877D01*
X-68902Y69210D01*
X-68522Y68794D01*
X-68079Y68544D01*
X-66495D01*
G01X-68079D02*
X-69029Y66127D01*
G01X-71532D02*
X-74192Y71127D01*
G01X-71532D02*
X-74192Y66127D01*
G01X-76379D02*
X-77962Y71127D01*
X-79545Y66127D01*
G01X-78975Y67877D02*
X-76949D01*
G01X-66900Y86750D02*
Y81750D01*
G01X-65443Y86750D02*
X-68357D01*
G01X-70670Y81750D02*
X-73330Y86750D01*
G01X-70670D02*
X-73330Y81750D01*
G01X-77607Y84417D02*
X-77860Y84667D01*
X-78050Y85083D01*
X-78177Y85667D01*
X-78050Y86167D01*
X-77797Y86500D01*
X-77353Y86750D01*
X-75643D01*
Y81750D01*
X-77733D01*
X-78177Y82083D01*
X-78430Y82583D01*
X-78557Y83167D01*
X-78430Y83750D01*
X-78050Y84250D01*
X-77607Y84417D01*
X-75643D01*
G01X-10000Y-129100D02*
X-15000D01*
G01X-10000Y-130557D02*
Y-127643D01*
G01X-15000Y-125330D02*
X-10000Y-122670D01*
G01Y-125330D02*
X-15000Y-122670D01*
G01X-16667Y-120800D02*
Y-117000D01*
G01X-15000Y-115447D02*
X-10000D01*
X-14167Y-113800D01*
X-10000Y-112153D01*
X-15000D01*
G01Y-108700D02*
X-14917Y-109207D01*
X-14583Y-109650D01*
X-14083Y-110030D01*
X-13500Y-110283D01*
X-12833Y-110410D01*
X-12167D01*
X-11500Y-110283D01*
X-10917Y-110030D01*
X-10417Y-109650D01*
X-10083Y-109207D01*
X-10000Y-108700D01*
X-10083Y-108193D01*
X-10417Y-107750D01*
X-10917Y-107370D01*
X-11500Y-107117D01*
X-12167Y-106990D01*
X-12833D01*
X-13500Y-107117D01*
X-14083Y-107370D01*
X-14583Y-107750D01*
X-14917Y-108193D01*
X-15000Y-108700D01*
G01Y-105057D02*
X-10000D01*
X-15000Y-102143D01*
X-10000D01*
G01X-2667Y116150D02*
X-7667D01*
G01X-2667Y114693D02*
Y117607D01*
G01X-7667Y119920D02*
X-2667Y122580D01*
G01Y119920D02*
X-7667Y122580D01*
G01Y124767D02*
X-2667Y126350D01*
X-7667Y127933D01*
G01X-5917Y127363D02*
Y125337D01*
G01X10750Y14750D02*
G03I-250J0D01*
G01X58241Y92481D02*
Y97481D01*
X56657D01*
X56151Y97231D01*
X55834Y96898D01*
X55707Y96231D01*
X55834Y95564D01*
X56214Y95148D01*
X56657Y94898D01*
X58241D01*
G01X56657D02*
X55707Y92481D01*
G01X50607D02*
X53141D01*
Y97481D01*
X50607D01*
G01X51621Y95064D02*
X53141D01*
G01X47977Y92481D02*
Y97481D01*
X45571D01*
G01X46457Y95064D02*
X47977D01*
G01X43574Y90814D02*
X39774D01*
G01X35181Y97064D02*
X35561Y97314D01*
X36004Y97481D01*
X36511D01*
X37081Y97231D01*
X37524Y96814D01*
X37841Y96314D01*
X38094Y95481D01*
X38157Y94731D01*
X38031Y93981D01*
X37841Y93481D01*
X37461Y92981D01*
X37017Y92648D01*
X36574Y92481D01*
X36131D01*
X35687Y92648D01*
X35307Y92898D01*
X34991Y93231D01*
G01X32741Y97481D02*
Y92481D01*
X30207D01*
G01X27767D02*
Y97481D01*
G01X25361D02*
X27767Y94398D01*
G01X24981Y92481D02*
X26691Y95814D01*
G01X154543Y-12173D02*
X152585Y-5873D01*
X150627Y-12173D01*
G01X151332Y-9968D02*
X153838D01*
G01X148008Y-12173D02*
Y-5873D01*
X146442D01*
X145815Y-6188D01*
X145345Y-6608D01*
X144953Y-7238D01*
X144640Y-7973D01*
X144562Y-9023D01*
X144640Y-10073D01*
X144953Y-10808D01*
X145345Y-11438D01*
X145815Y-11858D01*
X146442Y-12173D01*
X148008D01*
G01X141003Y-10073D02*
X138967D01*
G01X135173Y-12173D02*
Y-5873D01*
X132197D01*
G01X133293Y-8918D02*
X135173D01*
G01X129422Y-12173D02*
Y-5873D01*
X127385Y-11123D01*
X125348Y-5873D01*
Y-12173D01*
G01X119362Y-6398D02*
X119832Y-6083D01*
X120380Y-5873D01*
X121007D01*
X121712Y-6188D01*
X122260Y-6713D01*
X122652Y-7343D01*
X122965Y-8393D01*
X123043Y-9338D01*
X122887Y-10283D01*
X122652Y-10913D01*
X122182Y-11543D01*
X121633Y-11963D01*
X121085Y-12173D01*
X120537D01*
X119988Y-11963D01*
X119518Y-11648D01*
X119127Y-11228D01*
G01X114785Y-12173D02*
X115412Y-12068D01*
X115960Y-11648D01*
X116430Y-11018D01*
X116743Y-10283D01*
X116900Y-9443D01*
Y-8603D01*
X116743Y-7763D01*
X116430Y-7028D01*
X115960Y-6398D01*
X115412Y-5978D01*
X114785Y-5873D01*
X114158Y-5978D01*
X113610Y-6398D01*
X113140Y-7028D01*
X112827Y-7763D01*
X112670Y-8603D01*
Y-9443D01*
X112827Y-10283D01*
X113140Y-11018D01*
X113610Y-11648D01*
X114158Y-12068D01*
X114785Y-12173D01*
G01X110522D02*
Y-5873D01*
X108485Y-11123D01*
X106448Y-5873D01*
Y-12173D01*
G01X104222D02*
Y-5873D01*
X102185Y-11123D01*
X100148Y-5873D01*
Y-12173D01*
G01X97530Y-11333D02*
X96903Y-11858D01*
X96198Y-12173D01*
X95572D01*
X94945Y-11858D01*
X94475Y-11333D01*
X94240Y-10598D01*
X94397Y-9863D01*
X94788Y-9233D01*
X95493Y-8813D01*
X96433Y-8603D01*
X96982Y-8183D01*
X97217Y-7448D01*
X97060Y-6713D01*
X96668Y-6188D01*
X96120Y-5873D01*
X95572D01*
X95023Y-6083D01*
X94553Y-6608D01*
G01X88645Y-12173D02*
Y-5873D01*
X91543Y-10388D01*
X87627D01*
G01X84303Y-10073D02*
X82267D01*
G01X75418Y-12173D02*
X78552D01*
Y-5873D01*
X75418D01*
G01X76672Y-8918D02*
X78552D01*
G01X70058Y-8813D02*
X69745Y-8498D01*
X69510Y-7973D01*
X69353Y-7238D01*
X69510Y-6608D01*
X69823Y-6188D01*
X70372Y-5873D01*
X72487D01*
Y-12173D01*
X69902D01*
X69353Y-11753D01*
X69040Y-11123D01*
X68883Y-10388D01*
X69040Y-9653D01*
X69510Y-9023D01*
X70058Y-8813D01*
X72487D01*
G01X65873Y-5873D02*
X62897D01*
X65873Y-12173D01*
X62897D01*
G01X43750Y-12000D02*
G03I-250J0D01*
G01X73167Y48250D02*
Y53250D01*
X71647D01*
X71140Y53000D01*
X70760Y52417D01*
X70633Y51750D01*
X70760Y51083D01*
X71077Y50583D01*
X71647Y50333D01*
X73167D01*
G01X68003Y52417D02*
X67623Y52917D01*
X67180Y53167D01*
X66673Y53250D01*
X66040Y53083D01*
X65597Y52667D01*
X65470Y52167D01*
X65533Y51667D01*
X65787Y51250D01*
X67053Y50417D01*
X67623Y49833D01*
X68003Y49000D01*
X68130Y48250D01*
X65470D01*
G01X61700Y53250D02*
X62207Y53083D01*
X62587Y52667D01*
X62840Y52167D01*
X63030Y51500D01*
X63093Y50750D01*
X63030Y50000D01*
X62840Y49333D01*
X62587Y48833D01*
X62207Y48417D01*
X61700Y48250D01*
X61193Y48417D01*
X60813Y48833D01*
X60560Y49333D01*
X60370Y50000D01*
X60307Y50750D01*
X60370Y51500D01*
X60560Y52167D01*
X60813Y52667D01*
X61193Y53083D01*
X61700Y53250D01*
G01X57803Y52417D02*
X57423Y52917D01*
X56980Y53167D01*
X56473Y53250D01*
X55840Y53083D01*
X55397Y52667D01*
X55270Y52167D01*
X55333Y51667D01*
X55587Y51250D01*
X56853Y50417D01*
X57423Y49833D01*
X57803Y49000D01*
X57930Y48250D01*
X55270D01*
G54D14*
G01X9241Y33231D02*
G03I-300J0D01*
G01X66635Y-17023D02*
X67435Y-16323D01*
X68535Y-16023D01*
X69535D01*
X70635Y-16523D01*
X71535Y-17223D01*
X72335Y-18223D01*
X72835Y-19223D01*
X73135Y-20323D01*
Y-21523D01*
X72935Y-22823D01*
X72335Y-24023D01*
X71535Y-25023D01*
X70635Y-25623D01*
X69135Y-26023D01*
X67735Y-25723D01*
X66735Y-25023D01*
X65935Y-24023D01*
Y-21023D01*
X68735D01*
G01X66335Y-31123D02*
X67135Y-30223D01*
X68035Y-29923D01*
X68935D01*
X69835Y-30423D01*
X70435Y-31223D01*
X70635Y-32423D01*
X70335Y-33623D01*
X69435Y-34223D01*
X67835Y-34623D01*
X66735Y-35223D01*
X66135Y-36223D01*
X65835Y-37423D01*
X66235Y-38623D01*
X67035Y-39423D01*
X68035Y-39923D01*
X69035D01*
X70135Y-39423D01*
X71135Y-38623D01*
G01X84535Y-21723D02*
Y-20323D01*
X84235Y-19023D01*
X83635Y-17823D01*
X82835Y-16823D01*
X81935Y-16223D01*
X80735Y-16023D01*
X79535Y-16223D01*
X78635Y-16823D01*
X77835Y-17823D01*
X77235Y-19023D01*
X76935Y-20323D01*
Y-21723D01*
X77235Y-23023D01*
X77835Y-24223D01*
X78635Y-25223D01*
X79535Y-25823D01*
X80735Y-26023D01*
X81935Y-25823D01*
X82835Y-25223D01*
X83735Y-24123D01*
X84235Y-23023D01*
X84535Y-21723D01*
G01X75535Y-29923D02*
X80635D01*
Y-39923D01*
X75535D01*
G01X80635Y-34723D02*
X77535D01*
G01X98835Y-29923D02*
X95835D01*
G01X94735Y-16023D02*
Y-26023D01*
X89135D01*
G01X97335Y-29923D02*
Y-39923D01*
G01X98835D02*
X95835D01*
G01X84935Y-30723D02*
X85735Y-30223D01*
X86635Y-29923D01*
X87635D01*
X88735Y-30423D01*
X89635Y-31223D01*
X90235Y-32223D01*
X90735Y-33823D01*
X90935Y-35423D01*
X90635Y-36923D01*
X90235Y-37923D01*
X89535Y-38923D01*
X88635Y-39623D01*
X87735Y-39923D01*
X86835D01*
X86035Y-39623D01*
X85235Y-39123D01*
X84535Y-38423D01*
G01X105235Y-22523D02*
X100935D01*
G01X106635Y-26023D02*
X103135Y-16023D01*
X99635Y-26023D01*
G01X110135Y-29923D02*
X106935Y-39923D01*
X103735Y-29923D01*
G01X117535Y-26023D02*
Y-16023D01*
X111135Y-26023D01*
Y-16023D01*
G01X119035Y-34723D02*
X115935D01*
G01X113935Y-29923D02*
X119035D01*
Y-39923D01*
X113935D01*
G01X129035Y-26023D02*
X125535Y-16023D01*
X122035Y-26023D01*
G01X127635Y-22523D02*
X123335D01*
G01X128935Y-29923D02*
Y-39923D01*
X126335D01*
X125335Y-39423D01*
X124635Y-38723D01*
X123935Y-37723D01*
X123435Y-36523D01*
X123335Y-34923D01*
X123435Y-33223D01*
X123935Y-32123D01*
X124635Y-31023D01*
X125335Y-30423D01*
X126335Y-29923D01*
X128935D01*
M02*
