G04 ================== begin FILE IDENTIFICATION RECORD ==================*
G04 Layout Name:  08_037516b-1-14.brd*
G04 Film Name:    silk_prm*
G04 File Format:  Gerber RS274X*
G04 File Origin:  Cadence Allegro 16.5-S031*
G04 Origin Date:  Tue Jan 14 09:43:35 2014*
G04 *
G04 Layer:  REF DES/SILKSCREEN_TOP*
G04 Layer:  PACKAGE GEOMETRY/SILKSCREEN_TOP*
G04 Layer:  BOARD GEOMETRY/TOOLING_CORNERS*
G04 Layer:  BOARD GEOMETRY/SILKSCREEN_TOP*
G04 Layer:  BOARD GEOMETRY/ROOT_NUMBER*
G04 *
G04 Offset:    (0.00 0.00)*
G04 Mirror:    No*
G04 Mode:      Positive*
G04 Rotation:  0*
G04 FullContactRelief:  No*
G04 UndefLineWidth:     8.00*
G04 ================== end FILE IDENTIFICATION RECORD ====================*
%FSLAX55Y55*MOIN*%
%IR0*IPPOS*OFA0.00000B0.00000*MIA0B0*SFA1.00000B1.00000*%
%ADD10C,.06*%
%ADD11C,.002*%
%ADD12C,.004*%
%ADD13C,.008*%
%ADD14C,.005*%
%ADD15C,.006*%
%ADD16C,.02236*%
G75*
%LPD*%
G75*
G36*
G01X-73024Y-108873D02*
X-72024D01*
Y-107123D01*
X-73024D01*
Y-108873D01*
G37*
G36*
G01X-69524Y-90123D02*
Y-92123D01*
X-62524D01*
Y-90123D01*
X-69524D01*
G37*
G36*
G01X-72024Y-83623D02*
Y-79623D01*
X-70524D01*
Y-83623D01*
X-72024D01*
G37*
G36*
G01X-56474Y-106623D02*
G03I-2550J0D01*
G37*
G36*
G01X-56221Y-83623D02*
G03I-1803J0D01*
G37*
G36*
G01X-1766Y14621D02*
G03I-1000J0D01*
G37*
G36*
G01X-1272Y49425D02*
G02I-1500J0D01*
G37*
G36*
G01X21908Y26483D02*
G03I-1000J0D01*
G37*
G36*
G01X59300Y-27000D02*
X84300D01*
Y-2000D01*
X59300D01*
Y-27000D01*
G37*
G36*
G01X63030Y8607D02*
G02I-1500J0D01*
G37*
G36*
G01X68300Y103700D02*
X60700D01*
Y102300D01*
X68300D01*
Y103700D01*
G37*
G36*
G01X66700Y74050D02*
X74300D01*
Y75450D01*
X66700D01*
Y74050D01*
G37*
G36*
G01X106901Y103876D02*
G03I-1499J0D01*
G37*
G36*
G01X103374Y96402D02*
G03I-1500J0D01*
G37*
G36*
G01X115939Y-85311D02*
G03I-1500J0D01*
G37*
G36*
G01X168510Y98439D02*
G02I-1499J0D01*
G37*
G36*
G01X154811Y112061D02*
G03I-1500J0D01*
G37*
%LPC*%
G75*
G36*
G01X80300Y-14500D02*
X64300Y-5500D01*
Y-23000D01*
X80300Y-14500D01*
G37*
G54D16*
X-59024Y-106623D03*
%LPD*%
G75*
G36*
G01X151250Y-34500D02*
Y-47000D01*
X61250D01*
Y-34500D01*
X151250D01*
G37*
G54D10*
G01X-78024Y-124623D02*
X-54024D01*
G54D11*
G01X-1726Y-26225D02*
G03I-99J0D01*
G01X675Y-32125D02*
G03I-100J0D01*
G01X-5000Y-36250D02*
G03I-100J0D01*
G01X-1299Y250D02*
G03I-100J0D01*
G01X8135Y-37708D02*
G03I-101J0D01*
G01X20000Y-29000D02*
G03I-100J0D01*
G01X18350Y-32975D02*
G03I-100J0D01*
G01X849Y-19150D02*
G03I-99J0D01*
G01X950Y-7250D02*
G03I-100J0D01*
G01X750Y-13072D02*
G03I-100J0D01*
G01X8450Y3500D02*
G03I-100J0D01*
G01X4850Y650D02*
G03I-100J0D01*
G01X6768Y28453D02*
G03I-100J0D01*
G01X10768D02*
G03I-100J0D01*
G01X25748Y-28750D02*
G03I-99J0D01*
G01X32600Y-29350D02*
G03I-100J0D01*
G01X26100Y-36350D02*
G03I-100J0D01*
G01X29200Y-16850D02*
G03I-100J0D01*
G01X33200Y-12000D02*
G03I-100J0D01*
G01X24725Y8225D02*
G03I-100J0D01*
G01X26200Y2000D02*
G03I-100J0D01*
G01X58295Y12042D02*
G03I-100J0D01*
G01X80000Y84000D02*
G03I-100J0D01*
G01X70999Y113500D02*
G03I-98J0D01*
G01X76250D02*
G03I-100J0D01*
G01X71200Y105500D02*
G03I-100J0D01*
G01X76450D02*
G03I-100J0D01*
G01X91700Y68500D02*
G03I-100J0D01*
G01X100200D02*
G03I-100J0D01*
G01X104450D02*
G03I-100J0D01*
G01X95950D02*
G03I-100J0D01*
G01X88598Y98400D02*
G03I-98J0D01*
G01X96099Y127100D02*
G03I-99J0D01*
G01X122700Y77750D02*
G03I-100J0D01*
G01X109250Y119750D02*
G03I-100J0D01*
G01X144350Y-61350D02*
G03I-100J0D01*
G01X126500Y92500D02*
G03I-100J0D01*
G01X128450Y116750D02*
G03I-100J0D01*
G01X132950D02*
G03I-100J0D01*
G01X135600Y129350D02*
G03I-100J0D01*
G01X144200Y126250D02*
G03I-100J0D01*
G01X162250Y-83250D02*
G02I-100J0D01*
G01X156950Y81750D02*
G03I-100J0D01*
G01X158600Y67900D02*
G03I-100J0D01*
G01X147200Y85500D02*
G03I-100J0D01*
G01X178500Y86000D02*
G03I-100J0D01*
G01X172100Y128350D02*
G03I-100J0D01*
G54D12*
G01X-76917Y-48664D02*
X-76725Y-48974D01*
X-76495Y-49181D01*
X-76227Y-49284D01*
X-75920Y-49181D01*
X-75690Y-48974D01*
X-75460Y-48664D01*
X-75383Y-48251D01*
Y-46184D01*
G01X-73050Y-49284D02*
Y-46184D01*
X-73510Y-46804D01*
G01Y-49284D02*
X-72590D01*
G01X-69950D02*
Y-46184D01*
X-70410Y-46804D01*
G01Y-49284D02*
X-69490D01*
G01X-66850D02*
Y-46184D01*
X-67310Y-46804D01*
G01Y-49284D02*
X-66390D01*
G01X-77167Y38837D02*
X-76975Y38527D01*
X-76745Y38320D01*
X-76477Y38217D01*
X-76170Y38320D01*
X-75940Y38527D01*
X-75710Y38837D01*
X-75633Y39250D01*
Y41317D01*
G01X-73300Y38217D02*
Y41317D01*
X-73760Y40697D01*
G01Y38217D02*
X-72840D01*
G01X-70200D02*
Y41317D01*
X-70660Y40697D01*
G01Y38217D02*
X-69740D01*
G01X-67100Y41317D02*
X-67407Y41214D01*
X-67637Y40955D01*
X-67790Y40645D01*
X-67905Y40232D01*
X-67943Y39767D01*
X-67905Y39302D01*
X-67790Y38889D01*
X-67637Y38579D01*
X-67407Y38320D01*
X-67100Y38217D01*
X-66793Y38320D01*
X-66563Y38579D01*
X-66410Y38889D01*
X-66295Y39302D01*
X-66257Y39767D01*
X-66295Y40232D01*
X-66410Y40645D01*
X-66563Y40955D01*
X-66793Y41214D01*
X-67100Y41317D01*
G01X-77167Y106837D02*
X-76975Y106527D01*
X-76745Y106320D01*
X-76477Y106217D01*
X-76170Y106320D01*
X-75940Y106527D01*
X-75710Y106837D01*
X-75633Y107250D01*
Y109317D01*
G01X-73300Y106217D02*
Y109317D01*
X-73760Y108697D01*
G01Y106217D02*
X-72840D01*
G01X-70200D02*
Y109317D01*
X-70660Y108697D01*
G01Y106217D02*
X-69740D01*
G01X-67943Y106837D02*
X-67713Y106475D01*
X-67407Y106269D01*
X-67062Y106217D01*
X-66755Y106269D01*
X-66448Y106527D01*
X-66257Y106837D01*
X-66218Y107147D01*
X-66295Y107509D01*
X-66563Y107767D01*
X-66832Y107870D01*
X-67177D01*
G01X-66832D02*
X-66602Y108025D01*
X-66410Y108284D01*
X-66333Y108594D01*
X-66410Y108904D01*
X-66602Y109162D01*
X-66947Y109317D01*
X-67292Y109265D01*
X-67637Y109059D01*
G01X-42008Y-21680D02*
Y-24780D01*
G01X-42890Y-21680D02*
X-41126D01*
G01X-39675Y-24780D02*
Y-21680D01*
X-38755D01*
X-38448Y-21835D01*
X-38218Y-22197D01*
X-38141Y-22610D01*
X-38218Y-23023D01*
X-38410Y-23333D01*
X-38755Y-23488D01*
X-39675D01*
G01X-35808Y-24780D02*
Y-21680D01*
X-36268Y-22300D01*
G01Y-24780D02*
X-35348D01*
G01X-32708Y-21680D02*
X-33015Y-21783D01*
X-33245Y-22042D01*
X-33398Y-22352D01*
X-33513Y-22765D01*
X-33551Y-23230D01*
X-33513Y-23695D01*
X-33398Y-24108D01*
X-33245Y-24418D01*
X-33015Y-24677D01*
X-32708Y-24780D01*
X-32401Y-24677D01*
X-32171Y-24418D01*
X-32018Y-24108D01*
X-31903Y-23695D01*
X-31865Y-23230D01*
X-31903Y-22765D01*
X-32018Y-22352D01*
X-32171Y-22042D01*
X-32401Y-21783D01*
X-32708Y-21680D01*
G01X-30336Y-22197D02*
X-30106Y-21887D01*
X-29838Y-21732D01*
X-29531Y-21680D01*
X-29148Y-21783D01*
X-28880Y-22042D01*
X-28803Y-22352D01*
X-28841Y-22662D01*
X-28995Y-22920D01*
X-29761Y-23437D01*
X-30106Y-23798D01*
X-30336Y-24315D01*
X-30413Y-24780D01*
X-28803D01*
G01X-38087Y-129667D02*
X-37777Y-129475D01*
X-37570Y-129245D01*
X-37467Y-128977D01*
X-37570Y-128670D01*
X-37777Y-128440D01*
X-38087Y-128210D01*
X-38500Y-128133D01*
X-40567D01*
G01X-37467Y-125800D02*
X-40567D01*
X-39947Y-126260D01*
G01X-37467D02*
Y-125340D01*
G01X-40567Y-122700D02*
X-40464Y-123007D01*
X-40205Y-123237D01*
X-39895Y-123390D01*
X-39482Y-123505D01*
X-39017Y-123543D01*
X-38552Y-123505D01*
X-38139Y-123390D01*
X-37829Y-123237D01*
X-37570Y-123007D01*
X-37467Y-122700D01*
X-37570Y-122393D01*
X-37829Y-122163D01*
X-38139Y-122010D01*
X-38552Y-121895D01*
X-39017Y-121857D01*
X-39482Y-121895D01*
X-39895Y-122010D01*
X-40205Y-122163D01*
X-40464Y-122393D01*
X-40567Y-122700D01*
G01X-40050Y-120328D02*
X-40360Y-120098D01*
X-40515Y-119830D01*
X-40567Y-119523D01*
X-40464Y-119140D01*
X-40205Y-118872D01*
X-39895Y-118795D01*
X-39585Y-118833D01*
X-39327Y-118987D01*
X-38810Y-119753D01*
X-38449Y-120098D01*
X-37932Y-120328D01*
X-37467Y-120405D01*
Y-118795D01*
G01X-21213Y-10876D02*
X-21373Y-10751D01*
X-21560Y-10668D01*
X-21773D01*
X-22013Y-10793D01*
X-22200Y-11001D01*
X-22333Y-11251D01*
X-22440Y-11668D01*
X-22467Y-12043D01*
X-22413Y-12418D01*
X-22333Y-12668D01*
X-22173Y-12918D01*
X-21987Y-13085D01*
X-21800Y-13168D01*
X-21613D01*
X-21427Y-13085D01*
X-21267Y-12960D01*
X-21133Y-12793D01*
G01X-19600Y-13168D02*
Y-10668D01*
X-19920Y-11168D01*
G01Y-13168D02*
X-19280D01*
G01X-17400D02*
Y-10668D01*
X-17720Y-11168D01*
G01Y-13168D02*
X-17080D01*
G01X-15253D02*
X-15200Y-12626D01*
X-15120Y-12168D01*
X-15013Y-11751D01*
X-14880Y-11293D01*
X-14667Y-10668D01*
X-15733D01*
G01X-37586Y121583D02*
X-37276Y121775D01*
X-37069Y122005D01*
X-36966Y122273D01*
X-37069Y122580D01*
X-37276Y122810D01*
X-37586Y123040D01*
X-37999Y123117D01*
X-40066D01*
G01X-36966Y125450D02*
X-40066D01*
X-39446Y124990D01*
G01X-36966D02*
Y125910D01*
G01Y128550D02*
X-40066D01*
X-39446Y128090D01*
G01X-36966D02*
Y129010D01*
G01X-39549Y130922D02*
X-39859Y131152D01*
X-40014Y131420D01*
X-40066Y131727D01*
X-39963Y132110D01*
X-39704Y132378D01*
X-39394Y132455D01*
X-39084Y132417D01*
X-38826Y132263D01*
X-38309Y131497D01*
X-37948Y131152D01*
X-37431Y130922D01*
X-36966Y130845D01*
Y132455D01*
G01X-15713Y-26958D02*
X-15873Y-26833D01*
X-16060Y-26750D01*
X-16273D01*
X-16513Y-26875D01*
X-16700Y-27083D01*
X-16833Y-27333D01*
X-16940Y-27750D01*
X-16967Y-28125D01*
X-16913Y-28500D01*
X-16833Y-28750D01*
X-16673Y-29000D01*
X-16487Y-29167D01*
X-16300Y-29250D01*
X-16113D01*
X-15927Y-29167D01*
X-15767Y-29042D01*
X-15633Y-28875D01*
G01X-14687Y-28750D02*
X-14527Y-29042D01*
X-14313Y-29208D01*
X-14073Y-29250D01*
X-13860Y-29208D01*
X-13647Y-29000D01*
X-13513Y-28750D01*
X-13487Y-28500D01*
X-13540Y-28208D01*
X-13727Y-28000D01*
X-13913Y-27917D01*
X-14153D01*
G01X-13913D02*
X-13753Y-27792D01*
X-13620Y-27583D01*
X-13567Y-27333D01*
X-13620Y-27083D01*
X-13753Y-26875D01*
X-13993Y-26750D01*
X-14233Y-26792D01*
X-14473Y-26958D01*
G01X-12407Y-27167D02*
X-12247Y-26917D01*
X-12060Y-26792D01*
X-11847Y-26750D01*
X-11580Y-26833D01*
X-11393Y-27042D01*
X-11340Y-27292D01*
X-11367Y-27542D01*
X-11473Y-27750D01*
X-12007Y-28167D01*
X-12247Y-28458D01*
X-12407Y-28875D01*
X-12460Y-29250D01*
X-11340D01*
G01X-9380D02*
Y-26750D01*
X-10367Y-28542D01*
X-9033D01*
G01X-14713Y-19208D02*
X-14873Y-19083D01*
X-15060Y-19000D01*
X-15273D01*
X-15513Y-19125D01*
X-15700Y-19333D01*
X-15833Y-19583D01*
X-15940Y-20000D01*
X-15967Y-20375D01*
X-15913Y-20750D01*
X-15833Y-21000D01*
X-15673Y-21250D01*
X-15487Y-21417D01*
X-15300Y-21500D01*
X-15113D01*
X-14927Y-21417D01*
X-14767Y-21292D01*
X-14633Y-21125D01*
G01X-13687Y-21000D02*
X-13527Y-21292D01*
X-13313Y-21458D01*
X-13073Y-21500D01*
X-12860Y-21458D01*
X-12647Y-21250D01*
X-12513Y-21000D01*
X-12487Y-20750D01*
X-12540Y-20458D01*
X-12727Y-20250D01*
X-12913Y-20167D01*
X-13153D01*
G01X-12913D02*
X-12753Y-20042D01*
X-12620Y-19833D01*
X-12567Y-19583D01*
X-12620Y-19333D01*
X-12753Y-19125D01*
X-12993Y-19000D01*
X-13233Y-19042D01*
X-13473Y-19208D01*
G01X-11407Y-19417D02*
X-11247Y-19167D01*
X-11060Y-19042D01*
X-10847Y-19000D01*
X-10580Y-19083D01*
X-10393Y-19292D01*
X-10340Y-19542D01*
X-10367Y-19792D01*
X-10473Y-20000D01*
X-11007Y-20417D01*
X-11247Y-20708D01*
X-11407Y-21125D01*
X-11460Y-21500D01*
X-10340D01*
G01X-9287Y-21000D02*
X-9127Y-21292D01*
X-8913Y-21458D01*
X-8673Y-21500D01*
X-8460Y-21458D01*
X-8247Y-21250D01*
X-8113Y-21000D01*
X-8087Y-20750D01*
X-8140Y-20458D01*
X-8327Y-20250D01*
X-8513Y-20167D01*
X-8753D01*
G01X-8513D02*
X-8353Y-20042D01*
X-8220Y-19833D01*
X-8167Y-19583D01*
X-8220Y-19333D01*
X-8353Y-19125D01*
X-8593Y-19000D01*
X-8833Y-19042D01*
X-9073Y-19208D01*
G01X787Y-25042D02*
X627Y-24917D01*
X440Y-24834D01*
X227D01*
X-13Y-24959D01*
X-200Y-25167D01*
X-333Y-25417D01*
X-440Y-25834D01*
X-467Y-26209D01*
X-413Y-26584D01*
X-333Y-26834D01*
X-173Y-27084D01*
X13Y-27251D01*
X200Y-27334D01*
X387D01*
X573Y-27251D01*
X733Y-27126D01*
X867Y-26959D01*
G01X1813Y-26834D02*
X1973Y-27126D01*
X2187Y-27292D01*
X2427Y-27334D01*
X2640Y-27292D01*
X2853Y-27084D01*
X2987Y-26834D01*
X3013Y-26584D01*
X2960Y-26292D01*
X2773Y-26084D01*
X2587Y-26001D01*
X2347D01*
G01X2587D02*
X2747Y-25876D01*
X2880Y-25667D01*
X2933Y-25417D01*
X2880Y-25167D01*
X2747Y-24959D01*
X2507Y-24834D01*
X2267Y-24876D01*
X2027Y-25042D01*
G01X4093Y-25251D02*
X4253Y-25001D01*
X4440Y-24876D01*
X4653Y-24834D01*
X4920Y-24917D01*
X5107Y-25126D01*
X5160Y-25376D01*
X5133Y-25626D01*
X5027Y-25834D01*
X4493Y-26251D01*
X4253Y-26542D01*
X4093Y-26959D01*
X4040Y-27334D01*
X5160D01*
G01X6213Y-26959D02*
X6373Y-27167D01*
X6560Y-27292D01*
X6800Y-27334D01*
X7040Y-27251D01*
X7227Y-27084D01*
X7360Y-26792D01*
X7387Y-26459D01*
X7333Y-26126D01*
X7200Y-25917D01*
X7013Y-25751D01*
X6827Y-25709D01*
X6640Y-25751D01*
X6400Y-25917D01*
X6480Y-24834D01*
X7200D01*
G01X-2213Y-34292D02*
X-2373Y-34167D01*
X-2560Y-34084D01*
X-2773D01*
X-3013Y-34209D01*
X-3200Y-34417D01*
X-3333Y-34667D01*
X-3440Y-35084D01*
X-3467Y-35459D01*
X-3413Y-35834D01*
X-3333Y-36084D01*
X-3173Y-36334D01*
X-2987Y-36501D01*
X-2800Y-36584D01*
X-2613D01*
X-2427Y-36501D01*
X-2267Y-36376D01*
X-2133Y-36209D01*
G01X-1107Y-34501D02*
X-947Y-34251D01*
X-760Y-34126D01*
X-547Y-34084D01*
X-280Y-34167D01*
X-93Y-34376D01*
X-40Y-34626D01*
X-67Y-34876D01*
X-173Y-35084D01*
X-707Y-35501D01*
X-947Y-35792D01*
X-1107Y-36209D01*
X-1160Y-36584D01*
X-40D01*
G01X1600Y-34084D02*
X1387Y-34167D01*
X1227Y-34376D01*
X1120Y-34626D01*
X1040Y-34959D01*
X1013Y-35334D01*
X1040Y-35709D01*
X1120Y-36042D01*
X1227Y-36292D01*
X1387Y-36501D01*
X1600Y-36584D01*
X1813Y-36501D01*
X1973Y-36292D01*
X2080Y-36042D01*
X2160Y-35709D01*
X2187Y-35334D01*
X2160Y-34959D01*
X2080Y-34626D01*
X1973Y-34376D01*
X1813Y-34167D01*
X1600Y-34084D01*
G01X3293Y-34501D02*
X3453Y-34251D01*
X3640Y-34126D01*
X3853Y-34084D01*
X4120Y-34167D01*
X4307Y-34376D01*
X4360Y-34626D01*
X4333Y-34876D01*
X4227Y-35084D01*
X3693Y-35501D01*
X3453Y-35792D01*
X3293Y-36209D01*
X3240Y-36584D01*
X4360D01*
G01X-13713Y-35042D02*
X-13873Y-34917D01*
X-14060Y-34834D01*
X-14273D01*
X-14513Y-34959D01*
X-14700Y-35167D01*
X-14833Y-35417D01*
X-14940Y-35834D01*
X-14967Y-36209D01*
X-14913Y-36584D01*
X-14833Y-36834D01*
X-14673Y-37084D01*
X-14487Y-37251D01*
X-14300Y-37334D01*
X-14113D01*
X-13927Y-37251D01*
X-13767Y-37126D01*
X-13633Y-36959D01*
G01X-12607Y-35251D02*
X-12447Y-35001D01*
X-12260Y-34876D01*
X-12047Y-34834D01*
X-11780Y-34917D01*
X-11593Y-35126D01*
X-11540Y-35376D01*
X-11567Y-35626D01*
X-11673Y-35834D01*
X-12207Y-36251D01*
X-12447Y-36542D01*
X-12607Y-36959D01*
X-12660Y-37334D01*
X-11540D01*
G01X-9900Y-34834D02*
X-10113Y-34917D01*
X-10273Y-35126D01*
X-10380Y-35376D01*
X-10460Y-35709D01*
X-10487Y-36084D01*
X-10460Y-36459D01*
X-10380Y-36792D01*
X-10273Y-37042D01*
X-10113Y-37251D01*
X-9900Y-37334D01*
X-9687Y-37251D01*
X-9527Y-37042D01*
X-9420Y-36792D01*
X-9340Y-36459D01*
X-9313Y-36084D01*
X-9340Y-35709D01*
X-9420Y-35376D01*
X-9527Y-35126D01*
X-9687Y-34917D01*
X-9900Y-34834D01*
G01X-8287Y-36834D02*
X-8127Y-37126D01*
X-7913Y-37292D01*
X-7673Y-37334D01*
X-7460Y-37292D01*
X-7247Y-37084D01*
X-7113Y-36834D01*
X-7087Y-36584D01*
X-7140Y-36292D01*
X-7327Y-36084D01*
X-7513Y-36001D01*
X-7753D01*
G01X-7513D02*
X-7353Y-35876D01*
X-7220Y-35667D01*
X-7167Y-35417D01*
X-7220Y-35167D01*
X-7353Y-34959D01*
X-7593Y-34834D01*
X-7833Y-34876D01*
X-8073Y-35042D01*
G01X-14713Y-4376D02*
X-14873Y-4251D01*
X-15060Y-4168D01*
X-15273D01*
X-15513Y-4293D01*
X-15700Y-4501D01*
X-15833Y-4751D01*
X-15940Y-5168D01*
X-15967Y-5543D01*
X-15913Y-5918D01*
X-15833Y-6168D01*
X-15673Y-6418D01*
X-15487Y-6585D01*
X-15300Y-6668D01*
X-15113D01*
X-14927Y-6585D01*
X-14767Y-6460D01*
X-14633Y-6293D01*
G01X-13687Y-6168D02*
X-13527Y-6460D01*
X-13313Y-6626D01*
X-13073Y-6668D01*
X-12860Y-6626D01*
X-12647Y-6418D01*
X-12513Y-6168D01*
X-12487Y-5918D01*
X-12540Y-5626D01*
X-12727Y-5418D01*
X-12913Y-5335D01*
X-13153D01*
G01X-12913D02*
X-12753Y-5210D01*
X-12620Y-5001D01*
X-12567Y-4751D01*
X-12620Y-4501D01*
X-12753Y-4293D01*
X-12993Y-4168D01*
X-13233Y-4210D01*
X-13473Y-4376D01*
G01X-11407Y-4585D02*
X-11247Y-4335D01*
X-11060Y-4210D01*
X-10847Y-4168D01*
X-10580Y-4251D01*
X-10393Y-4460D01*
X-10340Y-4710D01*
X-10367Y-4960D01*
X-10473Y-5168D01*
X-11007Y-5585D01*
X-11247Y-5876D01*
X-11407Y-6293D01*
X-11460Y-6668D01*
X-10340D01*
G01X-8700D02*
X-8513Y-6626D01*
X-8300Y-6501D01*
X-8167Y-6293D01*
X-8113Y-6001D01*
X-8167Y-5710D01*
X-8327Y-5460D01*
X-8567Y-5335D01*
X-8833D01*
X-8993Y-5251D01*
X-9127Y-5043D01*
X-9180Y-4751D01*
X-9100Y-4460D01*
X-8913Y-4251D01*
X-8700Y-4168D01*
X-8487Y-4251D01*
X-8300Y-4460D01*
X-8220Y-4751D01*
X-8273Y-5043D01*
X-8407Y-5251D01*
X-8567Y-5335D01*
X-8833D01*
X-9073Y-5460D01*
X-9233Y-5710D01*
X-9287Y-6001D01*
X-9233Y-6293D01*
X-9100Y-6501D01*
X-8887Y-6626D01*
X-8700Y-6668D01*
G01X-13713Y1542D02*
X-13873Y1667D01*
X-14060Y1750D01*
X-14273D01*
X-14513Y1625D01*
X-14700Y1417D01*
X-14833Y1167D01*
X-14940Y750D01*
X-14967Y375D01*
X-14913Y0D01*
X-14833Y-250D01*
X-14673Y-500D01*
X-14487Y-667D01*
X-14300Y-750D01*
X-14113D01*
X-13927Y-667D01*
X-13767Y-542D01*
X-13633Y-375D01*
G01X-12687Y-250D02*
X-12527Y-542D01*
X-12313Y-708D01*
X-12073Y-750D01*
X-11860Y-708D01*
X-11647Y-500D01*
X-11513Y-250D01*
X-11487Y0D01*
X-11540Y292D01*
X-11727Y500D01*
X-11913Y583D01*
X-12153D01*
G01X-11913D02*
X-11753Y708D01*
X-11620Y917D01*
X-11567Y1167D01*
X-11620Y1417D01*
X-11753Y1625D01*
X-11993Y1750D01*
X-12233Y1708D01*
X-12473Y1542D01*
G01X-10407Y1333D02*
X-10247Y1583D01*
X-10060Y1708D01*
X-9847Y1750D01*
X-9580Y1667D01*
X-9393Y1458D01*
X-9340Y1208D01*
X-9367Y958D01*
X-9473Y750D01*
X-10007Y333D01*
X-10247Y42D01*
X-10407Y-375D01*
X-10460Y-750D01*
X-9340D01*
G01X-7753D02*
X-7700Y-208D01*
X-7620Y250D01*
X-7513Y667D01*
X-7380Y1125D01*
X-7167Y1750D01*
X-8233D01*
G01X-1250Y-10333D02*
X-3750D01*
Y-9667D01*
X-3625Y-9453D01*
X-3458Y-9320D01*
X-3125Y-9267D01*
X-2792Y-9320D01*
X-2583Y-9480D01*
X-2458Y-9667D01*
Y-10333D01*
G01Y-9667D02*
X-1250Y-9267D01*
G01Y-7600D02*
X-3750D01*
X-3250Y-7920D01*
G01X-1250D02*
Y-7280D01*
G01X-3333Y-5907D02*
X-3583Y-5747D01*
X-3708Y-5560D01*
X-3750Y-5347D01*
X-3667Y-5080D01*
X-3458Y-4893D01*
X-3208Y-4840D01*
X-2958Y-4867D01*
X-2750Y-4973D01*
X-2333Y-5507D01*
X-2042Y-5747D01*
X-1625Y-5907D01*
X-1250Y-5960D01*
Y-4840D01*
G01Y-2880D02*
X-3750D01*
X-1958Y-3867D01*
Y-2533D01*
G01X-2542Y4787D02*
X-2667Y4627D01*
X-2750Y4440D01*
Y4227D01*
X-2625Y3987D01*
X-2417Y3800D01*
X-2167Y3667D01*
X-1750Y3560D01*
X-1375Y3533D01*
X-1000Y3587D01*
X-750Y3667D01*
X-500Y3827D01*
X-333Y4013D01*
X-250Y4200D01*
Y4387D01*
X-333Y4573D01*
X-458Y4733D01*
X-625Y4867D01*
G01X-750Y5813D02*
X-458Y5973D01*
X-292Y6187D01*
X-250Y6427D01*
X-292Y6640D01*
X-500Y6853D01*
X-750Y6987D01*
X-1000Y7013D01*
X-1292Y6960D01*
X-1500Y6773D01*
X-1583Y6587D01*
Y6347D01*
G01Y6587D02*
X-1708Y6747D01*
X-1917Y6880D01*
X-2167Y6933D01*
X-2417Y6880D01*
X-2625Y6747D01*
X-2750Y6507D01*
X-2708Y6267D01*
X-2542Y6027D01*
G01X-2333Y8093D02*
X-2583Y8253D01*
X-2708Y8440D01*
X-2750Y8653D01*
X-2667Y8920D01*
X-2458Y9107D01*
X-2208Y9160D01*
X-1958Y9133D01*
X-1750Y9027D01*
X-1333Y8493D01*
X-1042Y8253D01*
X-625Y8093D01*
X-250Y8040D01*
Y9160D01*
G01X-1292Y10293D02*
X-1583Y10480D01*
X-1750Y10640D01*
X-1833Y10853D01*
X-1750Y11040D01*
X-1583Y11173D01*
X-1333Y11280D01*
X-1042Y11307D01*
X-792Y11280D01*
X-542Y11173D01*
X-333Y11013D01*
X-250Y10827D01*
X-333Y10613D01*
X-583Y10427D01*
X-958Y10320D01*
X-1375Y10293D01*
X-1917Y10347D01*
X-2208Y10427D01*
X-2500Y10560D01*
X-2708Y10747D01*
X-2750Y10933D01*
X-2667Y11120D01*
X-2458Y11253D01*
G01X-18417Y22317D02*
Y19217D01*
X-16883D01*
G01X-14550D02*
Y22317D01*
X-15010Y21697D01*
G01Y19217D02*
X-14090D01*
G01X-11450Y22317D02*
X-11757Y22214D01*
X-11987Y21955D01*
X-12140Y21645D01*
X-12255Y21232D01*
X-12293Y20767D01*
X-12255Y20302D01*
X-12140Y19889D01*
X-11987Y19579D01*
X-11757Y19320D01*
X-11450Y19217D01*
X-11143Y19320D01*
X-10913Y19579D01*
X-10760Y19889D01*
X-10645Y20302D01*
X-10607Y20767D01*
X-10645Y21232D01*
X-10760Y21645D01*
X-10913Y21955D01*
X-11143Y22214D01*
X-11450Y22317D01*
G01X-8350Y19217D02*
Y22317D01*
X-8810Y21697D01*
G01Y19217D02*
X-7890D01*
G01X-5558Y30809D02*
X-5788Y30964D01*
X-6056Y31067D01*
X-6363D01*
X-6708Y30912D01*
X-6976Y30654D01*
X-7168Y30344D01*
X-7321Y29827D01*
X-7359Y29362D01*
X-7283Y28897D01*
X-7168Y28587D01*
X-6938Y28277D01*
X-6669Y28070D01*
X-6401Y27967D01*
X-6133D01*
X-5864Y28070D01*
X-5634Y28225D01*
X-5443Y28432D01*
G01X-3301Y27967D02*
Y31067D01*
X-3761Y30447D01*
G01Y27967D02*
X-2841D01*
G01X-201Y31067D02*
X-508Y30964D01*
X-738Y30705D01*
X-891Y30395D01*
X-1006Y29982D01*
X-1044Y29517D01*
X-1006Y29052D01*
X-891Y28639D01*
X-738Y28329D01*
X-508Y28070D01*
X-201Y27967D01*
X106Y28070D01*
X336Y28329D01*
X489Y28639D01*
X604Y29052D01*
X642Y29517D01*
X604Y29982D01*
X489Y30395D01*
X336Y30705D01*
X106Y30964D01*
X-201Y31067D01*
G01X2899Y27967D02*
Y31067D01*
X2439Y30447D01*
G01Y27967D02*
X3359D01*
G01X-14150Y44067D02*
Y40967D01*
G01X-15032Y44067D02*
X-13268D01*
G01X-11050Y40967D02*
Y44067D01*
X-11510Y43447D01*
G01Y40967D02*
X-10590D01*
G01X-7950Y44067D02*
X-8257Y43964D01*
X-8487Y43705D01*
X-8640Y43395D01*
X-8755Y42982D01*
X-8793Y42517D01*
X-8755Y42052D01*
X-8640Y41639D01*
X-8487Y41329D01*
X-8257Y41070D01*
X-7950Y40967D01*
X-7643Y41070D01*
X-7413Y41329D01*
X-7260Y41639D01*
X-7145Y42052D01*
X-7107Y42517D01*
X-7145Y42982D01*
X-7260Y43395D01*
X-7413Y43705D01*
X-7643Y43964D01*
X-7950Y44067D01*
G01X-5693Y41587D02*
X-5463Y41225D01*
X-5157Y41019D01*
X-4812Y40967D01*
X-4505Y41019D01*
X-4198Y41277D01*
X-4007Y41587D01*
X-3968Y41897D01*
X-4045Y42259D01*
X-4313Y42517D01*
X-4582Y42620D01*
X-4927D01*
G01X-4582D02*
X-4352Y42775D01*
X-4160Y43034D01*
X-4083Y43344D01*
X-4160Y43654D01*
X-4352Y43912D01*
X-4697Y44067D01*
X-5042Y44015D01*
X-5387Y43809D01*
G01X14542Y-50463D02*
X14417Y-50623D01*
X14334Y-50810D01*
Y-51023D01*
X14459Y-51263D01*
X14667Y-51450D01*
X14917Y-51583D01*
X15334Y-51690D01*
X15709Y-51717D01*
X16084Y-51663D01*
X16334Y-51583D01*
X16584Y-51423D01*
X16751Y-51237D01*
X16834Y-51050D01*
Y-50863D01*
X16751Y-50677D01*
X16626Y-50517D01*
X16459Y-50383D01*
G01X16334Y-49437D02*
X16626Y-49277D01*
X16792Y-49063D01*
X16834Y-48823D01*
X16792Y-48610D01*
X16584Y-48397D01*
X16334Y-48263D01*
X16084Y-48237D01*
X15792Y-48290D01*
X15584Y-48477D01*
X15501Y-48663D01*
Y-48903D01*
G01Y-48663D02*
X15376Y-48503D01*
X15167Y-48370D01*
X14917Y-48317D01*
X14667Y-48370D01*
X14459Y-48503D01*
X14334Y-48743D01*
X14376Y-48983D01*
X14542Y-49223D01*
G01X16459Y-47237D02*
X16667Y-47077D01*
X16792Y-46890D01*
X16834Y-46650D01*
X16751Y-46410D01*
X16584Y-46223D01*
X16292Y-46090D01*
X15959Y-46063D01*
X15626Y-46117D01*
X15417Y-46250D01*
X15251Y-46437D01*
X15209Y-46623D01*
X15251Y-46810D01*
X15417Y-47050D01*
X14334Y-46970D01*
Y-46250D01*
G01X16834Y-44450D02*
X16792Y-44263D01*
X16667Y-44050D01*
X16459Y-43917D01*
X16167Y-43863D01*
X15876Y-43917D01*
X15626Y-44077D01*
X15501Y-44317D01*
Y-44583D01*
X15417Y-44743D01*
X15209Y-44877D01*
X14917Y-44930D01*
X14626Y-44850D01*
X14417Y-44663D01*
X14334Y-44450D01*
X14417Y-44237D01*
X14626Y-44050D01*
X14917Y-43970D01*
X15209Y-44023D01*
X15417Y-44157D01*
X15501Y-44317D01*
Y-44583D01*
X15626Y-44823D01*
X15876Y-44983D01*
X16167Y-45037D01*
X16459Y-44983D01*
X16667Y-44850D01*
X16792Y-44637D01*
X16834Y-44450D01*
G01X18792Y-50463D02*
X18667Y-50623D01*
X18584Y-50810D01*
Y-51023D01*
X18709Y-51263D01*
X18917Y-51450D01*
X19167Y-51583D01*
X19584Y-51690D01*
X19959Y-51717D01*
X20334Y-51663D01*
X20584Y-51583D01*
X20834Y-51423D01*
X21001Y-51237D01*
X21084Y-51050D01*
Y-50863D01*
X21001Y-50677D01*
X20876Y-50517D01*
X20709Y-50383D01*
G01X20584Y-49437D02*
X20876Y-49277D01*
X21042Y-49063D01*
X21084Y-48823D01*
X21042Y-48610D01*
X20834Y-48397D01*
X20584Y-48263D01*
X20334Y-48237D01*
X20042Y-48290D01*
X19834Y-48477D01*
X19751Y-48663D01*
Y-48903D01*
G01Y-48663D02*
X19626Y-48503D01*
X19417Y-48370D01*
X19167Y-48317D01*
X18917Y-48370D01*
X18709Y-48503D01*
X18584Y-48743D01*
X18626Y-48983D01*
X18792Y-49223D01*
G01X20042Y-47157D02*
X19751Y-46970D01*
X19584Y-46810D01*
X19501Y-46597D01*
X19584Y-46410D01*
X19751Y-46277D01*
X20001Y-46170D01*
X20292Y-46143D01*
X20542Y-46170D01*
X20792Y-46277D01*
X21001Y-46437D01*
X21084Y-46623D01*
X21001Y-46837D01*
X20751Y-47023D01*
X20376Y-47130D01*
X19959Y-47157D01*
X19417Y-47103D01*
X19126Y-47023D01*
X18834Y-46890D01*
X18626Y-46703D01*
X18584Y-46517D01*
X18667Y-46330D01*
X18876Y-46197D01*
G01X21084Y-44450D02*
X18584D01*
X19084Y-44770D01*
G01X21084D02*
Y-44130D01*
G01X3584Y-47583D02*
X1084D01*
Y-46917D01*
X1209Y-46703D01*
X1376Y-46570D01*
X1709Y-46517D01*
X2042Y-46570D01*
X2251Y-46730D01*
X2376Y-46917D01*
Y-47583D01*
G01Y-46917D02*
X3584Y-46517D01*
G01Y-44850D02*
X1084D01*
X1584Y-45170D01*
G01X3584D02*
Y-44530D01*
G01X1501Y-43157D02*
X1251Y-42997D01*
X1126Y-42810D01*
X1084Y-42597D01*
X1167Y-42330D01*
X1376Y-42143D01*
X1626Y-42090D01*
X1876Y-42117D01*
X2084Y-42223D01*
X2501Y-42757D01*
X2792Y-42997D01*
X3209Y-43157D01*
X3584Y-43210D01*
Y-42090D01*
G01X1501Y-40957D02*
X1251Y-40797D01*
X1126Y-40610D01*
X1084Y-40397D01*
X1167Y-40130D01*
X1376Y-39943D01*
X1626Y-39890D01*
X1876Y-39917D01*
X2084Y-40023D01*
X2501Y-40557D01*
X2792Y-40797D01*
X3209Y-40957D01*
X3584Y-41010D01*
Y-39890D01*
G01X1667Y-53500D02*
Y-51000D01*
X2333D01*
X2547Y-51125D01*
X2680Y-51292D01*
X2733Y-51625D01*
X2680Y-51958D01*
X2520Y-52167D01*
X2333Y-52292D01*
X1667D01*
G01X2333D02*
X2733Y-53500D01*
G01X4400D02*
Y-51000D01*
X4080Y-51500D01*
G01Y-53500D02*
X4720D01*
G01X6600Y-51000D02*
X6387Y-51083D01*
X6227Y-51292D01*
X6120Y-51542D01*
X6040Y-51875D01*
X6013Y-52250D01*
X6040Y-52625D01*
X6120Y-52958D01*
X6227Y-53208D01*
X6387Y-53417D01*
X6600Y-53500D01*
X6813Y-53417D01*
X6973Y-53208D01*
X7080Y-52958D01*
X7160Y-52625D01*
X7187Y-52250D01*
X7160Y-51875D01*
X7080Y-51542D01*
X6973Y-51292D01*
X6813Y-51083D01*
X6600Y-51000D01*
G01X8293Y-51417D02*
X8453Y-51167D01*
X8640Y-51042D01*
X8853Y-51000D01*
X9120Y-51083D01*
X9307Y-51292D01*
X9360Y-51542D01*
X9333Y-51792D01*
X9227Y-52000D01*
X8693Y-52417D01*
X8453Y-52708D01*
X8293Y-53125D01*
X8240Y-53500D01*
X9360D01*
G01X8528Y-40241D02*
X8347Y-40333D01*
X8193Y-40467D01*
X8103Y-40660D01*
X8114Y-40931D01*
X8224Y-41188D01*
X8395Y-41414D01*
X8727Y-41687D01*
X9056Y-41870D01*
X9418Y-41980D01*
X9679Y-42013D01*
X9973Y-41974D01*
X10203Y-41875D01*
X10357Y-41741D01*
X10436Y-41572D01*
X10439Y-41367D01*
X10394Y-41170D01*
X10299Y-40978D01*
G01X11287Y-39747D02*
X9021Y-38690D01*
X9339Y-39192D01*
G01X11152Y-40037D02*
X11422Y-39457D01*
G01X9951Y-36696D02*
X9937Y-36925D01*
X10058Y-37158D01*
X10239Y-37360D01*
X10508Y-37574D01*
X10836Y-37756D01*
X11187Y-37891D01*
X11523Y-37959D01*
X11795Y-37968D01*
X12051Y-37911D01*
X12217Y-37753D01*
X12232Y-37524D01*
X12111Y-37291D01*
X11929Y-37089D01*
X11661Y-36876D01*
X11332Y-36693D01*
X10981Y-36559D01*
X10645Y-36490D01*
X10373Y-36481D01*
X10117Y-36538D01*
X9951Y-36696D01*
G01X11045Y-35338D02*
X10886Y-35087D01*
X10851Y-34865D01*
X10904Y-34654D01*
X11092Y-34448D01*
X11360Y-34366D01*
X11609Y-34424D01*
X11824Y-34554D01*
X11968Y-34738D01*
X12120Y-35398D01*
X12283Y-35739D01*
X12593Y-36060D01*
X12910Y-36266D01*
X13384Y-35251D01*
G01X18708Y-24963D02*
X18583Y-25123D01*
X18500Y-25310D01*
Y-25523D01*
X18625Y-25763D01*
X18833Y-25950D01*
X19083Y-26083D01*
X19500Y-26190D01*
X19875Y-26217D01*
X20250Y-26163D01*
X20500Y-26083D01*
X20750Y-25923D01*
X20917Y-25737D01*
X21000Y-25550D01*
Y-25363D01*
X20917Y-25177D01*
X20792Y-25017D01*
X20625Y-24883D01*
G01X20500Y-23937D02*
X20792Y-23777D01*
X20958Y-23563D01*
X21000Y-23323D01*
X20958Y-23110D01*
X20750Y-22897D01*
X20500Y-22763D01*
X20250Y-22737D01*
X19958Y-22790D01*
X19750Y-22977D01*
X19667Y-23163D01*
Y-23403D01*
G01Y-23163D02*
X19542Y-23003D01*
X19333Y-22870D01*
X19083Y-22817D01*
X18833Y-22870D01*
X18625Y-23003D01*
X18500Y-23243D01*
X18542Y-23483D01*
X18708Y-23723D01*
G01X20625Y-21737D02*
X20833Y-21577D01*
X20958Y-21390D01*
X21000Y-21150D01*
X20917Y-20910D01*
X20750Y-20723D01*
X20458Y-20590D01*
X20125Y-20563D01*
X19792Y-20617D01*
X19583Y-20750D01*
X19417Y-20937D01*
X19375Y-21123D01*
X19417Y-21310D01*
X19583Y-21550D01*
X18500Y-21470D01*
Y-20750D01*
G01X20708Y-19403D02*
X20917Y-19217D01*
X21000Y-19003D01*
X20917Y-18790D01*
X20667Y-18603D01*
X20292Y-18470D01*
X19917Y-18417D01*
X19458D01*
X19083Y-18470D01*
X18750Y-18603D01*
X18583Y-18763D01*
X18500Y-18950D01*
X18583Y-19163D01*
X18750Y-19323D01*
X19000Y-19430D01*
X19333Y-19483D01*
X19625Y-19430D01*
X19917Y-19297D01*
X20083Y-19137D01*
X20125Y-18950D01*
X20042Y-18737D01*
X19833Y-18577D01*
X19458Y-18417D01*
G01X22537Y-31833D02*
X22377Y-31708D01*
X22190Y-31625D01*
X21977D01*
X21737Y-31750D01*
X21550Y-31958D01*
X21417Y-32208D01*
X21310Y-32625D01*
X21283Y-33000D01*
X21337Y-33375D01*
X21417Y-33625D01*
X21577Y-33875D01*
X21763Y-34042D01*
X21950Y-34125D01*
X22137D01*
X22323Y-34042D01*
X22483Y-33917D01*
X22617Y-33750D01*
G01X23563Y-33625D02*
X23723Y-33917D01*
X23937Y-34083D01*
X24177Y-34125D01*
X24390Y-34083D01*
X24603Y-33875D01*
X24737Y-33625D01*
X24763Y-33375D01*
X24710Y-33083D01*
X24523Y-32875D01*
X24337Y-32792D01*
X24097D01*
G01X24337D02*
X24497Y-32667D01*
X24630Y-32458D01*
X24683Y-32208D01*
X24630Y-31958D01*
X24497Y-31750D01*
X24257Y-31625D01*
X24017Y-31667D01*
X23777Y-31833D01*
G01X25843Y-33083D02*
X26030Y-32792D01*
X26190Y-32625D01*
X26403Y-32542D01*
X26590Y-32625D01*
X26723Y-32792D01*
X26830Y-33042D01*
X26857Y-33333D01*
X26830Y-33583D01*
X26723Y-33833D01*
X26563Y-34042D01*
X26377Y-34125D01*
X26163Y-34042D01*
X25977Y-33792D01*
X25870Y-33417D01*
X25843Y-33000D01*
X25897Y-32458D01*
X25977Y-32167D01*
X26110Y-31875D01*
X26297Y-31667D01*
X26483Y-31625D01*
X26670Y-31708D01*
X26803Y-31917D01*
G01X28550Y-31625D02*
X28337Y-31708D01*
X28177Y-31917D01*
X28070Y-32167D01*
X27990Y-32500D01*
X27963Y-32875D01*
X27990Y-33250D01*
X28070Y-33583D01*
X28177Y-33833D01*
X28337Y-34042D01*
X28550Y-34125D01*
X28763Y-34042D01*
X28923Y-33833D01*
X29030Y-33583D01*
X29110Y-33250D01*
X29137Y-32875D01*
X29110Y-32500D01*
X29030Y-32167D01*
X28923Y-31917D01*
X28763Y-31708D01*
X28550Y-31625D01*
G01X4787Y-18542D02*
X4627Y-18417D01*
X4440Y-18334D01*
X4227D01*
X3987Y-18459D01*
X3800Y-18667D01*
X3667Y-18917D01*
X3560Y-19334D01*
X3533Y-19709D01*
X3587Y-20084D01*
X3667Y-20334D01*
X3827Y-20584D01*
X4013Y-20751D01*
X4200Y-20834D01*
X4387D01*
X4573Y-20751D01*
X4733Y-20626D01*
X4867Y-20459D01*
G01X5813Y-20334D02*
X5973Y-20626D01*
X6187Y-20792D01*
X6427Y-20834D01*
X6640Y-20792D01*
X6853Y-20584D01*
X6987Y-20334D01*
X7013Y-20084D01*
X6960Y-19792D01*
X6773Y-19584D01*
X6587Y-19501D01*
X6347D01*
G01X6587D02*
X6747Y-19376D01*
X6880Y-19167D01*
X6933Y-18917D01*
X6880Y-18667D01*
X6747Y-18459D01*
X6507Y-18334D01*
X6267Y-18376D01*
X6027Y-18542D01*
G01X8093Y-18751D02*
X8253Y-18501D01*
X8440Y-18376D01*
X8653Y-18334D01*
X8920Y-18417D01*
X9107Y-18626D01*
X9160Y-18876D01*
X9133Y-19126D01*
X9027Y-19334D01*
X8493Y-19751D01*
X8253Y-20042D01*
X8093Y-20459D01*
X8040Y-20834D01*
X9160D01*
G01X10293Y-18751D02*
X10453Y-18501D01*
X10640Y-18376D01*
X10853Y-18334D01*
X11120Y-18417D01*
X11307Y-18626D01*
X11360Y-18876D01*
X11333Y-19126D01*
X11227Y-19334D01*
X10693Y-19751D01*
X10453Y-20042D01*
X10293Y-20459D01*
X10240Y-20834D01*
X11360D01*
G01X4037Y-5876D02*
X3877Y-5751D01*
X3690Y-5668D01*
X3477D01*
X3237Y-5793D01*
X3050Y-6001D01*
X2917Y-6251D01*
X2810Y-6668D01*
X2783Y-7043D01*
X2837Y-7418D01*
X2917Y-7668D01*
X3077Y-7918D01*
X3263Y-8085D01*
X3450Y-8168D01*
X3637D01*
X3823Y-8085D01*
X3983Y-7960D01*
X4117Y-7793D01*
G01X5063Y-7668D02*
X5223Y-7960D01*
X5437Y-8126D01*
X5677Y-8168D01*
X5890Y-8126D01*
X6103Y-7918D01*
X6237Y-7668D01*
X6263Y-7418D01*
X6210Y-7126D01*
X6023Y-6918D01*
X5837Y-6835D01*
X5597D01*
G01X5837D02*
X5997Y-6710D01*
X6130Y-6501D01*
X6183Y-6251D01*
X6130Y-6001D01*
X5997Y-5793D01*
X5757Y-5668D01*
X5517Y-5710D01*
X5277Y-5876D01*
G01X7343Y-6085D02*
X7503Y-5835D01*
X7690Y-5710D01*
X7903Y-5668D01*
X8170Y-5751D01*
X8357Y-5960D01*
X8410Y-6210D01*
X8383Y-6460D01*
X8277Y-6668D01*
X7743Y-7085D01*
X7503Y-7376D01*
X7343Y-7793D01*
X7290Y-8168D01*
X8410D01*
G01X9597Y-7876D02*
X9783Y-8085D01*
X9997Y-8168D01*
X10210Y-8085D01*
X10397Y-7835D01*
X10530Y-7460D01*
X10583Y-7085D01*
Y-6626D01*
X10530Y-6251D01*
X10397Y-5918D01*
X10237Y-5751D01*
X10050Y-5668D01*
X9837Y-5751D01*
X9677Y-5918D01*
X9570Y-6168D01*
X9517Y-6501D01*
X9570Y-6793D01*
X9703Y-7085D01*
X9863Y-7251D01*
X10050Y-7293D01*
X10263Y-7210D01*
X10423Y-7001D01*
X10583Y-6626D01*
G01X4037Y-12626D02*
X3877Y-12501D01*
X3690Y-12418D01*
X3477D01*
X3237Y-12543D01*
X3050Y-12751D01*
X2917Y-13001D01*
X2810Y-13418D01*
X2783Y-13793D01*
X2837Y-14168D01*
X2917Y-14418D01*
X3077Y-14668D01*
X3263Y-14835D01*
X3450Y-14918D01*
X3637D01*
X3823Y-14835D01*
X3983Y-14710D01*
X4117Y-14543D01*
G01X5650Y-14918D02*
Y-12418D01*
X5330Y-12918D01*
G01Y-14918D02*
X5970D01*
G01X7850D02*
Y-12418D01*
X7530Y-12918D01*
G01Y-14918D02*
X8170D01*
G01X9543Y-13876D02*
X9730Y-13585D01*
X9890Y-13418D01*
X10103Y-13335D01*
X10290Y-13418D01*
X10423Y-13585D01*
X10530Y-13835D01*
X10557Y-14126D01*
X10530Y-14376D01*
X10423Y-14626D01*
X10263Y-14835D01*
X10077Y-14918D01*
X9863Y-14835D01*
X9677Y-14585D01*
X9570Y-14210D01*
X9543Y-13793D01*
X9597Y-13251D01*
X9677Y-12960D01*
X9810Y-12668D01*
X9997Y-12460D01*
X10183Y-12418D01*
X10370Y-12501D01*
X10503Y-12710D01*
G01X3037Y-1208D02*
X2877Y-1083D01*
X2690Y-1000D01*
X2477D01*
X2237Y-1125D01*
X2050Y-1333D01*
X1917Y-1583D01*
X1810Y-2000D01*
X1783Y-2375D01*
X1837Y-2750D01*
X1917Y-3000D01*
X2077Y-3250D01*
X2263Y-3417D01*
X2450Y-3500D01*
X2637D01*
X2823Y-3417D01*
X2983Y-3292D01*
X3117Y-3125D01*
G01X4063Y-3000D02*
X4223Y-3292D01*
X4437Y-3458D01*
X4677Y-3500D01*
X4890Y-3458D01*
X5103Y-3250D01*
X5237Y-3000D01*
X5263Y-2750D01*
X5210Y-2458D01*
X5023Y-2250D01*
X4837Y-2167D01*
X4597D01*
G01X4837D02*
X4997Y-2042D01*
X5130Y-1833D01*
X5183Y-1583D01*
X5130Y-1333D01*
X4997Y-1125D01*
X4757Y-1000D01*
X4517Y-1042D01*
X4277Y-1208D01*
G01X6263Y-3000D02*
X6423Y-3292D01*
X6637Y-3458D01*
X6877Y-3500D01*
X7090Y-3458D01*
X7303Y-3250D01*
X7437Y-3000D01*
X7463Y-2750D01*
X7410Y-2458D01*
X7223Y-2250D01*
X7037Y-2167D01*
X6797D01*
G01X7037D02*
X7197Y-2042D01*
X7330Y-1833D01*
X7383Y-1583D01*
X7330Y-1333D01*
X7197Y-1125D01*
X6957Y-1000D01*
X6717Y-1042D01*
X6477Y-1208D01*
G01X8463Y-3000D02*
X8623Y-3292D01*
X8837Y-3458D01*
X9077Y-3500D01*
X9290Y-3458D01*
X9503Y-3250D01*
X9637Y-3000D01*
X9663Y-2750D01*
X9610Y-2458D01*
X9423Y-2250D01*
X9237Y-2167D01*
X8997D01*
G01X9237D02*
X9397Y-2042D01*
X9530Y-1833D01*
X9583Y-1583D01*
X9530Y-1333D01*
X9397Y-1125D01*
X9157Y-1000D01*
X8917Y-1042D01*
X8677Y-1208D01*
G01X13167Y-12084D02*
Y-9584D01*
X13833D01*
X14047Y-9709D01*
X14180Y-9876D01*
X14233Y-10209D01*
X14180Y-10542D01*
X14020Y-10751D01*
X13833Y-10876D01*
X13167D01*
G01X13833D02*
X14233Y-12084D01*
G01X15900D02*
Y-9584D01*
X15580Y-10084D01*
G01Y-12084D02*
X16220D01*
G01X18100D02*
Y-9584D01*
X17780Y-10084D01*
G01Y-12084D02*
X18420D01*
G01X20300D02*
Y-9584D01*
X19980Y-10084D01*
G01Y-12084D02*
X20620D01*
G01X18667Y-8334D02*
Y-5834D01*
X19333D01*
X19547Y-5959D01*
X19680Y-6126D01*
X19733Y-6459D01*
X19680Y-6792D01*
X19520Y-7001D01*
X19333Y-7126D01*
X18667D01*
G01X19333D02*
X19733Y-8334D01*
G01X21400D02*
Y-5834D01*
X21080Y-6334D01*
G01Y-8334D02*
X21720D01*
G01X23600Y-5834D02*
X23387Y-5917D01*
X23227Y-6126D01*
X23120Y-6376D01*
X23040Y-6709D01*
X23013Y-7084D01*
X23040Y-7459D01*
X23120Y-7792D01*
X23227Y-8042D01*
X23387Y-8251D01*
X23600Y-8334D01*
X23813Y-8251D01*
X23973Y-8042D01*
X24080Y-7792D01*
X24160Y-7459D01*
X24187Y-7084D01*
X24160Y-6709D01*
X24080Y-6376D01*
X23973Y-6126D01*
X23813Y-5917D01*
X23600Y-5834D01*
G01X25213Y-7834D02*
X25373Y-8126D01*
X25587Y-8292D01*
X25827Y-8334D01*
X26040Y-8292D01*
X26253Y-8084D01*
X26387Y-7834D01*
X26413Y-7584D01*
X26360Y-7292D01*
X26173Y-7084D01*
X25987Y-7001D01*
X25747D01*
G01X25987D02*
X26147Y-6876D01*
X26280Y-6667D01*
X26333Y-6417D01*
X26280Y-6167D01*
X26147Y-5959D01*
X25907Y-5834D01*
X25667Y-5876D01*
X25427Y-6042D01*
G01X2787Y11959D02*
X2627Y12084D01*
X2440Y12167D01*
X2227D01*
X1987Y12042D01*
X1800Y11834D01*
X1667Y11584D01*
X1560Y11167D01*
X1533Y10792D01*
X1587Y10417D01*
X1667Y10167D01*
X1827Y9917D01*
X2013Y9750D01*
X2200Y9667D01*
X2387D01*
X2573Y9750D01*
X2733Y9875D01*
X2867Y10042D01*
G01X3813Y10167D02*
X3973Y9875D01*
X4187Y9709D01*
X4427Y9667D01*
X4640Y9709D01*
X4853Y9917D01*
X4987Y10167D01*
X5013Y10417D01*
X4960Y10709D01*
X4773Y10917D01*
X4587Y11000D01*
X4347D01*
G01X4587D02*
X4747Y11125D01*
X4880Y11334D01*
X4933Y11584D01*
X4880Y11834D01*
X4747Y12042D01*
X4507Y12167D01*
X4267Y12125D01*
X4027Y11959D01*
G01X6013Y10167D02*
X6173Y9875D01*
X6387Y9709D01*
X6627Y9667D01*
X6840Y9709D01*
X7053Y9917D01*
X7187Y10167D01*
X7213Y10417D01*
X7160Y10709D01*
X6973Y10917D01*
X6787Y11000D01*
X6547D01*
G01X6787D02*
X6947Y11125D01*
X7080Y11334D01*
X7133Y11584D01*
X7080Y11834D01*
X6947Y12042D01*
X6707Y12167D01*
X6467Y12125D01*
X6227Y11959D01*
G01X8293Y11750D02*
X8453Y12000D01*
X8640Y12125D01*
X8853Y12167D01*
X9120Y12084D01*
X9307Y11875D01*
X9360Y11625D01*
X9333Y11375D01*
X9227Y11167D01*
X8693Y10750D01*
X8453Y10459D01*
X8293Y10042D01*
X8240Y9667D01*
X9360D01*
G01X11537Y4458D02*
X11377Y4583D01*
X11190Y4666D01*
X10977D01*
X10737Y4541D01*
X10550Y4333D01*
X10417Y4083D01*
X10310Y3666D01*
X10283Y3291D01*
X10337Y2916D01*
X10417Y2666D01*
X10577Y2416D01*
X10763Y2249D01*
X10950Y2166D01*
X11137D01*
X11323Y2249D01*
X11483Y2374D01*
X11617Y2541D01*
G01X12643Y4249D02*
X12803Y4499D01*
X12990Y4624D01*
X13203Y4666D01*
X13470Y4583D01*
X13657Y4374D01*
X13710Y4124D01*
X13683Y3874D01*
X13577Y3666D01*
X13043Y3249D01*
X12803Y2958D01*
X12643Y2541D01*
X12590Y2166D01*
X13710D01*
G01X15350Y4666D02*
X15137Y4583D01*
X14977Y4374D01*
X14870Y4124D01*
X14790Y3791D01*
X14763Y3416D01*
X14790Y3041D01*
X14870Y2708D01*
X14977Y2458D01*
X15137Y2249D01*
X15350Y2166D01*
X15563Y2249D01*
X15723Y2458D01*
X15830Y2708D01*
X15910Y3041D01*
X15937Y3416D01*
X15910Y3791D01*
X15830Y4124D01*
X15723Y4374D01*
X15563Y4583D01*
X15350Y4666D01*
G01X17870Y2166D02*
Y4666D01*
X16883Y2874D01*
X18217D01*
G01X15193Y30808D02*
X14963Y30963D01*
X14695Y31066D01*
X14388D01*
X14043Y30911D01*
X13775Y30653D01*
X13583Y30343D01*
X13430Y29826D01*
X13392Y29361D01*
X13468Y28896D01*
X13583Y28586D01*
X13813Y28276D01*
X14082Y28069D01*
X14350Y27966D01*
X14618D01*
X14887Y28069D01*
X15117Y28224D01*
X15308Y28431D01*
G01X17450Y27966D02*
Y31066D01*
X16990Y30446D01*
G01Y27966D02*
X17910D01*
G01X20550Y31066D02*
X20243Y30963D01*
X20013Y30704D01*
X19860Y30394D01*
X19745Y29981D01*
X19707Y29516D01*
X19745Y29051D01*
X19860Y28638D01*
X20013Y28328D01*
X20243Y28069D01*
X20550Y27966D01*
X20857Y28069D01*
X21087Y28328D01*
X21240Y28638D01*
X21355Y29051D01*
X21393Y29516D01*
X21355Y29981D01*
X21240Y30394D01*
X21087Y30704D01*
X20857Y30963D01*
X20550Y31066D01*
G01X22807Y28586D02*
X23037Y28224D01*
X23343Y28018D01*
X23688Y27966D01*
X23995Y28018D01*
X24302Y28276D01*
X24493Y28586D01*
X24532Y28896D01*
X24455Y29258D01*
X24187Y29516D01*
X23918Y29619D01*
X23573D01*
G01X23918D02*
X24148Y29774D01*
X24340Y30033D01*
X24417Y30343D01*
X24340Y30653D01*
X24148Y30911D01*
X23803Y31066D01*
X23458Y31014D01*
X23113Y30808D01*
G01X19837Y121667D02*
X19527Y121475D01*
X19320Y121245D01*
X19217Y120977D01*
X19320Y120670D01*
X19527Y120440D01*
X19837Y120210D01*
X20250Y120133D01*
X22317D01*
G01X19217Y117800D02*
X22317D01*
X21697Y118260D01*
G01X19217D02*
Y117340D01*
G01X22317Y114700D02*
X22214Y115007D01*
X21955Y115237D01*
X21645Y115390D01*
X21232Y115505D01*
X20767Y115543D01*
X20302Y115505D01*
X19889Y115390D01*
X19579Y115237D01*
X19320Y115007D01*
X19217Y114700D01*
X19320Y114393D01*
X19579Y114163D01*
X19889Y114010D01*
X20302Y113895D01*
X20767Y113857D01*
X21232Y113895D01*
X21645Y114010D01*
X21955Y114163D01*
X22214Y114393D01*
X22317Y114700D01*
G01X19682Y112443D02*
X19424Y112213D01*
X19269Y111945D01*
X19217Y111600D01*
X19320Y111255D01*
X19527Y110987D01*
X19889Y110795D01*
X20302Y110757D01*
X20715Y110833D01*
X20974Y111025D01*
X21180Y111293D01*
X21232Y111562D01*
X21180Y111830D01*
X20974Y112175D01*
X22317Y112060D01*
Y111025D01*
G01X31496Y-61375D02*
Y-64475D01*
G01X30614Y-61375D02*
X32378D01*
G01X33829Y-64475D02*
Y-61375D01*
X34749D01*
X35056Y-61530D01*
X35286Y-61892D01*
X35363Y-62305D01*
X35286Y-62718D01*
X35094Y-63028D01*
X34749Y-63183D01*
X33829D01*
G01X37696Y-64475D02*
Y-61375D01*
X37236Y-61995D01*
G01Y-64475D02*
X38156D01*
G01X40796Y-61375D02*
X40489Y-61478D01*
X40259Y-61737D01*
X40106Y-62047D01*
X39991Y-62460D01*
X39953Y-62925D01*
X39991Y-63390D01*
X40106Y-63803D01*
X40259Y-64113D01*
X40489Y-64372D01*
X40796Y-64475D01*
X41103Y-64372D01*
X41333Y-64113D01*
X41486Y-63803D01*
X41601Y-63390D01*
X41639Y-62925D01*
X41601Y-62460D01*
X41486Y-62047D01*
X41333Y-61737D01*
X41103Y-61478D01*
X40796Y-61375D01*
G01X43896Y-64475D02*
Y-61375D01*
X43436Y-61995D01*
G01Y-64475D02*
X44356D01*
G01X32537Y-44542D02*
X32377Y-44417D01*
X32190Y-44334D01*
X31977D01*
X31737Y-44459D01*
X31550Y-44667D01*
X31417Y-44917D01*
X31310Y-45334D01*
X31283Y-45709D01*
X31337Y-46084D01*
X31417Y-46334D01*
X31577Y-46584D01*
X31763Y-46751D01*
X31950Y-46834D01*
X32137D01*
X32323Y-46751D01*
X32483Y-46626D01*
X32617Y-46459D01*
G01X33563Y-46334D02*
X33723Y-46626D01*
X33937Y-46792D01*
X34177Y-46834D01*
X34390Y-46792D01*
X34603Y-46584D01*
X34737Y-46334D01*
X34763Y-46084D01*
X34710Y-45792D01*
X34523Y-45584D01*
X34337Y-45501D01*
X34097D01*
G01X34337D02*
X34497Y-45376D01*
X34630Y-45167D01*
X34683Y-44917D01*
X34630Y-44667D01*
X34497Y-44459D01*
X34257Y-44334D01*
X34017Y-44376D01*
X33777Y-44542D01*
G01X35763Y-46334D02*
X35923Y-46626D01*
X36137Y-46792D01*
X36377Y-46834D01*
X36590Y-46792D01*
X36803Y-46584D01*
X36937Y-46334D01*
X36963Y-46084D01*
X36910Y-45792D01*
X36723Y-45584D01*
X36537Y-45501D01*
X36297D01*
G01X36537D02*
X36697Y-45376D01*
X36830Y-45167D01*
X36883Y-44917D01*
X36830Y-44667D01*
X36697Y-44459D01*
X36457Y-44334D01*
X36217Y-44376D01*
X35977Y-44542D01*
G01X38043Y-45792D02*
X38230Y-45501D01*
X38390Y-45334D01*
X38603Y-45251D01*
X38790Y-45334D01*
X38923Y-45501D01*
X39030Y-45751D01*
X39057Y-46042D01*
X39030Y-46292D01*
X38923Y-46542D01*
X38763Y-46751D01*
X38577Y-46834D01*
X38363Y-46751D01*
X38177Y-46501D01*
X38070Y-46126D01*
X38043Y-45709D01*
X38097Y-45167D01*
X38177Y-44876D01*
X38310Y-44584D01*
X38497Y-44376D01*
X38683Y-44334D01*
X38870Y-44417D01*
X39003Y-44626D01*
G01X41037Y-19458D02*
X40877Y-19333D01*
X40690Y-19250D01*
X40477D01*
X40237Y-19375D01*
X40050Y-19583D01*
X39917Y-19833D01*
X39810Y-20250D01*
X39783Y-20625D01*
X39837Y-21000D01*
X39917Y-21250D01*
X40077Y-21500D01*
X40263Y-21667D01*
X40450Y-21750D01*
X40637D01*
X40823Y-21667D01*
X40983Y-21542D01*
X41117Y-21375D01*
G01X42063Y-21250D02*
X42223Y-21542D01*
X42437Y-21708D01*
X42677Y-21750D01*
X42890Y-21708D01*
X43103Y-21500D01*
X43237Y-21250D01*
X43263Y-21000D01*
X43210Y-20708D01*
X43023Y-20500D01*
X42837Y-20417D01*
X42597D01*
G01X42837D02*
X42997Y-20292D01*
X43130Y-20083D01*
X43183Y-19833D01*
X43130Y-19583D01*
X42997Y-19375D01*
X42757Y-19250D01*
X42517Y-19292D01*
X42277Y-19458D01*
G01X44263Y-21250D02*
X44423Y-21542D01*
X44637Y-21708D01*
X44877Y-21750D01*
X45090Y-21708D01*
X45303Y-21500D01*
X45437Y-21250D01*
X45463Y-21000D01*
X45410Y-20708D01*
X45223Y-20500D01*
X45037Y-20417D01*
X44797D01*
G01X45037D02*
X45197Y-20292D01*
X45330Y-20083D01*
X45383Y-19833D01*
X45330Y-19583D01*
X45197Y-19375D01*
X44957Y-19250D01*
X44717Y-19292D01*
X44477Y-19458D01*
G01X47050Y-21750D02*
Y-19250D01*
X46730Y-19750D01*
G01Y-21750D02*
X47370D01*
G01X39787Y-34458D02*
X39627Y-34333D01*
X39440Y-34250D01*
X39227D01*
X38987Y-34375D01*
X38800Y-34583D01*
X38667Y-34833D01*
X38560Y-35250D01*
X38533Y-35625D01*
X38587Y-36000D01*
X38667Y-36250D01*
X38827Y-36500D01*
X39013Y-36667D01*
X39200Y-36750D01*
X39387D01*
X39573Y-36667D01*
X39733Y-36542D01*
X39867Y-36375D01*
G01X40813Y-36250D02*
X40973Y-36542D01*
X41187Y-36708D01*
X41427Y-36750D01*
X41640Y-36708D01*
X41853Y-36500D01*
X41987Y-36250D01*
X42013Y-36000D01*
X41960Y-35708D01*
X41773Y-35500D01*
X41587Y-35417D01*
X41347D01*
G01X41587D02*
X41747Y-35292D01*
X41880Y-35083D01*
X41933Y-34833D01*
X41880Y-34583D01*
X41747Y-34375D01*
X41507Y-34250D01*
X41267Y-34292D01*
X41027Y-34458D01*
G01X43093Y-34667D02*
X43253Y-34417D01*
X43440Y-34292D01*
X43653Y-34250D01*
X43920Y-34333D01*
X44107Y-34542D01*
X44160Y-34792D01*
X44133Y-35042D01*
X44027Y-35250D01*
X43493Y-35667D01*
X43253Y-35958D01*
X43093Y-36375D01*
X43040Y-36750D01*
X44160D01*
G01X45800Y-34250D02*
X45587Y-34333D01*
X45427Y-34542D01*
X45320Y-34792D01*
X45240Y-35125D01*
X45213Y-35500D01*
X45240Y-35875D01*
X45320Y-36208D01*
X45427Y-36458D01*
X45587Y-36667D01*
X45800Y-36750D01*
X46013Y-36667D01*
X46173Y-36458D01*
X46280Y-36208D01*
X46360Y-35875D01*
X46387Y-35500D01*
X46360Y-35125D01*
X46280Y-34792D01*
X46173Y-34542D01*
X46013Y-34333D01*
X45800Y-34250D01*
G01X24958Y-24463D02*
X24833Y-24623D01*
X24750Y-24810D01*
Y-25023D01*
X24875Y-25263D01*
X25083Y-25450D01*
X25333Y-25583D01*
X25750Y-25690D01*
X26125Y-25717D01*
X26500Y-25663D01*
X26750Y-25583D01*
X27000Y-25423D01*
X27167Y-25237D01*
X27250Y-25050D01*
Y-24863D01*
X27167Y-24677D01*
X27042Y-24517D01*
X26875Y-24383D01*
G01X26750Y-23437D02*
X27042Y-23277D01*
X27208Y-23063D01*
X27250Y-22823D01*
X27208Y-22610D01*
X27000Y-22397D01*
X26750Y-22263D01*
X26500Y-22237D01*
X26208Y-22290D01*
X26000Y-22477D01*
X25917Y-22663D01*
Y-22903D01*
G01Y-22663D02*
X25792Y-22503D01*
X25583Y-22370D01*
X25333Y-22317D01*
X25083Y-22370D01*
X24875Y-22503D01*
X24750Y-22743D01*
X24792Y-22983D01*
X24958Y-23223D01*
G01X25167Y-21157D02*
X24917Y-20997D01*
X24792Y-20810D01*
X24750Y-20597D01*
X24833Y-20330D01*
X25042Y-20143D01*
X25292Y-20090D01*
X25542Y-20117D01*
X25750Y-20223D01*
X26167Y-20757D01*
X26458Y-20997D01*
X26875Y-21157D01*
X27250Y-21210D01*
Y-20090D01*
G01Y-18450D02*
X24750D01*
X25250Y-18770D01*
G01X27250D02*
Y-18130D01*
G01X29287Y-24708D02*
X29127Y-24583D01*
X28940Y-24500D01*
X28727D01*
X28487Y-24625D01*
X28300Y-24833D01*
X28167Y-25083D01*
X28060Y-25500D01*
X28033Y-25875D01*
X28087Y-26250D01*
X28167Y-26500D01*
X28327Y-26750D01*
X28513Y-26917D01*
X28700Y-27000D01*
X28887D01*
X29073Y-26917D01*
X29233Y-26792D01*
X29367Y-26625D01*
G01X30900Y-27000D02*
Y-24500D01*
X30580Y-25000D01*
G01Y-27000D02*
X31220D01*
G01X33100Y-24500D02*
X32887Y-24583D01*
X32727Y-24792D01*
X32620Y-25042D01*
X32540Y-25375D01*
X32513Y-25750D01*
X32540Y-26125D01*
X32620Y-26458D01*
X32727Y-26708D01*
X32887Y-26917D01*
X33100Y-27000D01*
X33313Y-26917D01*
X33473Y-26708D01*
X33580Y-26458D01*
X33660Y-26125D01*
X33687Y-25750D01*
X33660Y-25375D01*
X33580Y-25042D01*
X33473Y-24792D01*
X33313Y-24583D01*
X33100Y-24500D01*
G01X35620Y-27000D02*
Y-24500D01*
X34633Y-26292D01*
X35967D01*
G01X24537Y-38291D02*
X24377Y-38166D01*
X24190Y-38083D01*
X23977D01*
X23737Y-38208D01*
X23550Y-38416D01*
X23417Y-38666D01*
X23310Y-39083D01*
X23283Y-39458D01*
X23337Y-39833D01*
X23417Y-40083D01*
X23577Y-40333D01*
X23763Y-40500D01*
X23950Y-40583D01*
X24137D01*
X24323Y-40500D01*
X24483Y-40375D01*
X24617Y-40208D01*
G01X25563Y-40083D02*
X25723Y-40375D01*
X25937Y-40541D01*
X26177Y-40583D01*
X26390Y-40541D01*
X26603Y-40333D01*
X26737Y-40083D01*
X26763Y-39833D01*
X26710Y-39541D01*
X26523Y-39333D01*
X26337Y-39250D01*
X26097D01*
G01X26337D02*
X26497Y-39125D01*
X26630Y-38916D01*
X26683Y-38666D01*
X26630Y-38416D01*
X26497Y-38208D01*
X26257Y-38083D01*
X26017Y-38125D01*
X25777Y-38291D01*
G01X27763Y-40083D02*
X27923Y-40375D01*
X28137Y-40541D01*
X28377Y-40583D01*
X28590Y-40541D01*
X28803Y-40333D01*
X28937Y-40083D01*
X28963Y-39833D01*
X28910Y-39541D01*
X28723Y-39333D01*
X28537Y-39250D01*
X28297D01*
G01X28537D02*
X28697Y-39125D01*
X28830Y-38916D01*
X28883Y-38666D01*
X28830Y-38416D01*
X28697Y-38208D01*
X28457Y-38083D01*
X28217Y-38125D01*
X27977Y-38291D01*
G01X30870Y-40583D02*
Y-38083D01*
X29883Y-39875D01*
X31217D01*
G01X41917Y-31416D02*
Y-28916D01*
X42583D01*
X42797Y-29041D01*
X42930Y-29208D01*
X42983Y-29541D01*
X42930Y-29874D01*
X42770Y-30083D01*
X42583Y-30208D01*
X41917D01*
G01X42583D02*
X42983Y-31416D01*
G01X44650D02*
Y-28916D01*
X44330Y-29416D01*
G01Y-31416D02*
X44970D01*
G01X46343Y-29333D02*
X46503Y-29083D01*
X46690Y-28958D01*
X46903Y-28916D01*
X47170Y-28999D01*
X47357Y-29208D01*
X47410Y-29458D01*
X47383Y-29708D01*
X47277Y-29916D01*
X46743Y-30333D01*
X46503Y-30624D01*
X46343Y-31041D01*
X46290Y-31416D01*
X47410D01*
G01X48463Y-30916D02*
X48623Y-31208D01*
X48837Y-31374D01*
X49077Y-31416D01*
X49290Y-31374D01*
X49503Y-31166D01*
X49637Y-30916D01*
X49663Y-30666D01*
X49610Y-30374D01*
X49423Y-30166D01*
X49237Y-30083D01*
X48997D01*
G01X49237D02*
X49397Y-29958D01*
X49530Y-29749D01*
X49583Y-29499D01*
X49530Y-29249D01*
X49397Y-29041D01*
X49157Y-28916D01*
X48917Y-28958D01*
X48677Y-29124D01*
G01X24537Y-12792D02*
X24377Y-12667D01*
X24190Y-12584D01*
X23977D01*
X23737Y-12709D01*
X23550Y-12917D01*
X23417Y-13167D01*
X23310Y-13584D01*
X23283Y-13959D01*
X23337Y-14334D01*
X23417Y-14584D01*
X23577Y-14834D01*
X23763Y-15001D01*
X23950Y-15084D01*
X24137D01*
X24323Y-15001D01*
X24483Y-14876D01*
X24617Y-14709D01*
G01X25563Y-14584D02*
X25723Y-14876D01*
X25937Y-15042D01*
X26177Y-15084D01*
X26390Y-15042D01*
X26603Y-14834D01*
X26737Y-14584D01*
X26763Y-14334D01*
X26710Y-14042D01*
X26523Y-13834D01*
X26337Y-13751D01*
X26097D01*
G01X26337D02*
X26497Y-13626D01*
X26630Y-13417D01*
X26683Y-13167D01*
X26630Y-12917D01*
X26497Y-12709D01*
X26257Y-12584D01*
X26017Y-12626D01*
X25777Y-12792D01*
G01X27763Y-14584D02*
X27923Y-14876D01*
X28137Y-15042D01*
X28377Y-15084D01*
X28590Y-15042D01*
X28803Y-14834D01*
X28937Y-14584D01*
X28963Y-14334D01*
X28910Y-14042D01*
X28723Y-13834D01*
X28537Y-13751D01*
X28297D01*
G01X28537D02*
X28697Y-13626D01*
X28830Y-13417D01*
X28883Y-13167D01*
X28830Y-12917D01*
X28697Y-12709D01*
X28457Y-12584D01*
X28217Y-12626D01*
X27977Y-12792D01*
G01X30550Y-12584D02*
X30337Y-12667D01*
X30177Y-12876D01*
X30070Y-13126D01*
X29990Y-13459D01*
X29963Y-13834D01*
X29990Y-14209D01*
X30070Y-14542D01*
X30177Y-14792D01*
X30337Y-15001D01*
X30550Y-15084D01*
X30763Y-15001D01*
X30923Y-14792D01*
X31030Y-14542D01*
X31110Y-14209D01*
X31137Y-13834D01*
X31110Y-13459D01*
X31030Y-13126D01*
X30923Y-12876D01*
X30763Y-12667D01*
X30550Y-12584D01*
G01X39292Y-13213D02*
X39167Y-13373D01*
X39084Y-13560D01*
Y-13773D01*
X39209Y-14013D01*
X39417Y-14200D01*
X39667Y-14333D01*
X40084Y-14440D01*
X40459Y-14467D01*
X40834Y-14413D01*
X41084Y-14333D01*
X41334Y-14173D01*
X41501Y-13987D01*
X41584Y-13800D01*
Y-13613D01*
X41501Y-13427D01*
X41376Y-13267D01*
X41209Y-13133D01*
G01X41084Y-12187D02*
X41376Y-12027D01*
X41542Y-11813D01*
X41584Y-11573D01*
X41542Y-11360D01*
X41334Y-11147D01*
X41084Y-11013D01*
X40834Y-10987D01*
X40542Y-11040D01*
X40334Y-11227D01*
X40251Y-11413D01*
Y-11653D01*
G01Y-11413D02*
X40126Y-11253D01*
X39917Y-11120D01*
X39667Y-11067D01*
X39417Y-11120D01*
X39209Y-11253D01*
X39084Y-11493D01*
X39126Y-11733D01*
X39292Y-11973D01*
G01X41209Y-9987D02*
X41417Y-9827D01*
X41542Y-9640D01*
X41584Y-9400D01*
X41501Y-9160D01*
X41334Y-8973D01*
X41042Y-8840D01*
X40709Y-8813D01*
X40376Y-8867D01*
X40167Y-9000D01*
X40001Y-9187D01*
X39959Y-9373D01*
X40001Y-9560D01*
X40167Y-9800D01*
X39084Y-9720D01*
Y-9000D01*
G01X40542Y-7707D02*
X40251Y-7520D01*
X40084Y-7360D01*
X40001Y-7147D01*
X40084Y-6960D01*
X40251Y-6827D01*
X40501Y-6720D01*
X40792Y-6693D01*
X41042Y-6720D01*
X41292Y-6827D01*
X41501Y-6987D01*
X41584Y-7173D01*
X41501Y-7387D01*
X41251Y-7573D01*
X40876Y-7680D01*
X40459Y-7707D01*
X39917Y-7653D01*
X39626Y-7573D01*
X39334Y-7440D01*
X39126Y-7253D01*
X39084Y-7067D01*
X39167Y-6880D01*
X39376Y-6747D01*
G01X29287Y9709D02*
X29127Y9834D01*
X28940Y9917D01*
X28727D01*
X28487Y9792D01*
X28300Y9584D01*
X28167Y9334D01*
X28060Y8917D01*
X28033Y8542D01*
X28087Y8167D01*
X28167Y7917D01*
X28327Y7667D01*
X28513Y7500D01*
X28700Y7417D01*
X28887D01*
X29073Y7500D01*
X29233Y7625D01*
X29367Y7792D01*
G01X30900Y7417D02*
Y9917D01*
X30580Y9417D01*
G01Y7417D02*
X31220D01*
G01X32593Y9500D02*
X32753Y9750D01*
X32940Y9875D01*
X33153Y9917D01*
X33420Y9834D01*
X33607Y9625D01*
X33660Y9375D01*
X33633Y9125D01*
X33527Y8917D01*
X32993Y8500D01*
X32753Y8209D01*
X32593Y7792D01*
X32540Y7417D01*
X33660D01*
G01X35300Y9917D02*
X35087Y9834D01*
X34927Y9625D01*
X34820Y9375D01*
X34740Y9042D01*
X34713Y8667D01*
X34740Y8292D01*
X34820Y7959D01*
X34927Y7709D01*
X35087Y7500D01*
X35300Y7417D01*
X35513Y7500D01*
X35673Y7709D01*
X35780Y7959D01*
X35860Y8292D01*
X35887Y8667D01*
X35860Y9042D01*
X35780Y9375D01*
X35673Y9625D01*
X35513Y9834D01*
X35300Y9917D01*
G01X29037Y3208D02*
X28877Y3333D01*
X28690Y3416D01*
X28477D01*
X28237Y3291D01*
X28050Y3083D01*
X27917Y2833D01*
X27810Y2416D01*
X27783Y2041D01*
X27837Y1666D01*
X27917Y1416D01*
X28077Y1166D01*
X28263Y999D01*
X28450Y916D01*
X28637D01*
X28823Y999D01*
X28983Y1124D01*
X29117Y1291D01*
G01X30063Y1416D02*
X30223Y1124D01*
X30437Y958D01*
X30677Y916D01*
X30890Y958D01*
X31103Y1166D01*
X31237Y1416D01*
X31263Y1666D01*
X31210Y1958D01*
X31023Y2166D01*
X30837Y2249D01*
X30597D01*
G01X30837D02*
X30997Y2374D01*
X31130Y2583D01*
X31183Y2833D01*
X31130Y3083D01*
X30997Y3291D01*
X30757Y3416D01*
X30517Y3374D01*
X30277Y3208D01*
G01X32263Y1416D02*
X32423Y1124D01*
X32637Y958D01*
X32877Y916D01*
X33090Y958D01*
X33303Y1166D01*
X33437Y1416D01*
X33463Y1666D01*
X33410Y1958D01*
X33223Y2166D01*
X33037Y2249D01*
X32797D01*
G01X33037D02*
X33197Y2374D01*
X33330Y2583D01*
X33383Y2833D01*
X33330Y3083D01*
X33197Y3291D01*
X32957Y3416D01*
X32717Y3374D01*
X32477Y3208D01*
G01X34997Y916D02*
X35050Y1458D01*
X35130Y1916D01*
X35237Y2333D01*
X35370Y2791D01*
X35583Y3416D01*
X34517D01*
G01X33287Y14459D02*
X33127Y14584D01*
X32940Y14667D01*
X32727D01*
X32487Y14542D01*
X32300Y14334D01*
X32167Y14084D01*
X32060Y13667D01*
X32033Y13292D01*
X32087Y12917D01*
X32167Y12667D01*
X32327Y12417D01*
X32513Y12250D01*
X32700Y12167D01*
X32887D01*
X33073Y12250D01*
X33233Y12375D01*
X33367Y12542D01*
G01X34900Y12167D02*
Y14667D01*
X34580Y14167D01*
G01Y12167D02*
X35220D01*
G01X36593Y14250D02*
X36753Y14500D01*
X36940Y14625D01*
X37153Y14667D01*
X37420Y14584D01*
X37607Y14375D01*
X37660Y14125D01*
X37633Y13875D01*
X37527Y13667D01*
X36993Y13250D01*
X36753Y12959D01*
X36593Y12542D01*
X36540Y12167D01*
X37660D01*
G01X39300D02*
Y14667D01*
X38980Y14167D01*
G01Y12167D02*
X39620D01*
G01X27333Y22566D02*
Y19466D01*
X28867D01*
G01X31200D02*
Y22566D01*
X30740Y21946D01*
G01Y19466D02*
X31660D01*
G01X34300Y22566D02*
X33993Y22463D01*
X33763Y22204D01*
X33610Y21894D01*
X33495Y21481D01*
X33457Y21016D01*
X33495Y20551D01*
X33610Y20138D01*
X33763Y19828D01*
X33993Y19569D01*
X34300Y19466D01*
X34607Y19569D01*
X34837Y19828D01*
X34990Y20138D01*
X35105Y20551D01*
X35143Y21016D01*
X35105Y21481D01*
X34990Y21894D01*
X34837Y22204D01*
X34607Y22463D01*
X34300Y22566D01*
G01X36672Y22049D02*
X36902Y22359D01*
X37170Y22514D01*
X37477Y22566D01*
X37860Y22463D01*
X38128Y22204D01*
X38205Y21894D01*
X38167Y21584D01*
X38013Y21326D01*
X37247Y20809D01*
X36902Y20448D01*
X36672Y19931D01*
X36595Y19466D01*
X38205D01*
G01X24833Y94932D02*
Y98032D01*
X25792D01*
X26098Y97877D01*
X26290Y97670D01*
X26367Y97257D01*
X26290Y96844D01*
X26060Y96585D01*
X25792Y96430D01*
X24833D01*
G01X25792D02*
X26367Y94932D01*
G01X28700D02*
Y98032D01*
X28240Y97412D01*
G01Y94932D02*
X29160D01*
G01X31800D02*
Y98032D01*
X31340Y97412D01*
G01Y94932D02*
X32260D01*
G01X34900Y98032D02*
X34593Y97929D01*
X34363Y97670D01*
X34210Y97360D01*
X34095Y96947D01*
X34057Y96482D01*
X34095Y96017D01*
X34210Y95604D01*
X34363Y95294D01*
X34593Y95035D01*
X34900Y94932D01*
X35207Y95035D01*
X35437Y95294D01*
X35590Y95604D01*
X35705Y96017D01*
X35743Y96482D01*
X35705Y96947D01*
X35590Y97360D01*
X35437Y97670D01*
X35207Y97929D01*
X34900Y98032D01*
G01X45537Y-24958D02*
X45377Y-24833D01*
X45190Y-24750D01*
X44977D01*
X44737Y-24875D01*
X44550Y-25083D01*
X44417Y-25333D01*
X44310Y-25750D01*
X44283Y-26125D01*
X44337Y-26500D01*
X44417Y-26750D01*
X44577Y-27000D01*
X44763Y-27167D01*
X44950Y-27250D01*
X45137D01*
X45323Y-27167D01*
X45483Y-27042D01*
X45617Y-26875D01*
G01X47150Y-27250D02*
Y-24750D01*
X46830Y-25250D01*
G01Y-27250D02*
X47470D01*
G01X49350Y-24750D02*
X49137Y-24833D01*
X48977Y-25042D01*
X48870Y-25292D01*
X48790Y-25625D01*
X48763Y-26000D01*
X48790Y-26375D01*
X48870Y-26708D01*
X48977Y-26958D01*
X49137Y-27167D01*
X49350Y-27250D01*
X49563Y-27167D01*
X49723Y-26958D01*
X49830Y-26708D01*
X49910Y-26375D01*
X49937Y-26000D01*
X49910Y-25625D01*
X49830Y-25292D01*
X49723Y-25042D01*
X49563Y-24833D01*
X49350Y-24750D01*
G01X50963Y-26875D02*
X51123Y-27083D01*
X51310Y-27208D01*
X51550Y-27250D01*
X51790Y-27167D01*
X51977Y-27000D01*
X52110Y-26708D01*
X52137Y-26375D01*
X52083Y-26042D01*
X51950Y-25833D01*
X51763Y-25667D01*
X51577Y-25625D01*
X51390Y-25667D01*
X51150Y-25833D01*
X51230Y-24750D01*
X51950D01*
G01X43292Y-13213D02*
X43167Y-13373D01*
X43084Y-13560D01*
Y-13773D01*
X43209Y-14013D01*
X43417Y-14200D01*
X43667Y-14333D01*
X44084Y-14440D01*
X44459Y-14467D01*
X44834Y-14413D01*
X45084Y-14333D01*
X45334Y-14173D01*
X45501Y-13987D01*
X45584Y-13800D01*
Y-13613D01*
X45501Y-13427D01*
X45376Y-13267D01*
X45209Y-13133D01*
G01X45084Y-12187D02*
X45376Y-12027D01*
X45542Y-11813D01*
X45584Y-11573D01*
X45542Y-11360D01*
X45334Y-11147D01*
X45084Y-11013D01*
X44834Y-10987D01*
X44542Y-11040D01*
X44334Y-11227D01*
X44251Y-11413D01*
Y-11653D01*
G01Y-11413D02*
X44126Y-11253D01*
X43917Y-11120D01*
X43667Y-11067D01*
X43417Y-11120D01*
X43209Y-11253D01*
X43084Y-11493D01*
X43126Y-11733D01*
X43292Y-11973D01*
G01X45209Y-9987D02*
X45417Y-9827D01*
X45542Y-9640D01*
X45584Y-9400D01*
X45501Y-9160D01*
X45334Y-8973D01*
X45042Y-8840D01*
X44709Y-8813D01*
X44376Y-8867D01*
X44167Y-9000D01*
X44001Y-9187D01*
X43959Y-9373D01*
X44001Y-9560D01*
X44167Y-9800D01*
X43084Y-9720D01*
Y-9000D01*
G01X45584Y-7253D02*
X45042Y-7200D01*
X44584Y-7120D01*
X44167Y-7013D01*
X43709Y-6880D01*
X43084Y-6667D01*
Y-7733D01*
G01X63059Y13980D02*
X62877Y14189D01*
X62644Y14358D01*
X62348Y14438D01*
X61975Y14377D01*
X61649Y14197D01*
X61383Y13947D01*
X61102Y13488D01*
X60944Y13049D01*
X60898Y12580D01*
X60929Y12251D01*
X61071Y11892D01*
X61276Y11623D01*
X61509Y11453D01*
X61768Y11384D01*
X62054Y11414D01*
X62316Y11504D01*
X62555Y11654D01*
G01X64503Y10651D02*
X65305Y13646D01*
X64700Y13166D01*
G01X64058Y10770D02*
X64947Y10532D01*
G01X67497Y9849D02*
X68299Y12844D01*
X67694Y12364D01*
G01X67052Y9968D02*
X67941Y9730D01*
G01X69837Y9864D02*
X69965Y9456D01*
X70208Y9177D01*
X70528Y9037D01*
X70837Y9008D01*
X71201Y9178D01*
X71466Y9428D01*
X71583Y9717D01*
X71603Y10087D01*
X71410Y10406D01*
X71178Y10575D01*
X70845Y10664D01*
G01X71178Y10575D02*
X71440Y10665D01*
X71692Y10865D01*
X71846Y11145D01*
X71853Y11464D01*
X71734Y11763D01*
X71441Y12002D01*
X71095Y12041D01*
X70708Y11931D01*
G01X65000Y64917D02*
X62500D01*
Y65583D01*
X62625Y65797D01*
X62792Y65930D01*
X63125Y65983D01*
X63458Y65930D01*
X63667Y65770D01*
X63792Y65583D01*
Y64917D01*
G01Y65583D02*
X65000Y65983D01*
G01X64500Y67063D02*
X64792Y67223D01*
X64958Y67437D01*
X65000Y67677D01*
X64958Y67890D01*
X64750Y68103D01*
X64500Y68237D01*
X64250Y68263D01*
X63958Y68210D01*
X63750Y68023D01*
X63667Y67837D01*
Y67597D01*
G01Y67837D02*
X63542Y67997D01*
X63333Y68130D01*
X63083Y68183D01*
X62833Y68130D01*
X62625Y67997D01*
X62500Y67757D01*
X62542Y67517D01*
X62708Y67277D01*
G01X65000Y69850D02*
X62500D01*
X63000Y69530D01*
G01X65000D02*
Y70170D01*
G01Y72050D02*
X62500D01*
X63000Y71730D01*
G01X65000D02*
Y72370D01*
G01X72272Y55515D02*
X72502Y55825D01*
X72770Y55980D01*
X73077Y56032D01*
X73460Y55929D01*
X73728Y55670D01*
X73805Y55360D01*
X73767Y55050D01*
X73613Y54792D01*
X72847Y54275D01*
X72502Y53914D01*
X72272Y53397D01*
X72195Y52932D01*
X73805D01*
G01X75708Y81287D02*
X75583Y81127D01*
X75500Y80940D01*
Y80727D01*
X75625Y80487D01*
X75833Y80300D01*
X76083Y80167D01*
X76500Y80060D01*
X76875Y80033D01*
X77250Y80087D01*
X77500Y80167D01*
X77750Y80327D01*
X77917Y80513D01*
X78000Y80700D01*
Y80887D01*
X77917Y81073D01*
X77792Y81233D01*
X77625Y81367D01*
G01X77500Y82313D02*
X77792Y82473D01*
X77958Y82687D01*
X78000Y82927D01*
X77958Y83140D01*
X77750Y83353D01*
X77500Y83487D01*
X77250Y83513D01*
X76958Y83460D01*
X76750Y83273D01*
X76667Y83087D01*
Y82847D01*
G01Y83087D02*
X76542Y83247D01*
X76333Y83380D01*
X76083Y83433D01*
X75833Y83380D01*
X75625Y83247D01*
X75500Y83007D01*
X75542Y82767D01*
X75708Y82527D01*
G01X78000Y85420D02*
X75500D01*
X77292Y84433D01*
Y85767D01*
G01X75500Y87300D02*
X75583Y87087D01*
X75792Y86927D01*
X76042Y86820D01*
X76375Y86740D01*
X76750Y86713D01*
X77125Y86740D01*
X77458Y86820D01*
X77708Y86927D01*
X77917Y87087D01*
X78000Y87300D01*
X77917Y87513D01*
X77708Y87673D01*
X77458Y87780D01*
X77125Y87860D01*
X76750Y87887D01*
X76375Y87860D01*
X76042Y87780D01*
X75792Y87673D01*
X75583Y87513D01*
X75500Y87300D01*
G01X76167Y65332D02*
Y67832D01*
X76833D01*
X77047Y67707D01*
X77180Y67540D01*
X77233Y67207D01*
X77180Y66874D01*
X77020Y66665D01*
X76833Y66540D01*
X76167D01*
G01X76833D02*
X77233Y65332D01*
G01X78313Y65832D02*
X78473Y65540D01*
X78687Y65374D01*
X78927Y65332D01*
X79140Y65374D01*
X79353Y65582D01*
X79487Y65832D01*
X79513Y66082D01*
X79460Y66374D01*
X79273Y66582D01*
X79087Y66665D01*
X78847D01*
G01X79087D02*
X79247Y66790D01*
X79380Y66999D01*
X79433Y67249D01*
X79380Y67499D01*
X79247Y67707D01*
X79007Y67832D01*
X78767Y67790D01*
X78527Y67624D01*
G01X81100Y67832D02*
X80887Y67749D01*
X80727Y67540D01*
X80620Y67290D01*
X80540Y66957D01*
X80513Y66582D01*
X80540Y66207D01*
X80620Y65874D01*
X80727Y65624D01*
X80887Y65415D01*
X81100Y65332D01*
X81313Y65415D01*
X81473Y65624D01*
X81580Y65874D01*
X81660Y66207D01*
X81687Y66582D01*
X81660Y66957D01*
X81580Y67290D01*
X81473Y67540D01*
X81313Y67749D01*
X81100Y67832D01*
G01X82847Y65624D02*
X83033Y65415D01*
X83247Y65332D01*
X83460Y65415D01*
X83647Y65665D01*
X83780Y66040D01*
X83833Y66415D01*
Y66874D01*
X83780Y67249D01*
X83647Y67582D01*
X83487Y67749D01*
X83300Y67832D01*
X83087Y67749D01*
X82927Y67582D01*
X82820Y67332D01*
X82767Y66999D01*
X82820Y66707D01*
X82953Y66415D01*
X83113Y66249D01*
X83300Y66207D01*
X83513Y66290D01*
X83673Y66499D01*
X83833Y66874D01*
G01X76167Y69332D02*
Y71832D01*
X76833D01*
X77047Y71707D01*
X77180Y71540D01*
X77233Y71207D01*
X77180Y70874D01*
X77020Y70665D01*
X76833Y70540D01*
X76167D01*
G01X76833D02*
X77233Y69332D01*
G01X78313Y69832D02*
X78473Y69540D01*
X78687Y69374D01*
X78927Y69332D01*
X79140Y69374D01*
X79353Y69582D01*
X79487Y69832D01*
X79513Y70082D01*
X79460Y70374D01*
X79273Y70582D01*
X79087Y70665D01*
X78847D01*
G01X79087D02*
X79247Y70790D01*
X79380Y70999D01*
X79433Y71249D01*
X79380Y71499D01*
X79247Y71707D01*
X79007Y71832D01*
X78767Y71790D01*
X78527Y71624D01*
G01X81100Y71832D02*
X80887Y71749D01*
X80727Y71540D01*
X80620Y71290D01*
X80540Y70957D01*
X80513Y70582D01*
X80540Y70207D01*
X80620Y69874D01*
X80727Y69624D01*
X80887Y69415D01*
X81100Y69332D01*
X81313Y69415D01*
X81473Y69624D01*
X81580Y69874D01*
X81660Y70207D01*
X81687Y70582D01*
X81660Y70957D01*
X81580Y71290D01*
X81473Y71540D01*
X81313Y71749D01*
X81100Y71832D01*
G01X83300Y69332D02*
X83487Y69374D01*
X83700Y69499D01*
X83833Y69707D01*
X83887Y69999D01*
X83833Y70290D01*
X83673Y70540D01*
X83433Y70665D01*
X83167D01*
X83007Y70749D01*
X82873Y70957D01*
X82820Y71249D01*
X82900Y71540D01*
X83087Y71749D01*
X83300Y71832D01*
X83513Y71749D01*
X83700Y71540D01*
X83780Y71249D01*
X83727Y70957D01*
X83593Y70749D01*
X83433Y70665D01*
X83167D01*
X82927Y70540D01*
X82767Y70290D01*
X82713Y69999D01*
X82767Y69707D01*
X82900Y69499D01*
X83113Y69374D01*
X83300Y69332D01*
G01X69708Y94537D02*
X69583Y94377D01*
X69500Y94190D01*
Y93977D01*
X69625Y93737D01*
X69833Y93550D01*
X70083Y93417D01*
X70500Y93310D01*
X70875Y93283D01*
X71250Y93337D01*
X71500Y93417D01*
X71750Y93577D01*
X71917Y93763D01*
X72000Y93950D01*
Y94137D01*
X71917Y94323D01*
X71792Y94483D01*
X71625Y94617D01*
G01X71500Y95563D02*
X71792Y95723D01*
X71958Y95937D01*
X72000Y96177D01*
X71958Y96390D01*
X71750Y96603D01*
X71500Y96737D01*
X71250Y96763D01*
X70958Y96710D01*
X70750Y96523D01*
X70667Y96337D01*
Y96097D01*
G01Y96337D02*
X70542Y96497D01*
X70333Y96630D01*
X70083Y96683D01*
X69833Y96630D01*
X69625Y96497D01*
X69500Y96257D01*
X69542Y96017D01*
X69708Y95777D01*
G01X71500Y97763D02*
X71792Y97923D01*
X71958Y98137D01*
X72000Y98377D01*
X71958Y98590D01*
X71750Y98803D01*
X71500Y98937D01*
X71250Y98963D01*
X70958Y98910D01*
X70750Y98723D01*
X70667Y98537D01*
Y98297D01*
G01Y98537D02*
X70542Y98697D01*
X70333Y98830D01*
X70083Y98883D01*
X69833Y98830D01*
X69625Y98697D01*
X69500Y98457D01*
X69542Y98217D01*
X69708Y97977D01*
G01X71708Y100097D02*
X71917Y100283D01*
X72000Y100497D01*
X71917Y100710D01*
X71667Y100897D01*
X71292Y101030D01*
X70917Y101083D01*
X70458D01*
X70083Y101030D01*
X69750Y100897D01*
X69583Y100737D01*
X69500Y100550D01*
X69583Y100337D01*
X69750Y100177D01*
X70000Y100070D01*
X70333Y100017D01*
X70625Y100070D01*
X70917Y100203D01*
X71083Y100363D01*
X71125Y100550D01*
X71042Y100763D01*
X70833Y100923D01*
X70458Y101083D01*
G01X74708Y94537D02*
X74583Y94377D01*
X74500Y94190D01*
Y93977D01*
X74625Y93737D01*
X74833Y93550D01*
X75083Y93417D01*
X75500Y93310D01*
X75875Y93283D01*
X76250Y93337D01*
X76500Y93417D01*
X76750Y93577D01*
X76917Y93763D01*
X77000Y93950D01*
Y94137D01*
X76917Y94323D01*
X76792Y94483D01*
X76625Y94617D01*
G01X76500Y95563D02*
X76792Y95723D01*
X76958Y95937D01*
X77000Y96177D01*
X76958Y96390D01*
X76750Y96603D01*
X76500Y96737D01*
X76250Y96763D01*
X75958Y96710D01*
X75750Y96523D01*
X75667Y96337D01*
Y96097D01*
G01Y96337D02*
X75542Y96497D01*
X75333Y96630D01*
X75083Y96683D01*
X74833Y96630D01*
X74625Y96497D01*
X74500Y96257D01*
X74542Y96017D01*
X74708Y95777D01*
G01X76500Y97763D02*
X76792Y97923D01*
X76958Y98137D01*
X77000Y98377D01*
X76958Y98590D01*
X76750Y98803D01*
X76500Y98937D01*
X76250Y98963D01*
X75958Y98910D01*
X75750Y98723D01*
X75667Y98537D01*
Y98297D01*
G01Y98537D02*
X75542Y98697D01*
X75333Y98830D01*
X75083Y98883D01*
X74833Y98830D01*
X74625Y98697D01*
X74500Y98457D01*
X74542Y98217D01*
X74708Y97977D01*
G01X77000Y100550D02*
X76958Y100737D01*
X76833Y100950D01*
X76625Y101083D01*
X76333Y101137D01*
X76042Y101083D01*
X75792Y100923D01*
X75667Y100683D01*
Y100417D01*
X75583Y100257D01*
X75375Y100123D01*
X75083Y100070D01*
X74792Y100150D01*
X74583Y100337D01*
X74500Y100550D01*
X74583Y100763D01*
X74792Y100950D01*
X75083Y101030D01*
X75375Y100977D01*
X75583Y100843D01*
X75667Y100683D01*
Y100417D01*
X75792Y100177D01*
X76042Y100017D01*
X76333Y99963D01*
X76625Y100017D01*
X76833Y100150D01*
X76958Y100363D01*
X77000Y100550D01*
G01X83208Y90787D02*
X83083Y90627D01*
X83000Y90440D01*
Y90227D01*
X83125Y89987D01*
X83333Y89800D01*
X83583Y89667D01*
X84000Y89560D01*
X84375Y89533D01*
X84750Y89587D01*
X85000Y89667D01*
X85250Y89827D01*
X85417Y90013D01*
X85500Y90200D01*
Y90387D01*
X85417Y90573D01*
X85292Y90733D01*
X85125Y90867D01*
G01X85000Y91813D02*
X85292Y91973D01*
X85458Y92187D01*
X85500Y92427D01*
X85458Y92640D01*
X85250Y92853D01*
X85000Y92987D01*
X84750Y93013D01*
X84458Y92960D01*
X84250Y92773D01*
X84167Y92587D01*
Y92347D01*
G01Y92587D02*
X84042Y92747D01*
X83833Y92880D01*
X83583Y92933D01*
X83333Y92880D01*
X83125Y92747D01*
X83000Y92507D01*
X83042Y92267D01*
X83208Y92027D01*
G01X85500Y94600D02*
X83000D01*
X83500Y94280D01*
G01X85500D02*
Y94920D01*
G01X85000Y96213D02*
X85292Y96373D01*
X85458Y96587D01*
X85500Y96827D01*
X85458Y97040D01*
X85250Y97253D01*
X85000Y97387D01*
X84750Y97413D01*
X84458Y97360D01*
X84250Y97173D01*
X84167Y96987D01*
Y96747D01*
G01Y96987D02*
X84042Y97147D01*
X83833Y97280D01*
X83583Y97333D01*
X83333Y97280D01*
X83125Y97147D01*
X83000Y96907D01*
X83042Y96667D01*
X83208Y96427D01*
G01X70417Y89000D02*
Y91500D01*
X71083D01*
X71297Y91375D01*
X71430Y91208D01*
X71483Y90875D01*
X71430Y90542D01*
X71270Y90333D01*
X71083Y90208D01*
X70417D01*
G01X71083D02*
X71483Y89000D01*
G01X72563Y89500D02*
X72723Y89208D01*
X72937Y89042D01*
X73177Y89000D01*
X73390Y89042D01*
X73603Y89250D01*
X73737Y89500D01*
X73763Y89750D01*
X73710Y90042D01*
X73523Y90250D01*
X73337Y90333D01*
X73097D01*
G01X73337D02*
X73497Y90458D01*
X73630Y90667D01*
X73683Y90917D01*
X73630Y91167D01*
X73497Y91375D01*
X73257Y91500D01*
X73017Y91458D01*
X72777Y91292D01*
G01X75350Y89000D02*
Y91500D01*
X75030Y91000D01*
G01Y89000D02*
X75670D01*
G01X77550Y91500D02*
X77337Y91417D01*
X77177Y91208D01*
X77070Y90958D01*
X76990Y90625D01*
X76963Y90250D01*
X76990Y89875D01*
X77070Y89542D01*
X77177Y89292D01*
X77337Y89083D01*
X77550Y89000D01*
X77763Y89083D01*
X77923Y89292D01*
X78030Y89542D01*
X78110Y89875D01*
X78137Y90250D01*
X78110Y90625D01*
X78030Y90958D01*
X77923Y91208D01*
X77763Y91417D01*
X77550Y91500D01*
G01X67758Y117687D02*
X67633Y117527D01*
X67550Y117340D01*
Y117127D01*
X67675Y116887D01*
X67883Y116700D01*
X68133Y116567D01*
X68550Y116460D01*
X68925Y116433D01*
X69300Y116487D01*
X69550Y116567D01*
X69800Y116727D01*
X69967Y116913D01*
X70050Y117100D01*
Y117287D01*
X69967Y117473D01*
X69842Y117633D01*
X69675Y117767D01*
G01X69550Y118713D02*
X69842Y118873D01*
X70008Y119087D01*
X70050Y119327D01*
X70008Y119540D01*
X69800Y119753D01*
X69550Y119887D01*
X69300Y119913D01*
X69008Y119860D01*
X68800Y119673D01*
X68717Y119487D01*
Y119247D01*
G01Y119487D02*
X68592Y119647D01*
X68383Y119780D01*
X68133Y119833D01*
X67883Y119780D01*
X67675Y119647D01*
X67550Y119407D01*
X67592Y119167D01*
X67758Y118927D01*
G01X70050Y121500D02*
X67550D01*
X68050Y121180D01*
G01X70050D02*
Y121820D01*
G01Y124020D02*
X67550D01*
X69342Y123033D01*
Y124367D01*
G01X72758Y117687D02*
X72633Y117527D01*
X72550Y117340D01*
Y117127D01*
X72675Y116887D01*
X72883Y116700D01*
X73133Y116567D01*
X73550Y116460D01*
X73925Y116433D01*
X74300Y116487D01*
X74550Y116567D01*
X74800Y116727D01*
X74967Y116913D01*
X75050Y117100D01*
Y117287D01*
X74967Y117473D01*
X74842Y117633D01*
X74675Y117767D01*
G01X74550Y118713D02*
X74842Y118873D01*
X75008Y119087D01*
X75050Y119327D01*
X75008Y119540D01*
X74800Y119753D01*
X74550Y119887D01*
X74300Y119913D01*
X74008Y119860D01*
X73800Y119673D01*
X73717Y119487D01*
Y119247D01*
G01Y119487D02*
X73592Y119647D01*
X73383Y119780D01*
X73133Y119833D01*
X72883Y119780D01*
X72675Y119647D01*
X72550Y119407D01*
X72592Y119167D01*
X72758Y118927D01*
G01X75050Y121500D02*
X72550D01*
X73050Y121180D01*
G01X75050D02*
Y121820D01*
G01X74675Y123113D02*
X74883Y123273D01*
X75008Y123460D01*
X75050Y123700D01*
X74967Y123940D01*
X74800Y124127D01*
X74508Y124260D01*
X74175Y124287D01*
X73842Y124233D01*
X73633Y124100D01*
X73467Y123913D01*
X73425Y123727D01*
X73467Y123540D01*
X73633Y123300D01*
X72550Y123380D01*
Y124100D01*
G01X76708Y119287D02*
X76583Y119127D01*
X76500Y118940D01*
Y118727D01*
X76625Y118487D01*
X76833Y118300D01*
X77083Y118167D01*
X77500Y118060D01*
X77875Y118033D01*
X78250Y118087D01*
X78500Y118167D01*
X78750Y118327D01*
X78917Y118513D01*
X79000Y118700D01*
Y118887D01*
X78917Y119073D01*
X78792Y119233D01*
X78625Y119367D01*
G01X78500Y120313D02*
X78792Y120473D01*
X78958Y120687D01*
X79000Y120927D01*
X78958Y121140D01*
X78750Y121353D01*
X78500Y121487D01*
X78250Y121513D01*
X77958Y121460D01*
X77750Y121273D01*
X77667Y121087D01*
Y120847D01*
G01Y121087D02*
X77542Y121247D01*
X77333Y121380D01*
X77083Y121433D01*
X76833Y121380D01*
X76625Y121247D01*
X76500Y121007D01*
X76542Y120767D01*
X76708Y120527D01*
G01X79000Y123100D02*
X76500D01*
X77000Y122780D01*
G01X79000D02*
Y123420D01*
G01X76917Y124793D02*
X76667Y124953D01*
X76542Y125140D01*
X76500Y125353D01*
X76583Y125620D01*
X76792Y125807D01*
X77042Y125860D01*
X77292Y125833D01*
X77500Y125727D01*
X77917Y125193D01*
X78208Y124953D01*
X78625Y124793D01*
X79000Y124740D01*
Y125860D01*
G01X66000Y114167D02*
X63500D01*
Y114833D01*
X63625Y115047D01*
X63792Y115180D01*
X64125Y115233D01*
X64458Y115180D01*
X64667Y115020D01*
X64792Y114833D01*
Y114167D01*
G01Y114833D02*
X66000Y115233D01*
G01X65500Y116313D02*
X65792Y116473D01*
X65958Y116687D01*
X66000Y116927D01*
X65958Y117140D01*
X65750Y117353D01*
X65500Y117487D01*
X65250Y117513D01*
X64958Y117460D01*
X64750Y117273D01*
X64667Y117087D01*
Y116847D01*
G01Y117087D02*
X64542Y117247D01*
X64333Y117380D01*
X64083Y117433D01*
X63833Y117380D01*
X63625Y117247D01*
X63500Y117007D01*
X63542Y116767D01*
X63708Y116527D01*
G01X63500Y119100D02*
X63583Y118887D01*
X63792Y118727D01*
X64042Y118620D01*
X64375Y118540D01*
X64750Y118513D01*
X65125Y118540D01*
X65458Y118620D01*
X65708Y118727D01*
X65917Y118887D01*
X66000Y119100D01*
X65917Y119313D01*
X65708Y119473D01*
X65458Y119580D01*
X65125Y119660D01*
X64750Y119687D01*
X64375Y119660D01*
X64042Y119580D01*
X63792Y119473D01*
X63583Y119313D01*
X63500Y119100D01*
G01X66000Y121247D02*
X65458Y121300D01*
X65000Y121380D01*
X64583Y121487D01*
X64125Y121620D01*
X63500Y121833D01*
Y120767D01*
G01X74540Y133710D02*
X76307Y135478D01*
X76779Y135007D01*
X76841Y134768D01*
X76818Y134555D01*
X76620Y134282D01*
X76346Y134084D01*
X76086Y134050D01*
X75865Y134093D01*
X75394Y134565D01*
G01X75865Y134093D02*
X75294Y132956D01*
G01X76411Y132546D02*
X76318Y132226D01*
X76351Y131958D01*
X76492Y131758D01*
X76672Y131637D01*
X76970Y131633D01*
X77241Y131716D01*
X77437Y131874D01*
X77605Y132118D01*
X77621Y132397D01*
X77547Y132588D01*
X77378Y132758D01*
G01X77547Y132588D02*
X77749Y132563D01*
X77991Y132616D01*
X78205Y132755D01*
X78344Y132970D01*
X78397Y133212D01*
X78316Y133470D01*
X78117Y133610D01*
X77829Y133662D01*
G01X79796Y131989D02*
X79587Y132081D01*
X79326Y132047D01*
X79074Y131946D01*
X78782Y131766D01*
X78498Y131520D01*
X78251Y131236D01*
X78072Y130944D01*
X77971Y130691D01*
X77937Y130431D01*
X78029Y130221D01*
X78238Y130129D01*
X78499Y130164D01*
X78751Y130265D01*
X79043Y130444D01*
X79327Y130690D01*
X79574Y130974D01*
X79753Y131267D01*
X79854Y131519D01*
X79888Y131779D01*
X79796Y131989D01*
G01X79435Y129345D02*
X79401Y129085D01*
X79444Y128864D01*
X79585Y128665D01*
X79813Y128555D01*
X80063Y128540D01*
X80364Y128652D01*
X80618Y128869D01*
X80816Y129143D01*
X80869Y129384D01*
X80855Y129634D01*
X80753Y129795D01*
X80591Y129898D01*
X80304Y129950D01*
X81126Y130659D01*
X81635Y130150D01*
G01X81040Y133960D02*
X82807Y135728D01*
X83279Y135257D01*
X83341Y135018D01*
X83318Y134805D01*
X83120Y134532D01*
X82846Y134334D01*
X82586Y134300D01*
X82365Y134343D01*
X81894Y134815D01*
G01X82365Y134343D02*
X81794Y133206D01*
G01X82911Y132796D02*
X82818Y132476D01*
X82851Y132208D01*
X82992Y132008D01*
X83172Y131887D01*
X83470Y131883D01*
X83741Y131966D01*
X83937Y132124D01*
X84105Y132368D01*
X84121Y132647D01*
X84047Y132838D01*
X83878Y133008D01*
G01X84047Y132838D02*
X84249Y132813D01*
X84491Y132866D01*
X84705Y133005D01*
X84844Y133220D01*
X84897Y133462D01*
X84816Y133720D01*
X84617Y133860D01*
X84329Y133912D01*
G01X84529Y130471D02*
X86296Y132239D01*
X85717Y132112D01*
G01X84302Y130698D02*
X84755Y130245D01*
G01X87200Y130747D02*
X87489Y130810D01*
X87710Y130767D01*
X87890Y130645D01*
X88020Y130398D01*
X88004Y130119D01*
X87865Y129904D01*
X87670Y129746D01*
X87447Y129674D01*
X86775Y129757D01*
X86399Y129720D01*
X85992Y129539D01*
X85689Y129311D01*
X86481Y128519D01*
G01X104250Y-88583D02*
X101750D01*
Y-87917D01*
X101875Y-87703D01*
X102042Y-87570D01*
X102375Y-87517D01*
X102708Y-87570D01*
X102917Y-87730D01*
X103042Y-87917D01*
Y-88583D01*
G01Y-87917D02*
X104250Y-87517D01*
G01X102167Y-86357D02*
X101917Y-86197D01*
X101792Y-86010D01*
X101750Y-85797D01*
X101833Y-85530D01*
X102042Y-85343D01*
X102292Y-85290D01*
X102542Y-85317D01*
X102750Y-85423D01*
X103167Y-85957D01*
X103458Y-86197D01*
X103875Y-86357D01*
X104250Y-86410D01*
Y-85290D01*
G01Y-83650D02*
X101750D01*
X102250Y-83970D01*
G01X104250D02*
Y-83330D01*
G01Y-81450D02*
X104208Y-81263D01*
X104083Y-81050D01*
X103875Y-80917D01*
X103583Y-80863D01*
X103292Y-80917D01*
X103042Y-81077D01*
X102917Y-81317D01*
Y-81583D01*
X102833Y-81743D01*
X102625Y-81877D01*
X102333Y-81930D01*
X102042Y-81850D01*
X101833Y-81663D01*
X101750Y-81450D01*
X101833Y-81237D01*
X102042Y-81050D01*
X102333Y-80970D01*
X102625Y-81023D01*
X102833Y-81157D01*
X102917Y-81317D01*
Y-81583D01*
X103042Y-81823D01*
X103292Y-81983D01*
X103583Y-82037D01*
X103875Y-81983D01*
X104083Y-81850D01*
X104208Y-81637D01*
X104250Y-81450D01*
G01X94000Y-88833D02*
X91500D01*
Y-88167D01*
X91625Y-87953D01*
X91792Y-87820D01*
X92125Y-87767D01*
X92458Y-87820D01*
X92667Y-87980D01*
X92792Y-88167D01*
Y-88833D01*
G01Y-88167D02*
X94000Y-87767D01*
G01X91917Y-86607D02*
X91667Y-86447D01*
X91542Y-86260D01*
X91500Y-86047D01*
X91583Y-85780D01*
X91792Y-85593D01*
X92042Y-85540D01*
X92292Y-85567D01*
X92500Y-85673D01*
X92917Y-86207D01*
X93208Y-86447D01*
X93625Y-86607D01*
X94000Y-86660D01*
Y-85540D01*
G01X91917Y-84407D02*
X91667Y-84247D01*
X91542Y-84060D01*
X91500Y-83847D01*
X91583Y-83580D01*
X91792Y-83393D01*
X92042Y-83340D01*
X92292Y-83367D01*
X92500Y-83473D01*
X92917Y-84007D01*
X93208Y-84247D01*
X93625Y-84407D01*
X94000Y-84460D01*
Y-83340D01*
G01X91500Y-81700D02*
X91583Y-81913D01*
X91792Y-82073D01*
X92042Y-82180D01*
X92375Y-82260D01*
X92750Y-82287D01*
X93125Y-82260D01*
X93458Y-82180D01*
X93708Y-82073D01*
X93917Y-81913D01*
X94000Y-81700D01*
X93917Y-81487D01*
X93708Y-81327D01*
X93458Y-81220D01*
X93125Y-81140D01*
X92750Y-81113D01*
X92375Y-81140D01*
X92042Y-81220D01*
X91792Y-81327D01*
X91583Y-81487D01*
X91500Y-81700D01*
G01X104250Y-105083D02*
X101750D01*
Y-104417D01*
X101875Y-104203D01*
X102042Y-104070D01*
X102375Y-104017D01*
X102708Y-104070D01*
X102917Y-104230D01*
X103042Y-104417D01*
Y-105083D01*
G01Y-104417D02*
X104250Y-104017D01*
G01X102167Y-102857D02*
X101917Y-102697D01*
X101792Y-102510D01*
X101750Y-102297D01*
X101833Y-102030D01*
X102042Y-101843D01*
X102292Y-101790D01*
X102542Y-101817D01*
X102750Y-101923D01*
X103167Y-102457D01*
X103458Y-102697D01*
X103875Y-102857D01*
X104250Y-102910D01*
Y-101790D01*
G01Y-100150D02*
X101750D01*
X102250Y-100470D01*
G01X104250D02*
Y-99830D01*
G01Y-98003D02*
X103708Y-97950D01*
X103250Y-97870D01*
X102833Y-97763D01*
X102375Y-97630D01*
X101750Y-97417D01*
Y-98483D01*
G01X93750Y-105083D02*
X91250D01*
Y-104417D01*
X91375Y-104203D01*
X91542Y-104070D01*
X91875Y-104017D01*
X92208Y-104070D01*
X92417Y-104230D01*
X92542Y-104417D01*
Y-105083D01*
G01Y-104417D02*
X93750Y-104017D01*
G01X91667Y-102857D02*
X91417Y-102697D01*
X91292Y-102510D01*
X91250Y-102297D01*
X91333Y-102030D01*
X91542Y-101843D01*
X91792Y-101790D01*
X92042Y-101817D01*
X92250Y-101923D01*
X92667Y-102457D01*
X92958Y-102697D01*
X93375Y-102857D01*
X93750Y-102910D01*
Y-101790D01*
G01Y-100150D02*
X91250D01*
X91750Y-100470D01*
G01X93750D02*
Y-99830D01*
G01X93458Y-98403D02*
X93667Y-98217D01*
X93750Y-98003D01*
X93667Y-97790D01*
X93417Y-97603D01*
X93042Y-97470D01*
X92667Y-97417D01*
X92208D01*
X91833Y-97470D01*
X91500Y-97603D01*
X91333Y-97763D01*
X91250Y-97950D01*
X91333Y-98163D01*
X91500Y-98323D01*
X91750Y-98430D01*
X92083Y-98483D01*
X92375Y-98430D01*
X92667Y-98297D01*
X92833Y-98137D01*
X92875Y-97950D01*
X92792Y-97737D01*
X92583Y-97577D01*
X92208Y-97417D01*
G01X99157Y36397D02*
X99387Y36139D01*
X99655Y35984D01*
X100000Y35932D01*
X100345Y36035D01*
X100613Y36242D01*
X100805Y36604D01*
X100843Y37017D01*
X100767Y37430D01*
X100575Y37689D01*
X100307Y37895D01*
X100038Y37947D01*
X99770Y37895D01*
X99425Y37689D01*
X99540Y39032D01*
X100575D01*
G01X88458Y59037D02*
X88333Y58877D01*
X88250Y58690D01*
Y58477D01*
X88375Y58237D01*
X88583Y58050D01*
X88833Y57917D01*
X89250Y57810D01*
X89625Y57783D01*
X90000Y57837D01*
X90250Y57917D01*
X90500Y58077D01*
X90667Y58263D01*
X90750Y58450D01*
Y58637D01*
X90667Y58823D01*
X90542Y58983D01*
X90375Y59117D01*
G01X90250Y60063D02*
X90542Y60223D01*
X90708Y60437D01*
X90750Y60677D01*
X90708Y60890D01*
X90500Y61103D01*
X90250Y61237D01*
X90000Y61263D01*
X89708Y61210D01*
X89500Y61023D01*
X89417Y60837D01*
Y60597D01*
G01Y60837D02*
X89292Y60997D01*
X89083Y61130D01*
X88833Y61183D01*
X88583Y61130D01*
X88375Y60997D01*
X88250Y60757D01*
X88292Y60517D01*
X88458Y60277D01*
G01X90750Y63170D02*
X88250D01*
X90042Y62183D01*
Y63517D01*
G01X89708Y64543D02*
X89417Y64730D01*
X89250Y64890D01*
X89167Y65103D01*
X89250Y65290D01*
X89417Y65423D01*
X89667Y65530D01*
X89958Y65557D01*
X90208Y65530D01*
X90458Y65423D01*
X90667Y65263D01*
X90750Y65077D01*
X90667Y64863D01*
X90417Y64677D01*
X90042Y64570D01*
X89625Y64543D01*
X89083Y64597D01*
X88792Y64677D01*
X88500Y64810D01*
X88292Y64997D01*
X88250Y65183D01*
X88333Y65370D01*
X88542Y65503D01*
G01X96958Y59037D02*
X96833Y58877D01*
X96750Y58690D01*
Y58477D01*
X96875Y58237D01*
X97083Y58050D01*
X97333Y57917D01*
X97750Y57810D01*
X98125Y57783D01*
X98500Y57837D01*
X98750Y57917D01*
X99000Y58077D01*
X99167Y58263D01*
X99250Y58450D01*
Y58637D01*
X99167Y58823D01*
X99042Y58983D01*
X98875Y59117D01*
G01X98750Y60063D02*
X99042Y60223D01*
X99208Y60437D01*
X99250Y60677D01*
X99208Y60890D01*
X99000Y61103D01*
X98750Y61237D01*
X98500Y61263D01*
X98208Y61210D01*
X98000Y61023D01*
X97917Y60837D01*
Y60597D01*
G01Y60837D02*
X97792Y60997D01*
X97583Y61130D01*
X97333Y61183D01*
X97083Y61130D01*
X96875Y60997D01*
X96750Y60757D01*
X96792Y60517D01*
X96958Y60277D01*
G01X99250Y63170D02*
X96750D01*
X98542Y62183D01*
Y63517D01*
G01X98875Y64463D02*
X99083Y64623D01*
X99208Y64810D01*
X99250Y65050D01*
X99167Y65290D01*
X99000Y65477D01*
X98708Y65610D01*
X98375Y65637D01*
X98042Y65583D01*
X97833Y65450D01*
X97667Y65263D01*
X97625Y65077D01*
X97667Y64890D01*
X97833Y64650D01*
X96750Y64730D01*
Y65450D01*
G01X101208Y59037D02*
X101083Y58877D01*
X101000Y58690D01*
Y58477D01*
X101125Y58237D01*
X101333Y58050D01*
X101583Y57917D01*
X102000Y57810D01*
X102375Y57783D01*
X102750Y57837D01*
X103000Y57917D01*
X103250Y58077D01*
X103417Y58263D01*
X103500Y58450D01*
Y58637D01*
X103417Y58823D01*
X103292Y58983D01*
X103125Y59117D01*
G01X103000Y60063D02*
X103292Y60223D01*
X103458Y60437D01*
X103500Y60677D01*
X103458Y60890D01*
X103250Y61103D01*
X103000Y61237D01*
X102750Y61263D01*
X102458Y61210D01*
X102250Y61023D01*
X102167Y60837D01*
Y60597D01*
G01Y60837D02*
X102042Y60997D01*
X101833Y61130D01*
X101583Y61183D01*
X101333Y61130D01*
X101125Y60997D01*
X101000Y60757D01*
X101042Y60517D01*
X101208Y60277D01*
G01X103500Y63170D02*
X101000D01*
X102792Y62183D01*
Y63517D01*
G01X103500Y65370D02*
X101000D01*
X102792Y64383D01*
Y65717D01*
G01X92708Y59037D02*
X92583Y58877D01*
X92500Y58690D01*
Y58477D01*
X92625Y58237D01*
X92833Y58050D01*
X93083Y57917D01*
X93500Y57810D01*
X93875Y57783D01*
X94250Y57837D01*
X94500Y57917D01*
X94750Y58077D01*
X94917Y58263D01*
X95000Y58450D01*
Y58637D01*
X94917Y58823D01*
X94792Y58983D01*
X94625Y59117D01*
G01X94500Y60063D02*
X94792Y60223D01*
X94958Y60437D01*
X95000Y60677D01*
X94958Y60890D01*
X94750Y61103D01*
X94500Y61237D01*
X94250Y61263D01*
X93958Y61210D01*
X93750Y61023D01*
X93667Y60837D01*
Y60597D01*
G01Y60837D02*
X93542Y60997D01*
X93333Y61130D01*
X93083Y61183D01*
X92833Y61130D01*
X92625Y60997D01*
X92500Y60757D01*
X92542Y60517D01*
X92708Y60277D01*
G01X95000Y63170D02*
X92500D01*
X94292Y62183D01*
Y63517D01*
G01X94500Y64463D02*
X94792Y64623D01*
X94958Y64837D01*
X95000Y65077D01*
X94958Y65290D01*
X94750Y65503D01*
X94500Y65637D01*
X94250Y65663D01*
X93958Y65610D01*
X93750Y65423D01*
X93667Y65237D01*
Y64997D01*
G01Y65237D02*
X93542Y65397D01*
X93333Y65530D01*
X93083Y65583D01*
X92833Y65530D01*
X92625Y65397D01*
X92500Y65157D01*
X92542Y64917D01*
X92708Y64677D01*
G01X92787Y100542D02*
X92627Y100667D01*
X92440Y100750D01*
X92227D01*
X91987Y100625D01*
X91800Y100417D01*
X91667Y100167D01*
X91560Y99750D01*
X91533Y99375D01*
X91587Y99000D01*
X91667Y98750D01*
X91827Y98500D01*
X92013Y98333D01*
X92200Y98250D01*
X92387D01*
X92573Y98333D01*
X92733Y98458D01*
X92867Y98625D01*
G01X93813Y98750D02*
X93973Y98458D01*
X94187Y98292D01*
X94427Y98250D01*
X94640Y98292D01*
X94853Y98500D01*
X94987Y98750D01*
X95013Y99000D01*
X94960Y99292D01*
X94773Y99500D01*
X94587Y99583D01*
X94347D01*
G01X94587D02*
X94747Y99708D01*
X94880Y99917D01*
X94933Y100167D01*
X94880Y100417D01*
X94747Y100625D01*
X94507Y100750D01*
X94267Y100708D01*
X94027Y100542D01*
G01X96600Y98250D02*
Y100750D01*
X96280Y100250D01*
G01Y98250D02*
X96920D01*
G01X98800Y100750D02*
X98587Y100667D01*
X98427Y100458D01*
X98320Y100208D01*
X98240Y99875D01*
X98213Y99500D01*
X98240Y99125D01*
X98320Y98792D01*
X98427Y98542D01*
X98587Y98333D01*
X98800Y98250D01*
X99013Y98333D01*
X99173Y98542D01*
X99280Y98792D01*
X99360Y99125D01*
X99387Y99500D01*
X99360Y99875D01*
X99280Y100208D01*
X99173Y100458D01*
X99013Y100667D01*
X98800Y100750D01*
G01X91863Y97000D02*
Y95208D01*
X91970Y94833D01*
X92183Y94583D01*
X92450Y94500D01*
X92717Y94583D01*
X92930Y94833D01*
X93037Y95208D01*
Y97000D01*
G01X94063Y95000D02*
X94223Y94708D01*
X94437Y94542D01*
X94677Y94500D01*
X94890Y94542D01*
X95103Y94750D01*
X95237Y95000D01*
X95263Y95250D01*
X95210Y95542D01*
X95023Y95750D01*
X94837Y95833D01*
X94597D01*
G01X94837D02*
X94997Y95958D01*
X95130Y96167D01*
X95183Y96417D01*
X95130Y96667D01*
X94997Y96875D01*
X94757Y97000D01*
X94517Y96958D01*
X94277Y96792D01*
G01X96850Y97000D02*
X96637Y96917D01*
X96477Y96708D01*
X96370Y96458D01*
X96290Y96125D01*
X96263Y95750D01*
X96290Y95375D01*
X96370Y95042D01*
X96477Y94792D01*
X96637Y94583D01*
X96850Y94500D01*
X97063Y94583D01*
X97223Y94792D01*
X97330Y95042D01*
X97410Y95375D01*
X97437Y95750D01*
X97410Y96125D01*
X97330Y96458D01*
X97223Y96708D01*
X97063Y96917D01*
X96850Y97000D01*
G01X98463Y95000D02*
X98623Y94708D01*
X98837Y94542D01*
X99077Y94500D01*
X99290Y94542D01*
X99503Y94750D01*
X99637Y95000D01*
X99663Y95250D01*
X99610Y95542D01*
X99423Y95750D01*
X99237Y95833D01*
X98997D01*
G01X99237D02*
X99397Y95958D01*
X99530Y96167D01*
X99583Y96417D01*
X99530Y96667D01*
X99397Y96875D01*
X99157Y97000D01*
X98917Y96958D01*
X98677Y96792D01*
G01X106000Y92233D02*
Y91167D01*
X103500D01*
Y92233D01*
G01X104708Y91807D02*
Y91167D01*
G01X105500Y93313D02*
X105792Y93473D01*
X105958Y93687D01*
X106000Y93927D01*
X105958Y94140D01*
X105750Y94353D01*
X105500Y94487D01*
X105250Y94513D01*
X104958Y94460D01*
X104750Y94273D01*
X104667Y94087D01*
Y93847D01*
G01Y94087D02*
X104542Y94247D01*
X104333Y94380D01*
X104083Y94433D01*
X103833Y94380D01*
X103625Y94247D01*
X103500Y94007D01*
X103542Y93767D01*
X103708Y93527D01*
G01X103500Y96100D02*
X103583Y95887D01*
X103792Y95727D01*
X104042Y95620D01*
X104375Y95540D01*
X104750Y95513D01*
X105125Y95540D01*
X105458Y95620D01*
X105708Y95727D01*
X105917Y95887D01*
X106000Y96100D01*
X105917Y96313D01*
X105708Y96473D01*
X105458Y96580D01*
X105125Y96660D01*
X104750Y96687D01*
X104375Y96660D01*
X104042Y96580D01*
X103792Y96473D01*
X103583Y96313D01*
X103500Y96100D01*
G01X106000Y98300D02*
X103500D01*
X104000Y97980D01*
G01X106000D02*
Y98620D01*
G01X88363Y125500D02*
Y123708D01*
X88470Y123333D01*
X88683Y123083D01*
X88950Y123000D01*
X89217Y123083D01*
X89430Y123333D01*
X89537Y123708D01*
Y125500D01*
G01X90563Y123500D02*
X90723Y123208D01*
X90937Y123042D01*
X91177Y123000D01*
X91390Y123042D01*
X91603Y123250D01*
X91737Y123500D01*
X91763Y123750D01*
X91710Y124042D01*
X91523Y124250D01*
X91337Y124333D01*
X91097D01*
G01X91337D02*
X91497Y124458D01*
X91630Y124667D01*
X91683Y124917D01*
X91630Y125167D01*
X91497Y125375D01*
X91257Y125500D01*
X91017Y125458D01*
X90777Y125292D01*
G01X93350Y125500D02*
X93137Y125417D01*
X92977Y125208D01*
X92870Y124958D01*
X92790Y124625D01*
X92763Y124250D01*
X92790Y123875D01*
X92870Y123542D01*
X92977Y123292D01*
X93137Y123083D01*
X93350Y123000D01*
X93563Y123083D01*
X93723Y123292D01*
X93830Y123542D01*
X93910Y123875D01*
X93937Y124250D01*
X93910Y124625D01*
X93830Y124958D01*
X93723Y125208D01*
X93563Y125417D01*
X93350Y125500D01*
G01X95043Y125083D02*
X95203Y125333D01*
X95390Y125458D01*
X95603Y125500D01*
X95870Y125417D01*
X96057Y125208D01*
X96110Y124958D01*
X96083Y124708D01*
X95977Y124500D01*
X95443Y124083D01*
X95203Y123792D01*
X95043Y123375D01*
X94990Y123000D01*
X96110D01*
G01X94702Y134539D02*
X94677Y134740D01*
X94604Y134931D01*
X94453Y135082D01*
X94195Y135164D01*
X93916Y135148D01*
X93645Y135066D01*
X93275Y134847D01*
X92991Y134600D01*
X92763Y134297D01*
X92643Y134064D01*
X92579Y133774D01*
X92594Y133524D01*
X92667Y133333D01*
X92799Y133201D01*
X92990Y133128D01*
X93191Y133103D01*
X93403Y133127D01*
G01X94161Y132546D02*
X94068Y132226D01*
X94101Y131958D01*
X94242Y131758D01*
X94422Y131637D01*
X94720Y131633D01*
X94991Y131716D01*
X95187Y131874D01*
X95355Y132118D01*
X95371Y132397D01*
X95297Y132588D01*
X95128Y132758D01*
G01X95297Y132588D02*
X95499Y132563D01*
X95741Y132616D01*
X95955Y132755D01*
X96094Y132970D01*
X96147Y133212D01*
X96066Y133470D01*
X95867Y133610D01*
X95579Y133662D01*
G01X95779Y130221D02*
X97546Y131989D01*
X96967Y131862D01*
G01X95552Y130448D02*
X96005Y129995D01*
G01X97335Y128665D02*
X99102Y130433D01*
X98523Y130306D01*
G01X97108Y128892D02*
X97561Y128439D01*
G01X100040Y133710D02*
X101807Y135478D01*
X102279Y135007D01*
X102341Y134768D01*
X102318Y134555D01*
X102120Y134282D01*
X101846Y134084D01*
X101586Y134050D01*
X101365Y134093D01*
X100894Y134565D01*
G01X101365Y134093D02*
X100794Y132956D01*
G01X101911Y132546D02*
X101818Y132226D01*
X101851Y131958D01*
X101992Y131758D01*
X102172Y131637D01*
X102470Y131633D01*
X102741Y131716D01*
X102937Y131874D01*
X103105Y132118D01*
X103121Y132397D01*
X103047Y132588D01*
X102878Y132758D01*
G01X103047Y132588D02*
X103249Y132563D01*
X103491Y132616D01*
X103705Y132755D01*
X103844Y132970D01*
X103897Y133212D01*
X103816Y133470D01*
X103617Y133610D01*
X103329Y133662D01*
G01X105296Y131989D02*
X105087Y132081D01*
X104826Y132047D01*
X104574Y131946D01*
X104282Y131766D01*
X103998Y131520D01*
X103751Y131236D01*
X103572Y130944D01*
X103471Y130691D01*
X103437Y130431D01*
X103529Y130221D01*
X103738Y130129D01*
X103999Y130164D01*
X104251Y130265D01*
X104543Y130444D01*
X104827Y130690D01*
X105074Y130974D01*
X105253Y131267D01*
X105354Y131519D01*
X105388Y131779D01*
X105296Y131989D01*
G01X105463Y129760D02*
X105801Y129834D01*
X106032Y129839D01*
X106242Y129747D01*
X106315Y129556D01*
X106291Y129344D01*
X106190Y129092D01*
X106003Y128867D01*
X105807Y128709D01*
X105555Y128608D01*
X105294Y128573D01*
X105104Y128646D01*
X105012Y128856D01*
X105056Y129165D01*
X105246Y129506D01*
X105522Y129819D01*
X105943Y130164D01*
X106205Y130314D01*
X106506Y130426D01*
X106785Y130441D01*
X106947Y130339D01*
X107020Y130148D01*
X106967Y129906D01*
G01X116417Y-94500D02*
Y-92000D01*
X117083D01*
X117297Y-92125D01*
X117430Y-92292D01*
X117483Y-92625D01*
X117430Y-92958D01*
X117270Y-93167D01*
X117083Y-93292D01*
X116417D01*
G01X117083D02*
X117483Y-94500D01*
G01X118643Y-92417D02*
X118803Y-92167D01*
X118990Y-92042D01*
X119203Y-92000D01*
X119470Y-92083D01*
X119657Y-92292D01*
X119710Y-92542D01*
X119683Y-92792D01*
X119577Y-93000D01*
X119043Y-93417D01*
X118803Y-93708D01*
X118643Y-94125D01*
X118590Y-94500D01*
X119710D01*
G01X120843Y-92417D02*
X121003Y-92167D01*
X121190Y-92042D01*
X121403Y-92000D01*
X121670Y-92083D01*
X121857Y-92292D01*
X121910Y-92542D01*
X121883Y-92792D01*
X121777Y-93000D01*
X121243Y-93417D01*
X121003Y-93708D01*
X120843Y-94125D01*
X120790Y-94500D01*
X121910D01*
G01X123870D02*
Y-92000D01*
X122883Y-93792D01*
X124217D01*
G01X108500Y-88833D02*
X106000D01*
Y-88167D01*
X106125Y-87953D01*
X106292Y-87820D01*
X106625Y-87767D01*
X106958Y-87820D01*
X107167Y-87980D01*
X107292Y-88167D01*
Y-88833D01*
G01Y-88167D02*
X108500Y-87767D01*
G01X106417Y-86607D02*
X106167Y-86447D01*
X106042Y-86260D01*
X106000Y-86047D01*
X106083Y-85780D01*
X106292Y-85593D01*
X106542Y-85540D01*
X106792Y-85567D01*
X107000Y-85673D01*
X107417Y-86207D01*
X107708Y-86447D01*
X108125Y-86607D01*
X108500Y-86660D01*
Y-85540D01*
G01Y-83900D02*
X106000D01*
X106500Y-84220D01*
G01X108500D02*
Y-83580D01*
G01Y-81380D02*
X106000D01*
X107792Y-82367D01*
Y-81033D01*
G01X124000Y-105333D02*
X121500D01*
Y-104667D01*
X121625Y-104453D01*
X121792Y-104320D01*
X122125Y-104267D01*
X122458Y-104320D01*
X122667Y-104480D01*
X122792Y-104667D01*
Y-105333D01*
G01Y-104667D02*
X124000Y-104267D01*
G01X121917Y-103107D02*
X121667Y-102947D01*
X121542Y-102760D01*
X121500Y-102547D01*
X121583Y-102280D01*
X121792Y-102093D01*
X122042Y-102040D01*
X122292Y-102067D01*
X122500Y-102173D01*
X122917Y-102707D01*
X123208Y-102947D01*
X123625Y-103107D01*
X124000Y-103160D01*
Y-102040D01*
G01X121917Y-100907D02*
X121667Y-100747D01*
X121542Y-100560D01*
X121500Y-100347D01*
X121583Y-100080D01*
X121792Y-99893D01*
X122042Y-99840D01*
X122292Y-99867D01*
X122500Y-99973D01*
X122917Y-100507D01*
X123208Y-100747D01*
X123625Y-100907D01*
X124000Y-100960D01*
Y-99840D01*
G01X123500Y-98787D02*
X123792Y-98627D01*
X123958Y-98413D01*
X124000Y-98173D01*
X123958Y-97960D01*
X123750Y-97747D01*
X123500Y-97613D01*
X123250Y-97587D01*
X122958Y-97640D01*
X122750Y-97827D01*
X122667Y-98013D01*
Y-98253D01*
G01Y-98013D02*
X122542Y-97853D01*
X122333Y-97720D01*
X122083Y-97667D01*
X121833Y-97720D01*
X121625Y-97853D01*
X121500Y-98093D01*
X121542Y-98333D01*
X121708Y-98573D01*
G01X114250Y-105333D02*
X111750D01*
Y-104667D01*
X111875Y-104453D01*
X112042Y-104320D01*
X112375Y-104267D01*
X112708Y-104320D01*
X112917Y-104480D01*
X113042Y-104667D01*
Y-105333D01*
G01Y-104667D02*
X114250Y-104267D01*
G01X112167Y-103107D02*
X111917Y-102947D01*
X111792Y-102760D01*
X111750Y-102547D01*
X111833Y-102280D01*
X112042Y-102093D01*
X112292Y-102040D01*
X112542Y-102067D01*
X112750Y-102173D01*
X113167Y-102707D01*
X113458Y-102947D01*
X113875Y-103107D01*
X114250Y-103160D01*
Y-102040D01*
G01Y-100400D02*
X111750D01*
X112250Y-100720D01*
G01X114250D02*
Y-100080D01*
G01X113750Y-98787D02*
X114042Y-98627D01*
X114208Y-98413D01*
X114250Y-98173D01*
X114208Y-97960D01*
X114000Y-97747D01*
X113750Y-97613D01*
X113500Y-97587D01*
X113208Y-97640D01*
X113000Y-97827D01*
X112917Y-98013D01*
Y-98253D01*
G01Y-98013D02*
X112792Y-97853D01*
X112583Y-97720D01*
X112333Y-97667D01*
X112083Y-97720D01*
X111875Y-97853D01*
X111750Y-98093D01*
X111792Y-98333D01*
X111958Y-98573D01*
G01X118200Y57500D02*
Y60600D01*
X117740Y59980D01*
G01Y57500D02*
X118660D01*
G01X121300Y60600D02*
X120993Y60497D01*
X120763Y60238D01*
X120610Y59928D01*
X120495Y59515D01*
X120457Y59050D01*
X120495Y58585D01*
X120610Y58172D01*
X120763Y57862D01*
X120993Y57603D01*
X121300Y57500D01*
X121607Y57603D01*
X121837Y57862D01*
X121990Y58172D01*
X122105Y58585D01*
X122143Y59050D01*
X122105Y59515D01*
X121990Y59928D01*
X121837Y60238D01*
X121607Y60497D01*
X121300Y60600D01*
G01X118708Y73787D02*
X118583Y73627D01*
X118500Y73440D01*
Y73227D01*
X118625Y72987D01*
X118833Y72800D01*
X119083Y72667D01*
X119500Y72560D01*
X119875Y72533D01*
X120250Y72587D01*
X120500Y72667D01*
X120750Y72827D01*
X120917Y73013D01*
X121000Y73200D01*
Y73387D01*
X120917Y73573D01*
X120792Y73733D01*
X120625Y73867D01*
G01X120500Y74813D02*
X120792Y74973D01*
X120958Y75187D01*
X121000Y75427D01*
X120958Y75640D01*
X120750Y75853D01*
X120500Y75987D01*
X120250Y76013D01*
X119958Y75960D01*
X119750Y75773D01*
X119667Y75587D01*
Y75347D01*
G01Y75587D02*
X119542Y75747D01*
X119333Y75880D01*
X119083Y75933D01*
X118833Y75880D01*
X118625Y75747D01*
X118500Y75507D01*
X118542Y75267D01*
X118708Y75027D01*
G01X118500Y77600D02*
X118583Y77387D01*
X118792Y77227D01*
X119042Y77120D01*
X119375Y77040D01*
X119750Y77013D01*
X120125Y77040D01*
X120458Y77120D01*
X120708Y77227D01*
X120917Y77387D01*
X121000Y77600D01*
X120917Y77813D01*
X120708Y77973D01*
X120458Y78080D01*
X120125Y78160D01*
X119750Y78187D01*
X119375Y78160D01*
X119042Y78080D01*
X118792Y77973D01*
X118583Y77813D01*
X118500Y77600D01*
G01X119958Y79293D02*
X119667Y79480D01*
X119500Y79640D01*
X119417Y79853D01*
X119500Y80040D01*
X119667Y80173D01*
X119917Y80280D01*
X120208Y80307D01*
X120458Y80280D01*
X120708Y80173D01*
X120917Y80013D01*
X121000Y79827D01*
X120917Y79613D01*
X120667Y79427D01*
X120292Y79320D01*
X119875Y79293D01*
X119333Y79347D01*
X119042Y79427D01*
X118750Y79560D01*
X118542Y79747D01*
X118500Y79933D01*
X118583Y80120D01*
X118792Y80253D01*
G01X113287Y66292D02*
X113127Y66417D01*
X112940Y66500D01*
X112727D01*
X112487Y66375D01*
X112300Y66167D01*
X112167Y65917D01*
X112060Y65500D01*
X112033Y65125D01*
X112087Y64750D01*
X112167Y64500D01*
X112327Y64250D01*
X112513Y64083D01*
X112700Y64000D01*
X112887D01*
X113073Y64083D01*
X113233Y64208D01*
X113367Y64375D01*
G01X114313Y64500D02*
X114473Y64208D01*
X114687Y64042D01*
X114927Y64000D01*
X115140Y64042D01*
X115353Y64250D01*
X115487Y64500D01*
X115513Y64750D01*
X115460Y65042D01*
X115273Y65250D01*
X115087Y65333D01*
X114847D01*
G01X115087D02*
X115247Y65458D01*
X115380Y65667D01*
X115433Y65917D01*
X115380Y66167D01*
X115247Y66375D01*
X115007Y66500D01*
X114767Y66458D01*
X114527Y66292D01*
G01X117420Y64000D02*
Y66500D01*
X116433Y64708D01*
X117767D01*
G01X118793Y66083D02*
X118953Y66333D01*
X119140Y66458D01*
X119353Y66500D01*
X119620Y66417D01*
X119807Y66208D01*
X119860Y65958D01*
X119833Y65708D01*
X119727Y65500D01*
X119193Y65083D01*
X118953Y64792D01*
X118793Y64375D01*
X118740Y64000D01*
X119860D01*
G01X112787Y69874D02*
X112627Y69999D01*
X112440Y70082D01*
X112227D01*
X111987Y69957D01*
X111800Y69749D01*
X111667Y69499D01*
X111560Y69082D01*
X111533Y68707D01*
X111587Y68332D01*
X111667Y68082D01*
X111827Y67832D01*
X112013Y67665D01*
X112200Y67582D01*
X112387D01*
X112573Y67665D01*
X112733Y67790D01*
X112867Y67957D01*
G01X113813Y68082D02*
X113973Y67790D01*
X114187Y67624D01*
X114427Y67582D01*
X114640Y67624D01*
X114853Y67832D01*
X114987Y68082D01*
X115013Y68332D01*
X114960Y68624D01*
X114773Y68832D01*
X114587Y68915D01*
X114347D01*
G01X114587D02*
X114747Y69040D01*
X114880Y69249D01*
X114933Y69499D01*
X114880Y69749D01*
X114747Y69957D01*
X114507Y70082D01*
X114267Y70040D01*
X114027Y69874D01*
G01X116920Y67582D02*
Y70082D01*
X115933Y68290D01*
X117267D01*
G01X118800Y67582D02*
Y70082D01*
X118480Y69582D01*
G01Y67582D02*
X119120D01*
G01X108458Y100287D02*
X108333Y100127D01*
X108250Y99940D01*
Y99727D01*
X108375Y99487D01*
X108583Y99300D01*
X108833Y99167D01*
X109250Y99060D01*
X109625Y99033D01*
X110000Y99087D01*
X110250Y99167D01*
X110500Y99327D01*
X110667Y99513D01*
X110750Y99700D01*
Y99887D01*
X110667Y100073D01*
X110542Y100233D01*
X110375Y100367D01*
G01X110250Y101313D02*
X110542Y101473D01*
X110708Y101687D01*
X110750Y101927D01*
X110708Y102140D01*
X110500Y102353D01*
X110250Y102487D01*
X110000Y102513D01*
X109708Y102460D01*
X109500Y102273D01*
X109417Y102087D01*
Y101847D01*
G01Y102087D02*
X109292Y102247D01*
X109083Y102380D01*
X108833Y102433D01*
X108583Y102380D01*
X108375Y102247D01*
X108250Y102007D01*
X108292Y101767D01*
X108458Y101527D01*
G01X108250Y104100D02*
X108333Y103887D01*
X108542Y103727D01*
X108792Y103620D01*
X109125Y103540D01*
X109500Y103513D01*
X109875Y103540D01*
X110208Y103620D01*
X110458Y103727D01*
X110667Y103887D01*
X110750Y104100D01*
X110667Y104313D01*
X110458Y104473D01*
X110208Y104580D01*
X109875Y104660D01*
X109500Y104687D01*
X109125Y104660D01*
X108792Y104580D01*
X108542Y104473D01*
X108333Y104313D01*
X108250Y104100D01*
G01X110750Y106300D02*
X110708Y106487D01*
X110583Y106700D01*
X110375Y106833D01*
X110083Y106887D01*
X109792Y106833D01*
X109542Y106673D01*
X109417Y106433D01*
Y106167D01*
X109333Y106007D01*
X109125Y105873D01*
X108833Y105820D01*
X108542Y105900D01*
X108333Y106087D01*
X108250Y106300D01*
X108333Y106513D01*
X108542Y106700D01*
X108833Y106780D01*
X109125Y106727D01*
X109333Y106593D01*
X109417Y106433D01*
Y106167D01*
X109542Y105927D01*
X109792Y105767D01*
X110083Y105713D01*
X110375Y105767D01*
X110583Y105900D01*
X110708Y106113D01*
X110750Y106300D01*
G01X113458Y86287D02*
X113333Y86127D01*
X113250Y85940D01*
Y85727D01*
X113375Y85487D01*
X113583Y85300D01*
X113833Y85167D01*
X114250Y85060D01*
X114625Y85033D01*
X115000Y85087D01*
X115250Y85167D01*
X115500Y85327D01*
X115667Y85513D01*
X115750Y85700D01*
Y85887D01*
X115667Y86073D01*
X115542Y86233D01*
X115375Y86367D01*
G01X115250Y87313D02*
X115542Y87473D01*
X115708Y87687D01*
X115750Y87927D01*
X115708Y88140D01*
X115500Y88353D01*
X115250Y88487D01*
X115000Y88513D01*
X114708Y88460D01*
X114500Y88273D01*
X114417Y88087D01*
Y87847D01*
G01Y88087D02*
X114292Y88247D01*
X114083Y88380D01*
X113833Y88433D01*
X113583Y88380D01*
X113375Y88247D01*
X113250Y88007D01*
X113292Y87767D01*
X113458Y87527D01*
G01X113250Y90100D02*
X113333Y89887D01*
X113542Y89727D01*
X113792Y89620D01*
X114125Y89540D01*
X114500Y89513D01*
X114875Y89540D01*
X115208Y89620D01*
X115458Y89727D01*
X115667Y89887D01*
X115750Y90100D01*
X115667Y90313D01*
X115458Y90473D01*
X115208Y90580D01*
X114875Y90660D01*
X114500Y90687D01*
X114125Y90660D01*
X113792Y90580D01*
X113542Y90473D01*
X113333Y90313D01*
X113250Y90100D01*
G01X115375Y91713D02*
X115583Y91873D01*
X115708Y92060D01*
X115750Y92300D01*
X115667Y92540D01*
X115500Y92727D01*
X115208Y92860D01*
X114875Y92887D01*
X114542Y92833D01*
X114333Y92700D01*
X114167Y92513D01*
X114125Y92327D01*
X114167Y92140D01*
X114333Y91900D01*
X113250Y91980D01*
Y92700D01*
G01X105708Y119287D02*
X105583Y119127D01*
X105500Y118940D01*
Y118727D01*
X105625Y118487D01*
X105833Y118300D01*
X106083Y118167D01*
X106500Y118060D01*
X106875Y118033D01*
X107250Y118087D01*
X107500Y118167D01*
X107750Y118327D01*
X107917Y118513D01*
X108000Y118700D01*
Y118887D01*
X107917Y119073D01*
X107792Y119233D01*
X107625Y119367D01*
G01X107500Y120313D02*
X107792Y120473D01*
X107958Y120687D01*
X108000Y120927D01*
X107958Y121140D01*
X107750Y121353D01*
X107500Y121487D01*
X107250Y121513D01*
X106958Y121460D01*
X106750Y121273D01*
X106667Y121087D01*
Y120847D01*
G01Y121087D02*
X106542Y121247D01*
X106333Y121380D01*
X106083Y121433D01*
X105833Y121380D01*
X105625Y121247D01*
X105500Y121007D01*
X105542Y120767D01*
X105708Y120527D01*
G01X108000Y123100D02*
X105500D01*
X106000Y122780D01*
G01X108000D02*
Y123420D01*
G01Y125300D02*
X107958Y125487D01*
X107833Y125700D01*
X107625Y125833D01*
X107333Y125887D01*
X107042Y125833D01*
X106792Y125673D01*
X106667Y125433D01*
Y125167D01*
X106583Y125007D01*
X106375Y124873D01*
X106083Y124820D01*
X105792Y124900D01*
X105583Y125087D01*
X105500Y125300D01*
X105583Y125513D01*
X105792Y125700D01*
X106083Y125780D01*
X106375Y125727D01*
X106583Y125593D01*
X106667Y125433D01*
Y125167D01*
X106792Y124927D01*
X107042Y124767D01*
X107333Y124713D01*
X107625Y124767D01*
X107833Y124900D01*
X107958Y125113D01*
X108000Y125300D01*
G01X111708Y119287D02*
X111583Y119127D01*
X111500Y118940D01*
Y118727D01*
X111625Y118487D01*
X111833Y118300D01*
X112083Y118167D01*
X112500Y118060D01*
X112875Y118033D01*
X113250Y118087D01*
X113500Y118167D01*
X113750Y118327D01*
X113917Y118513D01*
X114000Y118700D01*
Y118887D01*
X113917Y119073D01*
X113792Y119233D01*
X113625Y119367D01*
G01X113500Y120313D02*
X113792Y120473D01*
X113958Y120687D01*
X114000Y120927D01*
X113958Y121140D01*
X113750Y121353D01*
X113500Y121487D01*
X113250Y121513D01*
X112958Y121460D01*
X112750Y121273D01*
X112667Y121087D01*
Y120847D01*
G01Y121087D02*
X112542Y121247D01*
X112333Y121380D01*
X112083Y121433D01*
X111833Y121380D01*
X111625Y121247D01*
X111500Y121007D01*
X111542Y120767D01*
X111708Y120527D01*
G01X114000Y123100D02*
X111500D01*
X112000Y122780D01*
G01X114000D02*
Y123420D01*
G01Y125247D02*
X113458Y125300D01*
X113000Y125380D01*
X112583Y125487D01*
X112125Y125620D01*
X111500Y125833D01*
Y124767D01*
G01X115708Y119287D02*
X115583Y119127D01*
X115500Y118940D01*
Y118727D01*
X115625Y118487D01*
X115833Y118300D01*
X116083Y118167D01*
X116500Y118060D01*
X116875Y118033D01*
X117250Y118087D01*
X117500Y118167D01*
X117750Y118327D01*
X117917Y118513D01*
X118000Y118700D01*
Y118887D01*
X117917Y119073D01*
X117792Y119233D01*
X117625Y119367D01*
G01X117500Y120313D02*
X117792Y120473D01*
X117958Y120687D01*
X118000Y120927D01*
X117958Y121140D01*
X117750Y121353D01*
X117500Y121487D01*
X117250Y121513D01*
X116958Y121460D01*
X116750Y121273D01*
X116667Y121087D01*
Y120847D01*
G01Y121087D02*
X116542Y121247D01*
X116333Y121380D01*
X116083Y121433D01*
X115833Y121380D01*
X115625Y121247D01*
X115500Y121007D01*
X115542Y120767D01*
X115708Y120527D01*
G01X118000Y123100D02*
X115500D01*
X116000Y122780D01*
G01X118000D02*
Y123420D01*
G01X116958Y124793D02*
X116667Y124980D01*
X116500Y125140D01*
X116417Y125353D01*
X116500Y125540D01*
X116667Y125673D01*
X116917Y125780D01*
X117208Y125807D01*
X117458Y125780D01*
X117708Y125673D01*
X117917Y125513D01*
X118000Y125327D01*
X117917Y125113D01*
X117667Y124927D01*
X117292Y124820D01*
X116875Y124793D01*
X116333Y124847D01*
X116042Y124927D01*
X115750Y125060D01*
X115542Y125247D01*
X115500Y125433D01*
X115583Y125620D01*
X115792Y125753D01*
G01X126000Y118167D02*
X123500D01*
Y118833D01*
X123625Y119047D01*
X123792Y119180D01*
X124125Y119233D01*
X124458Y119180D01*
X124667Y119020D01*
X124792Y118833D01*
Y118167D01*
G01Y118833D02*
X126000Y119233D01*
G01X125500Y120313D02*
X125792Y120473D01*
X125958Y120687D01*
X126000Y120927D01*
X125958Y121140D01*
X125750Y121353D01*
X125500Y121487D01*
X125250Y121513D01*
X124958Y121460D01*
X124750Y121273D01*
X124667Y121087D01*
Y120847D01*
G01Y121087D02*
X124542Y121247D01*
X124333Y121380D01*
X124083Y121433D01*
X123833Y121380D01*
X123625Y121247D01*
X123500Y121007D01*
X123542Y120767D01*
X123708Y120527D01*
G01X123500Y123100D02*
X123583Y122887D01*
X123792Y122727D01*
X124042Y122620D01*
X124375Y122540D01*
X124750Y122513D01*
X125125Y122540D01*
X125458Y122620D01*
X125708Y122727D01*
X125917Y122887D01*
X126000Y123100D01*
X125917Y123313D01*
X125708Y123473D01*
X125458Y123580D01*
X125125Y123660D01*
X124750Y123687D01*
X124375Y123660D01*
X124042Y123580D01*
X123792Y123473D01*
X123583Y123313D01*
X123500Y123100D01*
G01X123917Y124793D02*
X123667Y124953D01*
X123542Y125140D01*
X123500Y125353D01*
X123583Y125620D01*
X123792Y125807D01*
X124042Y125860D01*
X124292Y125833D01*
X124500Y125727D01*
X124917Y125193D01*
X125208Y124953D01*
X125625Y124793D01*
X126000Y124740D01*
Y125860D01*
G01X122000Y118167D02*
X119500D01*
Y118833D01*
X119625Y119047D01*
X119792Y119180D01*
X120125Y119233D01*
X120458Y119180D01*
X120667Y119020D01*
X120792Y118833D01*
Y118167D01*
G01Y118833D02*
X122000Y119233D01*
G01X121500Y120313D02*
X121792Y120473D01*
X121958Y120687D01*
X122000Y120927D01*
X121958Y121140D01*
X121750Y121353D01*
X121500Y121487D01*
X121250Y121513D01*
X120958Y121460D01*
X120750Y121273D01*
X120667Y121087D01*
Y120847D01*
G01Y121087D02*
X120542Y121247D01*
X120333Y121380D01*
X120083Y121433D01*
X119833Y121380D01*
X119625Y121247D01*
X119500Y121007D01*
X119542Y120767D01*
X119708Y120527D01*
G01X119500Y123100D02*
X119583Y122887D01*
X119792Y122727D01*
X120042Y122620D01*
X120375Y122540D01*
X120750Y122513D01*
X121125Y122540D01*
X121458Y122620D01*
X121708Y122727D01*
X121917Y122887D01*
X122000Y123100D01*
X121917Y123313D01*
X121708Y123473D01*
X121458Y123580D01*
X121125Y123660D01*
X120750Y123687D01*
X120375Y123660D01*
X120042Y123580D01*
X119792Y123473D01*
X119583Y123313D01*
X119500Y123100D01*
G01X121500Y124713D02*
X121792Y124873D01*
X121958Y125087D01*
X122000Y125327D01*
X121958Y125540D01*
X121750Y125753D01*
X121500Y125887D01*
X121250Y125913D01*
X120958Y125860D01*
X120750Y125673D01*
X120667Y125487D01*
Y125247D01*
G01Y125487D02*
X120542Y125647D01*
X120333Y125780D01*
X120083Y125833D01*
X119833Y125780D01*
X119625Y125647D01*
X119500Y125407D01*
X119542Y125167D01*
X119708Y124927D01*
G01X108208Y110037D02*
X108083Y109877D01*
X108000Y109690D01*
Y109477D01*
X108125Y109237D01*
X108333Y109050D01*
X108583Y108917D01*
X109000Y108810D01*
X109375Y108783D01*
X109750Y108837D01*
X110000Y108917D01*
X110250Y109077D01*
X110417Y109263D01*
X110500Y109450D01*
Y109637D01*
X110417Y109823D01*
X110292Y109983D01*
X110125Y110117D01*
G01X110000Y111063D02*
X110292Y111223D01*
X110458Y111437D01*
X110500Y111677D01*
X110458Y111890D01*
X110250Y112103D01*
X110000Y112237D01*
X109750Y112263D01*
X109458Y112210D01*
X109250Y112023D01*
X109167Y111837D01*
Y111597D01*
G01Y111837D02*
X109042Y111997D01*
X108833Y112130D01*
X108583Y112183D01*
X108333Y112130D01*
X108125Y111997D01*
X108000Y111757D01*
X108042Y111517D01*
X108208Y111277D01*
G01X108000Y113850D02*
X108083Y113637D01*
X108292Y113477D01*
X108542Y113370D01*
X108875Y113290D01*
X109250Y113263D01*
X109625Y113290D01*
X109958Y113370D01*
X110208Y113477D01*
X110417Y113637D01*
X110500Y113850D01*
X110417Y114063D01*
X110208Y114223D01*
X109958Y114330D01*
X109625Y114410D01*
X109250Y114437D01*
X108875Y114410D01*
X108542Y114330D01*
X108292Y114223D01*
X108083Y114063D01*
X108000Y113850D01*
G01X110208Y115597D02*
X110417Y115783D01*
X110500Y115997D01*
X110417Y116210D01*
X110167Y116397D01*
X109792Y116530D01*
X109417Y116583D01*
X108958D01*
X108583Y116530D01*
X108250Y116397D01*
X108083Y116237D01*
X108000Y116050D01*
X108083Y115837D01*
X108250Y115677D01*
X108500Y115570D01*
X108833Y115517D01*
X109125Y115570D01*
X109417Y115703D01*
X109583Y115863D01*
X109625Y116050D01*
X109542Y116263D01*
X109333Y116423D01*
X108958Y116583D01*
G01X115537Y135292D02*
X115377Y135417D01*
X115190Y135500D01*
X114977D01*
X114737Y135375D01*
X114550Y135167D01*
X114417Y134917D01*
X114310Y134500D01*
X114283Y134125D01*
X114337Y133750D01*
X114417Y133500D01*
X114577Y133250D01*
X114763Y133083D01*
X114950Y133000D01*
X115137D01*
X115323Y133083D01*
X115483Y133208D01*
X115617Y133375D01*
G01X116563Y133500D02*
X116723Y133208D01*
X116937Y133042D01*
X117177Y133000D01*
X117390Y133042D01*
X117603Y133250D01*
X117737Y133500D01*
X117763Y133750D01*
X117710Y134042D01*
X117523Y134250D01*
X117337Y134333D01*
X117097D01*
G01X117337D02*
X117497Y134458D01*
X117630Y134667D01*
X117683Y134917D01*
X117630Y135167D01*
X117497Y135375D01*
X117257Y135500D01*
X117017Y135458D01*
X116777Y135292D01*
G01X118843Y134042D02*
X119030Y134333D01*
X119190Y134500D01*
X119403Y134583D01*
X119590Y134500D01*
X119723Y134333D01*
X119830Y134083D01*
X119857Y133792D01*
X119830Y133542D01*
X119723Y133292D01*
X119563Y133083D01*
X119377Y133000D01*
X119163Y133083D01*
X118977Y133333D01*
X118870Y133708D01*
X118843Y134125D01*
X118897Y134667D01*
X118977Y134958D01*
X119110Y135250D01*
X119297Y135458D01*
X119483Y135500D01*
X119670Y135417D01*
X119803Y135208D01*
G01X120963Y133500D02*
X121123Y133208D01*
X121337Y133042D01*
X121577Y133000D01*
X121790Y133042D01*
X122003Y133250D01*
X122137Y133500D01*
X122163Y133750D01*
X122110Y134042D01*
X121923Y134250D01*
X121737Y134333D01*
X121497D01*
G01X121737D02*
X121897Y134458D01*
X122030Y134667D01*
X122083Y134917D01*
X122030Y135167D01*
X121897Y135375D01*
X121657Y135500D01*
X121417Y135458D01*
X121177Y135292D01*
G01X137167Y-94584D02*
Y-92084D01*
X137833D01*
X138047Y-92209D01*
X138180Y-92376D01*
X138233Y-92709D01*
X138180Y-93042D01*
X138020Y-93251D01*
X137833Y-93376D01*
X137167D01*
G01X137833D02*
X138233Y-94584D01*
G01X139393Y-92501D02*
X139553Y-92251D01*
X139740Y-92126D01*
X139953Y-92084D01*
X140220Y-92167D01*
X140407Y-92376D01*
X140460Y-92626D01*
X140433Y-92876D01*
X140327Y-93084D01*
X139793Y-93501D01*
X139553Y-93792D01*
X139393Y-94209D01*
X139340Y-94584D01*
X140460D01*
G01X141593Y-92501D02*
X141753Y-92251D01*
X141940Y-92126D01*
X142153Y-92084D01*
X142420Y-92167D01*
X142607Y-92376D01*
X142660Y-92626D01*
X142633Y-92876D01*
X142527Y-93084D01*
X141993Y-93501D01*
X141753Y-93792D01*
X141593Y-94209D01*
X141540Y-94584D01*
X142660D01*
G01X143793Y-92501D02*
X143953Y-92251D01*
X144140Y-92126D01*
X144353Y-92084D01*
X144620Y-92167D01*
X144807Y-92376D01*
X144860Y-92626D01*
X144833Y-92876D01*
X144727Y-93084D01*
X144193Y-93501D01*
X143953Y-93792D01*
X143793Y-94209D01*
X143740Y-94584D01*
X144860D01*
G01X134000Y-105333D02*
X131500D01*
Y-104667D01*
X131625Y-104453D01*
X131792Y-104320D01*
X132125Y-104267D01*
X132458Y-104320D01*
X132667Y-104480D01*
X132792Y-104667D01*
Y-105333D01*
G01Y-104667D02*
X134000Y-104267D01*
G01X131917Y-103107D02*
X131667Y-102947D01*
X131542Y-102760D01*
X131500Y-102547D01*
X131583Y-102280D01*
X131792Y-102093D01*
X132042Y-102040D01*
X132292Y-102067D01*
X132500Y-102173D01*
X132917Y-102707D01*
X133208Y-102947D01*
X133625Y-103107D01*
X134000Y-103160D01*
Y-102040D01*
G01Y-100400D02*
X131500D01*
X132000Y-100720D01*
G01X134000D02*
Y-100080D01*
G01X133625Y-98787D02*
X133833Y-98627D01*
X133958Y-98440D01*
X134000Y-98200D01*
X133917Y-97960D01*
X133750Y-97773D01*
X133458Y-97640D01*
X133125Y-97613D01*
X132792Y-97667D01*
X132583Y-97800D01*
X132417Y-97987D01*
X132375Y-98173D01*
X132417Y-98360D01*
X132583Y-98600D01*
X131500Y-98520D01*
Y-97800D01*
G01X138500Y-105083D02*
X136000D01*
Y-104417D01*
X136125Y-104203D01*
X136292Y-104070D01*
X136625Y-104017D01*
X136958Y-104070D01*
X137167Y-104230D01*
X137292Y-104417D01*
Y-105083D01*
G01Y-104417D02*
X138500Y-104017D01*
G01X136417Y-102857D02*
X136167Y-102697D01*
X136042Y-102510D01*
X136000Y-102297D01*
X136083Y-102030D01*
X136292Y-101843D01*
X136542Y-101790D01*
X136792Y-101817D01*
X137000Y-101923D01*
X137417Y-102457D01*
X137708Y-102697D01*
X138125Y-102857D01*
X138500Y-102910D01*
Y-101790D01*
G01X136417Y-100657D02*
X136167Y-100497D01*
X136042Y-100310D01*
X136000Y-100097D01*
X136083Y-99830D01*
X136292Y-99643D01*
X136542Y-99590D01*
X136792Y-99617D01*
X137000Y-99723D01*
X137417Y-100257D01*
X137708Y-100497D01*
X138125Y-100657D01*
X138500Y-100710D01*
Y-99590D01*
G01Y-97950D02*
X136000D01*
X136500Y-98270D01*
G01X138500D02*
Y-97630D01*
G01X127417Y-94584D02*
Y-92084D01*
X128083D01*
X128297Y-92209D01*
X128430Y-92376D01*
X128483Y-92709D01*
X128430Y-93042D01*
X128270Y-93251D01*
X128083Y-93376D01*
X127417D01*
G01X128083D02*
X128483Y-94584D01*
G01X129643Y-92501D02*
X129803Y-92251D01*
X129990Y-92126D01*
X130203Y-92084D01*
X130470Y-92167D01*
X130657Y-92376D01*
X130710Y-92626D01*
X130683Y-92876D01*
X130577Y-93084D01*
X130043Y-93501D01*
X129803Y-93792D01*
X129643Y-94209D01*
X129590Y-94584D01*
X130710D01*
G01X132350Y-92084D02*
X132137Y-92167D01*
X131977Y-92376D01*
X131870Y-92626D01*
X131790Y-92959D01*
X131763Y-93334D01*
X131790Y-93709D01*
X131870Y-94042D01*
X131977Y-94292D01*
X132137Y-94501D01*
X132350Y-94584D01*
X132563Y-94501D01*
X132723Y-94292D01*
X132830Y-94042D01*
X132910Y-93709D01*
X132937Y-93334D01*
X132910Y-92959D01*
X132830Y-92626D01*
X132723Y-92376D01*
X132563Y-92167D01*
X132350Y-92084D01*
G01X134043Y-93542D02*
X134230Y-93251D01*
X134390Y-93084D01*
X134603Y-93001D01*
X134790Y-93084D01*
X134923Y-93251D01*
X135030Y-93501D01*
X135057Y-93792D01*
X135030Y-94042D01*
X134923Y-94292D01*
X134763Y-94501D01*
X134577Y-94584D01*
X134363Y-94501D01*
X134177Y-94251D01*
X134070Y-93876D01*
X134043Y-93459D01*
X134097Y-92917D01*
X134177Y-92626D01*
X134310Y-92334D01*
X134497Y-92126D01*
X134683Y-92084D01*
X134870Y-92167D01*
X135003Y-92376D01*
G01X145208Y74287D02*
X145083Y74127D01*
X145000Y73940D01*
Y73727D01*
X145125Y73487D01*
X145333Y73300D01*
X145583Y73167D01*
X146000Y73060D01*
X146375Y73033D01*
X146750Y73087D01*
X147000Y73167D01*
X147250Y73327D01*
X147417Y73513D01*
X147500Y73700D01*
Y73887D01*
X147417Y74073D01*
X147292Y74233D01*
X147125Y74367D01*
G01X147000Y75313D02*
X147292Y75473D01*
X147458Y75687D01*
X147500Y75927D01*
X147458Y76140D01*
X147250Y76353D01*
X147000Y76487D01*
X146750Y76513D01*
X146458Y76460D01*
X146250Y76273D01*
X146167Y76087D01*
Y75847D01*
G01Y76087D02*
X146042Y76247D01*
X145833Y76380D01*
X145583Y76433D01*
X145333Y76380D01*
X145125Y76247D01*
X145000Y76007D01*
X145042Y75767D01*
X145208Y75527D01*
G01X145000Y78100D02*
X145083Y77887D01*
X145292Y77727D01*
X145542Y77620D01*
X145875Y77540D01*
X146250Y77513D01*
X146625Y77540D01*
X146958Y77620D01*
X147208Y77727D01*
X147417Y77887D01*
X147500Y78100D01*
X147417Y78313D01*
X147208Y78473D01*
X146958Y78580D01*
X146625Y78660D01*
X146250Y78687D01*
X145875Y78660D01*
X145542Y78580D01*
X145292Y78473D01*
X145083Y78313D01*
X145000Y78100D01*
G01X145417Y79793D02*
X145167Y79953D01*
X145042Y80140D01*
X145000Y80353D01*
X145083Y80620D01*
X145292Y80807D01*
X145542Y80860D01*
X145792Y80833D01*
X146000Y80727D01*
X146417Y80193D01*
X146708Y79953D01*
X147125Y79793D01*
X147500Y79740D01*
Y80860D01*
G01X146287Y71292D02*
X146127Y71417D01*
X145940Y71500D01*
X145727D01*
X145487Y71375D01*
X145300Y71167D01*
X145167Y70917D01*
X145060Y70500D01*
X145033Y70125D01*
X145087Y69750D01*
X145167Y69500D01*
X145327Y69250D01*
X145513Y69083D01*
X145700Y69000D01*
X145887D01*
X146073Y69083D01*
X146233Y69208D01*
X146367Y69375D01*
G01X147313Y69500D02*
X147473Y69208D01*
X147687Y69042D01*
X147927Y69000D01*
X148140Y69042D01*
X148353Y69250D01*
X148487Y69500D01*
X148513Y69750D01*
X148460Y70042D01*
X148273Y70250D01*
X148087Y70333D01*
X147847D01*
G01X148087D02*
X148247Y70458D01*
X148380Y70667D01*
X148433Y70917D01*
X148380Y71167D01*
X148247Y71375D01*
X148007Y71500D01*
X147767Y71458D01*
X147527Y71292D01*
G01X149593Y70042D02*
X149780Y70333D01*
X149940Y70500D01*
X150153Y70583D01*
X150340Y70500D01*
X150473Y70333D01*
X150580Y70083D01*
X150607Y69792D01*
X150580Y69542D01*
X150473Y69292D01*
X150313Y69083D01*
X150127Y69000D01*
X149913Y69083D01*
X149727Y69333D01*
X149620Y69708D01*
X149593Y70125D01*
X149647Y70667D01*
X149727Y70958D01*
X149860Y71250D01*
X150047Y71458D01*
X150233Y71500D01*
X150420Y71417D01*
X150553Y71208D01*
G01X151713Y69375D02*
X151873Y69167D01*
X152060Y69042D01*
X152300Y69000D01*
X152540Y69083D01*
X152727Y69250D01*
X152860Y69542D01*
X152887Y69875D01*
X152833Y70208D01*
X152700Y70417D01*
X152513Y70583D01*
X152327Y70625D01*
X152140Y70583D01*
X151900Y70417D01*
X151980Y71500D01*
X152700D01*
G01X130917Y69249D02*
Y66749D01*
X131983D01*
G01X133063Y67249D02*
X133223Y66957D01*
X133437Y66791D01*
X133677Y66749D01*
X133890Y66791D01*
X134103Y66999D01*
X134237Y67249D01*
X134263Y67499D01*
X134210Y67791D01*
X134023Y67999D01*
X133837Y68082D01*
X133597D01*
G01X133837D02*
X133997Y68207D01*
X134130Y68416D01*
X134183Y68666D01*
X134130Y68916D01*
X133997Y69124D01*
X133757Y69249D01*
X133517Y69207D01*
X133277Y69041D01*
G01X135850Y69249D02*
X135637Y69166D01*
X135477Y68957D01*
X135370Y68707D01*
X135290Y68374D01*
X135263Y67999D01*
X135290Y67624D01*
X135370Y67291D01*
X135477Y67041D01*
X135637Y66832D01*
X135850Y66749D01*
X136063Y66832D01*
X136223Y67041D01*
X136330Y67291D01*
X136410Y67624D01*
X136437Y67999D01*
X136410Y68374D01*
X136330Y68707D01*
X136223Y68957D01*
X136063Y69166D01*
X135850Y69249D01*
G01X138050Y66749D02*
Y69249D01*
X137730Y68749D01*
G01Y66749D02*
X138370D01*
G01X128708Y91287D02*
X128583Y91127D01*
X128500Y90940D01*
Y90727D01*
X128625Y90487D01*
X128833Y90300D01*
X129083Y90167D01*
X129500Y90060D01*
X129875Y90033D01*
X130250Y90087D01*
X130500Y90167D01*
X130750Y90327D01*
X130917Y90513D01*
X131000Y90700D01*
Y90887D01*
X130917Y91073D01*
X130792Y91233D01*
X130625Y91367D01*
G01X130500Y92313D02*
X130792Y92473D01*
X130958Y92687D01*
X131000Y92927D01*
X130958Y93140D01*
X130750Y93353D01*
X130500Y93487D01*
X130250Y93513D01*
X129958Y93460D01*
X129750Y93273D01*
X129667Y93087D01*
Y92847D01*
G01Y93087D02*
X129542Y93247D01*
X129333Y93380D01*
X129083Y93433D01*
X128833Y93380D01*
X128625Y93247D01*
X128500Y93007D01*
X128542Y92767D01*
X128708Y92527D01*
G01X128500Y95100D02*
X128583Y94887D01*
X128792Y94727D01*
X129042Y94620D01*
X129375Y94540D01*
X129750Y94513D01*
X130125Y94540D01*
X130458Y94620D01*
X130708Y94727D01*
X130917Y94887D01*
X131000Y95100D01*
X130917Y95313D01*
X130708Y95473D01*
X130458Y95580D01*
X130125Y95660D01*
X129750Y95687D01*
X129375Y95660D01*
X129042Y95580D01*
X128792Y95473D01*
X128583Y95313D01*
X128500Y95100D01*
G01X131000Y97247D02*
X130458Y97300D01*
X130000Y97380D01*
X129583Y97487D01*
X129125Y97620D01*
X128500Y97833D01*
Y96767D01*
G01X145458Y124787D02*
X145333Y124627D01*
X145250Y124440D01*
Y124227D01*
X145375Y123987D01*
X145583Y123800D01*
X145833Y123667D01*
X146250Y123560D01*
X146625Y123533D01*
X147000Y123587D01*
X147250Y123667D01*
X147500Y123827D01*
X147667Y124013D01*
X147750Y124200D01*
Y124387D01*
X147667Y124573D01*
X147542Y124733D01*
X147375Y124867D01*
G01X147250Y125813D02*
X147542Y125973D01*
X147708Y126187D01*
X147750Y126427D01*
X147708Y126640D01*
X147500Y126853D01*
X147250Y126987D01*
X147000Y127013D01*
X146708Y126960D01*
X146500Y126773D01*
X146417Y126587D01*
Y126347D01*
G01Y126587D02*
X146292Y126747D01*
X146083Y126880D01*
X145833Y126933D01*
X145583Y126880D01*
X145375Y126747D01*
X145250Y126507D01*
X145292Y126267D01*
X145458Y126027D01*
G01X147750Y128920D02*
X145250D01*
X147042Y127933D01*
Y129267D01*
G01X147750Y130747D02*
X147208Y130800D01*
X146750Y130880D01*
X146333Y130987D01*
X145875Y131120D01*
X145250Y131333D01*
Y130267D01*
G01X144113Y114000D02*
Y112208D01*
X144220Y111833D01*
X144433Y111583D01*
X144700Y111500D01*
X144967Y111583D01*
X145180Y111833D01*
X145287Y112208D01*
Y114000D01*
G01X146313Y112000D02*
X146473Y111708D01*
X146687Y111542D01*
X146927Y111500D01*
X147140Y111542D01*
X147353Y111750D01*
X147487Y112000D01*
X147513Y112250D01*
X147460Y112542D01*
X147273Y112750D01*
X147087Y112833D01*
X146847D01*
G01X147087D02*
X147247Y112958D01*
X147380Y113167D01*
X147433Y113417D01*
X147380Y113667D01*
X147247Y113875D01*
X147007Y114000D01*
X146767Y113958D01*
X146527Y113792D01*
G01X149100Y114000D02*
X148887Y113917D01*
X148727Y113708D01*
X148620Y113458D01*
X148540Y113125D01*
X148513Y112750D01*
X148540Y112375D01*
X148620Y112042D01*
X148727Y111792D01*
X148887Y111583D01*
X149100Y111500D01*
X149313Y111583D01*
X149473Y111792D01*
X149580Y112042D01*
X149660Y112375D01*
X149687Y112750D01*
X149660Y113125D01*
X149580Y113458D01*
X149473Y113708D01*
X149313Y113917D01*
X149100Y114000D01*
G01X151300Y111500D02*
Y114000D01*
X150980Y113500D01*
G01Y111500D02*
X151620D01*
G01X132287Y134624D02*
X132127Y134749D01*
X131940Y134832D01*
X131727D01*
X131487Y134707D01*
X131300Y134499D01*
X131167Y134249D01*
X131060Y133832D01*
X131033Y133457D01*
X131087Y133082D01*
X131167Y132832D01*
X131327Y132582D01*
X131513Y132415D01*
X131700Y132332D01*
X131887D01*
X132073Y132415D01*
X132233Y132540D01*
X132367Y132707D01*
G01X133313Y132832D02*
X133473Y132540D01*
X133687Y132374D01*
X133927Y132332D01*
X134140Y132374D01*
X134353Y132582D01*
X134487Y132832D01*
X134513Y133082D01*
X134460Y133374D01*
X134273Y133582D01*
X134087Y133665D01*
X133847D01*
G01X134087D02*
X134247Y133790D01*
X134380Y133999D01*
X134433Y134249D01*
X134380Y134499D01*
X134247Y134707D01*
X134007Y134832D01*
X133767Y134790D01*
X133527Y134624D01*
G01X136420Y132332D02*
Y134832D01*
X135433Y133040D01*
X136767D01*
G01X138300Y132332D02*
X138487Y132374D01*
X138700Y132499D01*
X138833Y132707D01*
X138887Y132999D01*
X138833Y133290D01*
X138673Y133540D01*
X138433Y133665D01*
X138167D01*
X138007Y133749D01*
X137873Y133957D01*
X137820Y134249D01*
X137900Y134540D01*
X138087Y134749D01*
X138300Y134832D01*
X138513Y134749D01*
X138700Y134540D01*
X138780Y134249D01*
X138727Y133957D01*
X138593Y133749D01*
X138433Y133665D01*
X138167D01*
X137927Y133540D01*
X137767Y133290D01*
X137713Y132999D01*
X137767Y132707D01*
X137900Y132499D01*
X138113Y132374D01*
X138300Y132332D01*
G01X142000Y128233D02*
Y127167D01*
X139500D01*
Y128233D01*
G01X140708Y127807D02*
Y127167D01*
G01X141500Y129313D02*
X141792Y129473D01*
X141958Y129687D01*
X142000Y129927D01*
X141958Y130140D01*
X141750Y130353D01*
X141500Y130487D01*
X141250Y130513D01*
X140958Y130460D01*
X140750Y130273D01*
X140667Y130087D01*
Y129847D01*
G01Y130087D02*
X140542Y130247D01*
X140333Y130380D01*
X140083Y130433D01*
X139833Y130380D01*
X139625Y130247D01*
X139500Y130007D01*
X139542Y129767D01*
X139708Y129527D01*
G01X142000Y132100D02*
X139500D01*
X140000Y131780D01*
G01X142000D02*
Y132420D01*
G01X139917Y133793D02*
X139667Y133953D01*
X139542Y134140D01*
X139500Y134353D01*
X139583Y134620D01*
X139792Y134807D01*
X140042Y134860D01*
X140292Y134833D01*
X140500Y134727D01*
X140917Y134193D01*
X141208Y133953D01*
X141625Y133793D01*
X142000Y133740D01*
Y134860D01*
G01X130000Y128233D02*
Y127167D01*
X127500D01*
Y128233D01*
G01X128708Y127807D02*
Y127167D01*
G01X129500Y129313D02*
X129792Y129473D01*
X129958Y129687D01*
X130000Y129927D01*
X129958Y130140D01*
X129750Y130353D01*
X129500Y130487D01*
X129250Y130513D01*
X128958Y130460D01*
X128750Y130273D01*
X128667Y130087D01*
Y129847D01*
G01Y130087D02*
X128542Y130247D01*
X128333Y130380D01*
X128083Y130433D01*
X127833Y130380D01*
X127625Y130247D01*
X127500Y130007D01*
X127542Y129767D01*
X127708Y129527D01*
G01X127500Y132100D02*
X127583Y131887D01*
X127792Y131727D01*
X128042Y131620D01*
X128375Y131540D01*
X128750Y131513D01*
X129125Y131540D01*
X129458Y131620D01*
X129708Y131727D01*
X129917Y131887D01*
X130000Y132100D01*
X129917Y132313D01*
X129708Y132473D01*
X129458Y132580D01*
X129125Y132660D01*
X128750Y132687D01*
X128375Y132660D01*
X128042Y132580D01*
X127792Y132473D01*
X127583Y132313D01*
X127500Y132100D01*
G01X129500Y133713D02*
X129792Y133873D01*
X129958Y134087D01*
X130000Y134327D01*
X129958Y134540D01*
X129750Y134753D01*
X129500Y134887D01*
X129250Y134913D01*
X128958Y134860D01*
X128750Y134673D01*
X128667Y134487D01*
Y134247D01*
G01Y134487D02*
X128542Y134647D01*
X128333Y134780D01*
X128083Y134833D01*
X127833Y134780D01*
X127625Y134647D01*
X127500Y134407D01*
X127542Y134167D01*
X127708Y133927D01*
G01X164542Y-85963D02*
X164417Y-86123D01*
X164334Y-86310D01*
Y-86523D01*
X164459Y-86763D01*
X164667Y-86950D01*
X164917Y-87083D01*
X165334Y-87190D01*
X165709Y-87217D01*
X166084Y-87163D01*
X166334Y-87083D01*
X166584Y-86923D01*
X166751Y-86737D01*
X166834Y-86550D01*
Y-86363D01*
X166751Y-86177D01*
X166626Y-86017D01*
X166459Y-85883D01*
G01X164751Y-84857D02*
X164501Y-84697D01*
X164376Y-84510D01*
X164334Y-84297D01*
X164417Y-84030D01*
X164626Y-83843D01*
X164876Y-83790D01*
X165126Y-83817D01*
X165334Y-83923D01*
X165751Y-84457D01*
X166042Y-84697D01*
X166459Y-84857D01*
X166834Y-84910D01*
Y-83790D01*
G01X164334Y-82150D02*
X164417Y-82363D01*
X164626Y-82523D01*
X164876Y-82630D01*
X165209Y-82710D01*
X165584Y-82737D01*
X165959Y-82710D01*
X166292Y-82630D01*
X166542Y-82523D01*
X166751Y-82363D01*
X166834Y-82150D01*
X166751Y-81937D01*
X166542Y-81777D01*
X166292Y-81670D01*
X165959Y-81590D01*
X165584Y-81563D01*
X165209Y-81590D01*
X164876Y-81670D01*
X164626Y-81777D01*
X164417Y-81937D01*
X164334Y-82150D01*
G01X166459Y-80537D02*
X166667Y-80377D01*
X166792Y-80190D01*
X166834Y-79950D01*
X166751Y-79710D01*
X166584Y-79523D01*
X166292Y-79390D01*
X165959Y-79363D01*
X165626Y-79417D01*
X165417Y-79550D01*
X165251Y-79737D01*
X165209Y-79923D01*
X165251Y-80110D01*
X165417Y-80350D01*
X164334Y-80270D01*
Y-79550D01*
G01X149537Y-72458D02*
X149377Y-72333D01*
X149190Y-72250D01*
X148977D01*
X148737Y-72375D01*
X148550Y-72583D01*
X148417Y-72833D01*
X148310Y-73250D01*
X148283Y-73625D01*
X148337Y-74000D01*
X148417Y-74250D01*
X148577Y-74500D01*
X148763Y-74667D01*
X148950Y-74750D01*
X149137D01*
X149323Y-74667D01*
X149483Y-74542D01*
X149617Y-74375D01*
G01X150643Y-72667D02*
X150803Y-72417D01*
X150990Y-72292D01*
X151203Y-72250D01*
X151470Y-72333D01*
X151657Y-72542D01*
X151710Y-72792D01*
X151683Y-73042D01*
X151577Y-73250D01*
X151043Y-73667D01*
X150803Y-73958D01*
X150643Y-74375D01*
X150590Y-74750D01*
X151710D01*
G01X153350D02*
Y-72250D01*
X153030Y-72750D01*
G01Y-74750D02*
X153670D01*
G01X155043Y-72667D02*
X155203Y-72417D01*
X155390Y-72292D01*
X155603Y-72250D01*
X155870Y-72333D01*
X156057Y-72542D01*
X156110Y-72792D01*
X156083Y-73042D01*
X155977Y-73250D01*
X155443Y-73667D01*
X155203Y-73958D01*
X155043Y-74375D01*
X154990Y-74750D01*
X156110D01*
G01X155287Y-65458D02*
X155127Y-65333D01*
X154940Y-65250D01*
X154727D01*
X154487Y-65375D01*
X154300Y-65583D01*
X154167Y-65833D01*
X154060Y-66250D01*
X154033Y-66625D01*
X154087Y-67000D01*
X154167Y-67250D01*
X154327Y-67500D01*
X154513Y-67667D01*
X154700Y-67750D01*
X154887D01*
X155073Y-67667D01*
X155233Y-67542D01*
X155367Y-67375D01*
G01X156393Y-65667D02*
X156553Y-65417D01*
X156740Y-65292D01*
X156953Y-65250D01*
X157220Y-65333D01*
X157407Y-65542D01*
X157460Y-65792D01*
X157433Y-66042D01*
X157327Y-66250D01*
X156793Y-66667D01*
X156553Y-66958D01*
X156393Y-67375D01*
X156340Y-67750D01*
X157460D01*
G01X159100D02*
Y-65250D01*
X158780Y-65750D01*
G01Y-67750D02*
X159420D01*
G01X160713Y-67250D02*
X160873Y-67542D01*
X161087Y-67708D01*
X161327Y-67750D01*
X161540Y-67708D01*
X161753Y-67500D01*
X161887Y-67250D01*
X161913Y-67000D01*
X161860Y-66708D01*
X161673Y-66500D01*
X161487Y-66417D01*
X161247D01*
G01X161487D02*
X161647Y-66292D01*
X161780Y-66083D01*
X161833Y-65833D01*
X161780Y-65583D01*
X161647Y-65375D01*
X161407Y-65250D01*
X161167Y-65292D01*
X160927Y-65458D01*
G01X152787Y-79708D02*
X152627Y-79583D01*
X152440Y-79500D01*
X152227D01*
X151987Y-79625D01*
X151800Y-79833D01*
X151667Y-80083D01*
X151560Y-80500D01*
X151533Y-80875D01*
X151587Y-81250D01*
X151667Y-81500D01*
X151827Y-81750D01*
X152013Y-81917D01*
X152200Y-82000D01*
X152387D01*
X152573Y-81917D01*
X152733Y-81792D01*
X152867Y-81625D01*
G01X153893Y-79917D02*
X154053Y-79667D01*
X154240Y-79542D01*
X154453Y-79500D01*
X154720Y-79583D01*
X154907Y-79792D01*
X154960Y-80042D01*
X154933Y-80292D01*
X154827Y-80500D01*
X154293Y-80917D01*
X154053Y-81208D01*
X153893Y-81625D01*
X153840Y-82000D01*
X154960D01*
G01X156600D02*
Y-79500D01*
X156280Y-80000D01*
G01Y-82000D02*
X156920D01*
G01X159120D02*
Y-79500D01*
X158133Y-81292D01*
X159467D01*
G01X150787Y-59958D02*
X150627Y-59833D01*
X150440Y-59750D01*
X150227D01*
X149987Y-59875D01*
X149800Y-60083D01*
X149667Y-60333D01*
X149560Y-60750D01*
X149533Y-61125D01*
X149587Y-61500D01*
X149667Y-61750D01*
X149827Y-62000D01*
X150013Y-62167D01*
X150200Y-62250D01*
X150387D01*
X150573Y-62167D01*
X150733Y-62042D01*
X150867Y-61875D01*
G01X151893Y-60167D02*
X152053Y-59917D01*
X152240Y-59792D01*
X152453Y-59750D01*
X152720Y-59833D01*
X152907Y-60042D01*
X152960Y-60292D01*
X152933Y-60542D01*
X152827Y-60750D01*
X152293Y-61167D01*
X152053Y-61458D01*
X151893Y-61875D01*
X151840Y-62250D01*
X152960D01*
G01X154600D02*
Y-59750D01*
X154280Y-60250D01*
G01Y-62250D02*
X154920D01*
G01X156800D02*
Y-59750D01*
X156480Y-60250D01*
G01Y-62250D02*
X157120D01*
G01X170000Y22583D02*
X166900D01*
Y23542D01*
X167055Y23848D01*
X167262Y24040D01*
X167675Y24117D01*
X168088Y24040D01*
X168347Y23810D01*
X168502Y23542D01*
Y22583D01*
G01Y23542D02*
X170000Y24117D01*
G01X167417Y25722D02*
X167107Y25952D01*
X166952Y26220D01*
X166900Y26527D01*
X167003Y26910D01*
X167262Y27178D01*
X167572Y27255D01*
X167882Y27217D01*
X168140Y27063D01*
X168657Y26297D01*
X169018Y25952D01*
X169535Y25722D01*
X170000Y25645D01*
Y27255D01*
G01X166900Y29550D02*
X167003Y29243D01*
X167262Y29013D01*
X167572Y28860D01*
X167985Y28745D01*
X168450Y28707D01*
X168915Y28745D01*
X169328Y28860D01*
X169638Y29013D01*
X169897Y29243D01*
X170000Y29550D01*
X169897Y29857D01*
X169638Y30087D01*
X169328Y30240D01*
X168915Y30355D01*
X168450Y30393D01*
X167985Y30355D01*
X167572Y30240D01*
X167262Y30087D01*
X167003Y29857D01*
X166900Y29550D01*
G01X169380Y31807D02*
X169742Y32037D01*
X169948Y32343D01*
X170000Y32688D01*
X169948Y32995D01*
X169690Y33302D01*
X169380Y33493D01*
X169070Y33532D01*
X168708Y33455D01*
X168450Y33187D01*
X168347Y32918D01*
Y32573D01*
G01Y32918D02*
X168192Y33148D01*
X167933Y33340D01*
X167623Y33417D01*
X167313Y33340D01*
X167055Y33148D01*
X166900Y32803D01*
X166952Y32458D01*
X167158Y32113D01*
G01X163000Y22583D02*
X159900D01*
Y23542D01*
X160055Y23848D01*
X160262Y24040D01*
X160675Y24117D01*
X161088Y24040D01*
X161347Y23810D01*
X161502Y23542D01*
Y22583D01*
G01Y23542D02*
X163000Y24117D01*
G01X160417Y25722D02*
X160107Y25952D01*
X159952Y26220D01*
X159900Y26527D01*
X160003Y26910D01*
X160262Y27178D01*
X160572Y27255D01*
X160882Y27217D01*
X161140Y27063D01*
X161657Y26297D01*
X162018Y25952D01*
X162535Y25722D01*
X163000Y25645D01*
Y27255D01*
G01X159900Y29550D02*
X160003Y29243D01*
X160262Y29013D01*
X160572Y28860D01*
X160985Y28745D01*
X161450Y28707D01*
X161915Y28745D01*
X162328Y28860D01*
X162638Y29013D01*
X162897Y29243D01*
X163000Y29550D01*
X162897Y29857D01*
X162638Y30087D01*
X162328Y30240D01*
X161915Y30355D01*
X161450Y30393D01*
X160985Y30355D01*
X160572Y30240D01*
X160262Y30087D01*
X160003Y29857D01*
X159900Y29550D01*
G01X163000Y32650D02*
X159900D01*
X160520Y32190D01*
G01X163000D02*
Y33110D01*
G01X150667Y58500D02*
Y61000D01*
X151333D01*
X151547Y60875D01*
X151680Y60708D01*
X151733Y60375D01*
X151680Y60042D01*
X151520Y59833D01*
X151333Y59708D01*
X150667D01*
G01X151333D02*
X151733Y58500D01*
G01X152893Y60583D02*
X153053Y60833D01*
X153240Y60958D01*
X153453Y61000D01*
X153720Y60917D01*
X153907Y60708D01*
X153960Y60458D01*
X153933Y60208D01*
X153827Y60000D01*
X153293Y59583D01*
X153053Y59292D01*
X152893Y58875D01*
X152840Y58500D01*
X153960D01*
G01X155600Y61000D02*
X155387Y60917D01*
X155227Y60708D01*
X155120Y60458D01*
X155040Y60125D01*
X155013Y59750D01*
X155040Y59375D01*
X155120Y59042D01*
X155227Y58792D01*
X155387Y58583D01*
X155600Y58500D01*
X155813Y58583D01*
X155973Y58792D01*
X156080Y59042D01*
X156160Y59375D01*
X156187Y59750D01*
X156160Y60125D01*
X156080Y60458D01*
X155973Y60708D01*
X155813Y60917D01*
X155600Y61000D01*
G01X157293Y60583D02*
X157453Y60833D01*
X157640Y60958D01*
X157853Y61000D01*
X158120Y60917D01*
X158307Y60708D01*
X158360Y60458D01*
X158333Y60208D01*
X158227Y60000D01*
X157693Y59583D01*
X157453Y59292D01*
X157293Y58875D01*
X157240Y58500D01*
X158360D01*
G01X155537Y65292D02*
X155377Y65417D01*
X155190Y65500D01*
X154977D01*
X154737Y65375D01*
X154550Y65167D01*
X154417Y64917D01*
X154310Y64500D01*
X154283Y64125D01*
X154337Y63750D01*
X154417Y63500D01*
X154577Y63250D01*
X154763Y63083D01*
X154950Y63000D01*
X155137D01*
X155323Y63083D01*
X155483Y63208D01*
X155617Y63375D01*
G01X156563Y63500D02*
X156723Y63208D01*
X156937Y63042D01*
X157177Y63000D01*
X157390Y63042D01*
X157603Y63250D01*
X157737Y63500D01*
X157763Y63750D01*
X157710Y64042D01*
X157523Y64250D01*
X157337Y64333D01*
X157097D01*
G01X157337D02*
X157497Y64458D01*
X157630Y64667D01*
X157683Y64917D01*
X157630Y65167D01*
X157497Y65375D01*
X157257Y65500D01*
X157017Y65458D01*
X156777Y65292D01*
G01X158843Y64042D02*
X159030Y64333D01*
X159190Y64500D01*
X159403Y64583D01*
X159590Y64500D01*
X159723Y64333D01*
X159830Y64083D01*
X159857Y63792D01*
X159830Y63542D01*
X159723Y63292D01*
X159563Y63083D01*
X159377Y63000D01*
X159163Y63083D01*
X158977Y63333D01*
X158870Y63708D01*
X158843Y64125D01*
X158897Y64667D01*
X158977Y64958D01*
X159110Y65250D01*
X159297Y65458D01*
X159483Y65500D01*
X159670Y65417D01*
X159803Y65208D01*
G01X161870Y63000D02*
Y65500D01*
X160883Y63708D01*
X162217D01*
G01X160458Y103787D02*
X160333Y103627D01*
X160250Y103440D01*
Y103227D01*
X160375Y102987D01*
X160583Y102800D01*
X160833Y102667D01*
X161250Y102560D01*
X161625Y102533D01*
X162000Y102587D01*
X162250Y102667D01*
X162500Y102827D01*
X162667Y103013D01*
X162750Y103200D01*
Y103387D01*
X162667Y103573D01*
X162542Y103733D01*
X162375Y103867D01*
G01X162250Y104813D02*
X162542Y104973D01*
X162708Y105187D01*
X162750Y105427D01*
X162708Y105640D01*
X162500Y105853D01*
X162250Y105987D01*
X162000Y106013D01*
X161708Y105960D01*
X161500Y105773D01*
X161417Y105587D01*
Y105347D01*
G01Y105587D02*
X161292Y105747D01*
X161083Y105880D01*
X160833Y105933D01*
X160583Y105880D01*
X160375Y105747D01*
X160250Y105507D01*
X160292Y105267D01*
X160458Y105027D01*
G01X160250Y107600D02*
X160333Y107387D01*
X160542Y107227D01*
X160792Y107120D01*
X161125Y107040D01*
X161500Y107013D01*
X161875Y107040D01*
X162208Y107120D01*
X162458Y107227D01*
X162667Y107387D01*
X162750Y107600D01*
X162667Y107813D01*
X162458Y107973D01*
X162208Y108080D01*
X161875Y108160D01*
X161500Y108187D01*
X161125Y108160D01*
X160792Y108080D01*
X160542Y107973D01*
X160333Y107813D01*
X160250Y107600D01*
G01X162750Y110120D02*
X160250D01*
X162042Y109133D01*
Y110467D01*
G01X154708Y86287D02*
X154583Y86127D01*
X154500Y85940D01*
Y85727D01*
X154625Y85487D01*
X154833Y85300D01*
X155083Y85167D01*
X155500Y85060D01*
X155875Y85033D01*
X156250Y85087D01*
X156500Y85167D01*
X156750Y85327D01*
X156917Y85513D01*
X157000Y85700D01*
Y85887D01*
X156917Y86073D01*
X156792Y86233D01*
X156625Y86367D01*
G01X156500Y87313D02*
X156792Y87473D01*
X156958Y87687D01*
X157000Y87927D01*
X156958Y88140D01*
X156750Y88353D01*
X156500Y88487D01*
X156250Y88513D01*
X155958Y88460D01*
X155750Y88273D01*
X155667Y88087D01*
Y87847D01*
G01Y88087D02*
X155542Y88247D01*
X155333Y88380D01*
X155083Y88433D01*
X154833Y88380D01*
X154625Y88247D01*
X154500Y88007D01*
X154542Y87767D01*
X154708Y87527D01*
G01X154500Y90100D02*
X154583Y89887D01*
X154792Y89727D01*
X155042Y89620D01*
X155375Y89540D01*
X155750Y89513D01*
X156125Y89540D01*
X156458Y89620D01*
X156708Y89727D01*
X156917Y89887D01*
X157000Y90100D01*
X156917Y90313D01*
X156708Y90473D01*
X156458Y90580D01*
X156125Y90660D01*
X155750Y90687D01*
X155375Y90660D01*
X155042Y90580D01*
X154792Y90473D01*
X154583Y90313D01*
X154500Y90100D01*
G01X156500Y91713D02*
X156792Y91873D01*
X156958Y92087D01*
X157000Y92327D01*
X156958Y92540D01*
X156750Y92753D01*
X156500Y92887D01*
X156250Y92913D01*
X155958Y92860D01*
X155750Y92673D01*
X155667Y92487D01*
Y92247D01*
G01Y92487D02*
X155542Y92647D01*
X155333Y92780D01*
X155083Y92833D01*
X154833Y92780D01*
X154625Y92647D01*
X154500Y92407D01*
X154542Y92167D01*
X154708Y91927D01*
G01X151708Y90537D02*
X151583Y90377D01*
X151500Y90190D01*
Y89977D01*
X151625Y89737D01*
X151833Y89550D01*
X152083Y89417D01*
X152500Y89310D01*
X152875Y89283D01*
X153250Y89337D01*
X153500Y89417D01*
X153750Y89577D01*
X153917Y89763D01*
X154000Y89950D01*
Y90137D01*
X153917Y90323D01*
X153792Y90483D01*
X153625Y90617D01*
G01X153500Y91563D02*
X153792Y91723D01*
X153958Y91937D01*
X154000Y92177D01*
X153958Y92390D01*
X153750Y92603D01*
X153500Y92737D01*
X153250Y92763D01*
X152958Y92710D01*
X152750Y92523D01*
X152667Y92337D01*
Y92097D01*
G01Y92337D02*
X152542Y92497D01*
X152333Y92630D01*
X152083Y92683D01*
X151833Y92630D01*
X151625Y92497D01*
X151500Y92257D01*
X151542Y92017D01*
X151708Y91777D01*
G01X151500Y94350D02*
X151583Y94137D01*
X151792Y93977D01*
X152042Y93870D01*
X152375Y93790D01*
X152750Y93763D01*
X153125Y93790D01*
X153458Y93870D01*
X153708Y93977D01*
X153917Y94137D01*
X154000Y94350D01*
X153917Y94563D01*
X153708Y94723D01*
X153458Y94830D01*
X153125Y94910D01*
X152750Y94937D01*
X152375Y94910D01*
X152042Y94830D01*
X151792Y94723D01*
X151583Y94563D01*
X151500Y94350D01*
G01X154000Y96550D02*
X151500D01*
X152000Y96230D01*
G01X154000D02*
Y96870D01*
G01X159000Y101167D02*
X156500D01*
Y101833D01*
X156625Y102047D01*
X156792Y102180D01*
X157125Y102233D01*
X157458Y102180D01*
X157667Y102020D01*
X157792Y101833D01*
Y101167D01*
G01Y101833D02*
X159000Y102233D01*
G01X158500Y103313D02*
X158792Y103473D01*
X158958Y103687D01*
X159000Y103927D01*
X158958Y104140D01*
X158750Y104353D01*
X158500Y104487D01*
X158250Y104513D01*
X157958Y104460D01*
X157750Y104273D01*
X157667Y104087D01*
Y103847D01*
G01Y104087D02*
X157542Y104247D01*
X157333Y104380D01*
X157083Y104433D01*
X156833Y104380D01*
X156625Y104247D01*
X156500Y104007D01*
X156542Y103767D01*
X156708Y103527D01*
G01X156500Y106100D02*
X156583Y105887D01*
X156792Y105727D01*
X157042Y105620D01*
X157375Y105540D01*
X157750Y105513D01*
X158125Y105540D01*
X158458Y105620D01*
X158708Y105727D01*
X158917Y105887D01*
X159000Y106100D01*
X158917Y106313D01*
X158708Y106473D01*
X158458Y106580D01*
X158125Y106660D01*
X157750Y106687D01*
X157375Y106660D01*
X157042Y106580D01*
X156792Y106473D01*
X156583Y106313D01*
X156500Y106100D01*
G01X159000Y108300D02*
X156500D01*
X157000Y107980D01*
G01X159000D02*
Y108620D01*
G01X153708Y123287D02*
X153583Y123127D01*
X153500Y122940D01*
Y122727D01*
X153625Y122487D01*
X153833Y122300D01*
X154083Y122167D01*
X154500Y122060D01*
X154875Y122033D01*
X155250Y122087D01*
X155500Y122167D01*
X155750Y122327D01*
X155917Y122513D01*
X156000Y122700D01*
Y122887D01*
X155917Y123073D01*
X155792Y123233D01*
X155625Y123367D01*
G01X155500Y124313D02*
X155792Y124473D01*
X155958Y124687D01*
X156000Y124927D01*
X155958Y125140D01*
X155750Y125353D01*
X155500Y125487D01*
X155250Y125513D01*
X154958Y125460D01*
X154750Y125273D01*
X154667Y125087D01*
Y124847D01*
G01Y125087D02*
X154542Y125247D01*
X154333Y125380D01*
X154083Y125433D01*
X153833Y125380D01*
X153625Y125247D01*
X153500Y125007D01*
X153542Y124767D01*
X153708Y124527D01*
G01X154958Y126593D02*
X154667Y126780D01*
X154500Y126940D01*
X154417Y127153D01*
X154500Y127340D01*
X154667Y127473D01*
X154917Y127580D01*
X155208Y127607D01*
X155458Y127580D01*
X155708Y127473D01*
X155917Y127313D01*
X156000Y127127D01*
X155917Y126913D01*
X155667Y126727D01*
X155292Y126620D01*
X154875Y126593D01*
X154333Y126647D01*
X154042Y126727D01*
X153750Y126860D01*
X153542Y127047D01*
X153500Y127233D01*
X153583Y127420D01*
X153792Y127553D01*
G01X153917Y128793D02*
X153667Y128953D01*
X153542Y129140D01*
X153500Y129353D01*
X153583Y129620D01*
X153792Y129807D01*
X154042Y129860D01*
X154292Y129833D01*
X154500Y129727D01*
X154917Y129193D01*
X155208Y128953D01*
X155625Y128793D01*
X156000Y128740D01*
Y129860D01*
G01X163150Y114757D02*
X165372D01*
X165837Y114910D01*
X166147Y115217D01*
X166250Y115600D01*
X166147Y115983D01*
X165837Y116290D01*
X165372Y116443D01*
X163150D01*
G01X163667Y117972D02*
X163357Y118202D01*
X163202Y118470D01*
X163150Y118777D01*
X163253Y119160D01*
X163512Y119428D01*
X163822Y119505D01*
X164132Y119467D01*
X164390Y119313D01*
X164907Y118547D01*
X165268Y118202D01*
X165785Y117972D01*
X166250Y117895D01*
Y119505D01*
G01X163150Y121800D02*
X163253Y121493D01*
X163512Y121263D01*
X163822Y121110D01*
X164235Y120995D01*
X164700Y120957D01*
X165165Y120995D01*
X165578Y121110D01*
X165888Y121263D01*
X166147Y121493D01*
X166250Y121800D01*
X166147Y122107D01*
X165888Y122337D01*
X165578Y122490D01*
X165165Y122605D01*
X164700Y122643D01*
X164235Y122605D01*
X163822Y122490D01*
X163512Y122337D01*
X163253Y122107D01*
X163150Y121800D01*
G01X166250Y124900D02*
X163150D01*
X163770Y124440D01*
G01X166250D02*
Y125360D01*
G01X158000Y110167D02*
X155500D01*
Y110833D01*
X155625Y111047D01*
X155792Y111180D01*
X156125Y111233D01*
X156458Y111180D01*
X156667Y111020D01*
X156792Y110833D01*
Y110167D01*
G01Y110833D02*
X158000Y111233D01*
G01X157500Y112313D02*
X157792Y112473D01*
X157958Y112687D01*
X158000Y112927D01*
X157958Y113140D01*
X157750Y113353D01*
X157500Y113487D01*
X157250Y113513D01*
X156958Y113460D01*
X156750Y113273D01*
X156667Y113087D01*
Y112847D01*
G01Y113087D02*
X156542Y113247D01*
X156333Y113380D01*
X156083Y113433D01*
X155833Y113380D01*
X155625Y113247D01*
X155500Y113007D01*
X155542Y112767D01*
X155708Y112527D01*
G01X155500Y115100D02*
X155583Y114887D01*
X155792Y114727D01*
X156042Y114620D01*
X156375Y114540D01*
X156750Y114513D01*
X157125Y114540D01*
X157458Y114620D01*
X157708Y114727D01*
X157917Y114887D01*
X158000Y115100D01*
X157917Y115313D01*
X157708Y115473D01*
X157458Y115580D01*
X157125Y115660D01*
X156750Y115687D01*
X156375Y115660D01*
X156042Y115580D01*
X155792Y115473D01*
X155583Y115313D01*
X155500Y115100D01*
G01X158000Y117620D02*
X155500D01*
X157292Y116633D01*
Y117967D01*
G01X162537Y129792D02*
X162377Y129917D01*
X162190Y130000D01*
X161977D01*
X161737Y129875D01*
X161550Y129667D01*
X161417Y129417D01*
X161310Y129000D01*
X161283Y128625D01*
X161337Y128250D01*
X161417Y128000D01*
X161577Y127750D01*
X161763Y127583D01*
X161950Y127500D01*
X162137D01*
X162323Y127583D01*
X162483Y127708D01*
X162617Y127875D01*
G01X163643Y129583D02*
X163803Y129833D01*
X163990Y129958D01*
X164203Y130000D01*
X164470Y129917D01*
X164657Y129708D01*
X164710Y129458D01*
X164683Y129208D01*
X164577Y129000D01*
X164043Y128583D01*
X163803Y128292D01*
X163643Y127875D01*
X163590Y127500D01*
X164710D01*
G01X166350Y130000D02*
X166137Y129917D01*
X165977Y129708D01*
X165870Y129458D01*
X165790Y129125D01*
X165763Y128750D01*
X165790Y128375D01*
X165870Y128042D01*
X165977Y127792D01*
X166137Y127583D01*
X166350Y127500D01*
X166563Y127583D01*
X166723Y127792D01*
X166830Y128042D01*
X166910Y128375D01*
X166937Y128750D01*
X166910Y129125D01*
X166830Y129458D01*
X166723Y129708D01*
X166563Y129917D01*
X166350Y130000D01*
G01X168550Y127500D02*
Y130000D01*
X168230Y129500D01*
G01Y127500D02*
X168870D01*
G01X177550Y38000D02*
Y34900D01*
X178010Y35520D01*
G01Y38000D02*
X177090D01*
G01X175102Y37638D02*
X174833Y37897D01*
X174527Y38000D01*
X174220Y37897D01*
X173952Y37587D01*
X173760Y37122D01*
X173683Y36657D01*
Y36088D01*
X173760Y35623D01*
X173952Y35210D01*
X174182Y35003D01*
X174450Y34900D01*
X174757Y35003D01*
X174987Y35210D01*
X175140Y35520D01*
X175217Y35933D01*
X175140Y36295D01*
X174948Y36657D01*
X174718Y36863D01*
X174450Y36915D01*
X174143Y36812D01*
X173913Y36553D01*
X173683Y36088D01*
G01X169167Y61250D02*
Y63750D01*
X169833D01*
X170047Y63625D01*
X170180Y63458D01*
X170233Y63125D01*
X170180Y62792D01*
X170020Y62583D01*
X169833Y62458D01*
X169167D01*
G01X169833D02*
X170233Y61250D01*
G01X171393Y63333D02*
X171553Y63583D01*
X171740Y63708D01*
X171953Y63750D01*
X172220Y63667D01*
X172407Y63458D01*
X172460Y63208D01*
X172433Y62958D01*
X172327Y62750D01*
X171793Y62333D01*
X171553Y62042D01*
X171393Y61625D01*
X171340Y61250D01*
X172460D01*
G01X174100Y63750D02*
X173887Y63667D01*
X173727Y63458D01*
X173620Y63208D01*
X173540Y62875D01*
X173513Y62500D01*
X173540Y62125D01*
X173620Y61792D01*
X173727Y61542D01*
X173887Y61333D01*
X174100Y61250D01*
X174313Y61333D01*
X174473Y61542D01*
X174580Y61792D01*
X174660Y62125D01*
X174687Y62500D01*
X174660Y62875D01*
X174580Y63208D01*
X174473Y63458D01*
X174313Y63667D01*
X174100Y63750D01*
G01X176620Y61250D02*
Y63750D01*
X175633Y61958D01*
X176967D01*
G01X173472Y59333D02*
X173702Y59643D01*
X173970Y59798D01*
X174277Y59850D01*
X174660Y59747D01*
X174928Y59488D01*
X175005Y59178D01*
X174967Y58868D01*
X174813Y58610D01*
X174047Y58093D01*
X173702Y57732D01*
X173472Y57215D01*
X173395Y56750D01*
X175005D01*
G01X177300Y59850D02*
X176993Y59747D01*
X176763Y59488D01*
X176610Y59178D01*
X176495Y58765D01*
X176457Y58300D01*
X176495Y57835D01*
X176610Y57422D01*
X176763Y57112D01*
X176993Y56853D01*
X177300Y56750D01*
X177607Y56853D01*
X177837Y57112D01*
X177990Y57422D01*
X178105Y57835D01*
X178143Y58300D01*
X178105Y58765D01*
X177990Y59178D01*
X177837Y59488D01*
X177607Y59747D01*
X177300Y59850D01*
G01X177458Y76787D02*
X177333Y76627D01*
X177250Y76440D01*
Y76227D01*
X177375Y75987D01*
X177583Y75800D01*
X177833Y75667D01*
X178250Y75560D01*
X178625Y75533D01*
X179000Y75587D01*
X179250Y75667D01*
X179500Y75827D01*
X179667Y76013D01*
X179750Y76200D01*
Y76387D01*
X179667Y76573D01*
X179542Y76733D01*
X179375Y76867D01*
G01X179250Y77813D02*
X179542Y77973D01*
X179708Y78187D01*
X179750Y78427D01*
X179708Y78640D01*
X179500Y78853D01*
X179250Y78987D01*
X179000Y79013D01*
X178708Y78960D01*
X178500Y78773D01*
X178417Y78587D01*
Y78347D01*
G01Y78587D02*
X178292Y78747D01*
X178083Y78880D01*
X177833Y78933D01*
X177583Y78880D01*
X177375Y78747D01*
X177250Y78507D01*
X177292Y78267D01*
X177458Y78027D01*
G01X179750Y80600D02*
X177250D01*
X177750Y80280D01*
G01X179750D02*
Y80920D01*
G01X179458Y82347D02*
X179667Y82533D01*
X179750Y82747D01*
X179667Y82960D01*
X179417Y83147D01*
X179042Y83280D01*
X178667Y83333D01*
X178208D01*
X177833Y83280D01*
X177500Y83147D01*
X177333Y82987D01*
X177250Y82800D01*
X177333Y82587D01*
X177500Y82427D01*
X177750Y82320D01*
X178083Y82267D01*
X178375Y82320D01*
X178667Y82453D01*
X178833Y82613D01*
X178875Y82800D01*
X178792Y83013D01*
X178583Y83173D01*
X178208Y83333D01*
G01X176250Y73483D02*
Y72417D01*
X173750D01*
Y73483D01*
G01X174958Y73057D02*
Y72417D01*
G01X175750Y74563D02*
X176042Y74723D01*
X176208Y74937D01*
X176250Y75177D01*
X176208Y75390D01*
X176000Y75603D01*
X175750Y75737D01*
X175500Y75763D01*
X175208Y75710D01*
X175000Y75523D01*
X174917Y75337D01*
Y75097D01*
G01Y75337D02*
X174792Y75497D01*
X174583Y75630D01*
X174333Y75683D01*
X174083Y75630D01*
X173875Y75497D01*
X173750Y75257D01*
X173792Y75017D01*
X173958Y74777D01*
G01X173750Y77350D02*
X173833Y77137D01*
X174042Y76977D01*
X174292Y76870D01*
X174625Y76790D01*
X175000Y76763D01*
X175375Y76790D01*
X175708Y76870D01*
X175958Y76977D01*
X176167Y77137D01*
X176250Y77350D01*
X176167Y77563D01*
X175958Y77723D01*
X175708Y77830D01*
X175375Y77910D01*
X175000Y77937D01*
X174625Y77910D01*
X174292Y77830D01*
X174042Y77723D01*
X173833Y77563D01*
X173750Y77350D01*
G01X174167Y79043D02*
X173917Y79203D01*
X173792Y79390D01*
X173750Y79603D01*
X173833Y79870D01*
X174042Y80057D01*
X174292Y80110D01*
X174542Y80083D01*
X174750Y79977D01*
X175167Y79443D01*
X175458Y79203D01*
X175875Y79043D01*
X176250Y78990D01*
Y80110D01*
G01X170500Y68167D02*
X173000D01*
Y69233D01*
G01X172500Y70313D02*
X172792Y70473D01*
X172958Y70687D01*
X173000Y70927D01*
X172958Y71140D01*
X172750Y71353D01*
X172500Y71487D01*
X172250Y71513D01*
X171958Y71460D01*
X171750Y71273D01*
X171667Y71087D01*
Y70847D01*
G01Y71087D02*
X171542Y71247D01*
X171333Y71380D01*
X171083Y71433D01*
X170833Y71380D01*
X170625Y71247D01*
X170500Y71007D01*
X170542Y70767D01*
X170708Y70527D01*
G01X170500Y73100D02*
X170583Y72887D01*
X170792Y72727D01*
X171042Y72620D01*
X171375Y72540D01*
X171750Y72513D01*
X172125Y72540D01*
X172458Y72620D01*
X172708Y72727D01*
X172917Y72887D01*
X173000Y73100D01*
X172917Y73313D01*
X172708Y73473D01*
X172458Y73580D01*
X172125Y73660D01*
X171750Y73687D01*
X171375Y73660D01*
X171042Y73580D01*
X170792Y73473D01*
X170583Y73313D01*
X170500Y73100D01*
G01X170917Y74793D02*
X170667Y74953D01*
X170542Y75140D01*
X170500Y75353D01*
X170583Y75620D01*
X170792Y75807D01*
X171042Y75860D01*
X171292Y75833D01*
X171500Y75727D01*
X171917Y75193D01*
X172208Y74953D01*
X172625Y74793D01*
X173000Y74740D01*
Y75860D01*
G01X186750Y126167D02*
X184250D01*
Y126833D01*
X184375Y127047D01*
X184542Y127180D01*
X184875Y127233D01*
X185208Y127180D01*
X185417Y127020D01*
X185542Y126833D01*
Y126167D01*
G01Y126833D02*
X186750Y127233D01*
G01X184667Y128393D02*
X184417Y128553D01*
X184292Y128740D01*
X184250Y128953D01*
X184333Y129220D01*
X184542Y129407D01*
X184792Y129460D01*
X185042Y129433D01*
X185250Y129327D01*
X185667Y128793D01*
X185958Y128553D01*
X186375Y128393D01*
X186750Y128340D01*
Y129460D01*
G01Y131100D02*
X184250D01*
X184750Y130780D01*
G01X186750D02*
Y131420D01*
G01X184667Y132793D02*
X184417Y132953D01*
X184292Y133140D01*
X184250Y133353D01*
X184333Y133620D01*
X184542Y133807D01*
X184792Y133860D01*
X185042Y133833D01*
X185250Y133727D01*
X185667Y133193D01*
X185958Y132953D01*
X186375Y132793D01*
X186750Y132740D01*
Y133860D01*
G01X168917Y131750D02*
Y134250D01*
X169583D01*
X169797Y134125D01*
X169930Y133958D01*
X169983Y133625D01*
X169930Y133292D01*
X169770Y133083D01*
X169583Y132958D01*
X168917D01*
G01X169583D02*
X169983Y131750D01*
G01X171143Y133833D02*
X171303Y134083D01*
X171490Y134208D01*
X171703Y134250D01*
X171970Y134167D01*
X172157Y133958D01*
X172210Y133708D01*
X172183Y133458D01*
X172077Y133250D01*
X171543Y132833D01*
X171303Y132542D01*
X171143Y132125D01*
X171090Y131750D01*
X172210D01*
G01X173850D02*
Y134250D01*
X173530Y133750D01*
G01Y131750D02*
X174170D01*
G01X176050D02*
Y134250D01*
X175730Y133750D01*
G01Y131750D02*
X176370D01*
G01X244782Y-99277D02*
X244627Y-99507D01*
X244524Y-99775D01*
Y-100082D01*
X244679Y-100427D01*
X244937Y-100695D01*
X245247Y-100887D01*
X245764Y-101040D01*
X246229Y-101078D01*
X246694Y-101002D01*
X247004Y-100887D01*
X247314Y-100657D01*
X247521Y-100388D01*
X247624Y-100120D01*
Y-99852D01*
X247521Y-99583D01*
X247366Y-99353D01*
X247159Y-99162D01*
G01X247624Y-97020D02*
X244524D01*
X245144Y-97480D01*
G01X247624D02*
Y-96560D01*
G01X244182Y-53027D02*
X244027Y-53257D01*
X243924Y-53525D01*
Y-53832D01*
X244079Y-54177D01*
X244337Y-54445D01*
X244647Y-54637D01*
X245164Y-54790D01*
X245629Y-54828D01*
X246094Y-54752D01*
X246404Y-54637D01*
X246714Y-54407D01*
X246921Y-54138D01*
X247024Y-53870D01*
Y-53602D01*
X246921Y-53333D01*
X246766Y-53103D01*
X246559Y-52912D01*
G01X247024Y-50770D02*
X243924D01*
X244544Y-51230D01*
G01X247024D02*
Y-50310D01*
G01X243924Y-47670D02*
X244027Y-47977D01*
X244286Y-48207D01*
X244596Y-48360D01*
X245009Y-48475D01*
X245474Y-48513D01*
X245939Y-48475D01*
X246352Y-48360D01*
X246662Y-48207D01*
X246921Y-47977D01*
X247024Y-47670D01*
X246921Y-47363D01*
X246662Y-47133D01*
X246352Y-46980D01*
X245939Y-46865D01*
X245474Y-46827D01*
X245009Y-46865D01*
X244596Y-46980D01*
X244286Y-47133D01*
X244027Y-47363D01*
X243924Y-47670D01*
G01X243982Y-4827D02*
X243827Y-5057D01*
X243724Y-5325D01*
Y-5632D01*
X243879Y-5977D01*
X244137Y-6245D01*
X244447Y-6437D01*
X244964Y-6590D01*
X245429Y-6628D01*
X245894Y-6552D01*
X246204Y-6437D01*
X246514Y-6207D01*
X246721Y-5938D01*
X246824Y-5670D01*
Y-5402D01*
X246721Y-5133D01*
X246566Y-4903D01*
X246359Y-4712D01*
G01X244241Y-3298D02*
X243931Y-3068D01*
X243776Y-2800D01*
X243724Y-2493D01*
X243827Y-2110D01*
X244086Y-1842D01*
X244396Y-1765D01*
X244706Y-1803D01*
X244964Y-1957D01*
X245481Y-2723D01*
X245842Y-3068D01*
X246359Y-3298D01*
X246824Y-3375D01*
Y-1765D01*
G01X243724Y530D02*
X243827Y223D01*
X244086Y-7D01*
X244396Y-160D01*
X244809Y-275D01*
X245274Y-313D01*
X245739Y-275D01*
X246152Y-160D01*
X246462Y-7D01*
X246721Y223D01*
X246824Y530D01*
X246721Y837D01*
X246462Y1067D01*
X246152Y1220D01*
X245739Y1335D01*
X245274Y1373D01*
X244809Y1335D01*
X244396Y1220D01*
X244086Y1067D01*
X243827Y837D01*
X243724Y530D01*
G01X244382Y45373D02*
X244227Y45143D01*
X244124Y44875D01*
Y44568D01*
X244279Y44223D01*
X244537Y43955D01*
X244847Y43763D01*
X245364Y43610D01*
X245829Y43572D01*
X246294Y43648D01*
X246604Y43763D01*
X246914Y43993D01*
X247121Y44262D01*
X247224Y44530D01*
Y44798D01*
X247121Y45067D01*
X246966Y45297D01*
X246759Y45488D01*
G01X246604Y46787D02*
X246966Y47017D01*
X247172Y47323D01*
X247224Y47668D01*
X247172Y47975D01*
X246914Y48282D01*
X246604Y48473D01*
X246294Y48512D01*
X245932Y48435D01*
X245674Y48167D01*
X245571Y47898D01*
Y47553D01*
G01Y47898D02*
X245416Y48128D01*
X245157Y48320D01*
X244847Y48397D01*
X244537Y48320D01*
X244279Y48128D01*
X244124Y47783D01*
X244176Y47438D01*
X244382Y47093D01*
G01X244124Y50730D02*
X244227Y50423D01*
X244486Y50193D01*
X244796Y50040D01*
X245209Y49925D01*
X245674Y49887D01*
X246139Y49925D01*
X246552Y50040D01*
X246862Y50193D01*
X247121Y50423D01*
X247224Y50730D01*
X247121Y51037D01*
X246862Y51267D01*
X246552Y51420D01*
X246139Y51535D01*
X245674Y51573D01*
X245209Y51535D01*
X244796Y51420D01*
X244486Y51267D01*
X244227Y51037D01*
X244124Y50730D01*
G01X244482Y97473D02*
X244327Y97243D01*
X244224Y96975D01*
Y96668D01*
X244379Y96323D01*
X244637Y96055D01*
X244947Y95863D01*
X245464Y95710D01*
X245929Y95672D01*
X246394Y95748D01*
X246704Y95863D01*
X247014Y96093D01*
X247221Y96362D01*
X247324Y96630D01*
Y96898D01*
X247221Y97167D01*
X247066Y97397D01*
X246859Y97588D01*
G01X247324Y100190D02*
X244224D01*
X246446Y98772D01*
Y100688D01*
G01X244224Y102830D02*
X244327Y102523D01*
X244586Y102293D01*
X244896Y102140D01*
X245309Y102025D01*
X245774Y101987D01*
X246239Y102025D01*
X246652Y102140D01*
X246962Y102293D01*
X247221Y102523D01*
X247324Y102830D01*
X247221Y103137D01*
X246962Y103367D01*
X246652Y103520D01*
X246239Y103635D01*
X245774Y103673D01*
X245309Y103635D01*
X244896Y103520D01*
X244586Y103367D01*
X244327Y103137D01*
X244224Y102830D01*
G54D13*
G01X-17750Y-22500D02*
G03I-4500J0D01*
G01X-2375Y-13025D02*
Y-12925D01*
X-3975D01*
Y-13025D01*
X-2375D01*
G01X-6598Y24977D02*
X8940D01*
Y16077D01*
X-6598D01*
Y24977D01*
G01X-272Y54175D02*
X17728D01*
Y32175D01*
X-272D01*
Y54175D01*
G01X-4875Y182083D02*
X-3875Y181250D01*
X-2750Y180750D01*
X-1750D01*
X-750Y181250D01*
X0Y182083D01*
X375Y183250D01*
X125Y184416D01*
X-500Y185417D01*
X-1625Y186083D01*
X-3125Y186417D01*
X-4000Y187083D01*
X-4375Y188250D01*
X-4125Y189417D01*
X-3500Y190250D01*
X-2625Y190750D01*
X-1750D01*
X-875Y190417D01*
X-125Y189583D01*
G01X6250Y190750D02*
X9250D01*
G01X7750D02*
Y180750D01*
G01X6250D02*
X9250D01*
G01X15250Y190750D02*
Y180750D01*
X20250D01*
G01X25000D02*
Y190750D01*
G01X29750D02*
X25000Y184583D01*
G01X30500Y180750D02*
X27125Y187416D01*
G01X35125Y182083D02*
X36125Y181250D01*
X37250Y180750D01*
X38250D01*
X39250Y181250D01*
X40000Y182083D01*
X40375Y183250D01*
X40125Y184416D01*
X39500Y185417D01*
X38375Y186083D01*
X36875Y186417D01*
X36000Y187083D01*
X35625Y188250D01*
X35875Y189417D01*
X36500Y190250D01*
X37375Y190750D01*
X38250D01*
X39125Y190417D01*
X39875Y189583D01*
G01X50500Y189917D02*
X49750Y190417D01*
X48875Y190750D01*
X47875D01*
X46750Y190250D01*
X45875Y189417D01*
X45250Y188417D01*
X44750Y186750D01*
X44625Y185250D01*
X44875Y183750D01*
X45250Y182750D01*
X46000Y181750D01*
X46875Y181083D01*
X47750Y180750D01*
X48625D01*
X49500Y181083D01*
X50250Y181583D01*
X50875Y182250D01*
G01X55250Y180750D02*
Y190750D01*
X58375D01*
X59375Y190250D01*
X60000Y189583D01*
X60250Y188250D01*
X60000Y186917D01*
X59250Y186083D01*
X58375Y185583D01*
X55250D01*
G01X58375D02*
X60250Y180750D01*
G01X70250D02*
X65250D01*
Y190750D01*
X70250D01*
G01X68250Y185917D02*
X65250D01*
G01X80250Y180750D02*
X75250D01*
Y190750D01*
X80250D01*
G01X78250Y185917D02*
X75250D01*
G01X84875Y180750D02*
Y190750D01*
X90625Y180750D01*
Y190750D01*
G01X105250Y180750D02*
Y190750D01*
X108250D01*
X109250Y190250D01*
X110000Y189083D01*
X110250Y187750D01*
X110000Y186417D01*
X109375Y185417D01*
X108250Y184916D01*
X105250D01*
G01X115250Y180750D02*
Y190750D01*
X118375D01*
X119375Y190250D01*
X120000Y189583D01*
X120250Y188250D01*
X120000Y186917D01*
X119250Y186083D01*
X118375Y185583D01*
X115250D01*
G01X118375D02*
X120250Y180750D01*
G01X126250Y190750D02*
X129250D01*
G01X127750D02*
Y180750D01*
G01X126250D02*
X129250D01*
G01X134500D02*
Y190750D01*
X137750Y182417D01*
X141000Y190750D01*
Y180750D01*
G01X144625D02*
X147750Y190750D01*
X150875Y180750D01*
G01X149750Y184250D02*
X145750D01*
G01X155250Y180750D02*
Y190750D01*
X158375D01*
X159375Y190250D01*
X160000Y189583D01*
X160250Y188250D01*
X160000Y186917D01*
X159250Y186083D01*
X158375Y185583D01*
X155250D01*
G01X158375D02*
X160250Y180750D01*
G01X167750D02*
Y185250D01*
X165250Y190750D01*
G01X170250D02*
X167750Y185250D01*
G01X6300Y-44425D02*
Y-44326D01*
X4700Y-44325D01*
Y-44424D01*
X6300Y-44425D01*
G01X6675Y-48450D02*
X6575D01*
Y-50050D01*
X6675D01*
Y-48450D01*
G01X10300Y-9950D02*
X10200D01*
Y-11550D01*
X10300D01*
Y-9950D01*
G01X15300Y-6450D02*
X15200D01*
Y-8050D01*
X15300D01*
Y-6450D01*
G01X24740Y16127D02*
X9202D01*
Y25027D01*
X24740D01*
Y16127D01*
G01X38525Y-31275D02*
X38625D01*
Y-29675D01*
X38525D01*
Y-31275D01*
G01X39950Y97200D02*
X40050D01*
Y98800D01*
X39950D01*
Y97200D01*
G01X27750Y170750D02*
X26750Y170417D01*
X26000Y169583D01*
X25500Y168583D01*
X25125Y167250D01*
X25000Y165750D01*
X25125Y164250D01*
X25500Y162917D01*
X26000Y161916D01*
X26750Y161083D01*
X27750Y160750D01*
X28750Y161083D01*
X29500Y161916D01*
X30000Y162917D01*
X30375Y164250D01*
X30500Y165750D01*
X30375Y167250D01*
X30000Y168583D01*
X29500Y169583D01*
X28750Y170417D01*
X27750Y170750D01*
G01X37750Y160750D02*
X38625Y160917D01*
X39625Y161417D01*
X40250Y162250D01*
X40500Y163417D01*
X40250Y164583D01*
X39500Y165583D01*
X38375Y166083D01*
X37125D01*
X36375Y166417D01*
X35750Y167250D01*
X35500Y168417D01*
X35875Y169583D01*
X36750Y170417D01*
X37750Y170750D01*
X38750Y170417D01*
X39625Y169583D01*
X40000Y168417D01*
X39750Y167250D01*
X39125Y166417D01*
X38375Y166083D01*
X37125D01*
X36000Y165583D01*
X35250Y164583D01*
X35000Y163417D01*
X35250Y162250D01*
X35875Y161417D01*
X36875Y160917D01*
X37750Y160750D01*
G01X46125Y164083D02*
X49375D01*
G01X116125D02*
X119375D01*
G01X127750Y170750D02*
X126750Y170417D01*
X126000Y169583D01*
X125500Y168583D01*
X125125Y167250D01*
X125000Y165750D01*
X125125Y164250D01*
X125500Y162917D01*
X126000Y161916D01*
X126750Y161083D01*
X127750Y160750D01*
X128750Y161083D01*
X129500Y161916D01*
X130000Y162917D01*
X130375Y164250D01*
X130500Y165750D01*
X130375Y167250D01*
X130000Y168583D01*
X129500Y169583D01*
X128750Y170417D01*
X127750Y170750D01*
G01X135000Y162750D02*
X135750Y161583D01*
X136750Y160917D01*
X137875Y160750D01*
X138875Y160917D01*
X139875Y161750D01*
X140500Y162750D01*
X140625Y163750D01*
X140375Y164916D01*
X139500Y165750D01*
X138625Y166083D01*
X137500D01*
G01X138625D02*
X139375Y166583D01*
X140000Y167416D01*
X140250Y168417D01*
X140000Y169417D01*
X139375Y170250D01*
X138250Y170750D01*
X137125Y170583D01*
X136000Y169917D01*
G01X55250Y-60750D02*
G03I-4500J0D01*
G01X44073Y11447D02*
X48518Y28036D01*
X62065Y24407D01*
X57620Y7818D01*
X44073Y11447D01*
G01X60250Y140750D02*
Y150750D01*
X63375D01*
X64375Y150250D01*
X65000Y149583D01*
X65250Y148250D01*
X65000Y146917D01*
X64250Y146083D01*
X63375Y145583D01*
X60250D01*
G01X63375D02*
X65250Y140750D01*
G01X75250D02*
X70250D01*
Y150750D01*
X75250D01*
G01X73250Y145917D02*
X70250D01*
G01X79625Y150750D02*
X82750Y140750D01*
X85875Y150750D01*
G01X103750Y146083D02*
X104250Y146583D01*
X104625Y147416D01*
X104875Y148583D01*
X104625Y149583D01*
X104125Y150250D01*
X103250Y150750D01*
X99875D01*
Y140750D01*
X104000D01*
X104875Y141417D01*
X105375Y142417D01*
X105625Y143583D01*
X105375Y144750D01*
X104625Y145750D01*
X103750Y146083D01*
X99875D01*
G01X57750Y170750D02*
X56750Y170417D01*
X56000Y169583D01*
X55500Y168583D01*
X55125Y167250D01*
X55000Y165750D01*
X55125Y164250D01*
X55500Y162917D01*
X56000Y161916D01*
X56750Y161083D01*
X57750Y160750D01*
X58750Y161083D01*
X59500Y161916D01*
X60000Y162917D01*
X60375Y164250D01*
X60500Y165750D01*
X60375Y167250D01*
X60000Y168583D01*
X59500Y169583D01*
X58750Y170417D01*
X57750Y170750D01*
G01X65000Y162750D02*
X65750Y161583D01*
X66750Y160917D01*
X67875Y160750D01*
X68875Y160917D01*
X69875Y161750D01*
X70500Y162750D01*
X70625Y163750D01*
X70375Y164916D01*
X69500Y165750D01*
X68625Y166083D01*
X67500D01*
G01X68625D02*
X69375Y166583D01*
X70000Y167416D01*
X70250Y168417D01*
X70000Y169417D01*
X69375Y170250D01*
X68250Y170750D01*
X67125Y170583D01*
X66000Y169917D01*
G01X77500Y160750D02*
X77750Y162917D01*
X78125Y164750D01*
X78625Y166417D01*
X79250Y168250D01*
X80250Y170750D01*
X75250D01*
G01X85000Y162250D02*
X85750Y161417D01*
X86625Y160917D01*
X87750Y160750D01*
X88875Y161083D01*
X89750Y161750D01*
X90375Y162917D01*
X90500Y164250D01*
X90250Y165583D01*
X89625Y166417D01*
X88750Y167083D01*
X87875Y167250D01*
X87000Y167083D01*
X85875Y166417D01*
X86250Y170750D01*
X89625D01*
G01X97750Y160750D02*
Y170750D01*
X96250Y168750D01*
G01Y160750D02*
X99250D01*
G01X105375Y164916D02*
X106250Y166083D01*
X107000Y166750D01*
X108000Y167083D01*
X108875Y166750D01*
X109500Y166083D01*
X110000Y165083D01*
X110125Y163917D01*
X110000Y162917D01*
X109500Y161916D01*
X108750Y161083D01*
X107875Y160750D01*
X106875Y161083D01*
X106000Y162083D01*
X105500Y163583D01*
X105375Y165250D01*
X105625Y167416D01*
X106000Y168583D01*
X106625Y169750D01*
X107500Y170583D01*
X108375Y170750D01*
X109250Y170417D01*
X109875Y169583D01*
G01X78800Y74800D02*
X78700D01*
Y73200D01*
X78800D01*
Y74800D01*
G01X78700Y77450D02*
X78800D01*
Y79050D01*
X78700D01*
Y77450D01*
G01X80800Y91450D02*
Y91550D01*
X79200D01*
Y91450D01*
X80800D01*
G01X80950Y125800D02*
Y125700D01*
X82550D01*
Y125800D01*
X80950D01*
G01X101200Y-91300D02*
X101300D01*
Y-89700D01*
X101200D01*
Y-91300D01*
G01X91200D02*
X91300D01*
Y-89700D01*
X91200D01*
Y-91300D01*
G01X101200Y-96550D02*
X101300D01*
Y-94950D01*
X101200D01*
Y-96550D01*
G01X91200D02*
X91300D01*
Y-94950D01*
X91200D01*
Y-96550D01*
G01X100039Y75126D02*
X100118D01*
X102874Y77882D01*
Y77961D01*
G01X85126D02*
Y77882D01*
X87882Y75126D01*
X87961D01*
G01Y92874D02*
X87882D01*
X85126Y90118D01*
Y90039D01*
G01X102874D02*
Y90118D01*
X100118Y92874D01*
X100039D01*
G01X104874Y118789D02*
Y118868D01*
X102118Y121624D01*
X102039D01*
G01Y103876D02*
X102118D01*
X104874Y106632D01*
Y106711D01*
G01X87126D02*
Y106632D01*
X89882Y103876D01*
X89961D01*
G01Y121624D02*
X89882D01*
X87126Y118868D01*
Y118789D01*
G01X103200Y126200D02*
X103300D01*
Y127800D01*
X103200D01*
Y126200D01*
G01X88300Y127800D02*
X88200D01*
Y126200D01*
X88300D01*
Y127800D01*
G01X121200Y-91300D02*
X121300D01*
Y-89700D01*
X121200D01*
Y-91300D01*
G01X111200D02*
X111300D01*
Y-89700D01*
X111200D01*
Y-91300D01*
G01X121200Y-96800D02*
X121300D01*
Y-95200D01*
X121200D01*
Y-96800D01*
G01X111200D02*
X111300D01*
Y-95200D01*
X111200D01*
Y-96800D01*
G01X117376Y-79537D02*
Y-82374D01*
X120213D01*
G01Y-64626D02*
X117376D01*
Y-67463D01*
G01X118050Y102750D02*
G03I-300J0D01*
G01X119800Y90250D02*
G03I-300J0D01*
G01X118050Y112000D02*
G03I-300J0D01*
G01X138800Y-89700D02*
X138700D01*
Y-91300D01*
X138800D01*
Y-89700D01*
G01X131200Y-97050D02*
X131300D01*
Y-95450D01*
X131200D01*
Y-97050D01*
G01X138800Y-95200D02*
X138700D01*
Y-96800D01*
X138800D01*
Y-95200D01*
G01X131200Y-91300D02*
X131300D01*
Y-89700D01*
X131200D01*
Y-91300D01*
G01X132287Y-82374D02*
X135124D01*
Y-79537D01*
G01Y-67463D02*
Y-64626D01*
X132287D01*
G01X143600Y69900D02*
X125900D01*
Y87600D01*
X143600D01*
Y69900D01*
G01X132626Y94211D02*
Y91376D01*
X135461D01*
G01X140600Y126400D02*
X132400D01*
Y122600D01*
X140600D01*
Y126400D01*
G01X136350D02*
X128150D01*
Y122600D01*
X136350D01*
Y126400D01*
G01X140950Y116800D02*
Y116700D01*
X142550D01*
Y116800D01*
X140950D01*
G01X138050Y116700D02*
Y116800D01*
X136450D01*
Y116700D01*
X138050D01*
G01X135461Y109124D02*
X132626D01*
Y106289D01*
G01X155083Y-112667D02*
Y-107667D01*
X156603D01*
X157110Y-107917D01*
X157490Y-108500D01*
X157617Y-109167D01*
X157490Y-109834D01*
X157173Y-110334D01*
X156603Y-110584D01*
X155083D01*
G01X160057Y-111667D02*
X160437Y-112250D01*
X160943Y-112584D01*
X161513Y-112667D01*
X162020Y-112584D01*
X162527Y-112167D01*
X162843Y-111667D01*
X162907Y-111167D01*
X162780Y-110584D01*
X162337Y-110167D01*
X161893Y-110000D01*
X161323D01*
G01X161893D02*
X162273Y-109750D01*
X162590Y-109334D01*
X162717Y-108834D01*
X162590Y-108334D01*
X162273Y-107917D01*
X161703Y-107667D01*
X161133Y-107750D01*
X160563Y-108084D01*
G01X166550Y-107667D02*
X166043Y-107834D01*
X165663Y-108250D01*
X165410Y-108750D01*
X165220Y-109417D01*
X165157Y-110167D01*
X165220Y-110917D01*
X165410Y-111584D01*
X165663Y-112084D01*
X166043Y-112500D01*
X166550Y-112667D01*
X167057Y-112500D01*
X167437Y-112084D01*
X167690Y-111584D01*
X167880Y-110917D01*
X167943Y-110167D01*
X167880Y-109417D01*
X167690Y-108750D01*
X167437Y-108250D01*
X167057Y-107834D01*
X166550Y-107667D01*
G01X171650Y-112667D02*
Y-107667D01*
X170890Y-108667D01*
G01Y-112667D02*
X172410D01*
G01X151250Y-96917D02*
Y-91917D01*
X150490Y-92917D01*
G01Y-96917D02*
X152010D01*
G01X161200Y35200D02*
X161300D01*
Y36800D01*
X161200D01*
Y35200D01*
G01Y58700D02*
X161300D01*
Y60300D01*
X161200D01*
Y58700D01*
G01X160050Y76951D02*
X159579D01*
Y91549D01*
X160050D01*
G01X154950Y97800D02*
Y97700D01*
X156550D01*
Y97800D01*
X154950D01*
G01X147539Y91376D02*
X150374D01*
Y94211D01*
G01X155550Y105200D02*
Y105300D01*
X153950D01*
Y105200D01*
X155550D01*
G01X150374Y106289D02*
Y109124D01*
X147539D01*
G01X243227Y-111300D02*
Y111300D01*
X205701D01*
G03X195953I-4874J-4299D01*
G01X182427D01*
Y-111300D01*
X207855D01*
Y-114800D01*
X217799D01*
Y-111300D01*
X243227D01*
G01X168800Y36800D02*
X168700D01*
Y35200D01*
X168800D01*
Y36800D01*
G01Y60300D02*
X168700D01*
Y58700D01*
X168800D01*
Y60300D01*
G01X170950Y91549D02*
X171421D01*
Y76951D01*
X170950D01*
G01X168511Y120108D02*
X167398D01*
Y112431D01*
X169579Y110250D01*
X167398Y108069D01*
Y100392D01*
X168511D01*
G01X180489Y120108D02*
X181602D01*
Y100392D01*
X180489D01*
G01X172100Y90100D02*
Y81900D01*
X175900D01*
Y90100D01*
X172100D01*
G01X183300Y130450D02*
Y130550D01*
X181700D01*
Y130450D01*
X183300D01*
G01X178550D02*
Y130550D01*
X176950D01*
Y130450D01*
X178550D01*
G01X204074Y-117890D02*
Y-116623D01*
X205574D01*
X206074Y-117003D01*
X206407Y-117447D01*
X206574Y-118080D01*
X206407Y-118713D01*
X206074Y-119157D01*
X205574Y-119537D01*
X204991Y-119790D01*
X204324Y-119917D01*
X203741D01*
X203241Y-119790D01*
X202657Y-119537D01*
X202157Y-119157D01*
X201824Y-118777D01*
X201574Y-118270D01*
Y-117827D01*
X201741Y-117320D01*
X202074Y-116940D01*
G01X206574Y-113170D02*
X201574D01*
X202574Y-113930D01*
G01X206574D02*
Y-112410D01*
G01X207324Y114260D02*
Y115527D01*
X208824D01*
X209324Y115147D01*
X209657Y114703D01*
X209824Y114070D01*
X209657Y113437D01*
X209324Y112993D01*
X208824Y112613D01*
X208241Y112360D01*
X207574Y112233D01*
X206991D01*
X206491Y112360D01*
X205907Y112613D01*
X205407Y112993D01*
X205074Y113373D01*
X204824Y113880D01*
Y114323D01*
X204991Y114830D01*
X205324Y115210D01*
G01X209824Y119740D02*
X204824D01*
X208407Y117397D01*
Y120563D01*
G01X204824Y124080D02*
X204991Y123573D01*
X205407Y123193D01*
X205907Y122940D01*
X206574Y122750D01*
X207324Y122687D01*
X208074Y122750D01*
X208741Y122940D01*
X209241Y123193D01*
X209657Y123573D01*
X209824Y124080D01*
X209657Y124587D01*
X209241Y124967D01*
X208741Y125220D01*
X208074Y125410D01*
X207324Y125473D01*
X206574Y125410D01*
X205907Y125220D01*
X205407Y124967D01*
X204991Y124587D01*
X204824Y124080D01*
G01X223274Y-120063D02*
X218274D01*
Y-118797D01*
X218524Y-118290D01*
X218857Y-117910D01*
X219357Y-117593D01*
X219941Y-117340D01*
X220774Y-117277D01*
X221607Y-117340D01*
X222191Y-117593D01*
X222691Y-117910D01*
X223024Y-118290D01*
X223274Y-118797D01*
Y-120063D01*
G01Y-113570D02*
X218274D01*
X219274Y-114330D01*
G01X223274D02*
Y-112810D01*
G01X222524Y112987D02*
X217524D01*
Y114253D01*
X217774Y114760D01*
X218107Y115140D01*
X218607Y115457D01*
X219191Y115710D01*
X220024Y115773D01*
X220857Y115710D01*
X221441Y115457D01*
X221941Y115140D01*
X222274Y114760D01*
X222524Y114253D01*
Y112987D01*
G01Y120240D02*
X217524D01*
X221107Y117897D01*
Y121063D01*
G01X217524Y124580D02*
X217691Y124073D01*
X218107Y123693D01*
X218607Y123440D01*
X219274Y123250D01*
X220024Y123187D01*
X220774Y123250D01*
X221441Y123440D01*
X221941Y123693D01*
X222357Y124073D01*
X222524Y124580D01*
X222357Y125087D01*
X221941Y125467D01*
X221441Y125720D01*
X220774Y125910D01*
X220024Y125973D01*
X219274Y125910D01*
X218607Y125720D01*
X218107Y125467D01*
X217691Y125087D01*
X217524Y124580D01*
G01X-61024Y-107123D02*
X-73524D01*
X-74024Y-83623D01*
G02X-58024I8000J-5055D01*
G01X-58524Y-105123D01*
G01X-80524Y-112123D02*
X-51524Y-75623D01*
G01Y-112123D02*
X-80524Y-75623D01*
G01X-69024Y-79123D02*
X-63024D01*
Y-81623D01*
X-69024D01*
Y-79123D01*
X-68024D01*
G01X-76024Y-83623D02*
X-56024D01*
G01X-58524Y-87123D02*
Y-91123D01*
X-55524D01*
Y-87123D01*
X-58524D01*
Y-88123D01*
G01X110150Y90250D02*
G03I-400J0D01*
G54D14*
G01X-79417Y-43917D02*
Y-38917D01*
X-77833D01*
X-77327Y-39167D01*
X-77010Y-39500D01*
X-76883Y-40167D01*
X-77010Y-40834D01*
X-77390Y-41250D01*
X-77833Y-41500D01*
X-79417D01*
G01X-77833D02*
X-76883Y-43917D01*
G01X-74380D02*
X-71720Y-38917D01*
G01X-74380D02*
X-71720Y-43917D01*
G01X-67443Y-41250D02*
X-67190Y-41000D01*
X-67000Y-40584D01*
X-66873Y-40000D01*
X-67000Y-39500D01*
X-67253Y-39167D01*
X-67697Y-38917D01*
X-69407D01*
Y-43917D01*
X-67317D01*
X-66873Y-43584D01*
X-66620Y-43084D01*
X-66493Y-42500D01*
X-66620Y-41917D01*
X-67000Y-41417D01*
X-67443Y-41250D01*
X-69407D01*
G01X-69646Y-17935D02*
Y-12935D01*
X-68062D01*
X-67556Y-13185D01*
X-67239Y-13518D01*
X-67112Y-14185D01*
X-67239Y-14852D01*
X-67619Y-15268D01*
X-68062Y-15518D01*
X-69646D01*
G01X-68062D02*
X-67112Y-17935D01*
G01X-64609D02*
X-61949Y-12935D01*
G01X-64609D02*
X-61949Y-17935D01*
G01X-60079Y-19602D02*
X-56279D01*
G01X-51812Y-17935D02*
X-54346D01*
Y-12935D01*
X-51812D01*
G01X-52826Y-15352D02*
X-54346D01*
G01X-49309Y-17935D02*
X-46649Y-12935D01*
G01X-49309D02*
X-46649Y-17935D01*
G01X-42879Y-12935D02*
Y-17935D01*
G01X-44336Y-12935D02*
X-41422D01*
G01X-39679Y-19602D02*
X-35879D01*
G01X-33946Y-12935D02*
Y-17935D01*
X-31412D01*
G01X-27579D02*
X-28086Y-17852D01*
X-28529Y-17518D01*
X-28909Y-17018D01*
X-29162Y-16435D01*
X-29289Y-15768D01*
Y-15102D01*
X-29162Y-14435D01*
X-28909Y-13852D01*
X-28529Y-13352D01*
X-28086Y-13018D01*
X-27579Y-12935D01*
X-27072Y-13018D01*
X-26629Y-13352D01*
X-26249Y-13852D01*
X-25996Y-14435D01*
X-25869Y-15102D01*
Y-15768D01*
X-25996Y-16435D01*
X-26249Y-17018D01*
X-26629Y-17518D01*
X-27072Y-17852D01*
X-27579Y-17935D01*
G01X-79417Y44333D02*
Y49333D01*
X-77833D01*
X-77327Y49083D01*
X-77010Y48750D01*
X-76883Y48083D01*
X-77010Y47416D01*
X-77390Y47000D01*
X-77833Y46750D01*
X-79417D01*
G01X-77833D02*
X-76883Y44333D01*
G01X-74380D02*
X-71720Y49333D01*
G01X-74380D02*
X-71720Y44333D01*
G01X-69533D02*
X-67950Y49333D01*
X-66367Y44333D01*
G01X-66937Y46083D02*
X-68963D01*
G01X-78400Y116583D02*
Y111583D01*
G01X-79857Y116583D02*
X-76943D01*
G01X-74630Y111583D02*
X-71970Y116583D01*
G01X-74630D02*
X-71970Y111583D01*
G01X-67693Y114250D02*
X-67440Y114500D01*
X-67250Y114916D01*
X-67123Y115500D01*
X-67250Y116000D01*
X-67503Y116333D01*
X-67947Y116583D01*
X-69657D01*
Y111583D01*
X-67567D01*
X-67123Y111916D01*
X-66870Y112416D01*
X-66743Y113000D01*
X-66870Y113583D01*
X-67250Y114083D01*
X-67693Y114250D01*
X-69657D01*
G01X-34333Y-133300D02*
X-29333D01*
G01X-34333Y-134757D02*
Y-131843D01*
G01X-29333Y-129530D02*
X-34333Y-126870D01*
G01Y-129530D02*
X-29333Y-126870D01*
G01X-27666Y-125000D02*
Y-121200D01*
G01X-29333Y-119647D02*
X-34333D01*
X-30166Y-118000D01*
X-34333Y-116353D01*
X-29333D01*
G01Y-112900D02*
X-29416Y-113407D01*
X-29750Y-113850D01*
X-30250Y-114230D01*
X-30833Y-114483D01*
X-31500Y-114610D01*
X-32166D01*
X-32833Y-114483D01*
X-33416Y-114230D01*
X-33916Y-113850D01*
X-34250Y-113407D01*
X-34333Y-112900D01*
X-34250Y-112393D01*
X-33916Y-111950D01*
X-33416Y-111570D01*
X-32833Y-111317D01*
X-32166Y-111190D01*
X-31500D01*
X-30833Y-111317D01*
X-30250Y-111570D01*
X-29750Y-111950D01*
X-29416Y-112393D01*
X-29333Y-112900D01*
G01Y-109257D02*
X-34333D01*
X-29333Y-106343D01*
X-34333D01*
G01X-33583Y121900D02*
X-28583D01*
G01X-33583Y120443D02*
Y123357D01*
G01X-28583Y125670D02*
X-33583Y128330D01*
G01Y125670D02*
X-28583Y128330D01*
G01Y130517D02*
X-33583Y132100D01*
X-28583Y133683D01*
G01X-30333Y133113D02*
Y131087D01*
G01X-6250Y-28000D02*
G03I-250J0D01*
G01X-5500Y-6500D02*
G03I-250J0D01*
G01X-5750Y-18500D02*
G03I-250J0D01*
G01X-9250Y-12500D02*
G03I-250J0D01*
G01X-4500Y2750D02*
G03I-250J0D01*
G01X16500Y-39000D02*
G03I-250J0D01*
G01X20000D02*
G03I-250J0D01*
G01X4750Y7500D02*
G03I-250J0D01*
G01X19933Y86833D02*
Y91833D01*
X21517D01*
X22023Y91583D01*
X22340Y91250D01*
X22467Y90583D01*
X22340Y89916D01*
X21960Y89500D01*
X21517Y89250D01*
X19933D01*
G01X21517D02*
X22467Y86833D01*
G01X27567D02*
X25033D01*
Y91833D01*
X27567D01*
G01X26553Y89416D02*
X25033D01*
G01X30197Y86833D02*
Y91833D01*
X32603D01*
G01X31717Y89416D02*
X30197D01*
G01X34600Y85166D02*
X38400D01*
G01X42993Y91416D02*
X42613Y91666D01*
X42170Y91833D01*
X41663D01*
X41093Y91583D01*
X40650Y91166D01*
X40333Y90666D01*
X40080Y89833D01*
X40017Y89083D01*
X40143Y88333D01*
X40333Y87833D01*
X40713Y87333D01*
X41157Y87000D01*
X41600Y86833D01*
X42043D01*
X42487Y87000D01*
X42867Y87250D01*
X43183Y87583D01*
G01X45433Y91833D02*
Y86833D01*
X47967D01*
G01X50407D02*
Y91833D01*
G01X52813D02*
X50407Y88750D01*
G01X53193Y86833D02*
X51483Y90166D01*
G01X32411Y-66790D02*
Y-71790D01*
G01X30954Y-66790D02*
X33868D01*
G01X36181Y-71790D02*
X38841Y-66790D01*
G01X36181D02*
X38841Y-71790D01*
G01X40711Y-73457D02*
X44511D01*
G01X48978Y-71790D02*
X46444D01*
Y-66790D01*
X48978D01*
G01X47964Y-69207D02*
X46444D01*
G01X51481Y-71790D02*
X54141Y-66790D01*
G01X51481D02*
X54141Y-71790D01*
G01X57911Y-66790D02*
Y-71790D01*
G01X56454Y-66790D02*
X59368D01*
G01X61111Y-73457D02*
X64911D01*
G01X66844Y-66790D02*
Y-71790D01*
X69378D01*
G01X73211D02*
X72704Y-71707D01*
X72261Y-71373D01*
X71881Y-70873D01*
X71628Y-70290D01*
X71501Y-69623D01*
Y-68957D01*
X71628Y-68290D01*
X71881Y-67707D01*
X72261Y-67207D01*
X72704Y-66873D01*
X73211Y-66790D01*
X73718Y-66873D01*
X74161Y-67207D01*
X74541Y-67707D01*
X74794Y-68290D01*
X74921Y-68957D01*
Y-69623D01*
X74794Y-70290D01*
X74541Y-70873D01*
X74161Y-71373D01*
X73718Y-71707D01*
X73211Y-71790D01*
G01X27000Y-45750D02*
G03I-250J0D01*
G01X34250Y-35500D02*
G03I-250J0D01*
G01X40250Y-26000D02*
G03I-250J0D01*
G01X38000Y-19000D02*
G03I-250J0D01*
G01X37250Y-10500D02*
G03I-250J0D01*
G01X49360Y28730D02*
X49943Y30904D01*
X49431Y33888D01*
G01X51878Y33232D02*
X49943Y30904D01*
G01X54286Y27410D02*
X55580Y32240D01*
X54587Y31471D01*
G01X53552Y27607D02*
X55020Y27214D01*
G01X60506Y30920D02*
X59974Y30890D01*
X59499Y30586D01*
X59125Y30169D01*
X58769Y29574D01*
X58513Y28866D01*
X58380Y28125D01*
X58391Y27432D01*
X58507Y26883D01*
X58766Y26382D01*
X59212Y26090D01*
X59745Y26120D01*
X60220Y26424D01*
X60594Y26842D01*
X60950Y27436D01*
X61205Y28144D01*
X61338Y28885D01*
X61327Y29578D01*
X61212Y30127D01*
X60953Y30628D01*
X60506Y30920D01*
G01X64138Y24770D02*
X65432Y29600D01*
X64439Y28831D01*
G01X63404Y24967D02*
X64872Y24574D01*
G01X55583Y41000D02*
Y46000D01*
X57103D01*
X57610Y45750D01*
X57990Y45167D01*
X58117Y44500D01*
X57990Y43833D01*
X57673Y43333D01*
X57103Y43083D01*
X55583D01*
G01X60747Y45167D02*
X61127Y45667D01*
X61570Y45917D01*
X62077Y46000D01*
X62710Y45833D01*
X63153Y45417D01*
X63280Y44917D01*
X63217Y44417D01*
X62963Y44000D01*
X61697Y43167D01*
X61127Y42583D01*
X60747Y41750D01*
X60620Y41000D01*
X63280D01*
G01X67050Y46000D02*
X66543Y45833D01*
X66163Y45417D01*
X65910Y44917D01*
X65720Y44250D01*
X65657Y43500D01*
X65720Y42750D01*
X65910Y42083D01*
X66163Y41583D01*
X66543Y41167D01*
X67050Y41000D01*
X67557Y41167D01*
X67937Y41583D01*
X68190Y42083D01*
X68380Y42750D01*
X68443Y43500D01*
X68380Y44250D01*
X68190Y44917D01*
X67937Y45417D01*
X67557Y45833D01*
X67050Y46000D01*
G01X70947Y45167D02*
X71327Y45667D01*
X71770Y45917D01*
X72277Y46000D01*
X72910Y45833D01*
X73353Y45417D01*
X73480Y44917D01*
X73417Y44417D01*
X73163Y44000D01*
X71897Y43167D01*
X71327Y42583D01*
X70947Y41750D01*
X70820Y41000D01*
X73480D01*
G01X117207Y-55403D02*
Y-58986D01*
X117460Y-59736D01*
X117967Y-60236D01*
X118600Y-60403D01*
X119233Y-60236D01*
X119740Y-59736D01*
X119993Y-58986D01*
Y-55403D01*
G01X122497Y-56236D02*
X122877Y-55736D01*
X123320Y-55486D01*
X123827Y-55403D01*
X124460Y-55570D01*
X124903Y-55986D01*
X125030Y-56486D01*
X124967Y-56986D01*
X124713Y-57403D01*
X123447Y-58236D01*
X122877Y-58820D01*
X122497Y-59653D01*
X122370Y-60403D01*
X125030D01*
G01X128800Y-55403D02*
X128293Y-55570D01*
X127913Y-55986D01*
X127660Y-56486D01*
X127470Y-57153D01*
X127407Y-57903D01*
X127470Y-58653D01*
X127660Y-59320D01*
X127913Y-59820D01*
X128293Y-60236D01*
X128800Y-60403D01*
X129307Y-60236D01*
X129687Y-59820D01*
X129940Y-59320D01*
X130130Y-58653D01*
X130193Y-57903D01*
X130130Y-57153D01*
X129940Y-56486D01*
X129687Y-55986D01*
X129307Y-55570D01*
X128800Y-55403D01*
G01X132697Y-56236D02*
X133077Y-55736D01*
X133520Y-55486D01*
X134027Y-55403D01*
X134660Y-55570D01*
X135103Y-55986D01*
X135230Y-56486D01*
X135167Y-56986D01*
X134913Y-57403D01*
X133647Y-58236D01*
X133077Y-58820D01*
X132697Y-59653D01*
X132570Y-60403D01*
X135230D01*
G01X144000Y-73500D02*
G03I-250J0D01*
G01X171000Y-9917D02*
X166000D01*
Y-8397D01*
X166250Y-7890D01*
X166833Y-7510D01*
X167500Y-7383D01*
X168167Y-7510D01*
X168667Y-7827D01*
X168917Y-8397D01*
Y-9917D01*
G01X166833Y-4753D02*
X166333Y-4373D01*
X166083Y-3930D01*
X166000Y-3423D01*
X166167Y-2790D01*
X166583Y-2347D01*
X167083Y-2220D01*
X167583Y-2283D01*
X168000Y-2537D01*
X168833Y-3803D01*
X169417Y-4373D01*
X170250Y-4753D01*
X171000Y-4880D01*
Y-2220D01*
G01X166000Y1550D02*
X166167Y1043D01*
X166583Y663D01*
X167083Y410D01*
X167750Y220D01*
X168500Y157D01*
X169250Y220D01*
X169917Y410D01*
X170417Y663D01*
X170833Y1043D01*
X171000Y1550D01*
X170833Y2057D01*
X170417Y2437D01*
X169917Y2690D01*
X169250Y2880D01*
X168500Y2943D01*
X167750Y2880D01*
X167083Y2690D01*
X166583Y2437D01*
X166167Y2057D01*
X166000Y1550D01*
G01X171000Y6650D02*
X166000D01*
X167000Y5890D01*
G01X171000D02*
Y7410D01*
G01X161750Y97750D02*
G03I-250J0D01*
G01X180750Y-99380D02*
X175750D01*
G01Y-96720D02*
X180750D01*
G01X178250D02*
Y-99380D01*
G01X180750Y-92950D02*
X175750D01*
X176750Y-93710D01*
G01X180750D02*
Y-92190D01*
G01X179574Y-56020D02*
X174574D01*
G01Y-53360D02*
X179574D01*
G01X177074D02*
Y-56020D01*
G01X179574Y-49590D02*
X174574D01*
X175574Y-50350D01*
G01X179574D02*
Y-48830D01*
G01X174574Y-44490D02*
X174741Y-44997D01*
X175157Y-45377D01*
X175657Y-45630D01*
X176324Y-45820D01*
X177074Y-45883D01*
X177824Y-45820D01*
X178491Y-45630D01*
X178991Y-45377D01*
X179407Y-44997D01*
X179574Y-44490D01*
X179407Y-43983D01*
X178991Y-43603D01*
X178491Y-43350D01*
X177824Y-43160D01*
X177074Y-43097D01*
X176324Y-43160D01*
X175657Y-43350D01*
X175157Y-43603D01*
X174741Y-43983D01*
X174574Y-44490D01*
G01X179674Y-7920D02*
X174674D01*
G01Y-5260D02*
X179674D01*
G01X177174D02*
Y-7920D01*
G01X175507Y-2693D02*
X175007Y-2313D01*
X174757Y-1870D01*
X174674Y-1363D01*
X174841Y-730D01*
X175257Y-287D01*
X175757Y-160D01*
X176257Y-223D01*
X176674Y-477D01*
X177507Y-1743D01*
X178091Y-2313D01*
X178924Y-2693D01*
X179674Y-2820D01*
Y-160D01*
G01X174674Y3610D02*
X174841Y3103D01*
X175257Y2723D01*
X175757Y2470D01*
X176424Y2280D01*
X177174Y2217D01*
X177924Y2280D01*
X178591Y2470D01*
X179091Y2723D01*
X179507Y3103D01*
X179674Y3610D01*
X179507Y4117D01*
X179091Y4497D01*
X178591Y4750D01*
X177924Y4940D01*
X177174Y5003D01*
X176424Y4940D01*
X175757Y4750D01*
X175257Y4497D01*
X174841Y4117D01*
X174674Y3610D01*
G01X179500Y40820D02*
X174500D01*
G01Y43480D02*
X179500D01*
G01X177000D02*
Y40820D01*
G01X178500Y45857D02*
X179083Y46237D01*
X179417Y46743D01*
X179500Y47313D01*
X179417Y47820D01*
X179000Y48327D01*
X178500Y48643D01*
X178000Y48707D01*
X177417Y48580D01*
X177000Y48137D01*
X176833Y47693D01*
Y47123D01*
G01Y47693D02*
X176583Y48073D01*
X176167Y48390D01*
X175667Y48517D01*
X175167Y48390D01*
X174750Y48073D01*
X174500Y47503D01*
X174583Y46933D01*
X174917Y46363D01*
G01X174500Y52350D02*
X174667Y51843D01*
X175083Y51463D01*
X175583Y51210D01*
X176250Y51020D01*
X177000Y50957D01*
X177750Y51020D01*
X178417Y51210D01*
X178917Y51463D01*
X179333Y51843D01*
X179500Y52350D01*
X179333Y52857D01*
X178917Y53237D01*
X178417Y53490D01*
X177750Y53680D01*
X177000Y53743D01*
X176250Y53680D01*
X175583Y53490D01*
X175083Y53237D01*
X174667Y52857D01*
X174500Y52350D01*
G54D15*
G01X24800Y13250D02*
G03I-300J0D01*
G01X82050Y103500D02*
G03I-300J0D01*
G01Y115500D02*
G03I-300J0D01*
G01X90800Y-16500D02*
Y-26500D01*
X93400D01*
X94400Y-26000D01*
X95100Y-25300D01*
X95800Y-24300D01*
X96300Y-23100D01*
X96400Y-21500D01*
X96300Y-19800D01*
X95800Y-18700D01*
X95100Y-17600D01*
X94400Y-17000D01*
X93400Y-16500D01*
X90800D01*
G01X105800D02*
X100700D01*
Y-26500D01*
X105800D01*
G01X92100Y-9100D02*
X96400D01*
G01X90700Y-12600D02*
X94200Y-2600D01*
X97700Y-12600D01*
G01X100700Y-21300D02*
X103800D01*
G01X102200Y-12600D02*
Y-2600D01*
X108600Y-12600D01*
Y-2600D01*
G01X109600Y-16500D02*
X112800Y-26500D01*
X116000Y-16500D01*
G01X120900Y-26500D02*
X123900D01*
G01X122400Y-16500D02*
Y-26500D01*
G01X113100Y-12600D02*
X116600Y-2600D01*
X120100Y-12600D01*
G01X114500Y-9100D02*
X118800D01*
G01X125000Y-2600D02*
Y-12600D01*
X130600D01*
G01X120900Y-16500D02*
X123900D01*
G01X112550Y73000D02*
G03I-300J0D01*
G01Y78750D02*
G03I-300J0D01*
G01X119550Y129250D02*
G03I-300J0D01*
G01X146550Y-66750D02*
G03I-300J0D01*
G01X145050Y-81000D02*
G03I-300J0D01*
G01X134800Y-17300D02*
X134000Y-16800D01*
X133100Y-16500D01*
X132100D01*
X131000Y-17000D01*
X130100Y-17800D01*
X129500Y-18800D01*
X129000Y-20400D01*
X128800Y-22000D01*
X129100Y-23500D01*
X129500Y-24500D01*
X130200Y-25500D01*
X131100Y-26200D01*
X132000Y-26500D01*
X132900D01*
X133700Y-26200D01*
X134500Y-25700D01*
X135200Y-25000D01*
G01X144200Y-16500D02*
X139100D01*
Y-26500D01*
X144200D01*
G01X139100Y-21300D02*
X142200D01*
G01X135200Y-8300D02*
Y-6900D01*
X135500Y-5600D01*
X136100Y-4400D01*
X136900Y-3400D01*
X137800Y-2800D01*
X139000Y-2600D01*
X140200Y-2800D01*
X141100Y-3400D01*
X141900Y-4400D01*
X142500Y-5600D01*
X142800Y-6900D01*
Y-8300D01*
X142500Y-9600D01*
X141900Y-10800D01*
X141100Y-11800D01*
X140200Y-12400D01*
X139000Y-12600D01*
X137800Y-12400D01*
X136900Y-11800D01*
X136000Y-10700D01*
X135500Y-9600D01*
X135200Y-8300D01*
G01X153100Y-3600D02*
X152300Y-2900D01*
X151200Y-2600D01*
X150200D01*
X149100Y-3100D01*
X148200Y-3800D01*
X147400Y-4800D01*
X146900Y-5800D01*
X146600Y-6900D01*
Y-8100D01*
X146800Y-9400D01*
X147400Y-10600D01*
X148200Y-11600D01*
X149100Y-12200D01*
X150600Y-12600D01*
X152000Y-12300D01*
X153000Y-11600D01*
X153800Y-10600D01*
Y-7600D01*
X151000D01*
G01X153400Y-17700D02*
X152600Y-16800D01*
X151700Y-16500D01*
X150800D01*
X149900Y-17000D01*
X149300Y-17800D01*
X149100Y-19000D01*
X149400Y-20200D01*
X150300Y-20800D01*
X151900Y-21200D01*
X153000Y-21800D01*
X153600Y-22800D01*
X153900Y-24000D01*
X153500Y-25200D01*
X152700Y-26000D01*
X151700Y-26500D01*
X150700D01*
X149600Y-26000D01*
X148600Y-25200D01*
G01X159550Y72750D02*
G03I-300J0D01*
G01X152300Y83250D02*
G03I-300J0D01*
G01X150300Y124250D02*
G03I-300J0D01*
M02*
